<svg xmlns="http://www.w3.org/2000/svg" width="104.551" height="51.301"><path d="M84.677.897h-.002L84.045.5l-.294.682h-.002l-1.515 3.529c-3.747-.4-7.985-.663-12.345-.771-.364-.009-.727-.017-1.094-.024l-.113-.002c-.739-.013-1.482-.022-2.229-.026h-.067c-.759-.005-1.519-.004-2.276.002h-.025c-.769.007-1.537.015-2.3.033h-.008c-.439.01-.876.02-1.313.033l-.443.012c-.8.026-1.596.057-2.384.095-16.58.785-30.73 3.908-40.81 8.4-5.04 2.249-9.068 4.839-11.874 7.682-2.805 2.84-4.4 5.968-4.452 9.233a11.826 11.826 0 0 0 1.289 5.535c1.404 2.767 3.858 5.074 7.027 7.003 4.757 2.893 11.15 4.955 18.262 6.375 7.114 1.42 14.947 2.191 22.57 2.461h.004c.151.004.303.008.455.01h.001c13.352.332 20.37-1.545 20.424-1.561a.631.631 0 0 0 .46-.717.646.646 0 0 0-.669-.54s-.34.017-.976.037c-1.904.065-6.415.179-11.978.041a185.497 185.497 0 0 1-8.479-.397c-12.388-.884-21.225-2.938-27.29-5.496h-8.358l2.466-3.198c-1.71-1.21-2.985-2.46-3.873-3.695-1.264-1.761-1.776-3.481-1.75-5.067.016-1.129.381-2.238 1.09-3.342 1.238-1.93 3.552-3.813 6.727-5.496 4.76-2.53 11.43-4.623 19.182-6.015 6.945-1.25 14.762-1.94 22.873-1.909l.566.004a133.853 133.853 0 0 1 17.437 1.261l-.65 1.517-1.58 3.672 1.337-.419h.002l24.565-8.17M82.502 6.866c-3.78-.42-8.153-.7-12.65-.811a177.901 177.901 0 0 0-4.382-.053c-2.644 0-5.257.059-7.72.174-8.479.401-16.108 1.408-22.807 2.809-7.373 1.542-13.722 3.179-20.879 6.646-4.536 2.197-7.626 4.599-9.507 6.339.473-.602.991-1.194 1.501-1.651 8.354-8 27.357-14.221 51.626-15.364 2.524-.119 5.136-.176 7.748-.176 5.993 0 12 .303 17.05.858l.744 1.31-.724-.081zm2.826-3.089l-.548-1.772 14.183 8.66-2.83-.372-10.805-6.516z" fill="#f16631"/><path d="M65.35 31.309c-.507-.478-1.39-1.153-3.589-1.372a8.444 8.444 0 0 0-.792-.036c-.7 0-2.905.091-4.683 1.149 0 0-.575.257-1.495.867-.337.225-.6.43-.814.607l-.073.032a5.419 5.419 0 0 1 1.3-1.515c1.684-1.373 3.525-1.778 5.65-1.785.395 0 .8.016 1.211.041 1.174.094 2.475.547 3.083.959.224.148.411.324.576.516-.063-.355-.128-.712-.19-1.066a.26.26 0 0 1-.013-.009c-.755-.502-2.108-.958-3.41-1.069-2.694-.17-5.163.119-7.33 1.893-1.962 1.604-2.058 3.457-2.058 3.457s1.728-1.186 3.982-1.684c2.514-.557 4.056.183 4.463 1.051.834 1.753-3.04 4.754-7.424 4.65-3.989-.094-5.372-2.02-4.984-3.877.68-3.264 4.802-4.923 4.802-4.923s-1.968-.793-1.178-2.518c.413-.734 1.546-1.851 3.756-1.97 3.92-.208 5.36 1.549 5.36 1.549s.808-2.404-1.242-4.344c-1.655-1.38-3.738-1.662-5.454-1.611-2.539.144-5.86 1.063-7.864 3.802-1.105 1.518-1.144 3.674-.645 5.147 0 0-2.447 1.188-3.83 3.301l.197 1.022.046-.098c.071-.14.15-.276.23-.408.04-.063.075-.131.117-.194a7.014 7.014 0 0 1 .633-.806l.114-.126c.237-.251.484-.485.733-.698a11.004 11.004 0 0 1 1.435-1.037c.385-.238.617-.349.617-.35l.536-.259-.19-.563a5.442 5.442 0 0 1-.273-1.736c0-.991.255-2.021.824-2.799 1.818-2.501 4.933-3.39 7.357-3.526.098-.002.214-.005.333-.005 1.553 0 3.29.32 4.655 1.462.918.878 1.135 1.844 1.154 2.584l-.052-.028a9.552 9.552 0 0 0-.272-.403c-.3-.416-.539-.658-.539-.658a3.168 3.168 0 0 0-.726-1.033c-1.043-.854-2.464-1.288-4.222-1.288-.103 0-.207.001-.31.005-1.422.083-4.888.571-6.857 3.265-.846 1.161-.834 2.865-.465 3.958a1.3 1.3 0 0 1-.664 1.588c-.034.017-3.272 1.666-3.917 4.196-.02.077-.035.147-.05.22.407 2.094.791 4.054 1.058 5.414 1.533 1.135 3.804 2.063 6.133 2.334 3.716.41 7.881-.162 10.845-1.434 2.527-1.079 4.733-2.893 5.753-5.006-.222-1.208-.479-2.624-.744-4.1a3.57 3.57 0 0 0-.604-.735m-3.313 4.271c-.625.991-1.762 1.916-3.197 2.602a11.364 11.364 0 0 1-4.863 1.109c-.085 0-.169-.002-.256-.004-2.603-.062-4.109-.83-4.973-1.617.556.246 1.247.41 2.032.498.813.307 1.8.488 2.95.5a10.715 10.715 0 0 0 5.704-1.516c.955-.599 1.73-1.283 2.161-2.063.418-.367.756-.744.983-1.123-.024.532-.2 1.077-.54 1.614" fill="#f16631"/><path d="M97.92 21.033c-2.189 0-3.337 1.065-3.749 1.821-.42.753-4.565 8.571-4.565 8.571s-.735-7.686-.85-8.601c-.157-1.161-1.268-1.792-2.483-1.792h-3.598c-1.3 0-2.557.382-3.38 1.834-.462.811-4.827 8.559-4.827 8.559s-1.178-7.577-1.358-8.381c-.18-.803-1.073-2.011-3.178-2.011h-5.947s.752 4.234 1.55 8.674l.19 1.065c.077.427.153.853.23 1.272.265 1.475.522 2.891.743 4.099.287 1.571.516 2.792.624 3.315.48 2.33 2.312 2.67 3.868 2.67h2.06c1.905 0 2.962-1.056 3.491-1.871.541-.819 4.725-7.543 4.725-7.543s.904 5.227 1.26 6.947c.352 1.725 1.984 2.467 3.548 2.467h3.015c1.488 0 3.17-1.217 3.866-2.408.692-1.19 10.896-18.688 10.896-18.688m-38.2 1.562l-1.057-.883h5.14c1.218.01 1.866.446 2.206.883h-6.29zm16.824 0c-1.03 0-1.596.292-2.022 1.045-.455.799-4.78 8.475-4.823 8.553a1.566 1.566 0 0 1-1.64.769 1.558 1.558 0 0 1-1.252-1.248h.92a.68.68 0 0 0 1.205.043c.003-.006 4.363-7.746 4.824-8.554.705-1.207 1.603-1.466 2.79-1.491h3.598c.851.016 1.481.352 1.714.883h-5.314zm18.66 0h-3.417c-1.774 0-2.318.903-2.375 1.006l-.006.014c-.408.73-4.512 8.466-4.552 8.543a1.559 1.559 0 0 1-2.91-.444h.918a.674.674 0 0 0 1.211.029c.004-.009 4.151-7.828 4.561-8.557.304-.545 1.197-1.468 3.152-1.474h4.951s-.002 0-.002.002l-1.532.881zM43.968 40.248a2714.186 2714.186 0 0 1-1.305-6.674l-.199-1.023c-.728-3.754-1.424-7.386-1.57-8.302a142.485 142.485 0 0 0-.57-3.215h-6.067c-3.078 0-5.393.947-6.922 2.87-.846 1.063-7.815 10.09-11.625 15.027l-2.467 3.198h9.327l2.17-2.715 8.423-.008.407 2.723h10.767l-.369-1.881m-16.526-5l4.293-6.039.866 6.012-5.159.027zm11.584-12.654H34.26c-2.613 0-4.479.748-5.7 2.282-.83 1.042-7.722 9.967-11.544 14.922l-.592.769-1.793.88h-.004l1.643-2.131 4.12-5.334c3.372-4.371 6.901-8.933 7.477-9.657 1.387-1.732 3.443-2.605 6.393-2.615h5.501l-.735.884z" fill="#523022"/></svg>