<svg xmlns="http://www.w3.org/2000/svg" width="250" height="75"><g fill="none" stroke="#000" stroke-linecap="round" stroke-linejoin="round"><path stroke-width=".555" d="M38.123 32.375c0 1.479-.988 2.838-2.839 3.825-1.48 0-2.344-.617-2.714-1.604-.371-1.111-.371-2.221 0-3.579.37-1.357.987-2.344 1.728-3.208.741-.987 1.728-1.111 2.715-.617.739 1.85 1.11 3.578 1.11 5.183M9 31.141v-2.962c.617-.37 2.098-.617 4.566-.494 2.344.124 3.455.988 3.332 2.345-.124 1.974-.864 3.332-2.592 3.949l-4.689.617C9.247 33.854 9 32.745 9 31.141"/><path stroke-width=".555" d="M22.204 26.945c-1.604-1.481-3.085-2.468-4.936-2.715l-6.17-.617-4.689-.247c-.37.124-.74.617-1.357 1.728-.123.123 0 2.098.124 5.8l1.481 25.173c.37 4.69.494 7.034.494 7.158l8.515.246 8.392-.617c2.591-.493 4.936-1.11 7.033-2.344 1.975-1.111 3.208-2.715 3.702-4.813.247-4.689-.741-8.144-3.455-10.242-2.468-2.221-5.307-3.702-8.515-4.319 1.357-1.357 2.098-2.468 2.221-3.455.124-.987.247-2.221.124-3.455-.62-3.332-1.607-5.677-2.964-7.281M50.339 42.864c-1.234.123-2.098-.247-2.468-1.358-.494-1.11-.494-2.098-.124-3.208.124-1.234.74-2.221 1.481-3.209.741-.863 1.604-1.11 2.468-.863.863 1.851 1.11 3.455 1.11 4.936.125.987-.74 2.221-2.467 3.702M72.058 27.562c-.617-2.221-1.357-3.825-2.098-4.566l-3.455-.123c-3.333 2.961-5.677 5.553-6.911 7.774-1.358 2.345-.494 5.43 2.961 9.625.74 1.481.74 2.962-.124 4.443l-2.714 4.319c-.741 1.234-1.234 2.468-.988 3.331 0 1.111 1.357 1.728 3.826 2.098l1.11.247c1.357-.864 2.345-1.851 3.208-3.455.741-1.234 1.357-2.838 1.975-5.06 1.11-3.825.37-7.157-1.975-10.118-1.11-1.851-.74-3.579.988-5.06 1.482-1.357 2.839-2.591 4.197-3.455"/><path stroke-width=".555" d="M58.113 38.298c0-1.481-.494-3.085-1.48-4.689l-3.333-4.69c-2.468-1.727-4.689-1.479-6.54.864-1.851 2.345-2.962 4.936-3.456 7.898-.494 2.961 0 5.553 1.234 7.774.617 1.111 1.851 1.851 3.702 2.098 1.728.247 3.332 0 4.813-.741 1.604-.617 2.838-1.851 3.702-3.578.865-1.481 1.235-3.085 1.358-4.936M13.072 49.157l-1.357-.617-.494-2.468v-2.221l2.715-.617 4.442-.247 4.195.864c1.358.37 2.221.987 2.592 1.974-.247 1.358-.617 2.345-1.481 2.838-.987.617-1.975.988-3.208.988l-3.825-.124-3.579-.37M32.199 22.625c-2.097 2.098-3.331 4.813-3.948 8.144-.741 3.209-.371 6.047.863 8.638.617 1.234 1.728 1.975 3.456 2.345 1.48.37 3.085.247 4.565-.37 1.358-.617 2.839-1.604 3.949-3.085 1.357-1.604 1.975-3.209 2.221-4.936.247-3.085-1.111-6.911-4.319-11.353-2.468-1.85-4.813-1.603-6.787.617"/><path stroke-width=".617" d="M79.955 21.269c-.617.37-.987.74-1.234 1.234l-.741 4.936-.124 1.727-.863 1.604-1.11-.37-1.234-.493c-.371 0-.864.246-1.481.617-.617.246-.864.617-1.234 1.11-1.11 1.975-1.481 3.332-1.234 3.949.124.74.617 1.111 1.234 1.111l2.221.123c.74-.123 1.357 0 1.604.494-.494 3.578-.617 6.17-.124 7.897.247 1.728 1.975 2.962 5.429 3.826l2.098-.494c1.111-.494 1.728-.987 1.975-1.604.247-.617.123-1.358-.371-1.975l-1.11-1.479c-1.728-.617-2.715-1.481-3.085-2.468-.247-.988-.124-2.468.493-4.319l2.839-.247 2.097.247c1.481 0 2.345-.247 2.592-.617.617-.494.864-1.234.741-1.851l-.371-2.222c0-.246-.37-.246-.617-.246l-.987-.247-1.234-.124-2.344.124h-1.975l.617-2.962c.37-1.357.617-2.221.864-2.838.37-.494.37-.864.247-.987l-1.11-1.481c-.37-.123-.617-.494-.741-1.234l-.494-.987-1.233.246M93.406 32.868c-2.098 1.728-3.579 3.826-4.442 5.8-.987 2.098-1.357 4.196-1.234 6.292.124 1.975.864 3.826 2.222 5.43.494.74 1.728 1.481 3.332 2.468 1.481.617 2.468.987 2.715.987.494.124.987-.123 1.481-.617l.617-.987-.494-1.357-.37-1.605-1.111-1.11-1.357-.741a1.955 1.955 0 0 1-.987-1.234c-.371-.493-.494-1.234-.247-2.344l6.17-2.838 1.234-.864c.124-3.332-.493-5.677-1.851-7.034-1.483-1.233-3.334-1.356-5.678-.246"/><path stroke-width=".617" d="M114.754 41.383l-1.111-2.098c-.617-.37-1.48-.123-2.468.37-.987.494-1.974 1.234-3.085 1.975l-2.591 2.221-1.481.864-.741-.988-.124-.863c-.123-.494-.37-.617-.617-.371l-2.221 1.728c-.617.494-.617 1.234-.37 2.468.74 1.111 1.234 2.221 1.357 3.579l.247 3.825c0 1.111.247 2.221.741 3.085.493.74 1.48 1.234 3.085 1.234l1.48-.123c1.111-.125 1.728-.617 1.851-1.234.124-1.111 0-2.715-.37-4.813-.247-1.604-.247-2.838.247-3.455 1.234-2.098 3.208-3.702 6.17-5.183.495-.494.495-1.234.001-2.221M97.601 36.694c.247.617 0 1.234-.74 2.097-.617.741-1.851 1.605-3.702 2.222-.617.246-.74-.617-.247-2.345.37-1.851.987-2.962 1.728-3.702l1.975.247c.616.247.986.864.986 1.481"/></g><g fill="none" stroke="#000" stroke-width="1.172" stroke-linecap="round" stroke-linejoin="round"><path d="M110.065 40.519l-2.592 2.221-1.357.864-.864-.987-.864-.864c-.74.494-1.604.864-2.221 1.234-.37.494-.617 1.357-.247 2.468.864 1.234 1.234 2.468 1.234 3.702l.247 3.825c.247 1.234.493 2.345.987 2.962.371.864 1.481 1.234 2.962 1.357l.987-.246c.247-.124.494-.371.617-.864-.123-3.579.37-6.417 1.604-8.638 1.234-1.975 3.332-3.702 6.17-4.936.494-.617.494-1.481 0-2.468l-.987-1.975c-.74-.246-1.604-.246-2.715.371-.863.37-1.851 1.11-2.961 1.974M98.095 33.731c.617.494.987.864 1.11 1.481.124.617-.124 1.357-.74 2.221-.741.864-2.098 1.481-3.826 2.221-.493.247-.74-.493-.247-2.344.37-1.851.987-3.085 1.851-3.702l1.852.123"/><path d="M94.887 31.511c-1.975 1.727-3.456 3.702-4.442 5.8-.864 2.097-1.357 4.195-1.234 6.293a11.09 11.09 0 0 0 2.221 5.43c1.357 1.604 3.332 2.714 5.8 3.455h.37l1.234-2.592c.124-.493.124-1.234-.123-2.097l-1.111-.988-1.234-.74-1.234-1.234c-.123-.617-.247-1.357-.123-2.345l6.293-2.838 1.111-.987c.123-3.208-.494-5.553-1.851-6.91-1.482-1.234-3.333-1.234-5.677-.247M80.696 21.392l-.741 4.936-.124 1.728-.74 1.604-2.838.37c-.74 0-1.481.123-2.344.494-.988 1.851-1.357 3.208-1.357 3.948.247.741.617.988 1.234 1.111h2.345c.74 0 1.357.247 1.604.617-.494 3.579-.494 6.047-.247 7.898.37 1.604 2.221 2.961 5.553 3.702.987 0 1.851-.617 2.345-2.098.617-1.481.74-2.468.124-3.332-1.481-.74-2.468-1.604-2.961-2.591-.247-.864-.124-2.345.493-4.319l2.838-.247 2.098.247c.617 0 .987-.247 1.234-.741l.37-2.838-.123-.37-.617-.864-.741-.37h-2.222l-1.974.123.987-4.319.37-2.098c.247-.863 0-1.604-.37-2.221-1.482-.741-2.839-.988-4.196-.37"/><path d="M68.232 21.762c-3.332 2.962-5.676 5.553-6.91 7.774-1.358 2.222-.37 5.43 2.961 9.626.864 1.604.74 3.085-.247 4.442L61.445 47.8c-.741 1.357-1.234 2.468-1.111 3.455.247.987 1.728 1.604 4.565 2.098 2.715-1.728 4.566-4.443 5.677-8.268 1.11-3.702.371-7.157-1.975-10.119-1.11-1.851-.74-3.455.988-5.059 1.728-1.605 3.085-2.715 4.195-3.456-.617-2.221-1.357-3.825-2.098-4.565l-3.454-.124M55.028 27.192c-.987-.741-2.097-1.111-3.208-.987-1.111.246-2.222.863-3.209 1.974-1.851 2.221-2.961 4.813-3.456 7.898-.493 3.085-.123 5.676 1.111 8.021 1.234 2.344 3.825 2.714 7.527 1.357 3.085-2.345 4.566-5.059 4.813-8.391.123-1.604-.247-3.455-.987-5.553s-1.603-3.455-2.591-4.319"/><path d="M53.547 32.745c.741 1.604 1.111 3.208 1.111 4.689s-.741 2.715-2.468 3.825c-1.357.124-2.221-.246-2.591-1.357-.37-.987-.494-2.221-.124-3.332.247-1.11.74-2.221 1.481-3.085.864-.987 1.728-1.11 2.591-.74M43.182 24.971c-.741-2.468-1.604-3.826-2.592-4.443-.987-.74-2.098-1.234-3.332-1.11-1.357 0-2.468.493-3.455 1.604-2.098 2.221-3.333 4.936-3.949 8.144-.617 3.209-.37 6.047.864 8.638 1.234 2.592 4.072 3.209 8.021 1.975 3.332-2.345 5.06-5.183 5.306-8.638.124-1.851-.123-3.827-.863-6.17"/><path d="M38.739 25.464c.617 1.975.987 3.579.987 5.183s-.987 2.962-2.838 3.949c-1.481 0-2.345-.617-2.715-1.728-.37-1.11-.37-2.221 0-3.578.247-1.234.864-2.345 1.851-3.085.741-.864 1.728-1.234 2.715-.741M18.996 22.503c-1.851-.494-3.949-.494-5.924-.125L6.655 23.49l.247 5.8 1.975 31.467.371.493.493.247 7.774.247 8.268-.494c2.838-.617 5.183-1.357 7.034-2.468 1.975-.987 3.208-2.715 3.702-4.812.371-4.566-.74-8.021-3.332-10.243-2.715-2.097-5.553-3.578-8.638-4.319 1.234-1.234 2.098-2.344 2.221-3.331.247-.988.247-2.098.247-3.579-.617-3.208-1.604-5.676-3.085-7.157-1.482-1.604-3.086-2.468-4.936-2.838"/><path d="M15.293 25.958c2.344.247 3.455.987 3.455 2.468-.124 1.851-.987 3.208-2.592 3.825l-4.936.741c-.246-.864-.37-2.098-.493-3.579s-.124-2.468.124-2.838c.617-.494 2.098-.617 4.442-.617M14.183 47.183c-.371-.124-.617-.247-.617-.371l-.617-2.344V42l2.715-.494 4.442-.123 4.195.74c1.234.494 2.098 1.111 2.592 1.975-.124 1.357-.617 2.468-1.481 2.961-.987.494-2.098.864-3.208.864l-3.826-.123-3.456-.371-.739-.246"/></g><path d="M114.754 43.604c.494-.494.494-1.234 0-2.221l-1.111-2.098c-.617-.37-1.48-.123-2.468.37-.987.494-1.974 1.234-3.085 1.975l-2.591 2.221-1.481.864-.741-.988-.124-.863c-.123-.494-.37-.617-.617-.371l-2.221 1.728c-.617.494-.617 1.234-.37 2.468.74 1.111 1.234 2.221 1.357 3.579l.247 3.825c0 1.111.247 2.221.741 3.085.493.74 1.48 1.234 3.085 1.234l1.48-.123c1.111-.125 1.728-.617 1.851-1.234.124-1.111 0-2.715-.37-4.813-.247-1.604-.247-2.838.247-3.455 1.235-2.098 3.209-3.702 6.171-5.183z"/><path d="M99.082 33.115c-1.481-1.234-3.332-1.357-5.676-.247-2.098 1.728-3.579 3.826-4.442 5.8-.987 2.098-1.357 4.196-1.234 6.292.124 1.975.864 3.826 2.222 5.43.494.74 1.728 1.481 3.332 2.468 1.481.617 2.468.987 2.715.987.494.124.987-.123 1.481-.617l.617-.987-.494-1.357-.37-1.605-1.111-1.11-1.357-.741a1.955 1.955 0 0 1-.987-1.234c-.371-.493-.494-1.234-.247-2.344l6.17-2.838 1.234-.864c.122-3.331-.495-5.676-1.853-7.033zm-4.442 1.851l1.975.247c.617.247.987.864.987 1.481.247.617 0 1.234-.74 2.097-.617.741-1.851 1.605-3.702 2.222-.617.246-.74-.617-.247-2.345.369-1.851.986-2.962 1.727-3.702zM81.683 22.009l-.494-.987-1.234.247c-.617.37-.987.74-1.234 1.234l-.741 4.936-.124 1.727-.863 1.604-1.11-.37-1.234-.493c-.371 0-.864.246-1.481.617-.617.246-.864.617-1.234 1.11-1.11 1.975-1.481 3.332-1.234 3.949.124.74.617 1.111 1.234 1.111l2.221.123c.74-.123 1.357 0 1.604.494-.494 3.578-.617 6.17-.124 7.897.247 1.728 1.975 2.962 5.429 3.826l2.098-.494c1.111-.494 1.728-.987 1.975-1.604.247-.617.123-1.358-.371-1.975l-1.11-1.479c-1.728-.617-2.715-1.481-3.085-2.468-.247-.988-.124-2.468.493-4.319l2.839-.247 2.097.247c1.481 0 2.345-.247 2.592-.617.617-.494.864-1.234.741-1.851l-.371-2.222c0-.246-.37-.246-.617-.246l-.987-.247-1.234-.124-2.344.124h-1.975l.617-2.962c.37-1.357.617-2.221.864-2.838.37-.494.37-.864.247-.987l-1.11-1.481c-.37-.124-.617-.495-.74-1.235z"/><path d="M67.862 31.017c1.48-1.357 2.838-2.591 4.195-3.455-.617-2.221-1.357-3.825-2.098-4.566l-3.455-.123c-3.333 2.961-5.677 5.553-6.911 7.774-1.358 2.345-.494 5.43 2.961 9.625.74 1.481.74 2.962-.124 4.443l-2.714 4.319c-.741 1.234-1.234 2.468-.988 3.331 0 1.111 1.357 1.728 3.826 2.098l1.11.247c1.357-.864 2.345-1.851 3.208-3.455.741-1.234 1.357-2.838 1.975-5.06 1.11-3.825.37-7.157-1.975-10.118-1.108-1.851-.738-3.579.99-5.06zM56.756 43.234c.864-1.481 1.234-3.085 1.357-4.936 0-1.481-.494-3.085-1.48-4.689l-3.333-4.69c-2.468-1.727-4.689-1.479-6.54.864-1.851 2.345-2.962 4.936-3.456 7.898-.494 2.961 0 5.553 1.234 7.774.617 1.111 1.851 1.851 3.702 2.098 1.728.247 3.332 0 4.813-.741 1.605-.617 2.839-1.852 3.703-3.578zm-9.008-4.936c.124-1.234.74-2.221 1.481-3.209.741-.863 1.604-1.11 2.468-.863.863 1.851 1.11 3.455 1.11 4.936.124.987-.741 2.221-2.468 3.702-1.234.123-2.098-.247-2.468-1.358-.494-1.11-.494-2.098-.123-3.208zM38.986 22.009c-2.468-1.851-4.813-1.604-6.787.617-2.097 2.098-3.331 4.813-3.948 8.144-.741 3.209-.371 6.047.863 8.638.617 1.234 1.728 1.975 3.456 2.345 1.48.37 3.085.247 4.565-.37 1.358-.617 2.839-1.604 3.949-3.085 1.357-1.604 1.975-3.209 2.221-4.936.247-3.085-1.111-6.911-4.319-11.353zm-6.417 12.587c-.371-1.111-.371-2.221 0-3.579.37-1.357.987-2.344 1.728-3.208.741-.987 1.728-1.111 2.715-.617.74 1.851 1.11 3.578 1.11 5.183 0 1.479-.988 2.838-2.839 3.825-1.479 0-2.344-.617-2.714-1.604z"/><path d="M25.166 34.226c-.617-3.332-1.604-5.677-2.961-7.281-1.604-1.481-3.085-2.468-4.936-2.715l-6.17-.617-4.689-.247c-.37.124-.74.617-1.357 1.728-.123.123 0 2.098.124 5.8l1.481 25.173c.37 4.69.494 7.034.494 7.158l8.515.246 8.392-.617c2.591-.493 4.936-1.11 7.033-2.344l2.468-2.098c.617-.864.987-1.728 1.234-2.715.247-4.689-.741-8.144-3.455-10.242-2.468-2.221-5.307-3.702-8.515-4.319 1.357-1.357 2.098-2.468 2.221-3.455.121-.987.244-2.221.121-3.455zm-15.549.37C9.247 33.854 9 32.745 9 31.141v-2.962c.37-.123.864-.37 1.604-.37l2.962-.124c2.344.124 3.455.988 3.332 2.345l-.37 2.098c-.494.864-1.234 1.481-2.222 1.851l-4.689.617zm7.034 14.931l-3.579-.37-1.357-.617-.494-2.468v-2.221l1.728-.494.987-.123 4.442-.247 4.195.864c1.358.37 2.221.987 2.592 1.974l-.371 1.604-1.11 1.234c-.987.617-1.975.988-3.208.988l-3.825-.124z"/><g><g fill="#4C1C5A"><path d="M113.026 38.545c-.863.37-1.851 1.11-2.961 1.974l-2.592 2.221-1.357.864-.864-.987-.864-.864c-.74.494-1.604.864-2.221 1.234-.37.494-.617 1.357-.247 2.468.864 1.234 1.234 2.468 1.234 3.702l.247 3.825c.247 1.234.493 2.345.987 2.962.371.864 1.481 1.234 2.962 1.357l.987-.246c.247-.124.494-.371.617-.864-.123-3.579.37-6.417 1.604-8.638 1.234-1.975 3.332-3.702 6.17-4.936.494-.617.494-1.481 0-2.468l-.987-1.975c-.74-.246-1.604-.246-2.715.371zM100.563 31.758c-1.481-1.234-3.332-1.234-5.677-.247-1.975 1.727-3.456 3.702-4.442 5.8-.864 2.097-1.357 4.195-1.234 6.293a11.09 11.09 0 0 0 2.221 5.43c1.357 1.604 3.332 2.714 5.8 3.455h.37l1.234-2.592c.124-.493.124-1.234-.123-2.097l-1.111-.988-1.234-.74-1.234-1.234c-.123-.617-.247-1.357-.123-2.345l6.293-2.838 1.111-.987c.123-3.208-.494-5.553-1.851-6.91zm-4.319 1.851l1.851.123c.617.494.987.864 1.11 1.481.124.617-.124 1.357-.74 2.221-.741.864-2.098 1.481-3.826 2.221-.493.247-.74-.493-.247-2.344.371-1.851.988-3.085 1.852-3.702zM85.261 23.982c.247-.863 0-1.604-.37-2.221-1.481-.74-2.838-.987-4.195-.37l-.741 4.936-.124 1.728-.74 1.604-2.838.37c-.74 0-1.481.123-2.344.494-.988 1.851-1.357 3.208-1.357 3.948.247.741.617.988 1.234 1.111h2.345c.74 0 1.357.247 1.604.617-.494 3.579-.494 6.047-.247 7.898.37 1.604 2.221 2.961 5.553 3.702.987 0 1.851-.617 2.345-2.098.617-1.481.74-2.468.124-3.332-1.481-.74-2.468-1.604-2.961-2.591-.247-.864-.124-2.345.493-4.319l2.838-.247 2.098.247c.617 0 .987-.247 1.234-.741.37-.493.37-1.604.247-3.208l-.617-.864-.741-.37h-2.222l-1.974.123.987-4.319.369-2.098z"/><path d="M71.687 21.886l-3.455-.124c-3.332 2.962-5.676 5.553-6.91 7.774-1.358 2.222-.37 5.43 2.961 9.626.864 1.604.74 3.085-.247 4.442L61.445 47.8c-.741 1.357-1.234 2.468-1.111 3.455.247.987 1.728 1.604 4.565 2.098 2.715-1.728 4.566-4.443 5.677-8.268 1.11-3.702.371-7.157-1.975-10.119-1.11-1.851-.74-3.455.988-5.059 1.728-1.605 3.085-2.715 4.195-3.456-.616-2.222-1.356-3.826-2.097-4.565zM57.62 31.511c-.741-2.098-1.604-3.455-2.592-4.319-.987-.741-2.097-1.111-3.208-.987-1.111.246-2.222.863-3.209 1.974-1.851 2.221-2.961 4.813-3.456 7.898-.493 3.085-.123 5.676 1.111 8.021 1.234 2.344 3.825 2.714 7.527 1.357 3.085-2.345 4.566-5.059 4.813-8.391.124-1.604-.246-3.455-.986-5.553zm-6.664 1.974c.864-.987 1.728-1.11 2.591-.74.741 1.604 1.111 3.208 1.111 4.689s-.741 2.715-2.468 3.825c-1.357.124-2.221-.246-2.591-1.357-.37-.987-.494-2.221-.124-3.332.247-1.11.74-2.221 1.481-3.085zM44.045 31.141c.124-1.851-.124-3.826-.863-6.17-.741-2.468-1.604-3.826-2.592-4.443-.987-.74-2.098-1.234-3.332-1.11-1.357 0-2.468.493-3.455 1.604-2.098 2.221-3.333 4.936-3.949 8.144-.617 3.209-.37 6.047.864 8.638 1.234 2.592 4.072 3.209 8.021 1.975 3.332-2.345 5.06-5.183 5.306-8.638zm-7.156 3.455c-1.481 0-2.345-.617-2.715-1.728-.37-1.11-.37-2.221 0-3.578.247-1.234.864-2.345 1.851-3.085.741-.864 1.728-1.234 2.715-.741.617 1.975.987 3.579.987 5.183s-.988 2.962-2.838 3.949z"/><path d="M23.932 25.341c-1.481-1.604-3.085-2.468-4.936-2.838-1.851-.494-3.949-.494-5.924-.125L6.655 23.49l.247 5.8 1.975 31.467.371.493.493.247 7.774.247 8.268-.494c2.838-.617 5.183-1.357 7.034-2.468 1.975-.987 3.208-2.715 3.702-4.812.371-4.566-.74-8.021-3.332-10.243-2.715-2.097-5.553-3.578-8.638-4.319 1.234-1.234 2.098-2.344 2.221-3.331.247-.988.247-2.098.247-3.579-.618-3.208-1.605-5.676-3.085-7.157zm-13.081 1.234c.617-.494 2.098-.617 4.442-.617 2.344.247 3.455.987 3.455 2.468-.124 1.851-.987 3.208-2.592 3.825l-4.936.741c-.246-.864-.37-2.098-.493-3.579s-.123-2.468.124-2.838zm4.072 20.854l-.74-.246c-.371-.124-.617-.247-.617-.371l-.617-2.344V42l2.715-.494 4.442-.123 4.195.74c1.234.494 2.098 1.111 2.592 1.975-.124 1.357-.617 2.468-1.481 2.961-.987.494-2.098.864-3.208.864l-3.826-.123-3.455-.371z"/></g></g><g><g fill="none" stroke="#4C1C5A" stroke-width=".432" stroke-linecap="round" stroke-linejoin="round"><path d="M110.065 40.519l-2.592 2.221-1.357.864-.864-.987-.864-.864c-.74.494-1.604.864-2.221 1.234-.37.494-.617 1.357-.247 2.468.864 1.234 1.234 2.468 1.234 3.702l.247 3.825c.247 1.234.493 2.345.987 2.962.371.864 1.481 1.234 2.962 1.357l.987-.246c.247-.124.494-.371.617-.864-.123-3.579.37-6.417 1.604-8.638 1.234-1.975 3.332-3.702 6.17-4.936.494-.617.494-1.481 0-2.468l-.987-1.975c-.74-.246-1.604-.246-2.715.371-.863.37-1.851 1.11-2.961 1.974M98.095 33.731c.617.494.987.864 1.11 1.481.124.617-.124 1.357-.74 2.221-.741.864-2.098 1.481-3.826 2.221-.493.247-.74-.493-.247-2.344.37-1.851.987-3.085 1.851-3.702l1.852.123"/><path d="M94.887 31.511c-1.975 1.727-3.456 3.702-4.442 5.8-.864 2.097-1.357 4.195-1.234 6.293a11.09 11.09 0 0 0 2.221 5.43c1.357 1.604 3.332 2.714 5.8 3.455h.37l1.234-2.592c.124-.493.124-1.234-.123-2.097l-1.111-.988-1.234-.74-1.234-1.234c-.123-.617-.247-1.357-.123-2.345l6.293-2.838 1.111-.987c.123-3.208-.494-5.553-1.851-6.91-1.482-1.234-3.333-1.234-5.677-.247M84.891 21.762c-1.481-.74-2.838-.987-4.195-.37l-.741 4.936-.124 1.728-.74 1.604-2.838.37c-.74 0-1.481.123-2.344.494-.988 1.851-1.357 3.208-1.357 3.948.247.741.617.988 1.234 1.111h2.345c.74 0 1.357.247 1.604.617-.494 3.579-.494 6.047-.247 7.898.37 1.604 2.221 2.961 5.553 3.702.987 0 1.851-.617 2.345-2.098.617-1.481.74-2.468.124-3.332-1.481-.74-2.468-1.604-2.961-2.591-.247-.864-.124-2.345.493-4.319l2.838-.247 2.098.247c.617 0 .987-.247 1.234-.741.37-.493.37-1.604.247-3.208l-.617-.864-.741-.37h-2.222l-1.974.123.987-4.319.37-2.098c.246-.863-.001-1.605-.371-2.221"/><path d="M68.232 21.762c-3.332 2.962-5.676 5.553-6.91 7.774-1.358 2.222-.37 5.43 2.961 9.626.864 1.604.74 3.085-.247 4.442L61.445 47.8c-.741 1.357-1.234 2.468-1.111 3.455.247.987 1.728 1.604 4.565 2.098 2.715-1.728 4.566-4.443 5.677-8.268 1.11-3.702.371-7.157-1.975-10.119-1.11-1.851-.74-3.455.988-5.059 1.728-1.605 3.085-2.715 4.195-3.456-.617-2.221-1.357-3.825-2.098-4.565l-3.454-.124M55.028 27.192c-.987-.741-2.097-1.111-3.208-.987-1.111.246-2.222.863-3.209 1.974-1.851 2.221-2.961 4.813-3.456 7.898-.493 3.085-.123 5.676 1.111 8.021 1.234 2.344 3.825 2.714 7.527 1.357 3.085-2.345 4.566-5.059 4.813-8.391.123-1.604-.247-3.455-.987-5.553s-1.603-3.455-2.591-4.319"/><path d="M53.547 32.745c.741 1.604 1.111 3.208 1.111 4.689s-.741 2.715-2.468 3.825c-1.357.124-2.221-.246-2.591-1.357-.37-.987-.494-2.221-.124-3.332.247-1.11.74-2.221 1.481-3.085.864-.987 1.728-1.11 2.591-.74M43.182 24.971c-.741-2.468-1.604-3.826-2.592-4.443-.987-.74-2.098-1.234-3.332-1.11-1.357 0-2.468.493-3.455 1.604-2.098 2.221-3.333 4.936-3.949 8.144-.617 3.209-.37 6.047.864 8.638 1.234 2.592 4.072 3.209 8.021 1.975 3.332-2.345 5.06-5.183 5.306-8.638.124-1.851-.123-3.827-.863-6.17"/><path d="M34.173 32.868c-.37-1.11-.37-2.221 0-3.578.247-1.234.864-2.345 1.851-3.085.741-.864 1.728-1.234 2.715-.741.617 1.975.987 3.579.987 5.183s-.987 2.962-2.838 3.949c-1.481 0-2.344-.617-2.715-1.728M33.557 58.412c1.604-1.111 2.591-2.468 2.961-4.442.371-4.566-.74-8.021-3.332-10.243-2.715-2.097-5.553-3.578-8.638-4.319 1.234-1.234 2.098-2.344 2.221-3.331.247-.988.247-2.098.247-3.579-.617-3.208-1.604-5.676-3.085-7.157-1.481-1.604-3.085-2.468-4.936-2.838-1.851-.494-3.949-.494-5.924-.125L7.149 23.49"/><path d="M16.157 32.25l-4.936.741c-.246-.864-.37-2.098-.493-3.579l-.124-1.604M24.795 47.429l-2.591.494-3.826-.123-3.456-.371-.74-.246c-.371-.124-.617-.247-.617-.371l-.617-2.344v-1.111"/></g></g><g><g fill="#4C1C5A"><path d="M113.026 38.545c-.863.37-1.851 1.11-2.961 1.974l-2.592 2.221-1.357.864-.864-.987-.864-.864c-.74.494-1.604.864-2.221 1.234-.37.494-.617 1.357-.247 2.468.864 1.234 1.234 2.468 1.234 3.702l.247 3.825c.247 1.234.493 2.345.987 2.962.371.864 1.481 1.234 2.962 1.357l.987-.246c.247-.124.494-.371.617-.864-.123-3.579.37-6.417 1.604-8.638 1.234-1.975 3.332-3.702 6.17-4.936.494-.617.494-1.481 0-2.468l-.987-1.975c-.74-.246-1.604-.246-2.715.371zM100.563 31.758c-1.481-1.234-3.332-1.234-5.677-.247-1.975 1.727-3.456 3.702-4.442 5.8-.864 2.097-1.357 4.195-1.234 6.293a11.09 11.09 0 0 0 2.221 5.43c1.357 1.604 3.332 2.714 5.8 3.455h.37l1.234-2.592c.124-.493.124-1.234-.123-2.097l-1.111-.988-1.234-.74-1.234-1.234c-.123-.617-.247-1.357-.123-2.345l6.293-2.838 1.111-.987c.123-3.208-.494-5.553-1.851-6.91zm-4.319 1.851l1.851.123c.617.494.987.864 1.11 1.481.124.617-.124 1.357-.74 2.221-.741.864-2.098 1.481-3.826 2.221-.493.247-.74-.493-.247-2.344.371-1.851.988-3.085 1.852-3.702zM85.261 23.982c.247-.863 0-1.604-.37-2.221-1.481-.74-2.838-.987-4.195-.37l-.741 4.936-.124 1.728-.74 1.604-2.838.37c-.74 0-1.481.123-2.344.494-.988 1.851-1.357 3.208-1.357 3.948.247.741.617.988 1.234 1.111h2.345c.74 0 1.357.247 1.604.617-.494 3.579-.494 6.047-.247 7.898.37 1.604 2.221 2.961 5.553 3.702.987 0 1.851-.617 2.345-2.098.617-1.481.74-2.468.124-3.332-1.481-.74-2.468-1.604-2.961-2.591-.247-.864-.124-2.345.493-4.319l2.838-.247 2.098.247c.617 0 .987-.247 1.234-.741.37-.493.37-1.604.247-3.208l-.617-.864-.741-.37h-2.222l-1.974.123.987-4.319.369-2.098z"/><path d="M71.687 21.886l-3.455-.124c-3.332 2.962-5.676 5.553-6.91 7.774-1.358 2.222-.37 5.43 2.961 9.626.864 1.604.74 3.085-.247 4.442L61.445 47.8c-.741 1.357-1.234 2.468-1.111 3.455.247.987 1.728 1.604 4.565 2.098 2.715-1.728 4.566-4.443 5.677-8.268 1.11-3.702.371-7.157-1.975-10.119-1.11-1.851-.74-3.455.988-5.059 1.728-1.605 3.085-2.715 4.195-3.456-.616-2.222-1.356-3.826-2.097-4.565zM57.62 31.511c-.741-2.098-1.604-3.455-2.592-4.319-.987-.741-2.097-1.111-3.208-.987-1.111.246-2.222.863-3.209 1.974-1.851 2.221-2.961 4.813-3.456 7.898-.493 3.085-.123 5.676 1.111 8.021 1.234 2.344 3.825 2.714 7.527 1.357 3.085-2.345 4.566-5.059 4.813-8.391.124-1.604-.246-3.455-.986-5.553zm-6.664 1.974c.864-.987 1.728-1.11 2.591-.74.741 1.604 1.111 3.208 1.111 4.689s-.741 2.715-2.468 3.825c-1.357.124-2.221-.246-2.591-1.357-.37-.987-.494-2.221-.124-3.332.247-1.11.74-2.221 1.481-3.085zM44.045 31.141c.124-1.851-.124-3.826-.863-6.17-.741-2.468-1.604-3.826-2.592-4.443-.987-.74-2.098-1.234-3.332-1.11-1.357 0-2.468.493-3.455 1.604-2.098 2.221-3.333 4.936-3.949 8.144-.617 3.209-.37 6.047.864 8.638 1.234 2.592 4.072 3.209 8.021 1.975 3.332-2.345 5.06-5.183 5.306-8.638zm-8.021-4.936c.741-.864 1.728-1.234 2.715-.741.617 1.975.987 3.579.987 5.183s-.987 2.962-2.838 3.949c-1.481 0-2.345-.617-2.715-1.728-.37-1.11-.37-2.221 0-3.578.247-1.234.865-2.345 1.851-3.085z"/><path d="M23.932 25.341c-1.481-1.604-3.085-2.468-4.936-2.838-1.851-.494-3.949-.494-5.924-.125L6.655 23.49l.247 5.8 1.481 25.173.37 7.281h8.761l8.268-.494c2.838-.617 5.183-1.357 7.034-2.468 1.975-.987 3.208-2.715 3.702-4.812.371-4.566-.74-8.021-3.332-10.243-2.715-2.097-5.553-3.578-8.638-4.319 1.234-1.234 2.098-2.344 2.221-3.331.247-.988.247-2.098.247-3.579-.617-3.208-1.604-5.676-3.084-7.157zm-12.711 7.651c-.246-.864-.37-2.098-.493-3.579s-.124-2.468.124-2.838c.617-.494 2.098-.617 4.442-.617 2.344.247 3.455.987 3.455 2.468-.124 1.851-.987 3.208-2.592 3.825l-4.936.741zm3.702 14.437l-.74-.246c-.371-.124-.617-.247-.617-.371l-.617-2.344V42l2.715-.494 4.442-.123 4.195.74c1.234.494 2.098 1.111 2.592 1.975-.124 1.357-.617 2.468-1.481 2.961-.987.494-2.098.864-3.208.864l-3.826-.123-3.455-.371z"/></g></g><g><g fill="none" stroke="#000" stroke-width=".555" stroke-linecap="round" stroke-linejoin="round"><path d="M236.362 38.411c.247.617.247 1.234-.123 2.098-.371.741-1.357 1.604-2.962 2.592-.37.246-.74-.494-.863-2.222-.124-1.851.124-3.085.617-3.702h1.851c.74.124 1.11.494 1.48 1.234M223.528 27.922v-2.714c-1.234-.247-2.838 0-4.319.863-1.728.864-3.085 2.098-4.072 3.702-1.975 3.332-3.332 7.404-3.949 12.094-.494 4.195.123 7.897 1.851 11.106.741 1.604 2.222 2.591 4.566 3.455 1.851.617 3.702.74 5.306.493 1.234-.246 1.851-.37 2.098-.617l.247-1.11.124-2.221c-.124-1.234-.741-2.098-1.851-2.468-4.195-1.851-6.046-3.826-5.43-6.047.617-1.974 2.468-3.949 5.677-6.047.493-.863.493-2.838-.247-6.046-.247-1.111-.247-2.592-.001-4.443M206.376 21.752c-.617-.123-1.234.247-1.975.988-.864.863-1.358 1.479-1.728 2.344-.617 1.358-.741 2.838-.741 4.443.124 1.604.494 2.961 1.234 3.948.247.371.988.617 1.975.617l2.221-.617c.987-.987 1.481-2.961 1.357-5.923-.122-2.961-.986-4.936-2.343-5.8M207.486 35.697c-.864-.371-2.468-.741-4.936-1.234-.37.123-.864.617-1.357 1.479-.617.864-.987 1.851-.987 2.468 0 1.481.124 3.332.494 5.553.371 2.345.74 4.196 1.11 5.677l.864 3.085c.493 0 1.234-.37 2.591-.987 1.357-.864 2.221-1.358 2.345-1.728l.493-6.91c.124-1.605.124-2.839-.124-3.949l.124-1.851c0-.863-.246-1.357-.617-1.603M195.27 27.676l-.864.246-.987 1.481c-.74 1.975-1.357 4.319-1.481 7.034-.246 2.838-.863 4.936-2.097 6.17-2.098 1.481-3.332 1.851-3.702 1.111-.371-.741-.371-1.851-.124-3.456l1.11-5.306.864-2.961c.246-1.234.37-1.851.124-2.222l-4.443.247-1.727 2.221c-.617.988-.988 1.975-1.111 2.715-.247 1.851-.494 3.702-.37 5.923v7.404c.741 3.826 2.221 5.307 4.072 4.69 1.975-.741 3.826-1.111 5.676-.864l.494 1.357.247.741.741.123 2.097-.123h3.702c.74-.124 1.111-.247 1.111-.617l-.247-1.234-.864-2.962c-.494-1.481-.864-2.591-.74-3.579.123-2.221.246-4.936.493-8.391.37-3.332.741-6.17 1.11-8.638-1.357-.74-2.467-1.11-3.084-1.11M166.271 20.025l-1.11.617-.494.617c.494 1.974 1.234 4.812 2.468 8.144.987 3.579 1.851 7.157 2.221 10.859.494 3.456.124 6.541-.74 9.379-.987 2.715-3.332 3.949-7.157 3.702-.371-.124-.741-.617-.617-1.481l-.124-1.604c-.247-.37-.864-.494-1.727-.617l-1.975.123c-.741.247-1.604 1.111-2.345 2.345-.864 1.357-1.234 2.221-1.11 2.838.123 1.357.74 2.345 2.098 3.332.864.617 2.344 1.357 4.442 1.851l2.221.37h2.345c2.468-.123 4.442-.617 5.923-1.728 1.111-.863 2.221-2.097 3.208-3.825 1.851-2.715 2.838-6.047 3.085-9.749.246-3.702 0-7.65-.617-11.723l-1.851-12.093c-.371-.493-.987-.864-2.098-1.11l-1.604-.494-1.728-.37c-.987 0-1.85.123-2.714.617"/><path d="M229.575 33.105l-2.221 4.196c-.617 1.357-.864 2.961-.864 4.812 0 1.358.247 2.839.617 4.69.371 1.727.987 3.085 1.604 4.319 1.11 2.221 2.961 4.072 5.06 5.429 1.604.987 3.825 1.481 7.033 1.604l1.111-.493c.74-.37 1.111-.741 1.234-1.234l-.37-2.098-.37-2.098-1.729-.864-1.604-.74c-.247 0-.37.247-.617.617l-.864.494c-.617-.124-1.234-.494-1.728-1.111-.617-.494-1.11-1.356-1.357-2.468l5.553-5.059 1.481-1.975.124-2.098c-.617-1.11-1.604-2.097-2.838-2.838l-3.208-1.357-3.085-1.975c-1.111-.617-2.098-.493-2.962.247"/></g><g fill="none" stroke="#000" stroke-width="1.172" stroke-linecap="round" stroke-linejoin="round"><path d="M236.732 38.658c-.371.987-1.357 1.851-2.838 2.592-.494.37-.74-.371-.987-2.222 0-1.727.124-2.838.617-3.578l1.851-.124c.74.247 1.234.617 1.481 1.234.37.617.247 1.234-.124 2.098M216.865 29.773c-1.975 3.332-3.208 7.034-3.702 11.106-.493 4.196 0 7.898 1.728 11.23.741 1.604 2.098 2.715 3.826 3.455 1.851.74 3.826.864 6.046.494l.494-1.358.371-1.974c.37-.617.493-1.111.493-1.604 0-.864-.37-1.358-.987-1.728-3.949-1.851-5.677-3.702-5.183-5.8.617-2.098 2.468-4.072 5.8-6.17.493-.864.37-2.838-.247-6.046-.741-3.085-1.234-5.06-1.728-5.924-2.592-.37-4.813.988-6.911 4.319M204.031 24.22c-.617 1.481-.864 2.962-.741 4.443 0 1.481.494 2.715 1.234 3.825l3.208.124c.987-1.358 1.48-3.209 1.234-5.553-.124-2.345-.864-4.073-2.222-5.06-1.232 0-2.096.741-2.713 2.221M209.584 38.041c-.247-.864-.864-1.481-1.851-1.974-1.234-.494-2.839-.864-5.06-1.234-.617.123-.741.864-.741 2.591l.494 5.553.864 5.677.987 2.961c.494.124 1.357-.247 2.715-.987l2.345-1.728c0-2.468.124-4.689.371-6.91.246-1.728.246-2.962-.124-3.949M198.725 26.688l-1.604.124-1.234.493c-.617.247-.987.371-1.11.617-.617 1.728-1.111 4.073-1.358 7.034-.124 2.838-.74 4.936-1.974 6.17-2.221 1.481-3.455 1.851-3.702 1.111-.494-.741-.494-1.975-.124-3.579l.987-5.183c.617-1.851.617-3.085 0-3.702l-4.442.247c-.864.617-1.481 1.851-1.728 3.455-.371 1.605-.493 3.579-.371 5.924v7.404c.741 3.702 2.098 5.306 4.073 4.689 1.851-.741 3.702-.987 5.553-.987l.37 1.727.247.987c.247.371.494.494 1.11.494l2.468-.123h2.591a17.272 17.272 0 0 1-.247-2.839l.124-6.416.494-8.393 1.11-8.638-1.233-.616M166.764 20.272c.371 1.48 1.234 4.195 2.468 8.267 1.11 3.949 1.851 7.404 2.222 10.736.494 3.702.247 6.787-.741 9.379-.987 2.591-3.332 3.948-7.157 3.825-1.234-.617-2.221-1.234-2.715-1.851-.617-.617-1.357-.74-2.344-.74-2.098 1.604-2.962 2.961-2.838 4.195.123 1.111.74 2.345 1.974 3.209 1.234.863 2.838 1.479 4.566 2.097l4.565.494c4.442-.987 7.404-2.962 9.255-5.8 1.728-2.838 2.715-6.046 2.961-9.872.371-3.455.124-7.404-.617-11.723l-1.851-11.97c-.37-.493-1.111-.987-2.098-1.11l-3.208-.247-2.961.37c-.988.247-1.481.494-1.481.741"/><path d="M229.698 33.475c-1.357 2.098-2.097 4.69-2.097 7.775 0 2.714.493 5.182 1.727 7.404 1.111 2.221 2.838 4.072 5.183 5.553 1.111.863 2.222 1.357 3.085 1.604l3.949.617 1.234-.124v-3.331c0-.864-.37-1.605-.987-2.222-.494-.37-.864-.617-1.604-.74l-1.975-.617-1.728-.987c-.494-.494-.987-1.481-1.357-2.592l5.553-4.936.741-1.479c-1.357-3.826-3.208-6.294-5.43-7.158l-3.578-.37c-1.358.369-2.222.863-2.716 1.603"/></g><path d="M232.537 32.858c-1.111-.617-2.098-.493-2.962.247l-2.221 4.196c-.617 1.357-.864 2.961-.864 4.812 0 1.358.247 2.839.617 4.69.371 1.727.987 3.085 1.604 4.319 1.11 2.221 2.961 4.072 5.06 5.429 1.604.987 3.825 1.481 7.033 1.604l1.111-.493c.74-.37 1.111-.741 1.234-1.234l-.37-2.098-.37-2.098-1.729-.864-1.604-.74c-.247 0-.37.247-.617.617l-.864.494c-.617-.124-1.234-.494-1.728-1.111-.617-.494-1.11-1.356-1.357-2.468l5.553-5.059 1.481-1.975.124-2.098c-.617-1.11-1.604-2.097-2.838-2.838l-3.208-1.357-3.085-1.975zm.493 4.319h1.851c.741.124 1.11.494 1.48 1.234.247.617.247 1.234-.123 2.098-.371.741-1.357 1.604-2.962 2.592-.37.246-.74-.494-.863-2.222-.123-1.851.124-3.085.617-3.702zM223.528 32.365c-.247-1.111-.247-2.592 0-4.443v-2.714c-1.234-.247-2.838 0-4.319.863-1.728.864-3.085 2.098-4.072 3.702-1.975 3.332-3.332 7.404-3.949 12.094-.494 4.195.123 7.897 1.851 11.106.741 1.604 2.222 2.591 4.566 3.455 1.851.617 3.702.74 5.306.493 1.234-.246 1.851-.37 2.098-.617l.247-1.11.124-2.221c-.124-1.234-.741-2.098-1.851-2.468-4.195-1.851-6.046-3.826-5.43-6.047.617-1.974 2.468-3.949 5.677-6.047.493-.863.493-2.838-.248-6.046zM208.72 27.552c-.124-2.961-.987-4.936-2.344-5.8-.617-.123-1.234.247-1.975.988-.864.863-1.358 1.479-1.728 2.344-.617 1.358-.741 2.838-.741 4.443.124 1.604.494 2.961 1.234 3.948.247.371.988.617 1.975.617l2.221-.617c.988-.987 1.482-2.961 1.358-5.923zM208.103 37.301c0-.864-.246-1.358-.617-1.604-.864-.371-2.468-.741-4.936-1.234-.37.123-.864.617-1.357 1.479-.617.864-.987 1.851-.987 2.468 0 1.481.124 3.332.494 5.553.371 2.345.74 4.196 1.11 5.677l.864 3.085c.493 0 1.234-.37 2.591-.987 1.357-.864 2.221-1.358 2.345-1.728l.493-6.91c.124-1.605.124-2.839-.124-3.949l.124-1.85zM198.354 28.786c-1.357-.74-2.468-1.11-3.085-1.11l-.864.246-.987 1.481c-.74 1.975-1.357 4.319-1.481 7.034-.246 2.838-.863 4.936-2.097 6.17-2.098 1.481-3.332 1.851-3.702 1.111-.371-.741-.371-1.851-.124-3.456l1.11-5.306.864-2.961c.246-1.234.37-1.851.124-2.222l-4.443.247-1.727 2.221c-.617.988-.988 1.975-1.111 2.715-.247 1.851-.494 3.702-.37 5.923v7.404c.741 3.826 2.221 5.307 4.072 4.69 1.975-.741 3.826-1.111 5.676-.864l.494 1.357.247.741.741.123 2.097-.123h3.702c.74-.124 1.111-.247 1.111-.617l-.247-1.234-.864-2.962c-.494-1.481-.864-2.591-.74-3.579.123-2.221.246-4.936.493-8.391.371-3.332.742-6.17 1.111-8.638zM168.985 19.408c-.987 0-1.851.123-2.715.617l-1.11.617-.494.617c.494 1.974 1.234 4.812 2.468 8.144.987 3.579 1.851 7.157 2.221 10.859.494 3.456.124 6.541-.74 9.379-.987 2.715-3.332 3.949-7.157 3.702-.371-.124-.741-.617-.617-1.481l-.124-1.604c-.247-.37-.864-.494-1.727-.617l-1.975.123c-.741.247-1.604 1.111-2.345 2.345-.864 1.357-1.234 2.221-1.11 2.838.123 1.357.74 2.345 2.098 3.332.864.617 2.344 1.357 4.442 1.851l2.221.37h2.345c2.468-.123 4.442-.617 5.923-1.728 1.111-.863 2.221-2.097 3.208-3.825 1.851-2.715 2.838-6.047 3.085-9.749.246-3.702 0-7.65-.617-11.723l-1.851-12.093c-.371-.493-.987-.864-2.098-1.11l-1.604-.494-1.727-.37z"/><g><g fill="#4C1C5A"><path d="M232.414 31.871c-1.358.37-2.222.864-2.715 1.604-1.357 2.098-2.097 4.69-2.097 7.775 0 2.714.493 5.182 1.727 7.404 1.111 2.221 2.838 4.072 5.183 5.553 1.111.863 2.222 1.357 3.085 1.604l3.949.617 1.234-.124v-3.331c0-.864-.37-1.605-.987-2.222-.494-.37-.864-.617-1.604-.74l-1.975-.617-1.728-.987c-.494-.494-.987-1.481-1.357-2.592l5.553-4.936.741-1.479c-1.357-3.826-3.208-6.294-5.43-7.158l-3.579-.371zm4.442 4.689c.37.617.247 1.234-.124 2.098-.371.987-1.357 1.851-2.838 2.592-.494.37-.74-.371-.987-2.222 0-1.727.124-2.838.617-3.578l1.851-.124c.74.247 1.234.617 1.481 1.234zM223.775 25.454c-2.592-.37-4.813.988-6.911 4.319-1.975 3.332-3.208 7.034-3.702 11.106-.493 4.196 0 7.898 1.728 11.23.741 1.604 2.098 2.715 3.826 3.455 1.851.74 3.826.864 6.046.494l.494-1.358.371-1.974c.37-.617.493-1.111.493-1.604 0-.864-.37-1.358-.987-1.728-3.949-1.851-5.677-3.702-5.183-5.8.617-2.098 2.468-4.072 5.8-6.17.493-.864.37-2.838-.247-6.046-.741-3.085-1.234-5.06-1.728-5.924zM206.746 21.999c-1.234 0-2.097.741-2.714 2.221-.617 1.481-.864 2.962-.741 4.443 0 1.481.494 2.715 1.234 3.825l3.208.124c.987-1.358 1.48-3.209 1.234-5.553-.123-2.345-.864-4.073-2.221-5.06zM209.708 41.99c.246-1.728.246-2.962-.124-3.949-.247-.864-.864-1.481-1.851-1.974-1.234-.494-2.839-.864-5.06-1.234-.617.123-.741.864-.741 2.591l.494 5.553.864 5.677.987 2.961c.494.124 1.357-.247 2.715-.987l2.345-1.728c0-2.468.124-4.689.371-6.91zM199.958 27.305l-1.234-.617-1.604.124-1.234.493c-.617.247-.987.371-1.11.617-.617 1.728-1.111 4.073-1.358 7.034-.124 2.838-.74 4.936-1.974 6.17-2.221 1.481-3.455 1.851-3.702 1.111-.494-.741-.494-1.975-.124-3.579l.987-5.183c.617-1.851.617-3.085 0-3.702l-4.442.247c-.864.617-1.481 1.851-1.728 3.455-.371 1.605-.493 3.579-.371 5.924v7.404c.741 3.702 2.098 5.306 4.073 4.689 1.851-.741 3.702-.987 5.553-.987l.37 1.727.247.987c.247.371.494.494 1.11.494l2.468-.123h2.591a17.272 17.272 0 0 1-.247-2.839l.124-6.416.494-8.393 1.111-8.637zM168.245 19.531c-.988.247-1.481.494-1.481.741.371 1.48 1.234 4.195 2.468 8.267 1.11 3.949 1.851 7.404 2.222 10.736.494 3.702.247 6.787-.741 9.379-.987 2.591-3.332 3.948-7.157 3.825-1.234-.617-2.221-1.234-2.715-1.851-.617-.617-1.357-.74-2.344-.74-2.098 1.604-2.962 2.961-2.838 4.195.123 1.111.74 2.345 1.974 3.209 1.234.863 2.838 1.479 4.566 2.097l4.565.494c4.442-.987 7.404-2.962 9.255-5.8 1.728-2.838 2.715-6.046 2.961-9.872.371-3.455.124-7.404-.617-11.723l-1.851-11.97c-.37-.493-1.111-.987-2.098-1.11l-3.208-.247-2.961.37z"/></g></g><g><g fill="none" stroke="#4C1C5A" stroke-width=".432" stroke-linecap="round" stroke-linejoin="round"><path d="M236.732 38.658c-.371.987-1.357 1.851-2.838 2.592-.494.37-.74-.371-.987-2.222 0-1.727.124-2.838.617-3.578l1.851-.124c.74.247 1.234.617 1.481 1.234.37.617.247 1.234-.124 2.098M216.865 29.773c-1.975 3.332-3.208 7.034-3.702 11.106-.493 4.196 0 7.898 1.728 11.23.741 1.604 2.098 2.715 3.826 3.455 1.851.74 3.826.864 6.046.494l.494-1.358.371-1.974c.37-.617.493-1.111.493-1.604 0-.864-.37-1.358-.987-1.728-3.949-1.851-5.677-3.702-5.183-5.8.617-2.098 2.468-4.072 5.8-6.17.493-.864.37-2.838-.247-6.046-.741-3.085-1.234-5.06-1.728-5.924-2.592-.37-4.813.988-6.911 4.319M204.031 24.22c-.617 1.481-.864 2.962-.741 4.443 0 1.481.494 2.715 1.234 3.825l3.208.124c.987-1.358 1.48-3.209 1.234-5.553-.124-2.345-.864-4.073-2.222-5.06-1.232 0-2.096.741-2.713 2.221M209.584 38.041c-.247-.864-.864-1.481-1.851-1.974-1.234-.494-2.839-.864-5.06-1.234-.617.123-.741.864-.741 2.591l.494 5.553.864 5.677.987 2.961c.494.124 1.357-.247 2.715-.987l2.345-1.728c0-2.468.124-4.689.371-6.91.246-1.728.246-2.962-.124-3.949M198.725 26.688l-1.604.124-1.234.493c-.617.247-.987.371-1.11.617-.617 1.728-1.111 4.073-1.358 7.034-.124 2.838-.74 4.936-1.974 6.17-2.221 1.481-3.455 1.851-3.702 1.111-.494-.741-.494-1.975-.124-3.579l.987-5.183c.617-1.851.617-3.085 0-3.702l-4.442.247c-.864.617-1.481 1.851-1.728 3.455-.371 1.605-.493 3.579-.371 5.924v7.404c.741 3.702 2.098 5.306 4.073 4.689 1.851-.741 3.702-.987 5.553-.987l.37 1.727.247.987c.247.371.494.494 1.11.494l2.468-.123h2.591a17.272 17.272 0 0 1-.247-2.839l.124-6.416.494-8.393 1.11-8.638-1.233-.616M166.764 20.272c.371 1.48 1.234 4.195 2.468 8.267 1.11 3.949 1.851 7.404 2.222 10.736.494 3.702.247 6.787-.741 9.379-.987 2.591-3.332 3.948-7.157 3.825-1.234-.617-2.221-1.234-2.715-1.851-.617-.617-1.357-.74-2.344-.74-2.098 1.604-2.962 2.961-2.838 4.195.123 1.111.74 2.345 1.974 3.209 1.234.863 2.838 1.479 4.566 2.097l4.565.494c4.442-.987 7.404-2.962 9.255-5.8 1.728-2.838 2.715-6.046 2.961-9.872.371-3.455.124-7.404-.617-11.723l-1.851-11.97c-.37-.493-1.111-.987-2.098-1.11l-3.208-.247-2.961.37c-.988.247-1.481.494-1.481.741"/><path d="M229.698 33.475c-1.357 2.098-2.097 4.69-2.097 7.775 0 2.714.493 5.182 1.727 7.404 1.111 2.221 2.838 4.072 5.183 5.553 1.111.863 2.222 1.357 3.085 1.604l3.949.617 1.234-.124v-3.331c0-.864-.37-1.605-.987-2.222-.494-.37-.864-.617-1.604-.74l-1.975-.617-1.728-.987c-.494-.494-.987-1.481-1.357-2.592l5.553-4.936.741-1.479c-1.357-3.826-3.208-6.294-5.43-7.158l-3.578-.37c-1.358.369-2.222.863-2.716 1.603"/></g></g><g><path fill="#4C1C5A" d="M232.414 31.871c-1.358.37-2.222.864-2.715 1.604-1.357 2.098-2.097 4.69-2.097 7.775 0 2.714.493 5.182 1.727 7.404 1.111 2.221 2.838 4.072 5.183 5.553 1.111.863 2.222 1.357 3.085 1.604l3.949.617 1.234-.124v-3.331c0-.864-.37-1.605-.987-2.222-.494-.37-.864-.617-1.604-.74l-1.975-.617-1.728-.987c-.494-.494-.987-1.481-1.357-2.592l5.553-4.936.741-1.479c-1.357-3.826-3.208-6.294-5.43-7.158l-3.579-.371zm4.442 4.689c.37.617.247 1.234-.124 2.098-.371.987-1.357 1.851-2.838 2.592-.494.37-.74-.371-.987-2.222 0-1.727.124-2.838.617-3.578l1.851-.124c.74.247 1.234.617 1.481 1.234z"/><path d="M240.681 45.939v.493h.494v1.481h.617v-1.481h.617v-.493h-1.728zM243.52 45.939h-.988v1.974h.617v-1.604l.247 1.604h.617l.37-1.604v1.604H245v-1.974h-.987l-.247 1.11-.246-1.11z"/><path fill="#4C1C5A" d="M223.775 25.454c-2.592-.37-4.813.988-6.911 4.319-1.975 3.332-3.208 7.034-3.702 11.106-.493 4.196 0 7.898 1.728 11.23.741 1.604 2.098 2.715 3.826 3.455 1.851.74 3.826.864 6.046.494l.494-1.358.371-1.974c.37-.617.493-1.111.493-1.604 0-.864-.37-1.358-.987-1.728-3.949-1.851-5.677-3.702-5.183-5.8.617-2.098 2.468-4.072 5.8-6.17.493-.864.37-2.838-.247-6.046-.741-3.085-1.234-5.06-1.728-5.924zM204.525 32.488l3.208.124c.987-1.358 1.48-3.209 1.234-5.553-.124-2.345-.864-4.073-2.222-5.06-1.234 0-2.097.741-2.714 2.221-.617 1.481-.864 2.962-.741 4.443.001 1.481.494 2.715 1.235 3.825zM209.708 41.99c.246-1.728.246-2.962-.124-3.949-.247-.864-.864-1.481-1.851-1.974-1.234-.494-2.839-.864-5.06-1.234-.617.123-.741.864-.741 2.591l.494 5.553.864 5.677.987 2.961c.494.124 1.357-.247 2.715-.987l2.345-1.728c0-2.468.124-4.689.371-6.91zM199.958 27.305l-1.234-.617-1.604.124-1.234.493c-.617.247-.987.371-1.11.617-.617 1.728-1.111 4.073-1.358 7.034-.124 2.838-.74 4.936-1.974 6.17-2.221 1.481-3.455 1.851-3.702 1.111-.494-.741-.494-1.975-.124-3.579l.987-5.183c.617-1.851.617-3.085 0-3.702l-4.442.247c-.864.617-1.481 1.851-1.728 3.455-.371 1.605-.493 3.579-.371 5.924v7.404c.741 3.702 2.098 5.306 4.073 4.689 1.851-.741 3.702-.987 5.553-.987l.37 1.727.247.987c.247.371.494.494 1.11.494l2.468-.123h2.591a17.272 17.272 0 0 1-.247-2.839l.124-6.416.494-8.393 1.111-8.637zM168.245 19.531c-.988.247-1.481.494-1.481.741.371 1.48 1.234 4.195 2.468 8.267 1.11 3.949 1.851 7.404 2.222 10.736.494 3.702.247 6.787-.741 9.379-.987 2.591-3.332 3.948-7.157 3.825-1.234-.617-2.221-1.234-2.715-1.851-.617-.617-1.357-.74-2.344-.74-2.098 1.604-2.962 2.961-2.838 4.195.123 1.111.74 2.345 1.974 3.209 1.234.863 2.838 1.479 4.566 2.097l4.565.494c4.442-.987 7.404-2.962 9.255-5.8 1.728-2.838 2.715-6.046 2.961-9.872.371-3.455.124-7.404-.617-11.723l-1.851-11.97c-.37-.493-1.111-.987-2.098-1.11l-3.208-.247-2.961.37z"/></g></g><g><path fill="#DF85B0" d="M158.351 11.51l1.234-.37c-1.851-.988-4.443-1.605-8.021-1.728h-1.974c2.468.247 4.813.74 6.91 1.604l.37.125 1.481.369zM158.104 14.718l3.826-.617c-.37-.37-1.728-.617-4.072-.987l-4.319-.247 3.826-1.11c-6.911-.124-12.463.37-16.289 1.48l4.072.247 3.702-.37 8.885.987-8.762 1.234.617.494 5.306-.494 3.208-.617z"/><path fill="#DF85B0" d="M156.993 16.322l-2.838-.987h.74l-5.306.494.864 1.234 6.54-.741zM157.24 16.446l-.247-.124-6.54.741.37.987 1.234-.123 1.728-.247 5.307-.617-1.852-.617zM156.87 11.14l-.37-.125-4.813-.37-8.021.74-.247.124-2.468 1.727h.124c3.826-1.11 9.378-1.604 16.289-1.48l.987-.247-1.481-.369z"/><path fill="#DF85B0" d="M151.687 10.646l4.813.37c-2.098-.864-4.442-1.356-6.91-1.604l-6.17.494 2.592.123.124.123c-.741.247-1.481.741-2.468 1.234l8.019-.74zM153.785 17.68l-1.728.247 8.145-.247-1.11-.617-5.307.617zM147.121 14.225l1.851 1.11 8.762-1.234-8.885-.987-3.702.37 1.974.741zM146.998 27.799l-.123.123 5.8-.247-4.936-.617h-.124l-.494.617-.123.124z"/><path fill="#DF85B0" d="M146.134 28.909l-.494.864 5.183.247.74-.247-1.11-.617a8.497 8.497 0 0 1 3.702-.864l-1.481-.617-5.8.247-.74.987z"/><path fill="#DF85B0" d="M150.823 30.02l-5.183-.247-.617 1.481-.123.864h.123c.864-.864 2.839-1.605 5.8-2.098zM145.023 32.118h-.123.123zM144.653 35.943l-.37 1.357 1.728.371 4.072 1.604h.124l1.481-.617c0-.247-.247-.617-.493-.987l-.247-.247-6.295-1.481zM144.036 38.041l-.37.864c2.098 0 3.949.37 5.43.987-1.111-.987-2.715-1.604-5.06-1.851z"/><path fill="#DF85B0" d="M144.283 37.3l-.247.741c2.345.247 3.949.864 5.06 1.851-1.481-.617-3.332-.987-5.43-.987l-.74.987c1.975.247 4.195.74 6.293 1.481l.987.246v-.123c-.37-.864-.987-1.357-1.48-1.357.247-.247.74-.494 1.357-.864l-4.072-1.604-1.728-.371zM144.777 33.969l-.124 1.974 6.293 1.481-.617-.37 1.234-.371 1.111-.246c0-.741-.617-1.481-2.098-2.098.617.617.247 1.357-1.111 2.221 1.357-.864 1.728-1.604 1.111-2.221l-1.111-.617-.37-.247-4.195-.37-.123.864zM144.9 32.364v.741l4.195.37-.494-.123a13.88 13.88 0 0 0-3.701-.988z"/><path fill="#DF85B0" d="M155.389 46.062c.247-.247-.987-.864-3.456-1.851l-1.11.247 1.11-.247-.863-.247-4.073-1.974c0-.247.371-.494 1.357-.371h1.851l-.987-.246a30.854 30.854 0 0 0-6.293-1.481l-.37.37c-1.357 1.234-2.962 1.728-4.813 1.234l-2.468.247-6.91.247 1.11.123 3.826.247c8.884.37 14.685 1.604 17.152 3.578l4.937.124z"/><path fill="#DF85B0" d="M144.653 45.075l-.37-.247 6.17 1.11c-2.468-1.974-8.268-3.208-17.152-3.578l-3.826-.247 2.591.494c1.851.246 3.208.617 3.949 1.11l-5.923-.493-6.047-.617.864-.247-1.728.247c-.864.37-1.357.863-1.851 1.234 2.715-.494 5.183-.247 7.28.987l9.132-.617 6.911.864zM144.653 48.53l-.124-1.111 1.357.247c-1.357-.617-3.208-1.111-5.553-1.481l-9.625-.493 4.196.617 7.527.987-8.885-.37.988.37h1.11c3.456.247 6.418.617 9.009 1.234z"/><path fill="#DF85B0" d="M144.653 50.134V48.53c-2.592-.617-5.553-.987-9.008-1.234h-1.11c1.357.617 2.838 1.481 4.565 2.344l2.715.988 1.604.246 1.975.371-.741-1.111z"/><path fill="#DF85B0" d="M141.198 50.504l.617.124-2.715-.988.741.371-4.196-1.111h-.124l-1.481-.123 2.098 1.357 1.357 1.111c2.468.37 4.689.863 6.54 1.48l-1.11-.987-1.727-1.234z"/><path fill="#DF85B0" d="M140.21 53.219h1.358l2.591-.123-.124-.371c-1.851-.617-4.072-1.11-6.54-1.48l1.604.74-4.319-1.234-3.455-.494-3.456-.246 2.838 2.221-1.604-.124-1.604-.246c.247 0 .864.493 1.851 1.357l.741.494.863.74.124.247c-.863-.617-2.345-1.234-4.319-1.728l.371.124-3.579-.988.494.494-.494-.494-.37-.123.617 1.728c2.221.246 3.949.863 4.813 1.604-.863-.741-2.591-1.358-4.813-1.604v.123l.247.494 1.728.863-1.728-.863.74.987c-.987 0-1.604-.247-2.098-.617l-.987-.987h-.494l1.357 1.974.617.617h2.098c1.48.247 2.591.617 3.331 1.111.494-.247 1.358-.247 2.468 0l3.085.37-1.851-.617-2.221-.864 2.221.864 1.851.617-1.851-2.592c.988 0 2.098.494 3.332 1.728l.617-.37c-1.604-1.604-3.208-2.221-4.689-1.975 1.481-.246 3.085.371 4.689 1.975l1.604-.617.371-.124-1.111-.863c-1.728-1.234-3.455-1.851-5.429-2.345 1.974.494 3.702 1.111 5.429 2.345l1.111.863 2.097-.617c0-.246-.246-.617-.74-1.11l-1.111-.741 1.729-.123c-2.714-1.728-5.182-2.591-7.65-2.221 2.468-.37 4.936.493 7.65 2.221zM145.887 47.666l2.098.494c-.247-.988-1.358-2.098-3.332-3.085l-6.911-.864-9.132.617 1.111.617.987.247 9.625.493c2.346.37 4.197.864 5.554 1.481z"/><path fill="#B71E4E" d="M132.93 37.671l-.494-.864-2.591.987-5.43 2.345 2.468.37 2.591-.125-2.961 1.358-1.604.617-.864.247 6.047.617 5.923.493c-.741-.493-2.098-.864-3.949-1.11l-2.591-.494-1.11-.123 6.91-.247 2.468-.247-.247-.123-1.234-.494-.617-.123-5.06-.247 3.579-.987-.617-.617-3.825.74c.37-.616 1.481-1.233 3.208-1.973z"/><path fill="#DF85B0" d="M132.93 37.671c-1.728.74-2.838 1.357-3.208 1.974l3.825-.74-.617-1.234zM134.411 39.645l-.247-.123-3.579.987 5.06.247.617.123-1.851-1.234z"/><path fill="#B71E4E" d="M134.535 47.296l-.988-.37 8.885.37-7.527-.987-4.196-.617-.987-.247-1.728-.617-.617-.247.371.37 1.234.741 2.221.863 1.728.494-.247.247-3.702.247-.494-.124-1.234-.37-1.974-1.234 1.234 1.357.74.371.617.246 1.604.617 1.851.617-4.195-.246-4.196-.741v-.123h-.37l.247.123 1.974 1.728.371.247 2.097 1.48-1.234.371h-.37l-1.851-.617c.494.74 1.481 1.234 2.962 1.727 1.974.494 3.456 1.111 4.319 1.728l-.124-.247-.863-.74-.741-.494c-.987-.864-1.604-1.357-1.851-1.357l1.604.246 1.604.124-2.838-2.221h-.123l-.987-.864h.617c1.604.123 3.579.493 5.924 1.11l1.48.494 4.319 1.234-1.604-.74-1.357-1.111-2.098-1.357a3.75 3.75 0 0 0-.863-.617l2.344.74h.124l4.196 1.111-.743-.371c-1.727-.863-3.208-1.727-4.565-2.344z"/><path fill="#DF85B0" d="M129.475 40.385l-2.591.125-2.468-.37 5.43-2.345c-3.332 1.111-6.664 2.468-10.242 4.072l6.417-1.11c-.37.246-1.11.74-2.221 1.357l-.617.494 1.728-.247 1.604-.617 2.96-1.359zM132.684 47.296l.247-.247-1.728-.494.124.124-4.073.37 1.234.37 4.196-.123z"/><path fill="#DF85B0" d="M128.487 47.419l.494.124 3.702-.247-4.196.123zM126.884 48.283l.247.494 4.195.246-1.851-.617-2.591-.123z"/><path fill="#DF85B0" d="M127.871 47.789l-.617-.246h-.617l.247.74 2.591.123-1.604-.617zM127.748 50.011h.123l3.456.246 3.455.494-1.48-.494c-2.345-.617-4.319-.987-5.924-1.11l.37.864zM133.177 48.16c.246.123.617.37.863.617l1.481.123-2.344-.74zM126.514 47.172h-.124l.247.371h.617l-.74-.371zM125.156 50.011h-.988l1.234 1.48.617.371 1.234-.371-2.097-1.48zM124.168 50.011h.988l-1.111-.124.123.124zM121.207 53.713h.494l-1.111-1.234.617 1.234z"/><path fill="#DF85B0" d="M126.02 51.862l-.617-.371.247.247v.124h.37zM123.182 56.304l.247.37c1.357.37 2.221.741 2.344 1.111-.124-.37-.987-.741-2.344-1.111.617.864.987 1.604 1.234 2.098l1.357.74-1.357-.74v.123l-4.566.124 1.975.123c.493.124 1.11.37 1.727.864-1.481.987-2.838 1.481-3.702 1.604 3.702 0 7.404-.74 10.859-2.221h-.123l-1.604-1.481-.987-.37.37-.123c-.74-.494-1.851-.864-3.331-1.111h-2.099z"/><path fill="#DF85B0" d="M120.097 61.61h-.247l1.111.617 1.357.617s-.37.247-.987.37l-.37.247-.617.494.863.987h1.11l4.319-1.111.617-.617-1.48-.37c-2.344 0-3.456-.247-3.208-.864-.247.617.864.864 3.208.864l-1.357-.37c0-.247 1.234-.494 3.579-.74 2.715-.247 4.195-.617 4.566-1.111.37-.37.494-.617.37-1.111l-1.975-.123a27.58 27.58 0 0 1-10.859 2.221z"/><path fill="#DF85B0" d="M120.22 63.831l.124.124.617-.494-.741.37zM126.39 64.078l.247-.247-4.319 1.111h-1.11l.124.247 1.234.123h.37l.371.617 2.344-1.234.739-.617z"/><path fill="#DF85B0" d="M125.402 64.942l.247-.247-2.344 1.234-.124.124-.247.74.247.247 4.442-.37c.987-.247 1.357-.494.987-.741l-.863-.247-1.851-.246 1.851.246-2.345-.74zM124.786 68.15l.124.372 1.11.123 1.234-.123c-.37-.247-.493-.494-.123-.741l.246-.247-2.591.616z"/><path fill="#DF85B0" d="M124.663 67.78l.123.37 2.591-.617 2.468-1.11-1.234-.494c.371.247 0 .494-.987.741l-4.442.37 1.481.74zM126.02 68.644l-1.11-.123-.124.493-.617.741 2.468.493c1.111-.123 1.728-.37 1.974-.987l-1.357.123h-1.604l1.604-.863-1.234.123z"/><path fill="#DF85B0" d="M127.253 69.384l1.357-.123v-.37l-1.357-.37-1.604.863h1.604zM126.76 17.556l.247-.246 2.715-1.975-2.961.617-2.838.741.987-1.728-.247.247a17.123 17.123 0 0 0-4.566 3.825l2.221.124-2.221-.124-2.098 2.468h.494-.494l-2.221 3.702 1.604-1.481.124-.123c1.973-2.098 5.058-4.072 9.254-6.047z"/><path fill="#DF85B0" d="M124.663 15.212l.247-.247.124-.123-.371.37zM119.109 22.369l-.124.247c2.468-1.851 4.443-3.085 6.047-3.702l.37-.124 1.358-1.234c-4.196 1.975-7.281 3.949-9.255 6.047l1.604-1.234z"/><path fill="#B71E4E" d="M118.862 22.616h.124l3.455-1.729-1.11 1.234-.987.741-1.604 1.604 1.234-.494 2.344-.74-3.332 2.591 1.358-.74 1.234-.494-.247.124-1.481 1.357-.74.864-1.481 1.357 1.481-.987 3.825-2.098v-1.481h-.123l.123-.246.617-1.481-.987.37.987-1.111.494-.37 1.357-2.098-.37.124c-1.604.617-3.579 1.851-6.047 3.702h-.124z"/><path fill="#DF85B0" d="M118.986 22.616l-.493.864 2.838-1.358 1.11-1.234-3.455 1.728z"/><path fill="#DF85B0" d="M118.739 24.467l1.604-1.604.987-.741-2.838 1.358c-.741 1.234-1.357 2.221-1.851 2.838l3.332-2.345-1.234.494zM122.564 22.369l.987-.37.247-.864-.247.123-.987 1.111z"/><path fill="#DF85B0" d="M123.798 21.135l.247-.247-.494.37.247-.123zM124.045 28.292l-.494-.617v-.37c-1.851 1.111-3.085 2.221-3.579 3.208l1.357-.246 2.716-1.975zM121.824 31.871l1.481-.37-3.085 2.961 6.417-3.455c-.617-.37-1.234-.864-1.604-1.357l-3.949 1.357-.987 1.357 1.727-.493z"/><path fill="#DF85B0" d="M121.331 30.267l.124.123-.371.617 3.949-1.357-.987-1.358-2.715 1.975z"/><path fill="#B71E4E" d="M125.526 32.858l1.111-.37.124-.125 1.851-.493-.987-.37-2.099 1.358z"/><path fill="#DF85B0" d="M126.39 35.943a12.071 12.071 0 0 0-1.975 2.591c2.591-1.11 5.183-1.974 7.774-2.344l-.863-1.851-2.222.617-2.344 1.234.617-.617-.987.37z"/><path fill="#DF85B0" d="M131.326 34.339l-.371-.37-1.851.987 2.222-.617z"/><path fill="#B71E4E" d="M130.956 33.969l-.494-.864-.124-.124-2.961 2.592-.617.617 2.344-1.234 1.852-.987z"/><path fill="#DF85B0" d="M128.241 32.735l1.604-.247-.37-.37-.864-.247-1.851.493-.124.125 1.605.246z"/><path fill="#DF85B0" d="M129.845 32.488l-1.604.247 1.728.37-2.962 2.221-.617.617.987-.37 2.961-2.592-.493-.493z"/><path fill="none" stroke="#000" stroke-width=".555" stroke-linecap="round" stroke-linejoin="round" d="M156.87 11.14l1.481.37.987.247h-1.974c-6.911-.124-12.463.37-16.289 1.48M123.182 67.04l4.442-.37c.987-.247 1.357-.494.987-.741l-.863-.247-1.851-.246M143.666 11.386l8.021-.74 4.813.37M160.942 18.914c2.838-1.604 2.221-2.221-1.851-1.851l-5.307.617-1.728.247-1.234.123M150.7 21.135c3.456-.247 7.034-.247 10.859-.123-1.234-.741-3.825-1.234-7.897-1.481l-2.838-.247M150.453 17.063l6.54-.741 3.579-.37-5.676-.617-5.307.494M145.146 13.484l3.703-.37 8.885.987-8.762 1.234M152.798 32.981c5.183-1.48 4.813-2.344-1.358-2.961h-.617l-5.183-.247M148.602 33.352c-.987-.617-2.221-1.111-3.579-1.234h-.123M149.466 36.56c1.357-.864 1.728-1.604 1.111-2.221l-.741-.617-.74-.247-4.195-.37M150.577 39.645l-.494-.37-4.072-1.604-1.728-.371M154.525 38.905l-3.578-1.481-6.294-1.481M147.738 27.058c3.332-.123 6.417.124 9.131.987l-4.195-.37-5.8.247M156.5 26.565c3.702-1.728 2.221-2.345-4.813-1.481l-3.085.37M149.466 24.097l6.17-.371-5.8-.493M150.823 44.458l1.11-.247c2.468-.617 1.975-1.481-1.728-2.592l-.987-.246a30.854 30.854 0 0 0-6.293-1.481M139.964 55.934c1.234.123 1.974-.124 1.851-.741 0-.493-.493-1.11-1.481-1.851l-.124-.123c-2.714-1.728-5.182-2.591-7.65-2.221M130.709 45.692l9.625.493c2.345.37 4.196.864 5.553 1.481 2.098.864 3.332 1.851 3.702 3.208-1.234-.863-2.962-1.727-4.936-2.344-2.592-.617-5.553-.987-9.008-1.234h-1.11M137.496 51.245c2.468.37 4.689.863 6.54 1.48 1.11.494 2.098.988 2.838 1.481-1.234-1.604-2.962-2.715-5.06-3.578l-2.714-.988"/><path fill="none" stroke="#000" stroke-width=".555" stroke-linecap="round" stroke-linejoin="round" d="M129.475 42.113l3.826.247c8.884.37 14.685 1.604 17.152 3.578.741.494 1.234.988 1.357 1.728-1.851-1.234-4.196-1.974-7.157-2.591l-6.911-.864-9.132.617h-.617M143.666 38.905c2.098 0 3.949.37 5.43.987-1.11-.987-2.715-1.604-5.06-1.851M124.909 14.965l-.247.247c-1.851.74-3.332 1.481-4.196 2.468-.617.617-.863.987-.37 1.357l2.221.124M132.189 58.895l-1.234.494a27.573 27.573 0 0 1-10.859 2.221M123.798 21.135l-.246.123M126.76 17.556c-4.196 1.975-7.281 3.949-9.255 6.047l-.987 1.234 1.975-1.357 2.838-1.358M125.033 29.65l-3.95 1.357-.617.247.865-.987 2.714-1.975M123.798 37.424l2.592-1.481.987-.37M119.109 26.935c.123-.617.864-1.358 2.221-2.221M120.713 28.786c-.987-.494-1.481-.864-1.604-1.481M129.845 32.488l-1.604.247-2.839.863M131.326 34.339l-2.222.617M121.083 35.326c1.851-1.604 3.949-2.838 6.047-4.072M129.475 48.406l-2.591-.123-3.949-.247M130.092 53.713l.864.74M127.871 50.011l3.455.246 3.455.494M135.645 48.9h-.124l-1.48-.123M128.487 47.419l4.197-.123M140.581 59.142c-.371-1.11-1.234-2.344-2.344-3.332l-1.111-.863c-1.728-1.234-3.455-1.851-5.429-2.345M122.441 44.828c-1.975-.987-1.728-1.851.741-2.221l1.728-.247M122.935 50.751c0-.247.494-.494 1.234-.74h.988M122.564 48.036h.248M122.441 56.427l-.124-.123c-2.097-.494-3.085-.987-3.332-1.357-.124-.864.617-1.234 2.221-1.234h1.975"/><path fill="none" stroke="#000" stroke-width=".555" stroke-linecap="round" stroke-linejoin="round" d="M122.935 50.751c-1.48-.247-2.221-.123-2.221.494s.741 1.357 2.221 2.344l.247.125"/><path fill="none" stroke="#000" stroke-width=".555" stroke-linecap="round" stroke-linejoin="round" d="M126.02 51.862l-.618-.371-.493-.123-1.974-.617M124.045 52.602l-.494-.494c-.617-.617-.74-.987-.617-1.357M123.182 53.713h.617c2.221.246 3.949.863 4.813 1.604M123.182 53.713l.863.617 1.728.863M127.253 47.543h-.616l-3.702.37M126.02 59.512l-1.357-.74-2.098-.494c-.987-.123-1.481-.617-1.234-1.234l1.11-.617M125.773 57.785c-.124-.37-.987-.741-2.344-1.111l-.988-.247M122.441 56.427l.741-.123h2.098c1.48.247 2.591.617 3.331 1.111l.617.493M125.649 64.695l-2.344 1.234-.494.124c-1.111.617-1.111.37-.247-.741M128.365 63.214l-1.728.617-4.319 1.111h-1.11c-1.234.123-1.604-.247-.863-.987l.617-.494M123.922 68.027l.864.123 2.591-.617M128.611 69.261l-1.358.123h-1.604l1.604-.863.495-.124-.495.124-1.233.123-1.111-.123h-.741M122.564 61.98c-.247.617.864.864 3.208.864l2.221-.247c3.949-.37 5.553-.987 4.936-1.604M134.535 57.785h-.371l-1.851-.617-2.221-.864M136.262 58.772c1.851.37 1.975-.37.247-2.098l-.247-.123c-1.604-1.604-3.208-2.221-4.689-1.975M127.748 44.951c-.864.247-1.604.494-2.098.864l3.332-.123"/><path fill="none" stroke="#323132" stroke-width=".555" stroke-linecap="round" stroke-linejoin="round" d="M141.444 9.782l8.145-.37c2.468.247 4.813.74 6.91 1.604l.37.125M118.493 21.505h-.494c-2.221-.247-2.345-1.234-.247-3.085 1.728-1.851 4.689-3.332 8.638-4.689"/></g><g><path d="M141.896 5.986l.493-.617.247-.617c-1.357.37-2.591.987-3.949 1.851l-3.578 2.468-1.975-2.098c-.863-.617-1.728-.987-2.468-1.111l-.987 1.234.617.494h.987c.617 0 .988.247 1.357.617.494.247.617.74.741 1.234-3.702.123-6.664.617-8.885 1.481l2.962 1.851-1.111.987-.987.864-.247.37h-.247l-.987 1.727 2.838-.863 2.961-.617-2.715 2.221-.247.123-1.234 1.234-1.481 1.975-.123.37-.37.864-.494 1.48v.247l-.124 1.358v.123l.617 2.098.124.247.37.74.988 1.357 1.604 1.358.617.247.37.246.988.371.863.246.988.864.493.864.37.617.864 1.851.124.123.246.371.371.863.741 1.111.617.74.123.124 1.975 1.234 1.11.493.371.124c1.728.493 3.332 0 4.689-1.234l.494-.37.74-1.111.371-.864.247-.617.247-1.234.247-2.098v-.863l.124-.741v-.987l.617-1.604.617-.864.617-.987.124-.124.123-.246.494-.494.124-.123.987-1.481.741-1.358.494-.863.864-2.098.124-1.851-.124-.864v-.37l-.371-.987-.863-1.234-.617-.617c-.493-.371-1.11-.617-1.851-.988l-1.974-.74-3.949-.247h-.123l2.468-1.727.246-.125c.864-.493 1.728-.987 2.468-1.234l-.124-.123-2.714-.124-1.851-.123-1.481-.123 1.847-3.701zM137.7 8.824l.247-.247.247-.123.371-.125 1.357-.987.617-.123-.863 1.234-1.11 2.468.863.123h.865l.37-.123h1.359l-3.579 2.097-.247.124-.124.247v.246l.124.741.247.247v.37l.617.617-.617-.124h-1.728l-.741.124-.247.247-.617.37-.124.247-.247.123-.371.494-.123.123-.124.247-.247.247v-.247l.247-1.358v-.493l-.124-.37h-.247l-.123.123-.371.247h-.124l-.247.123-1.11.741-.124.123-.124.123-.247.124h-.123l.247-.617.124-.37.247-.494.123-.247.617-1.11h-.123l-.247-.124h-.37l-.247-.123h-.247l-.123.123h-1.111l-2.221.37.37-.246 4.073-1.605.246-.246h.247l.124-.247h.124l-.371-.124h-.247l-.37-.123h-.247l-.864-.123h-.37l-1.729-.372-.246-.123-.371-.123h.494l.37-.124 2.221-.37h.247l.37-.123H134.367l.124.37.247.987-.371 1.481-.123.864h.123l.124.123h.618l.247-.123.37-.124.124-.123h.124l.37-.247.124-.123.247-.247.123-.124.494-.493.123-.247v-.123l-.123-.371-.371-.74-.617-.74-.247-.247.247-.247.247-.123 1.109-.862zm5.429 6.417h.987l1.357.37.864.37.37.247.617.617.617.864.371.987.246 1.234v.493l-.246 1.111-.371.74-4.319 6.664-.493 1.481-.247 1.604v.74l.123.741v.74l-.123.617-.864 1.851-.741 1.234-.494.247-.247.247-.123.123-.988.494-1.11.247h-.494l-.247-.125h-.246l-.741-.247-1.11-.863-.741-.864-.371-.617-1.728-3.826-1.11-1.604-.617-.37-.247-.494-.37-.246-1.851-.988-.37-.246-1.604-.988-.617-.617-.493-.863-.247-1.975v-.987l.124-.987.247-.864.246-.37.617-1.111.864-1.481.617-.74.987-.987.864-.37V18.818l.247.494.123.247c.124 0 .247-.125.247-.247l.617-.494.864-.987.617-.617-.123.494v.74l.246 1.481v.37l.247.494.124-.371.247-.246.124-.247.247-.247.124-.123.37-.617.247-.124.37-.493.247-.247.123-.247.987-.74.37-.247h.371l.247-.247h.864l.37-.123h.493l.371.123h1.605l.864.247h.74l-.37-.247.247-.123-.371-.247-.247-.125-.247-.123-.124-.123-.247-.494v-.123h2.221z"/><path fill="#B71E4E" d="M144.117 15.241h-3.208v.123l.247.494.124.123.247.123.247.125.371.247-.247.123.37.247h-.74l-.864-.247h-1.605l-.371-.123h-.493l-.37.123h-.864l-.247.247h-.371l-.37.247-.987.74-.123.247-.247.247-.37.493-.247.124-.37.617-.124.123-.247.247-.124.247-.247.246-.124.371-.247-.494v-.37l-.246-1.481v-.74l.123-.494-.617.617-.864.987-.617.494c0 .123-.124.247-.247.247l-.123-.247-.247-.494V16.476l-.864.37-.987.987-.617.74-.864 1.481-.617 1.111-.246.37-.247.864-.124.987v.987l.247 1.975.493.863.617.617 1.604.988.37.246 1.851.988.37.246.247.494.617.37 1.11 1.604 1.728 3.826.371.617.741.864 1.11.863.741.247h.246l.247.125h.494l1.11-.247.988-.494.123-.123.247-.247.494-.247.741-1.234.864-1.851.123-.617v-.74l-.123-.741v-.74l.247-1.604.493-1.481 4.319-6.664.371-.74.246-1.111v-.495l-.246-1.234-.371-.987-.617-.864-.617-.617-.37-.247-.864-.37-1.357-.37zm.37 3.208l-.247-.247h.371v.124h.247l.124.123.247.123.124.124.246.123.247.124.124.123.123.247.124.247.247.123v.247l.247.247.124.123v.864l.124.247v.123l-.124.494-.494.987-.247.493-.863.741-1.605 1.604-1.48 1.728-.371.987-.123-1.111.247-.987.617-.987 1.975-2.592.494-.863.247-.494v-1.728l-.247-.37-.37-.74-.128-.247zm-4.689-1.357h.247l.247.123V18.696l-.247.37-.124.123h-.37l-.124-.123-.124-.123v-.247l-.123-.124v-.246l-.124-.247.247-.617.124-.37h.371zm1.974 2.838l.124.123v.741l.124.123v.494l-.124.246v.371h-.124l-.123.123-.124.123h-.371l-.37-.246-.124-.864v-.37l.124-.247.124-.247.247-.247.124-.123h.493zm-4.813 5.8v.617l.124.123v.494l-.124.123v.617l-.124.123-.247.124-.247.123-.247-.123-.371-.247v-.123l-.124-.124v-.247l.124-.37v-.74l.247-.247.124-.123.247-.247h.494l.124.247zm2.715-1.111v-.123l.37-.371.371-.123h.123l.124.123v1.111l-.124.247-.246.493v.124h-.247v.123h-.124v.124h-.123l-.124-.124h-.124l-.124-.123-.124-.247v-.37l.124-.37.248-.494zm.37 3.949v.493l.124.247-.124.125v.123l-.124.617-.247.123h-.247l-.124-.123-.247-.123.124-.494v-.247l.123-.493.124-.124v-.123l.371-.124h.123l.124.123zm-.74 4.812l.494-.37.247-.123.617-.37.124-.124.247-.247.123-.123.124-.247.247-.123.124-.247.123-.37.124.617.247.74v.864l-.247 1.481-.617 1.357-.37.617-.247.247-.124.123-.246.124-.247.123h-.124l-.494.124h-.124l-.247.123h-.493l-.247-.123h-.247l-.617-.124h.124l.124-.123 1.11-.37.617-.371-.124-.123h-.864l-.247-.123v-.124h.617v-.123l.247-.125.247-.123h.124l.371-.123.123-.124h.124l.247-.37h.124l-.371-.123h-.247l-.617-.124-.124-.247-.124-.123h.494l.371-.123.123-.125.371-.123.246-.125.124-.123.371-.247h-1.729l-.123-.123.121-.121zm-2.345-1.851v.617l-.124.494h-.123l-.124.123h-.371l-.494-.246-.246-.988.246-.863.247-.617.247-.124.371.494.247.74.124.37zm-7.28-11.723v.371l.247.617v.123h.247l.124.247.247.123.123.125.247.123.124.247.124.247.123.246.124.494v.247l.124.37-.124.247v.37l-.124.247v.37l-.123.247-.247.493-.37.494-.494.494h-.123l-.247.246h-.247l-.247.124-.247.123h-.741l-.247-.123-.247-.124-.37-.246-.371-.371-.123-.123-.124-.247-.124-.247v-.246l-.124-.371v-1.11l.124-.37.494-1.111.124-.123.617-.617.37-.247.124-.125.124-.246v-.247l.124-.247.124-.247.123-.247.247-.246h.247v.123h.123l.124.123h.121zm5.429.124l.247.247.246.37.124.617.247.864-.124.37-.124.37v.123l-.124.124-.123.123-.124.124h-.619l-.247-.124-.124-.123v-.247l-.123-.123-.124-.247v-.37l.124-.741.123-.37.745-.987zm-3.578 5.183h.247l.123.246.124.371.247.617.123.74-.123.74-.247.124h-.124l-.123.123h-.124l-.247-.123-.124-.124-.123-.493-.247-.741v-.246l.124-.371.247-.617v-.123l.247-.123zm2.591 4.812v.37l.124.247v.247l-.124.247-.124.123-.124.125h-.246l-.124-.125v-.123l-.371-.125v-.246l-.123-.247.123-.247v-.494l.124-.123v-.123h.248v-.125h.247v.247l.123.123.247.249zm1.604 4.072h.371l.123.247.124.247v.37l-.124.741-.123.123-.247-.123h-.124l-.246-.371-.124-.123.124-.617.123-.247.123-.247z"/><path d="M144.24 18.202l.247.247.124.247.37.74.247.37v1.728l-.247.494-.494.863-1.975 2.592-.617.987-.247.987.123 1.111.371-.987 1.48-1.728 1.605-1.604.863-.741.247-.493.494-.987.124-.494v-.123l-.124-.247V20.3l-.124-.123-.247-.247v-.247l-.247-.123-.124-.247-.123-.247-.124-.123-.247-.124-.246-.123-.124-.124-.247-.123-.124-.123h-.247v-.124h-.367zM140.044 17.092h-.618l-.124.37-.247.617.124.247v.246l.123.124v.247l.124.123.124.123h.37l.124-.123.247-.37V17.215l-.247-.123zM141.896 20.053l-.124-.123h-.494l-.124.123-.247.247-.124.247-.124.247v.37l.124.864.37.246h.371l.124-.123.123-.123h.124v-.371l.124-.246v-.494l-.124-.123v-.741zM136.959 26.1v-.37l-.124-.247h-.494l-.247.247-.124.123-.247.247v.74l-.124.37v.247l.124.124v.123l.371.247.247.123.247-.123.247-.124.124-.123v-.617l.124-.123v-.494l-.124-.123V26.1zM139.674 24.496v.123l-.247.494-.124.37v.37l.124.247.124.123h.124l.124.124h.123v-.124h.124V26.1h.247v-.125l.246-.493.124-.247v-1.111l-.124-.123h-.123l-.371.123-.371.372zM140.044 29.061v-.493l-.124-.124h-.123l-.371.124v.123l-.124.124-.123.493v.247l-.124.494.247.123.124.123h.247l.247-.123.124-.617v-.123l.124-.125-.124-.246zM139.798 33.01l-.494.37-.123.124.123.123h1.729l-.371.247-.124.123-.246.125-.371.123-.123.125-.371.123h-.494l.124.123.124.247.617.124h.247l.371.123h-.124l-.247.37h-.124l-.123.124-.371.123h-.124l-.247.123-.247.125v.123h-.617v.124l.247.123h.864l.124.123-.617.371-1.11.37-.124.123h-.124l.617.124h.247l.247.123h.493l.247-.123h.124l.494-.124h.124l.247-.123.246-.124.124-.123.247-.247.37-.617.617-1.357.247-1.481v-.864l-.247-.74-.124-.617-.123.37-.124.247-.247.123-.124.247-.123.123-.247.247-.124.124-.617.37-.245.12zM136.959 32.146v-.617l-.124-.37-.247-.74-.371-.494-.247.124-.247.617-.246.863.246.988.494.246h.371l.124-.123h.123l.124-.494zM129.679 20.177v-.371h-.124l-.124-.123h-.123v-.123h-.247l-.247.246-.123.247-.124.247-.124.247v.247l-.124.246-.124.494v.247l.124.37.247.494h.124l.123.123.247.123h.124l.37-.246.124-.124.124-.123v-.987l.124-.372v-.246l-.247-.616z"/><path fill="#ECCAC7" d="M128.321 22.151l-.124-.37v-.247l.124-.494-.124.125-.37.247-.617.617-.124.123-.494 1.111-.124.37v1.11l.124.371v.246l.124.247.124.247.123.123.371.371.37.246.247.124.247.123h.741l.247-.123.247-.124h.247l.247-.246h.123l.494-.494.37-.494.247-.493.123-.247v-.37l.124-.247v-.37l.124-.247-.124-.37v-.247l-.124-.494-.123-.246-.124-.247-.124-.247-.247-.123-.123-.125-.247-.123-.124-.247h-.247v.123l-.124.372v.987l-.124.123-.124.124-.37.246h-.124l-.247-.123-.123-.123h-.124l-.244-.495zm.124 2.591v.494l.247.617v.247l-.124.37h-.371v-.123h-.123l-.124-.247-.124-.125v-.74l.124-.123.124-.124.123-.123h.124l.124-.123z"/><path d="M128.445 25.113v-.371l-.124.124h-.124l-.123.123-.124.124-.124.123v.74l.124.125.124.247h.123v.123h.371l.124-.37v-.247l-.247-.617v-.124zM135.355 20.177l-.247-.247-.741.987-.123.37-.124.741v.37l.124.247.123.123v.247l.124.123.247.124h.619l.124-.124.123-.123.124-.124v-.123l.124-.37.124-.37-.247-.864-.124-.617-.25-.37zM131.53 25.113l-.247.123v.123l-.247.617-.124.371v.246l.247.741.123.493.124.124.247.123h.124l.123-.123h.124l.247-.124.123-.74-.123-.74-.247-.617-.124-.371-.123-.246h-.247zM134.121 30.172v-.247l-.247-.247-.123-.123v-.247h-.247v.125h-.248v.123l-.124.123v.494l-.123.247.123.247v.246l.371.125v.123l.124.125h.246l.124-.125.124-.123.124-.247v-.247l-.124-.247v-.125zM135.972 33.997h-.247l-.124.247-.123.247-.124.617.124.123.246.371h.124l.247.123.123-.123.124-.741v-.37l-.124-.247-.123-.247h-.123z"/></g></svg>