<svg xmlns="http://www.w3.org/2000/svg" width="316" height="316" viewBox="0 0 556.668 556.666" overflow="visible"><path fill="#FFF" d="M278.059 542.919c147.925 0 267.523-118.502 267.523-264.646 0-146.145-119.598-264.526-267.523-264.526-147.373 0-266.974 118.382-266.974 264.526s119.602 264.646 266.974 264.646z"/><path fill="#0075B7" d="M430.258 81.395c6.406 5.551 12.832 11.278 18.156 18.19-22.43-12.356-46.998-22.164-75.838-17.535-7.994.831-15.488 2.312-22.963 4.331.543-12.849-2.672-25.591-12.809-34.286-9.063-6.11-18.689-9.909-29.373-10.636 8.537 8.233 13.906 19.701 12.268 32.18-.514 5.545-5.855 10.723-11.199 12.204-8.529 3.042-19.225 1.741-26.154-3.985-7.474-5.371-13.364-13.313-11.213-22.922l1.083-2.671c1.589 2.671 2.657 5.905 5.844 7.744 2.15 1.128 4.804.384 6.958-.268 1.602-.845 2.121-2.58 2.121-4.166-.52-7.583-8.531-11.648-14.924-13.488-14.435-3.604-33.127-3.233-47.026 1.205 18.705 13.024 40.053 30.395 44.875 53.046 2.151 4.545 2.657 9.439 3.191 14.246-13.339-21.08-34.167-38.175-57.682-43.822-21.88-3.875-47.501-6.93-69.412-1.384 30.989-21.45 66.757-32.176 104.661-37.443 67.293-6.928 129.227 10.252 179.436 49.46zM79.418 129.643l-6.945 8.497c-19.211 28.766-33.632 59.551-40.04 93.82-5.876 49-4.288 102.227 17.092 143.469-.535-12.018-1.085-25.131 2.133-36.229 6.928-22.934 17.061-45.394 37.905-61.74-5.342.741-11.735 1.554-17.091 0-10.147-2.419-16.541-12.227-20.28-20.904-3.203-10.43-4.822-24.776.534-34.851 1.069 7.508 4.26 14.703 10.147 19.792 6.396 5.342 16.024 6.556 23.485 3.697 10.162-5.089 16.006-16.275 14.955-27.728-1.602-9.05-10.682-15.353-19.229-17.106 1.603 2.849 5.343 5.993 2.671 9.525-1.068 1.271-2.671 1.572-4.805 1.007-3.74-2.212-5.342-6.569-6.411-10.533-4.82-23.006-3.186-50.1 5.879-70.716zM284.471 188.24c-5.343 15.161-18.695 30.515-33.649 37.174l.55.729c13.352 10.904 25.62 25.5 33.646 40.575 3.189-25.413 2.673-53.317-.547-78.478zM519.428 225.414c-4.273 29.671-17.627 59.061-44.846 75.782-23.498 13.674-59.813 15.812-83.318 1.006 7.48 19.615 25.643 39.967 46.457 43.826 7.473 1.656 16.568-.92 22.971 3.144 5.326 5.342 8.537 11.837 8.537 19.435.531 20.204-15.477 38.717-33.102 45.901-12.816 4.54-27.768 3.173-37.383-6.827-5.863-6.853-7.48-17.091-5.342-26.259 1.605-7.388 10.152-12.934 17.092-14.149 8.012-1.158 16.021.832 20.295 8.156 3.199 4.065 3.199 9.882 1.086 14.513-.553 1.48-1.617 3.113-3.232 3.618 1.615-6.231 2.68-13.947-2.658-18.605-5.342-3.679-13.889-3.616-19.215-.83-3.215 1.305-4.289 4.448-4.82 7.033-3.205 8.128-1.07 17.653 4.82 23.289 7.463 6.382 19.746 5.166 27.219.864 8.018-5.02 10.686-13.058 10.686-21.842 0-11.182-5.338-22.104-15.473-27.174-13.354-7.123-31.525-2.793-42.188 6.642-12.289 14.155-11.752 34.211-4.273 50.561 10.662 16.556 28.287 24.511 48.582 22.849 42.191-4.721 73.689-46.852 84.369-84.297 12.281-38.095 17.087-87.558 3.736-126.636zM401.949 441.061c-.533 20.621-17.072 37.98-34.717 46.669-12.803 6.558-32.029 7.304-43.242-2.696-4.805-4.329-6.943-10.056-6.395-16.528 1.041-3.799 3.742-7.949 7.463-9.136 3.205-.831 7.473-.475 9.609 2.104 1.605 1.396 2.137 3.176 2.137 5.104 0 2.939-1.602 5.992-4.273 7.123-2.131 1.278-4.789.593-6.943-.091.521.684.521 1.453 1.074 2.194 4.275 7.213 12.279 10.356 20.279 9.439 6.404-1.011 11.232-6.947 13.367-12.674 1.602-9.435-2.135-18.214-9.094-23.736-7.48-5.845-18.146-5.636-27.225-3.317-14.953 7.089-23.5 19.757-35.248 31.21-7.461 6.025-14.422 13.38-23.5 15.726 3.219-4.896 6.411-10 7.479-15.992.534-6.201-1.068-12.108-5.329-16.348-6.956-7.123-17.623-8.633-26.717-5.937-8.515 2.703-17.075 9.051-18.144 18.514l3.74-2.046c2.151-1.216 5.889-1.126 7.996.446 2.151 1.956 2.67 5.37 1.617 8.038-5.874 9.169-18.158 9.378-28.842 9.973-33.112-.595-63.552-7.746-90.242-24.121 23.499 20.35 49.134 35.867 76.373 45.93 36.837 14.448 82.216 16.376 122.796 9.644 54.482-7.032 104.674-30.446 142.588-74.03-14.432 9.972-30.424 16.529-49.113 15.992 1.584-8.341-1.084-16.469-7.494-21.454z"/><path fill="#E4482D" d="M448.936 108.665c35.795 23.29 67.824 61.18 64.617 107.138-3.725 31.244-17.609 64.059-48.066 77.174-22.951 10.53-56.043 9.699-77.959-3.223-26.166-19.875-33.629-54.545-25.617-85.229 4.805-16.553 19.225-32.917 37.383-34.964 14.939-2.657 28.84 2.047 37.371 14.167 11.197 15.235 12.814 38.722 2.672 55.071-6.941 11.571-19.762 17.489-33.635 15.636-8.559-.465-16.551-5.36-20.293-13.426-5.879-12.939-2.668-29.745 5.855-40.192 4.293-4.714 9.615-7.491 16.027-5.812 4.805 1.181 10.146 3.5 12.283 8.497 3.188 6.472 1.068 14.776-1.068 21.17 4.805-.649 8.541-6.394 9.627-11.006 1.588-9.242-1.086-18.943-8.027-25.235-5.873-5.353-15.49-6.292-22.963-3.889-16.539 6.84-22.418 24.686-21.881 41.601 0 13.764 6.404 27.936 19.746 33.929 17.088 6.183 36.314.621 47.527-12.104 18.695-21.526 18.156-58.332 4.805-82.543-10.141-22.477-33.645-45.206-59.813-45.574-10.668-.181-20.295 3.41-26.697 11.362-6.4 7.755-8 17.389-8 27.728l-2.152 68.49v31.543l2.152 75.512c1.6 39.105 9.08 75.958 21.361 110.638-18.172-12.192-46.996-11.182-66.76-1.747l-11.746 7.39c5.873-26.35 8.547-53.737 9.609-82.16l.539-43.764-1.602-61.995-2.674-44.935c-3.205-42.149-9.615-82.9-21.895-121.368 19.244 2.238 40.035 2.877 59.814 1.939l42.188-3.59c24.037.09 48.057.357 67.272 13.771z"/><path fill="#E4482D" d="M264.173 116.319c11.216 15.636 16.555 33.94 14.954 54.742-3.738 23.364-22.949 45.574-45.915 52.771 49.133 36.788 73.157 96.59 56.063 156.969-15.472 53.142-72.083 85.775-124.943 89.632-27.771.593-52.885-8.129-73.165-25.309-27.774-25.041-37.372-60.112-33.112-97.349 4.818-33.938 32.576-64.696 65.155-75.319 31.51-8.972 64.086.831 85.97 24.584 20.83 22.369 20.83 60.825 11.214 88.479-6.94 19.402-26.183 34.563-46.464 36.852-22.43 2.046-42.176-5.726-57.13-21.334-14.952-19.497-18.158-49.553-7.476-72.012 6.41-14.986 21.896-27.947 38.988-28.304 14.953.769 29.907 5.46 38.436 18.96 9.614 13.588 11.75 33.556 5.356 49.191-3.219 8.784-11.214 18.395-20.828 19.88-13.901 2.375-26.704-2.61-33.646-13.616-7.478-10.713-8.012-28.073-.534-39.078 5.325-6.824 12.284-11.754 21.362-10.091 5.874.746 11.201 3.413 14.956 8.043 1.599-3.681-1.086-7.032-3.22-9.882-5.861-6.291-14.954-7.415-23.471-6.291-10.161 1.663-19.239 12.492-22.445 21.989-5.876 16.378-3.204 36.999 9.078 49.549 10.133 10.712 25.102 14.329 40.058 11.661 12.284-2.521 25.084-12.108 28.838-24.601 8.529-19.227 7.461-46.79-6.408-63.313-14.954-17.45-37.386-25.891-60.884-19.882-21.362 5.756-41.125 24.596-44.862 46.585-8.013 31.805 1.604 64.443 26.153 84.2 21.913 16.857 57.163 16.739 81.179 5.46 35.248-17.269 47.532-55.629 44.86-93.785-4.805-35.875-14.951-71.21-44.86-95.048-10.682-7.672-25.102-11.26-38.972-8.117-3.738 10.621-1.083 22.639 3.74 32.058-14.435-5.089-32.58-3.901-47.015-.278-5.859 1.499-11.2 4.331-16.542 7.118 12.805-32.442 11.216-73.952 9.097-110.73-2.154-11.272-1.633-23.855-5.373-34.284-2.106-3.799-5.845-5.918-9.583-5.654-2.685-.264-4.821.938-6.958 1.855 22.95-37.072 65.157-52.131 108.386-44.936 26.718 4.367 51.82 16.469 69.963 38.635zm-51.255 49.938c1.07-11.295-.534-22.748-5.342-32.641-2.668-6.1-8.544-10.447-14.951-12.301-6.927-2.21-13.352.758-17.613 5.37-13.365 16.738-19.773 37.982-16.554 60.368 1.585 7.846 7.476 16.642 15.472 18.485 12.284 0 18.695-.922 27.773-10.266 5.873-8.128 9.613-18.485 11.215-29.015z"/></svg>