<svg width="233.07248" height="224.3501" xmlns="http://www.w3.org/2000/svg">
 <!-- Created with Method Draw - http://github.com/duopixel/Method-Draw/ -->
 <g>
  <title>Layer 1</title>
  <g id="svg_39">
   <path id="svg_1" d="m114.740754,218.630103c60.87,1.028 111.027,-45.795 112.021,-104.589s-47.55,-107.291 -108.42,-108.321c-60.884,-1.031 -111.037,45.798 -112.031,104.591c-0.995,58.794 47.545,107.289 108.43,108.319z" stroke-width="6.745" stroke="#141006" fill="none"/>
   <path id="svg_2" d="m114.740751,218.630103c60.87,1.028 111.027,-45.795 112.021,-104.589s-47.55,-107.291 -108.42,-108.321c-60.884,-1.031 -111.037,45.798 -112.031,104.591c-0.995,58.794 47.545,107.289 108.43,108.319z" fill="#C41230"/>
   <path id="svg_3" d="m113.148437,162.083103l0.155,0.154l0.436,-0.439l1.148,1.143l0.177,-0.178l-1.148,-1.143l0.436,-0.438l-0.154,-0.154l-1.05,1.055zm1.21,-1.217l0.25,-0.252l1.477,0.719l-0.734,-1.467l0.252,-0.25l1.303,1.295l-0.166,0.168l-0.77,-0.766a5.099,5.099 0 0 1 -0.132,-0.135c-0.06,-0.063 -0.124,-0.129 -0.192,-0.197l0.727,1.467l-0.175,0.176l-1.473,-0.719l0.04,0.039c0.032,0.033 0.079,0.082 0.149,0.145l0.146,0.141l0.77,0.764l-0.165,0.168l-1.307,-1.296zm1.783,-1.795l0.134,-0.135l0.894,1.711l-0.134,0.133l-0.894,-1.709zm0.226,-0.226l0.251,-0.252l1.475,0.721l-0.732,-1.467l0.248,-0.252l1.303,1.297l-0.166,0.168l-0.77,-0.766a8.89,8.89 0 0 0 -0.324,-0.332l0.729,1.467l-0.176,0.176l-1.472,-0.717l0.04,0.037c0.031,0.033 0.079,0.08 0.149,0.143c0.065,0.064 0.114,0.111 0.145,0.143l0.77,0.764l-0.166,0.168l-1.304,-1.298zm2.845,-0.559l-0.997,-0.99l0.306,-0.307c0.139,-0.143 0.283,-0.199 0.436,-0.172c0.15,0.023 0.308,0.117 0.47,0.277c0.041,0.043 0.083,0.092 0.122,0.148a0.76,0.76 0 0 1 0.127,0.273a0.46,0.46 0 0 1 -0.031,0.299a0.61,0.61 0 0 1 -0.125,0.16l-0.308,0.312zm-0.024,0.328l0.516,-0.52c0.219,-0.221 0.274,-0.475 0.166,-0.76a1.26,1.26 0 0 0 -0.299,-0.451c-0.179,-0.178 -0.369,-0.281 -0.57,-0.309a0.695,0.695 0 0 0 -0.599,0.223l-0.519,0.521l1.305,1.296z"/>
   <ellipse id="svg_4" ry="54.422" rx="55.616" cy="116.117103" cx="116.536223" fill="#141006"/>
   <g id="svg_5" fill="#C41230">
    <path id="svg_24" d="m149.097886,99.633103c-1.345,-14.22 -14.854,-22.341 -32.662,-22.643c-17.813,-0.3 -32.285,11.082 -32.689,25.422c-0.225,8.074 2.279,11.998 2.901,14.084c-0.014,-0.354 -1.833,-4.589 -1.844,-10.09c-0.017,-13.412 14.302,-24.063 30.958,-23.781c16.654,0.283 31.816,9.668 31.913,21.338c0.056,7.754 -1.336,11.789 -2.671,14.474c3.343,-4.018 4.991,-9.289 4.094,-18.804z"/>
    <path id="svg_25" d="m119.269886,130.985103c-15.732,-0.732 -29.738,-6.197 -35.35,-24.748c0.172,4.349 0.927,12.771 5.27,25.382c2.605,7.561 5.503,12.28 8.388,15.863c3.99,4.957 11.241,9.082 19.433,9.439c8.427,0.372 15.068,-1.795 19.953,-7.637c4.796,-5.731 7.748,-13.542 9.234,-20.576c0.433,-2.084 1.073,-5.18 1.491,-7.268c1.466,-7.361 1.649,-13.191 1.442,-17.973c-0.775,18.9 -15.723,27.17 -29.861,27.518z"/>
   </g>
   <path id="svg_8" d="m161.674518,126.907103c2.216,-8.663 5.577,-24.098 -5.954,-42.049c-4.213,-6.557 -10.161,-12.792 -10.161,-12.792s18.509,15.57 22.019,37.66c1.188,7.47 0.847,18.357 -1.717,25.029c-2.926,7.625 -7.367,16.314 -19.419,24.293c-23.972,15.877 -58.102,12.413 -74.448,-17.244c-10.774,-19.534 -12.299,-48.585 16.247,-66.683c15.076,-9.56 38.124,-5.253 47.962,9.637c7.873,11.916 4.594,27.952 -7.327,35.823c-9.532,6.298 -22.36,3.673 -28.653,-5.855c-5.039,-7.628 -2.94,-17.892 4.682,-22.927c6.105,-4.027 14.314,-2.355 18.35,3.747c3.225,4.878 1.879,11.451 -3.008,14.674c-3.898,2.578 -9.159,1.505 -11.734,-2.398a6.782,6.782 0 0 1 1.916,-9.391s-2.836,6.646 0.949,8.724c4.938,2.718 9.422,-0.318 10.5,-4.029c1.381,-4.739 -7.088,-15.712 -16.535,-7.592c-7.314,6.29 -6.141,15.931 1.263,22.305c7.404,6.375 22.479,1.311 27.952,-7.517c5.48,-8.834 3.688,-20.903 -5.232,-28.471c-8.932,-7.568 -25.431,-13.46 -40.129,-0.031c-14.702,13.423 -18.068,34.919 -9.307,53.21c9.057,18.912 23.051,26.005 39.314,25.292c14.637,-0.65 23,-6.091 31.346,-14.161c4.353,-4.219 8.809,-10.221 11.124,-19.254z" stroke-linejoin="round" stroke-linecap="round" stroke-width="4.045" stroke="#000"/>
   <path id="svg_9" d="m161.67427,124.788103c2.217,-8.665 2.23,-23.872 -9.057,-41.979c-3.002,-4.815 -8.968,-10.781 -8.968,-10.781s20.419,13.488 23.929,35.577c1.187,7.469 0.847,18.354 -1.717,25.028c-2.926,7.624 -7.366,16.314 -19.417,24.294c-23.975,15.875 -58.103,12.414 -74.448,-17.246c-10.775,-19.534 -12.301,-48.583 16.246,-66.683c15.076,-9.559 38.338,-6.578 48.179,8.313c7.872,11.917 5.688,26.488 -1.671,34.318c-2.98,3.168 -7.391,4.845 -10.047,5.683c-2.651,0.834 -9.677,0.717 -14.907,-1.422c-3.912,-1.599 -7.213,-3.713 -9.572,-7.287c-5.039,-7.627 -2.941,-17.887 4.681,-22.926c6.105,-4.028 14.315,-2.354 18.351,3.746c3.224,4.88 1.879,11.452 -3.008,14.678c-3.897,2.575 -9.16,1.502 -11.735,-2.402a6.781,6.781 0 0 1 1.917,-9.391s-2.837,6.646 0.948,8.726c4.937,2.718 9.424,-0.319 10.501,-4.028c1.379,-4.74 -7.088,-15.715 -16.535,-7.595c-7.314,6.291 -5.794,15.075 1.608,21.453c3.953,3.404 15.025,4.706 20.457,2.104c3.545,-1.696 6.219,-4.286 7.73,-6.896c5.197,-9.001 3.107,-22.773 -5.814,-30.344c-8.931,-7.567 -25.43,-13.457 -40.129,-0.03c-14.701,13.424 -18.067,34.917 -9.306,53.211c9.056,18.911 23.05,26.009 39.313,25.289c14.637,-0.648 23,-6.089 31.346,-14.16c4.356,-4.214 8.813,-10.221 11.125,-19.25z" fill="#FFEF00"/>
   <path id="svg_10" d="m119.747841,21.401103c-0.521,0.114 -1.2,0.152 -1.576,-0.167c-1.144,-0.963 -0.859,-1.658 -1.376,-1.169c-0.52,0.485 -0.743,0.966 -0.699,1.442c0.185,1.905 1.354,2.754 3.501,2.54c1.19,-0.118 2.216,-0.663 3.08,-1.631c0.865,-0.977 1.252,-1.919 1.164,-2.832c-0.189,-1.877 -0.898,-3.27 -2.143,-4.179s-3.176,-1.408 -5.104,-1.257c-2.27,0.176 -5.314,0.61 -8.364,2.583c-1.48,0.958 -2.563,2.517 -3.11,4.974c-0.434,1.926 0.041,3.911 0.477,5.669c0.87,3.543 1.565,5.833 1.851,6.974l-2.643,0.65l0.419,2.374l3.212,-0.656l-0.013,-0.136c1.93,8.076 3.128,12.866 3.839,17.586l-2.03,0.25l0.82,3.56c2.013,-0.507 4.371,-0.707 5.52,-0.782c3.363,-0.165 4.94,-0.205 4.94,-0.205l-0.876,-3.926l-2.238,0.37s-1.107,-12.917 -1.827,-18.16c1.778,-0.325 2.653,-0.634 4.664,-1.224l-0.472,-2.437l-5.033,1.184s-0.818,-2.626 -1.252,-6.415c-0.433,-3.777 -1.018,-5.851 -0.111,-7.444c0.683,-1.194 1.537,-1.992 2.887,-2.125c1.243,-0.122 2.604,0.253 3.24,1.391c0.562,1.002 0.118,3.005 -0.747,3.198zm27.014,2.88c-0.527,-0.042 -1.184,-0.198 -1.46,-0.614c-0.813,-1.246 -0.348,-1.833 -0.98,-1.514c-0.636,0.318 -0.988,0.713 -1.083,1.182c-0.37,1.882 0.51,3.025 2.629,3.438c1.17,0.229 2.306,-0.001 3.416,-0.681c1.109,-0.685 1.746,-1.478 1.922,-2.377c0.359,-1.85 0.08,-3.391 -0.85,-4.613c-0.928,-1.233 -2.641,-2.265 -4.53,-2.672c-2.225,-0.482 -5.264,-0.94 -8.754,0.074c-1.694,0.495 -3.178,1.679 -4.406,3.874c-0.963,1.723 -1.081,3.759 -1.17,5.569c-0.178,3.645 -0.172,6.038 -0.226,7.213l-2.719,-0.135l-0.278,2.396l3.268,0.293l0.025,-0.136c-0.472,8.287 -0.695,13.222 -1.366,17.948l-2.018,-0.345l-0.237,3.647c2.078,0.086 4.396,0.574 5.516,0.835c3.265,0.804 4.792,1.217 4.792,1.217l0.289,-4.011l-2.255,-0.286s2.647,-12.693 3.458,-17.917c1.795,0.192 2.727,0.148 4.82,0.159l0.246,-2.47l-5.158,-0.31s-0.031,-2.748 0.637,-6.502c0.668,-3.741 0.706,-5.896 2.031,-7.164c0.994,-0.949 2.042,-1.469 3.373,-1.207c1.224,0.237 2.416,0.989 2.705,2.26c0.247,1.12 -0.746,2.914 -1.637,2.849zm-91.664,31.888c-0.08,0.577 -0.083,1.004 -1.125,2.103c-0.611,0.646 -1.928,0.899 -2.693,0.351c-0.46,-0.336 -0.967,-0.837 -0.986,-1.353c-0.068,-1.532 0.669,-1.777 -0.07,-1.851c-0.746,-0.077 -1.279,0.059 -1.619,0.414c-1.344,1.41 -1.168,2.894 0.52,4.437c0.938,0.85 2.088,1.287 3.46,1.322c1.367,0.023 2.808,-0.768 3.452,-1.443c1.32,-1.4 3.014,-3.643 1.864,-7.245c-0.559,-1.756 -1.411,-4.45 -7.399,-4.809c-5.98,-0.356 -10.685,4.232 -13.509,10.854c-2.825,6.621 -2.138,21.799 10.55,27.507c12.677,5.701 21.904,0.214 27.448,-6.148c5.552,-6.361 3.764,-13.416 2.149,-16.342c-1.614,-2.928 -3.516,-1.05 -3.139,-0.298c0.374,0.757 3.065,1.525 1.691,8.588c-1.381,7.063 -9.375,9.792 -21.526,4.594c-10.881,-4.653 -12.141,-15.665 -11.876,-17.175c0.542,-3.057 2.331,-6.14 5.322,-7.33c2.828,-1.122 5.404,-0.439 6.39,0.602c1.386,1.468 1.096,3.222 1.096,3.222zm34.036,-20.661c-1.24,0.21 -2.565,0.587 -3.224,1.036c-0.658,0.447 -1.41,1.002 -1.723,1.451c-1.711,1.755 -2.153,4.587 -0.514,5.72c2.353,1.629 4.461,-0.715 4.259,-2.213c-0.134,-0.952 -1.031,-1.825 -1.031,-1.825s0.203,0.663 -0.138,1.27c-0.318,0.562 -1.157,0.38 -1.504,-0.092c-0.35,-0.473 -0.228,-1.007 0.309,-1.618c0.034,-0.034 0.41,-0.28 0.432,-0.319c0.727,-0.402 1.176,-0.39 1.291,-0.402c4.582,-0.433 7.417,2.685 8.941,7.669c1.533,4.98 1.891,10.009 -0.641,12.366c-1.424,1.324 -3.775,1.421 -6.688,-0.169c-3.417,-1.863 -7.496,-7.381 -8.032,-10.919c-1.049,-6.922 1.34,-9.207 2.197,-10.02c1.196,-1.134 1.703,-1.728 1.108,-1.631c-0.504,0.083 -3.19,1.475 -4.45,2.381c-1.166,0.838 -3.281,3.064 -4.104,5.054c-2.438,5.891 -2.588,11.869 4.101,17.083c2.51,1.957 6.486,2.731 9.063,2.877c4.301,0.244 6.922,-1.298 8.58,-2.345c5.859,-3.688 7.85,-11.491 5.181,-18.54c-2.951,-7.781 -11.245,-7.182 -13.413,-6.814zm84.208,11.075c-1.189,-3.168 -4.316,-5.436 -8.133,-6.68c-3.488,-1.13 -7.316,-1.1 -10.847,0.369c-3.532,1.469 -5.984,3.765 -7.372,6.869c-1.47,3.293 -1.5,7.88 -0.064,11.287c1.43,3.409 3.703,5.456 7.79,7.185c2.563,1.084 4.706,1.307 7.162,0.886c1.699,-0.291 3.644,-1.435 4.624,-2.7l0.233,-0.703s0.043,-0.124 -0.251,-0.211c-0.46,-0.144 -1.119,0.312 -3.09,1.025c-1.32,0.478 -4.374,0.283 -6.387,-1.361c-1.97,-1.612 -3.551,-5.018 -3.59,-7.105c-0.046,-2.746 0.264,-3.584 1.02,-5.316c1.594,-3.645 2.865,-4.976 5.092,-6.624c1.556,-1.153 3.748,-1.228 5.758,-0.454c1.333,0.509 2.69,1.95 2.673,4.711c-0.002,0.512 -0.781,2.769 -2.052,3.447c-1.029,0.549 -1.939,0.651 -3.48,0.217c-0.999,-0.282 -1.834,-1.154 -2.239,-2.001c-0.228,-0.487 -0.152,-1.665 0.202,-2.009c1.057,-1.035 1.745,-0.235 1.292,-0.786c-0.458,-0.561 -0.931,-0.83 -1.414,-0.834c-1.949,0.002 -2.893,1.076 -2.837,3.221c0.04,1.186 0.517,2.254 1.439,3.203c0.928,0.953 1.626,1.786 4.896,2.986c1.503,0.55 3.499,0.694 5.023,0.352c1.974,-0.458 3.8,-2.214 4.58,-3.961c0.628,-1.406 0.579,-3.406 -0.028,-5.013zm24.088,26.958c0.207,-3.379 -1.728,-6.727 -4.708,-9.417c-2.726,-2.454 -6.23,-3.981 -10.055,-4.075c-3.822,-0.097 -7.003,0.997 -9.529,3.271c-2.69,2.406 -4.577,6.587 -4.66,10.278c-0.08,3.694 1.22,6.439 4.191,9.735c2.113,2.352 4.513,3.284 6.182,3.725c1.667,0.448 3.909,0.174 5.323,-0.583l0.502,-0.546s0.084,-0.091 -0.144,-0.297c-0.361,-0.313 -1.148,-0.17 -3.243,-0.321c-1.398,-0.103 -4.11,-1.523 -5.283,-3.841c-1.139,-2.276 -1.194,-6.033 -0.377,-7.952c1.073,-2.531 1.697,-3.169 3.094,-4.445c2.939,-2.676 4.643,-3.371 7.347,-3.974c1.891,-0.418 3.924,0.405 5.448,1.931c1.008,1.009 1.656,2.874 0.521,5.394c-0.212,0.467 -1.845,2.206 -3.281,2.312c-1.159,0.084 -2.035,-0.194 -3.269,-1.223c-0.791,-0.663 -1.206,-1.798 -1.225,-2.739c-0.012,-0.536 0.538,-1.582 1.002,-1.75c1.383,-0.52 1.69,0.5 1.497,-0.191c-0.19,-0.698 -0.511,-1.139 -0.953,-1.338c-1.777,-0.792 -3.082,-0.194 -3.901,1.788c-0.444,1.097 -0.444,2.269 0.014,3.511c0.456,1.243 0.753,2.288 3.252,4.721c1.149,1.11 2.915,2.059 4.444,2.368c1.989,0.386 4.371,-0.478 5.799,-1.752c1.141,-1.031 1.914,-2.877 2.012,-4.59z" stroke-linejoin="round" stroke-linecap="round" stroke-width="5.431" stroke="#141006" fill="#141006"/>
   <g id="svg_11">
    <path id="svg_30" d="m78.497684,167.016103c0.089,0.412 -1.747,2.646 -6.788,10.036a5894.23,5894.23 0 0 1 -9.333,13.617l2.187,1.208l-1.75,3.595c-0.386,-0.189 -1.207,-0.896 -4.29,-2.62c-1.061,-0.57 -3.345,-1.639 -5.439,-2.313l1.387,-3.479l3.628,1.276s2.945,-5.878 6.423,-13.534c3.745,-8.25 3.663,-8.299 4.138,-12.402c0,0 -2.587,-1.892 -4.911,-3.976c-2.327,-2.08 -4.47,-4.525 -4.47,-4.525l4.104,-7.975s4.412,5.138 7.851,8.212c3.438,3.08 7.937,6.032 7.937,6.032c5.429,3.088 7.567,3.08 8.979,3.177c1.341,0.085 3.724,0.145 4.999,-1.555c0.806,-1.066 0.199,-2.418 -0.497,-3.059c-0.436,-0.4 -1.903,-1.017 -2.703,-0.295c-1.224,1.099 -1.056,2.119 -1.423,1.374c-0.371,-0.751 -0.521,-1.741 -0.307,-2.266c0.748,-1.802 2.373,-2.324 4.528,-1.284c1.188,0.579 2.064,1.584 2.634,3.021c0.571,1.441 0.201,3.627 -0.194,4.645c-0.812,2.088 -2.66,3.852 -5.189,4.507c-1.64,0.431 -4.616,0.442 -8.088,-0.54l-3.413,-0.877zm86.211,-0.081c-3.384,0.104 -6.539,2.335 -8.944,5.55c-2.196,2.936 -3.401,6.565 -3.146,10.381c0.254,3.82 1.632,6.881 4.129,9.195c2.642,2.455 6.973,3.961 10.659,3.699c3.686,-0.254 6.302,-1.807 9.31,-5.061c2.596,-2.797 2.861,-4.795 3.15,-6.496s0.109,-4.159 -1.068,-5.245l-0.588,-0.448s-0.444,-0.095 -0.283,0.171c0.632,1.032 0.74,2.258 0.52,3.666c-0.215,1.39 -1.685,3.821 -3.893,5.198c-2.154,1.344 -5.895,1.743 -7.878,1.104c-2.614,-0.836 -3.312,-1.4 -4.706,-2.676c-2.937,-2.683 -3.785,-4.313 -4.629,-6.956c-0.591,-1.843 0.045,-3.941 1.424,-5.599c0.912,-1.097 2.712,-1.913 5.325,-1.01c0.477,0.17 2.363,1.631 2.602,3.057c0.188,1.146 -0.012,2.041 -0.92,3.362c-0.591,0.851 -1.684,1.364 -2.615,1.471c-0.535,0.062 -1.625,-0.393 -1.838,-0.837c-0.644,-1.329 0.343,-1.729 -0.323,-1.473c-0.682,0.253 -1.089,0.611 -1.254,1.069c-0.624,1.845 0.091,3.084 2.143,3.719c1.134,0.349 2.296,0.241 3.492,-0.327c1.203,-0.572 2.214,-0.962 4.406,-3.67c1.003,-1.249 1.788,-3.093 1.953,-4.644c0.203,-2.017 -0.874,-4.312 -2.275,-5.614c-1.128,-1.044 -3.036,-1.641 -4.753,-1.586zm-66.544,8.955a3.755,3.755 0 0 1 -4.836,2.181c-1.928,-0.734 -2.891,-2.908 -2.146,-4.85a3.753,3.753 0 0 1 4.834,-2.179c1.929,0.731 2.889,2.906 2.148,4.848zm-11.113,8.184l-1.932,-0.544l0.813,-3.6l12.76,3.271l-1.337,3.542l-1.625,-0.349c-1.466,4.812 -6.977,17.428 -6.977,17.428l2.182,0.633l-0.902,3.92s-1.439,-0.643 -4.548,-1.943c-1.066,-0.428 -3.278,-1.263 -5.317,-1.669l0.792,-3.565l1.942,0.645c1.406,-4.614 2.759,-9.347 4.524,-17.633m60.979,2.068c-1.935,-4.973 -8.209,-6.817 -13.025,-6.042c-5.188,0.841 -7.329,5.809 -7.329,5.809s-2.638,-3.139 -8.234,-1.888c-2.572,0.579 -3.65,2.552 -4.072,4.517a74.241,74.241 0 0 0 -0.176,-1.728l-0.482,-3.817l-11.78,1.906l0.707,3.62l2.853,-0.278s3.137,13.267 3.679,17.82l-2.035,0.197l0.711,3.584c2.028,-0.447 6.409,-0.918 7.556,-0.953l-0.087,-3.396l0.013,0.021l-0.032,-0.833c-0.088,-2.136 -0.346,-7.978 -0.666,-12.743c0.496,-1.346 1.627,-3.383 4.01,-3.717c3.598,-0.503 5.115,3.191 5.453,5.75c0.357,2.803 1.805,9.873 0.625,11.903l2.623,-0.188c1.586,-2.314 2.186,-16.345 2.678,-17.166c0.493,-0.818 1.597,-3.221 5.293,-2.628c5.264,0.847 6.163,10.593 6.163,10.593c0.43,1.823 0.14,4.604 -1.577,5.995c-0.96,0.778 -2.098,1.352 -3.305,1.135c-0.858,-0.155 -1.445,-0.671 -1.48,-1.558c-0.014,-0.531 0.077,-1.201 0.46,-1.518c1.149,-0.947 1.783,-0.543 1.397,-1.135c-0.385,-0.598 -0.818,-0.911 -1.293,-0.953c-1.907,-0.166 -2.955,0.829 -3.139,2.979c-0.101,1.192 0.252,2.299 1.051,3.326c0.793,1.026 2.559,1.584 3.467,1.667c1.879,0.162 4.834,-1.069 6.17,-2.269a13.868,13.868 0 0 0 4.355,-7.695c0.835,-4.32 0.841,-6.724 -0.552,-10.317z" stroke-linejoin="round" stroke-linecap="round" stroke-width="5.431" stroke="#141006" fill="#141006"/>
   </g>
   <g id="svg_13">
    <path id="svg_32" d="m119.974047,20.407103c-0.522,0.113 -1.201,0.149 -1.578,-0.172c-1.143,-0.959 -0.859,-1.654 -1.374,-1.168c-0.52,0.487 -0.745,0.967 -0.7,1.443c0.185,1.906 1.354,2.753 3.501,2.542c1.191,-0.12 2.217,-0.666 3.079,-1.634c0.865,-0.974 1.252,-1.917 1.165,-2.833c-0.188,-1.873 -0.899,-3.267 -2.144,-4.174c-1.244,-0.912 -3.176,-1.413 -5.104,-1.259c-2.269,0.174 -5.313,0.605 -8.363,2.583c-1.48,0.958 -2.563,2.516 -3.111,4.972c-0.434,1.925 0.041,3.912 0.477,5.673c0.871,3.542 1.566,5.832 1.851,6.973l-2.642,0.651l0.419,2.368l3.213,-0.653l-0.015,-0.135c1.93,8.076 3.129,12.867 3.84,17.586l-2.03,0.25l0.82,3.562c2.013,-0.513 4.371,-0.712 5.519,-0.782c3.364,-0.164 4.941,-0.207 4.941,-0.207l-0.876,-3.926l-2.238,0.37s-1.107,-12.916 -1.827,-18.156c1.777,-0.33 2.653,-0.637 4.664,-1.227l-0.472,-2.438l-5.033,1.183s-0.818,-2.622 -1.251,-6.415c-0.434,-3.772 -1.018,-5.849 -0.112,-7.444c0.684,-1.191 1.538,-1.989 2.888,-2.124c1.242,-0.122 2.604,0.256 3.24,1.394c0.56,0.996 0.118,3.001 -0.747,3.197zm27.144,2.609c-0.529,-0.041 -1.186,-0.198 -1.462,-0.616c-0.814,-1.247 -0.347,-1.828 -0.978,-1.51c-0.639,0.315 -0.991,0.713 -1.086,1.182c-0.368,1.876 0.508,3.027 2.627,3.435c1.173,0.23 2.307,0.003 3.42,-0.677c1.107,-0.688 1.745,-1.48 1.921,-2.381c0.357,-1.847 0.079,-3.391 -0.851,-4.614c-0.93,-1.229 -2.64,-2.263 -4.529,-2.669c-2.227,-0.483 -5.264,-0.939 -8.754,0.076c-1.695,0.493 -3.179,1.675 -4.405,3.873c-0.965,1.72 -1.083,3.758 -1.172,5.569c-0.18,3.642 -0.172,6.04 -0.227,7.211l-2.718,-0.134l-0.28,2.395l3.271,0.293l0.023,-0.133c-0.469,8.286 -0.693,13.22 -1.362,17.948l-2.021,-0.349l-0.237,3.652c2.078,0.087 4.396,0.571 5.515,0.833c3.268,0.804 4.792,1.22 4.792,1.22l0.289,-4.012l-2.253,-0.29s2.647,-12.691 3.458,-17.917c1.794,0.191 2.725,0.146 4.82,0.157l0.244,-2.466l-5.155,-0.313s-0.036,-2.75 0.637,-6.5c0.666,-3.742 0.703,-5.896 2.031,-7.165c0.994,-0.95 2.04,-1.47 3.371,-1.211c1.225,0.24 2.416,0.993 2.705,2.264c0.25,1.121 -0.745,2.914 -1.634,2.849zm-92.604,31.845c-0.079,0.576 -0.082,1.002 -1.123,2.1c-0.611,0.647 -1.929,0.9 -2.693,0.351c-0.461,-0.336 -0.968,-0.837 -0.987,-1.349c-0.068,-1.532 0.669,-1.779 -0.07,-1.854c-0.746,-0.08 -1.279,0.061 -1.619,0.412c-1.344,1.415 -1.168,2.898 0.52,4.439c0.938,0.853 2.088,1.288 3.461,1.322c1.366,0.023 2.807,-0.765 3.452,-1.445c1.32,-1.396 3.014,-3.643 1.863,-7.241c-0.559,-1.756 -1.411,-4.45 -7.399,-4.811c-5.98,-0.359 -10.685,4.232 -13.509,10.852c-2.824,6.622 -2.138,21.802 10.55,27.51c12.677,5.701 21.904,0.213 27.448,-6.15c5.551,-6.363 3.765,-13.417 2.149,-16.339c-1.613,-2.93 -3.516,-1.053 -3.139,-0.3c0.374,0.755 3.066,1.522 1.691,8.586c-1.38,7.063 -9.375,9.794 -21.526,4.596c-10.882,-4.652 -12.14,-15.662 -11.875,-17.179c0.541,-3.051 2.33,-6.134 5.321,-7.327c2.828,-1.122 5.404,-0.442 6.391,0.604c1.386,1.469 1.094,3.223 1.094,3.223zm34.576,-20.349c-1.241,0.207 -2.566,0.587 -3.225,1.036c-0.657,0.447 -1.41,1.003 -1.722,1.449c-1.712,1.758 -2.154,4.587 -0.515,5.721c2.353,1.629 4.462,-0.711 4.259,-2.213c-0.134,-0.953 -1.03,-1.822 -1.03,-1.822s0.202,0.658 -0.138,1.265c-0.318,0.561 -1.158,0.382 -1.505,-0.089c-0.349,-0.475 -0.227,-1.008 0.31,-1.618c0.033,-0.032 0.41,-0.281 0.431,-0.32c0.728,-0.404 1.177,-0.392 1.291,-0.403c4.582,-0.432 7.418,2.687 8.942,7.67c1.532,4.978 1.891,10.011 -0.642,12.366c-1.423,1.325 -3.775,1.421 -6.688,-0.167c-3.417,-1.865 -7.497,-7.387 -8.033,-10.92c-1.049,-6.921 1.34,-9.205 2.197,-10.023c1.196,-1.13 1.704,-1.725 1.109,-1.627c-0.505,0.083 -3.19,1.474 -4.45,2.379c-1.167,0.838 -3.281,3.066 -4.104,5.056c-2.438,5.888 -2.587,11.868 4.101,17.083c2.51,1.955 6.486,2.729 9.063,2.877c4.3,0.243 6.921,-1.302 8.579,-2.346c5.86,-3.689 7.85,-11.49 5.181,-18.542c-2.949,-7.781 -11.244,-7.18 -13.411,-6.812zm84.563,11.388c-1.191,-3.167 -4.317,-5.436 -8.135,-6.68c-3.487,-1.135 -7.314,-1.104 -10.843,0.368c-3.534,1.471 -5.987,3.763 -7.372,6.87c-1.473,3.292 -1.5,7.878 -0.064,11.285c1.428,3.408 3.701,5.456 7.788,7.186c2.565,1.086 4.706,1.31 7.161,0.888c1.7,-0.292 3.644,-1.434 4.623,-2.706l0.234,-0.699s0.045,-0.122 -0.251,-0.214c-0.457,-0.143 -1.118,0.313 -3.089,1.027c-1.32,0.479 -4.375,0.285 -6.389,-1.362c-1.969,-1.607 -3.55,-5.016 -3.589,-7.103c-0.045,-2.747 0.263,-3.584 1.021,-5.316c1.592,-3.646 2.865,-4.974 5.092,-6.625c1.554,-1.153 3.75,-1.227 5.757,-0.456c1.334,0.513 2.69,1.953 2.674,4.713c0,0.513 -0.779,2.767 -2.053,3.447c-1.027,0.551 -1.938,0.65 -3.48,0.217c-0.997,-0.283 -1.833,-1.154 -2.238,-2.004c-0.226,-0.486 -0.151,-1.665 0.204,-2.008c1.054,-1.036 1.742,-0.231 1.287,-0.782c-0.457,-0.564 -0.928,-0.835 -1.41,-0.834c-1.952,-0.003 -2.893,1.074 -2.839,3.217c0.04,1.189 0.519,2.255 1.44,3.205c0.928,0.95 1.624,1.784 4.896,2.985c1.505,0.548 3.499,0.694 5.023,0.354c1.974,-0.459 3.799,-2.218 4.581,-3.961c0.626,-1.407 0.581,-3.408 -0.029,-5.012zm24.359,26.957c0.208,-3.382 -1.729,-6.725 -4.709,-9.415c-2.725,-2.455 -6.23,-3.981 -10.056,-4.078c-3.822,-0.094 -7.001,0.998 -9.528,3.27c-2.691,2.411 -4.578,6.585 -4.661,10.278c-0.079,3.697 1.221,6.442 4.191,9.74c2.115,2.348 4.515,3.28 6.182,3.725c1.668,0.446 3.91,0.173 5.322,-0.585l0.501,-0.546s0.085,-0.094 -0.142,-0.295c-0.36,-0.317 -1.148,-0.171 -3.242,-0.326c-1.398,-0.097 -4.11,-1.519 -5.283,-3.842c-1.14,-2.271 -1.195,-6.029 -0.379,-7.949c1.073,-2.528 1.699,-3.169 3.094,-4.444c2.94,-2.676 4.643,-3.374 7.35,-3.973c1.888,-0.422 3.923,0.405 5.446,1.929c1.008,1.008 1.658,2.874 0.521,5.393c-0.211,0.464 -1.843,2.208 -3.28,2.314c-1.159,0.086 -2.035,-0.198 -3.269,-1.224c-0.791,-0.665 -1.207,-1.798 -1.224,-2.739c-0.012,-0.538 0.535,-1.58 0.999,-1.751c1.384,-0.518 1.69,0.5 1.499,-0.19c-0.19,-0.701 -0.512,-1.139 -0.955,-1.34c-1.775,-0.79 -3.079,-0.192 -3.899,1.787c-0.443,1.103 -0.445,2.269 0.011,3.513c0.457,1.244 0.756,2.288 3.254,4.718c1.15,1.117 2.916,2.06 4.446,2.37c1.987,0.383 4.368,-0.475 5.796,-1.752c1.144,-1.031 1.914,-2.878 2.015,-4.588z" fill="#FFEF00"/>
   </g>
   <path id="svg_15" d="m118.677931,112.274103c1.354,-0.537 2.97,-0.742 4.969,0.615c5.758,3.909 1.266,14.061 -5.611,19.43c-4.241,3.307 -11.247,5.128 -11.247,5.128s11.635,-4.791 14.175,-12.175c1.816,-5.281 1.026,-7.905 -3.275,-8.085c-3.889,-0.161 -8.665,5.174 -8.665,5.174s2.671,-4.514 5.001,-6.82c2.322,-2.319 3.172,-2.683 4.653,-3.267z" fill="#C41230"/>
   <g id="svg_16">
    <path id="svg_35" d="m78.963283,166.787103c0.091,0.414 -1.747,2.649 -6.787,10.039c-2.896,4.252 -9.333,13.619 -9.333,13.619l2.185,1.209l-1.749,3.59c-0.382,-0.19 -1.207,-0.894 -4.29,-2.617c-1.058,-0.571 -3.344,-1.645 -5.436,-2.315l1.387,-3.476l3.624,1.275s2.946,-5.875 6.423,-13.534c3.627,-7.989 4.137,-12.403 4.137,-12.403s-2.583,-1.891 -4.911,-3.975c-2.326,-2.082 -4.466,-4.527 -4.466,-4.527l4.103,-7.972s4.413,5.132 7.853,8.215c3.436,3.077 7.934,6.026 7.934,6.026c5.43,3.091 7.57,3.082 8.977,3.179c1.346,0.086 3.725,0.144 5.005,-1.554c0.8,-1.066 0.2,-2.42 -0.495,-3.057c-0.439,-0.403 -1.903,-1.021 -2.708,-0.299c-1.222,1.103 -1.054,2.121 -1.422,1.373c-0.37,-0.752 -0.524,-1.741 -0.305,-2.265c0.747,-1.804 2.373,-2.321 4.524,-1.283c1.191,0.58 2.066,1.583 2.641,3.021c0.566,1.44 0.196,3.627 -0.195,4.647c-0.813,2.087 -2.662,3.847 -5.191,4.504c-1.641,0.43 -4.613,0.445 -8.09,-0.538l-3.415,-0.882zm85.275,-0.703c-3.382,0.106 -6.541,2.334 -8.948,5.549c-2.188,2.938 -3.396,6.567 -3.142,10.382c0.253,3.817 1.634,6.881 4.124,9.196c2.647,2.455 6.983,3.958 10.665,3.698c3.687,-0.255 6.297,-1.805 9.313,-5.059c2.588,-2.8 2.854,-4.798 3.146,-6.5c0.295,-1.695 0.104,-4.156 -1.068,-5.243l-0.586,-0.447s-0.443,-0.096 -0.287,0.168c0.635,1.035 0.742,2.262 0.518,3.668c-0.214,1.394 -1.681,3.822 -3.889,5.199c-2.156,1.345 -5.895,1.742 -7.875,1.103c-2.62,-0.835 -3.314,-1.401 -4.708,-2.676c-2.934,-2.684 -3.785,-4.314 -4.629,-6.951c-0.593,-1.846 0.044,-3.946 1.425,-5.602c0.912,-1.099 2.711,-1.916 5.32,-1.013c0.479,0.169 2.366,1.633 2.606,3.057c0.19,1.149 -0.015,2.042 -0.924,3.365c-0.586,0.852 -1.685,1.361 -2.616,1.467c-0.532,0.062 -1.624,-0.387 -1.839,-0.834c-0.64,-1.334 0.349,-1.728 -0.321,-1.477c-0.681,0.254 -1.09,0.613 -1.25,1.069c-0.623,1.847 0.088,3.09 2.138,3.725c1.136,0.348 2.298,0.239 3.498,-0.327c1.2,-0.575 2.21,-0.964 4.403,-3.676c1.001,-1.246 1.785,-3.092 1.951,-4.641c0.205,-2.016 -0.871,-4.313 -2.274,-5.611c-1.127,-1.046 -3.039,-1.645 -4.751,-1.589z" fill="#FFEF00"/>
    <path id="svg_36" d="m98.318283,175.664103a3.753,3.753 0 0 1 -4.833,2.182c-1.927,-0.738 -2.892,-2.909 -2.146,-4.851a3.754,3.754 0 0 1 4.832,-2.179c1.929,0.732 2.888,2.91 2.147,4.848z" fill="#FFF200"/>
    <path id="svg_37" d="m87.205283,183.850103l-1.928,-0.544l0.808,-3.602l12.761,3.275l-1.335,3.538l-1.627,-0.35c-1.466,4.814 -6.972,17.43 -6.972,17.43l2.179,0.633l-0.905,3.919s-1.44,-0.641 -4.55,-1.943c-1.063,-0.428 -3.279,-1.263 -5.313,-1.67l0.792,-3.565l1.942,0.647c1.406,-4.614 2.757,-9.349 4.523,-17.638m60.978,1.761c-1.932,-4.975 -8.206,-6.819 -13.029,-6.041c-5.183,0.838 -7.323,5.808 -7.323,5.808s-2.634,-3.136 -8.233,-1.888c-2.575,0.579 -3.653,2.548 -4.074,4.517a61.994,61.994 0 0 0 -0.174,-1.727l-0.482,-3.82l-11.78,1.906l0.704,3.622l2.855,-0.279s3.134,13.269 3.679,17.819l-2.034,0.199l0.708,3.582c2.028,-0.443 6.408,-0.915 7.561,-0.951l-0.092,-3.398l0.013,0.021s-0.011,-0.296 -0.035,-0.829a561.214,561.214 0 0 0 -0.662,-12.745c0.497,-1.346 1.629,-3.384 4.012,-3.722c3.597,-0.495 5.11,3.195 5.449,5.757c0.362,2.798 1.808,9.87 0.622,11.899l2.628,-0.187c1.586,-2.314 2.185,-16.345 2.675,-17.166c0.493,-0.82 1.598,-3.22 5.296,-2.628c5.262,0.845 6.162,10.596 6.162,10.596c0.431,1.82 0.143,4.603 -1.576,5.992c-0.963,0.777 -2.1,1.35 -3.304,1.134c-0.859,-0.157 -1.448,-0.67 -1.483,-1.556c-0.012,-0.532 0.082,-1.205 0.46,-1.519c1.151,-0.947 1.787,-0.549 1.399,-1.135c-0.387,-0.598 -0.813,-0.911 -1.29,-0.952c-1.907,-0.168 -2.956,0.828 -3.138,2.978c-0.104,1.192 0.244,2.297 1.042,3.327c0.799,1.027 2.561,1.586 3.474,1.668c1.877,0.158 4.83,-1.071 6.166,-2.27a13.84,13.84 0 0 0 4.357,-7.699c0.836,-4.318 0.84,-6.72 -0.553,-10.313z" fill="#FFEF00"/>
   </g>
  </g>
 </g>
</svg>