<svg xmlns="http://www.w3.org/2000/svg" version="1" width="417" height="107.58" viewBox="0 0 333.6 86.064"><g fill="#c92027"><path d="M178.916 7.248c-8.998.71-15.48 6.28-17.257 14.837-.423 2.008-.5 2.843-.5 5.426 0 2.497.068 3.275.442 5.186.75 3.775 2.824 7.472 5.493 9.806 2.622 2.285 5.81 3.678 9.537 4.168 1.411.182 4.197.182 5.483 0 2.728-.385 5.186-1.364 6.896-2.757.451-.365.816-.624.826-.586 0 .048.076.634.163 1.326l.163 1.248 4.495.029 4.484.02V24.533h-17.67v9.22h2.449c1.661 0 2.449.029 2.449.105 0 .048-.336.433-.74.836a6.385 6.385 0 0 1-3.054 1.71c-.998.23-2.717.143-3.755-.193-2.938-.94-4.446-3.947-4.456-8.854-.01-4.783 1.508-8.375 3.986-9.45 1.037-.442 2.708-.557 3.88-.25 1.844.47 3.236 1.882 3.803 3.822l.153.557H198.853l-.038-.22c-.029-.116-.144-.692-.26-1.268-.287-1.518-.768-2.89-1.478-4.322-2.45-4.907-7.04-8.01-13.061-8.825-1.373-.183-3.755-.26-5.1-.154zM302.821 7.248c-6.482.451-11.14 2.958-13.214 7.107-1.575 3.13-1.479 7.836.202 10.611.73 1.21 2.112 2.593 3.495 3.515.769.519 2.65 1.431 3.842 1.873.528.192 2.708.797 4.85 1.335 5.637 1.43 6.799 1.873 7.26 2.756.24.452.134 1.162-.212 1.527-.633.663-2.007 1.047-3.726 1.047-2.68 0-4.446-1.162-4.86-3.198l-.105-.547h-12.696l.068.97c.297 4.57 3.092 8.412 7.769 10.65 2.89 1.392 5.416 1.92 9.114 1.92 6.3 0 11.197-1.584 14.203-4.6 1.662-1.661 2.603-3.37 3.112-5.646.211-.913.298-3.64.154-4.649-.308-2.084-1.345-4.062-2.94-5.55-2.208-2.065-5.012-3.256-11.226-4.764-4.494-1.095-6.31-1.901-6.588-2.929-.201-.749.202-1.239 1.22-1.479 1.873-.46 4.081-.144 5.07.73.52.461.72.807.865 1.517l.115.529 6.3.028 6.31.02v-.279c0-.941-.567-3.13-1.182-4.523-.845-1.95-2.602-4.043-4.388-5.224-2.046-1.374-4.84-2.334-7.635-2.641-1.326-.144-3.803-.193-5.177-.106zM11.2 26.983v18.871h13.253V33.081h13.06v-9.795h-13.06v-5.378h16.422V8.112H11.2v18.871zM46.157 26.983v18.871H59.41V8.112H46.157v18.871zM64.048 8.324c.03.124 2.92 8.614 6.425 18.87l6.367 18.66h12.984l6.492-18.708a9843.064 9843.064 0 0 1 6.55-18.87c.067-.154-.288-.164-6.694-.164h-6.76l-3.026 11.044c-1.652 6.07-3.035 11.044-3.063 11.044-.03 0-1.326-4.83-2.872-10.736-1.556-5.897-2.862-10.872-2.91-11.044l-.086-.308H64l.048.212zM107.332 26.983v18.871H139.023V36.06h-18.439V31.64h15.078v-9.796h-15.078V17.907h17.767V8.113h-31.02v18.871zM205.893 20.184c.029 12.888.019 12.552.509 14.962.374 1.883 1.258 4.053 2.247 5.551.672 1.018 2.017 2.401 3.044 3.13 1.537 1.105 3.592 1.96 5.743 2.392 2.353.49 3.083.548 6.627.538 2.986 0 3.515-.02 4.705-.211 4.188-.663 6.944-1.892 9.133-4.091 2.19-2.2 3.333-4.706 4.005-8.845.192-1.22.202-1.566.23-13.378l.039-12.12h-13.253l-.038 12.168c-.03 11.015-.048 12.235-.192 12.83-.452 1.825-1.45 2.9-3.054 3.285-1.297.297-3.38.134-4.332-.346-.585-.298-1.286-1.008-1.565-1.565-.586-1.2-.567-.663-.595-14.108l-.039-12.264h-13.253l.039 12.072zM245.239 8.16c0 .03 3.16 5.445 7.01 12.034l7.01 11.994v13.666h13.254V31.996l7.01-11.889c3.86-6.53 7.01-11.908 7.01-11.937 0-.029-3.312-.048-7.356-.039l-7.365.03-2.891 5.685c-1.585 3.13-2.91 5.694-2.939 5.694-.029 0-1.344-2.564-2.929-5.694l-2.881-5.686-7.462-.029c-4.11-.01-7.471 0-7.471.03zM105.459 60.039c-.413.048-.826.115-.912.153a.69.69 0 0 1-.24.077c-.049.01-.164.048-.24.077-.077.029-.385.125-.673.22-.72.222-1.45.596-2.343 1.21-.413.28-.826.558-.913.606-.412.26-2.314 2.055-2.314 2.19 0 .048-.144.259-.326.48-.942 1.162-1.777 3.034-1.94 4.34-.03.26-.077.548-.106.625-.058.192-.058 2.698 0 2.88.029.078.106.433.163.798.135.855.576 1.978.99 2.535.45.605 1.363 1.48 1.862 1.796.423.26 1.22.557 1.95.73.701.163 3.073.115 4.12-.086a9.994 9.994 0 0 0 4.744-2.411c.615-.567 1.498-1.613 1.796-2.16.115-.212.403-.711.634-1.105 1.027-1.796 1.479-4.504.902-5.455-.297-.48-.681-.624-1.536-.567-.701.048-4.024.76-4.331.932-.192.096-1.037.25-1.911.336-1.028.106-1.374.423-1.489 1.364-.077.586.154 1.066.624 1.306.538.278 2.267.173 4.034-.25a44.747 44.747 0 0 1 1.402-.326c.01.01-.106.345-.269.74-.375.94-1.162 2.025-2.19 3.005-1.68 1.613-2.477 1.93-4.561 1.863-1.46-.048-1.921-.202-2.545-.855-.356-.355-.98-1.392-1.009-1.661a2.342 2.342 0 0 0-.134-.384c-.288-.653-.22-2.881.106-3.678.057-.144.115-.279.124-.308.039-.124.548-1.152.769-1.536.614-1.105 2.468-2.9 3.668-3.582 1.642-.922 2.276-1.076 3.938-.932 1.152.106 1.373.192 1.373.557 0 .327.307.836.595.99.327.172 1.268.355 1.422.268a7.86 7.86 0 0 1 .46-.192c.404-.144.769-.71.855-1.287.039-.345.01-.509-.21-.922-.308-.595-.808-1.277-1.01-1.392-.556-.317-1.545-.75-1.67-.72-.039.01-.135-.03-.211-.087-.068-.067-.221-.106-.346-.086-.125.01-.288-.01-.365-.039-.279-.105-1.978-.144-2.737-.057zM209.465 60.221c-.038.058-.115.087-.173.067-.182-.067-.787.279-1.056.605-.413.48-.47 1.431-.115 1.825.134.144.153.432.125 2.026l-.03 1.863-.316.01c-.173.01-.336-.029-.365-.077-.067-.105-.49-.096-.567.02-.028.047-.22.095-.413.095-1.046 0-2.717.75-3.937 1.768-.874.73-2.122 2.035-2.459 2.583-.105.173-.22.326-.25.355-.2.192-.998 1.979-1.113 2.488-.27 1.277-.115 2.967.336 3.697.326.519.922.999 1.44 1.152.471.135 2.305.221 2.603.125.077-.029.403-.125.72-.211A5.8 5.8 0 0 0 205 78.16c1.085-.605 2.823-2.036 2.986-2.459.048-.115.116-.211.154-.211.125 0 .125.797 0 .95-.058.068-.115.375-.115.673 0 .413.057.614.22.854.337.461.673.596 1.508.596 1.24 0 1.71-.384 1.69-1.383-.009-.269-.047-3.947-.086-8.173-.067-7.154-.077-7.702-.24-8-.173-.307-.71-.71-1.018-.748a1.9 1.9 0 0 1-.355-.087c-.125-.038-.24-.02-.279.048zm-1.536 9.316c.201 0 .326.49.192.816-.48 1.23-.913 1.853-2.209 3.207-1.45 1.508-2.814 2.41-3.65 2.41-.278 0-.345-.037-.393-.249-.106-.422.029-1.143.355-1.834.759-1.623 2.795-3.688 4.082-4.12.557-.192 1.2-.317 1.363-.269.077.02.183.039.26.039zM231.553 60.221c-.038.058-.163.096-.268.087-.116-.01-.317.019-.452.076-.134.048-1.421.26-2.862.461l-2.621.356-.23-.212c-.395-.374-1.528-.46-2.114-.172-.47.24-.72.605-.97 1.402-.269.864-.269 1.575.02 1.978.105.154.134.595.134 2.113 0 1.69-.02 1.94-.163 2.103-.135.134-.173.355-.173.883 0 .529.038.75.173.884.144.173.163.451.163 2.804 0 2.42-.01 2.641-.192 2.987-.279.538-.26 1.402.029 1.825.326.48.768.672 1.565.672.375 0 .826-.048 1.008-.106.75-.26 1.191-1.143.951-1.92-.096-.298-.144-1.172-.163-3.035l-.038-2.603.268-.057a125.31 125.31 0 0 1 2.43-.346c1.191-.163 2.238-.336 2.324-.384.096-.058.528-.096.96-.096.442 0 .903-.058 1.038-.125.557-.279.883-1.297.672-2.084-.115-.413-.682-.96-1.008-.96a.49.49 0 0 1-.317-.116c-.077-.077-.173-.086-.327-.01-.5.24-1.392.423-3.39.702-1.162.163-2.228.317-2.372.345l-.269.058v-1.69c0-1.671 0-1.69.221-1.729.115-.029 1.037-.163 2.036-.297 1.008-.135 1.892-.289 1.978-.327.077-.048.26-.067.394-.038.135.028.279 0 .307-.058.048-.067.49-.106 1.2-.106 1.019 0 1.172-.019 1.46-.22.183-.116.404-.375.51-.586.21-.433.23-1.258.048-1.652-.173-.356-.76-.73-1.162-.759a2.276 2.276 0 0 1-.519-.096c-.125-.038-.24-.02-.279.048zM53.504 60.519c-.922.086-3.006.5-3.63.72-.337.115-.394.115-.644-.067-.605-.452-1.853-.317-2.41.26-.317.326-.327.364-.298.979.01.355.048 3.543.067 7.097.048 6.338.048 6.463-.144 6.77-.24.394-.26 1.297-.048 1.71.086.163.317.374.528.48.759.384 3.045.211 5.56-.423.548-.144 1.047-.288 1.105-.326.058-.029.125-.067.154-.077.029 0 .259-.096.509-.211.259-.116.509-.212.566-.212.288 0 2.699-1.584 3.14-2.055.135-.134.28-.25.346-.25.106 0 .625-.547.625-.672 0-.038.067-.134.163-.201.22-.192.922-1.306 1.104-1.767.23-.586.394-1.748.327-2.324-.115-.96-.653-1.912-1.412-2.488-.317-.23-1.23-.605-1.729-.71l-.537-.106.509-.519c.307-.317.624-.778.806-1.171.164-.365.336-.73.385-.817.048-.096.067-.23.038-.307-.029-.077-.01-.163.048-.202.134-.076.134-.691.01-.768-.058-.038-.096-.115-.087-.173.039-.23-.22-.7-.615-1.104-.566-.586-1.21-.884-2.228-1.037-.94-.144-.95-.144-2.208-.03zm1.844 3.006c.201.105.201.115.057.422-.365.759-2.026 1.95-3.313 2.382-.384.134-.788.278-.893.326-.221.106-.98.279-1.22.289-.154 0-.173-.125-.173-1.24v-1.238l.461-.192c.25-.106.71-.26 1.028-.346.317-.086.643-.192.72-.22a.757.757 0 0 1 .24-.078c.058-.01.163-.048.25-.086.528-.23 2.4-.25 2.843-.02zm.787 5.944c1.066.221 1.412.73 1.114 1.643a4.064 4.064 0 0 1-.442.864c-.307.422-1.267 1.268-1.623 1.43-.134.068-.566.308-.96.539-.394.23-.912.509-1.153.605-.585.259-2.064.71-2.592.797-.24.038-.49.115-.548.163-.096.077-.125-.461-.125-2.631 0-2.036.03-2.766.125-2.891.154-.211 1.671-.528 3.035-.634 1.143-.096 2.4-.048 3.169.115zM74.305 60.51c-.48.105-.932.47-1.124.93-.153.366-.173.932-.038 1.182.067.125.096 2.113.096 5.59v5.406l-.327.451c-.288.375-1.075 1.038-1.238 1.038-.03 0-.26.096-.519.21-.25.116-.48.212-.509.212a.727.727 0 0 0-.144.077c-.202.125-1.258.269-1.96.269-1.036-.01-1.45-.115-1.766-.5l-.27-.316.01-6.55v-6.54l-.21-.375c-.318-.566-.558-.787-.97-.902-.788-.212-1.98.336-1.998.912 0 .106 0 3.294.01 7.068l.009 6.867.23.662c.125.365.308.73.404.826.096.096.24.25.326.346.442.519 1.326.999 2.286 1.249.5.124.95.144 2.305.105 2.314-.057 3.447-.374 4.811-1.335.327-.22.682-.46.778-.518.23-.135 1.133-1.028 1.143-1.124 0-.048.105-.22.23-.384.5-.653.49-.5.557-6.886.039-3.303.087-6.242.096-6.53.02-.624-.182-1.085-.585-1.287-.356-.192-1.114-.26-1.633-.154zM81.613 60.51c-.96.22-1.373.902-1.19 1.92.095.528.095.528-.26.883-.192.202-.346.404-.346.452a.272.272 0 0 1-.067.163c-.048.038-.077.298-.077.586 0 .557.298 1.172.673 1.373.192.106.192.192.192 5.08 0 4.36-.02 5.023-.154 5.35-.307.73.01 1.757.605 2.007.528.22 1.661.192 2.17-.058.356-.173.452-.278.596-.682.153-.422.153-.557.057-1.123-.076-.404-.105-1.345-.086-2.584l.029-1.94.73.644c.393.365 1.796 1.604 3.12 2.766 1.317 1.152 2.613 2.333 2.872 2.602.634.653.769.71 1.662.71.826 0 1.19-.162 1.584-.69.365-.5.375-1.556.01-1.979-.173-.211-.73-.528-.96-.547-.193-.01-.625-.346-2.968-2.334a169.093 169.093 0 0 0-3.015-2.516c-.375-.288-.673-.547-.682-.576 0-.03.25-.106.557-.183.547-.125 2.439-.95 2.497-1.085.019-.048.076-.077.134-.077.394 0 2.382-1.844 2.69-2.497.614-1.325.594-1.267.585-2.218 0-.826-.029-.99-.279-1.48-.605-1.2-1.46-1.795-2.852-1.968-1.527-.192-3.64.221-5.109.999l-.47.26-.164-.318c-.24-.47-.691-.845-1.104-.95-.432-.096-.548-.096-.98.01zm7.357 2.928c.201.039.307.144.393.384.096.289.096.385-.067.75a3.53 3.53 0 0 1-.49.758c-.432.49-1.91 1.489-2.775 1.854-.97.422-1.45.614-1.537.624a.602.602 0 0 0-.182.115c-.067.048-.163.067-.211.039-.048-.039-.116-.02-.154.038-.183.298-.24-.048-.24-1.565v-1.652l.557-.26a16.74 16.74 0 0 1 1.22-.508c.374-.135.739-.279.816-.308.182-.077.153-.067.768-.201.912-.202 1.152-.212 1.902-.068zM132.464 60.519c-.49.115-.787.326-1.037.73-.183.288-.202.422-.154 1.027.058.673.048.71-.192.932a1.749 1.749 0 0 0-.374.538c-.289.672-.068 1.776.403 2.093l.23.154-.048 5.157c-.019 2.833-.057 5.474-.067 5.849-.029.691-.029.7.336 1.056l.356.365h.989c.787 0 1.047-.039 1.248-.173.394-.26.576-.778.5-1.46-.039-.317-.087-1.575-.106-2.785l-.048-2.209.509.49c.278.27 1.633 1.48 3.006 2.68 1.373 1.21 2.823 2.506 3.227 2.89.797.769 1.018.855 2.036.788.787-.048 1.238-.336 1.45-.941.192-.548.192-1.086 0-1.489-.183-.394-.826-.855-1.085-.787-.125.028-.327-.068-.605-.298-.231-.192-1.431-1.22-2.67-2.276-1.24-1.057-2.488-2.113-2.756-2.343-.279-.221-.51-.442-.51-.49 0-.039.145-.106.317-.135.164-.029.76-.24 1.316-.47 2.315-.951 4.168-2.68 4.571-4.293.23-.922.154-2.026-.201-2.747-.298-.605-.865-1.287-1.076-1.287-.067 0-.125-.038-.125-.086 0-.048-.307-.182-.691-.307-.999-.317-2.43-.298-3.86.048-.577.134-1.24.345-1.49.46-.24.116-.46.212-.49.222-.028 0-.182.086-.354.172-.394.212-.385.212-.461-.124-.096-.461-.404-.75-.932-.913-.547-.163-.634-.163-1.162-.038zm7.145 2.871c.365 0 .663.308.663.673 0 1.056-1.787 2.525-4.178 3.457-.317.125-.624.26-.682.307a3.296 3.296 0 0 1-.5.211l-.402.144v-1.719c0-1.085.038-1.728.096-1.728.048 0 .518-.192 1.027-.413 1.258-.567 1.306-.576 1.45-.557.058.01.116-.029.116-.096 0-.058.067-.077.153-.048.087.038.212.019.279-.039.125-.105 1.363-.288 1.565-.23.077.02.26.038.413.038zM153.765 60.51c-1.172.134-2.65.585-3.025.912-.077.067-.365.24-.644.374-.269.144-.74.48-1.056.75-.538.47-1.46 1.497-1.47 1.632 0 .038-.153.317-.336.624-.566.932-.758 1.661-.768 2.814 0 .566.058 1.2.125 1.45.202.672.749 1.335 1.392 1.661.5.26.673.288 1.662.327.634.029 1.354 0 1.7-.067.797-.154 3.063-.778 3.198-.884.057-.048.134-.057.163-.019.038.029.115.01.182-.048.173-.144 1.249-.317 1.979-.336.585 0 .643.01.893.298.23.259.278.393.278.816 0 1.162-.538 2.199-1.555 3.054-.702.586-1.191.864-2.094 1.22-.394.153-.807.316-.912.355a1.06 1.06 0 0 1-.24.086c-.03.01-.106.048-.183.096-.067.048-.624.106-1.22.135l-1.094.048-.317-.336c-.212-.221-.394-.577-.548-1.086-.173-.566-.336-.874-.634-1.19-.374-.404-.432-.433-.989-.471-.528-.038-.634-.01-.97.22-.643.443-.816.827-.816 1.777.01 1.076.269 1.662 1.172 2.565 1.142 1.162 1.988 1.42 4.35 1.344 1.172-.038 1.671-.106 2.353-.288 1.114-.307 1.2-.346 2.17-.884.442-.25.922-.518 1.057-.585.432-.23 1.748-1.431 2.16-1.97.538-.7 1.057-1.824 1.2-2.582.059-.346.155-.663.193-.72.125-.126.106-2.133-.01-2.21-.057-.038-.076-.096-.048-.144.096-.153-.547-1.248-.97-1.632-.364-.336-.681-.51-1.738-.99-.105-.047-.25-.057-.307-.028-.058.038-.106.029-.106-.02 0-.105-1.517-.23-1.67-.143-.058.038-.26.057-.462.038-.201-.01-.413.01-.48.058a.77.77 0 0 1-.317.076.607.607 0 0 0-.288.068c-.048.029-.336.105-.624.173-.692.153-3.179.854-3.361.94-.077.04-.317.068-.529.068-.48 0-.653-.279-.566-.912.086-.644.46-1.258 1.229-1.998.615-.595 1.786-1.344 2.017-1.287.038.02.125-.019.192-.067.182-.154 1.517-.279 2.045-.202.634.106.826.212 1.143.634.394.519.74.653 1.604.653.826 0 1.152-.163 1.402-.653.192-.413.173-1.316-.048-1.7-.413-.7-1.565-1.383-2.871-1.71-.586-.143-1.844-.191-2.593-.105zM237.613 60.519c-.902.22-1.258.749-1.18 1.776.047.654.037.702-.193.922-.336.308-.509.75-.509 1.326 0 .547.269 1.18.576 1.344.192.106.192.163.154 5.215-.02 2.814-.067 5.416-.106 5.8l-.067.692.384.413.394.413.797.029c.941.038 1.46-.106 1.748-.49.163-.221.202-.384.173-.912-.087-2.392-.106-5.11-.039-5.11.048 0 .154.068.221.164.077.086 1.566 1.421 3.304 2.958 1.748 1.546 3.265 2.92 3.38 3.054.49.576 1.796.739 2.622.326.365-.182.461-.288.605-.691.106-.308.154-.673.134-1-.038-.48-.076-.556-.49-.95-.345-.326-.508-.413-.69-.374-.126.019-.231 0-.231-.039 0-.048-.048-.086-.106-.086-.058 0-.71-.519-1.46-1.162-.749-.634-2.132-1.806-3.063-2.603-.941-.797-1.71-1.479-1.71-1.517 0-.039.144-.106.317-.135.634-.125 2.344-.893 3.054-1.373 2.142-1.45 3.054-2.939 2.939-4.783-.125-1.988-1.22-3.044-3.38-3.265-1.24-.115-3.842.442-4.889 1.057-.49.288-.538.288-.538.067 0-.26-.355-.768-.643-.922-.374-.183-1.056-.26-1.508-.144zm7.549 2.987c.24.115.317.509.182.931-.278.932-1.969 2.238-3.88 2.996-.835.336-.883.356-.94.336a.426.426 0 0 0-.193.106 2.2 2.2 0 0 1-.403.211l-.26.106v-1.729c0-1.43.02-1.728.135-1.728.077 0 .5-.173.941-.384.442-.221 1.037-.461 1.325-.538.288-.077.615-.192.72-.24.471-.23 1.979-.279 2.373-.067zM253.594 60.5c-.24.038-.557.134-.72.22-.625.337-.97 1.21-.73 1.835.163.422.153 13.522-.01 13.618-.077.048-.125.307-.125.7 0 .692.154 1 .72 1.384.27.172.442.21 1.124.21.47 0 .931-.057 1.124-.134.412-.172.787-.672.749-.98-.02-.124.019-.23.076-.23.058 0 .077-.048.03-.124-.04-.058-.068-.202-.078-.308 0-.115-.076-.317-.163-.46-.163-.231-.173-.721-.173-6.646v-6.387l.26-.413c.45-.71.23-1.776-.452-2.132-.326-.173-1.075-.24-1.632-.153zM281.252 60.51c-2.18.22-4.1 1.267-5.618 3.044-.48.557-1.22 1.719-1.249 1.95 0 .028-.057.134-.115.24-.192.345-.346 1.545-.298 2.314.087 1.507.759 2.449 2.007 2.833.596.182.826.201 1.902.153 1.23-.057 2.881-.413 4.14-.902.076-.039.162-.068.191-.077.029-.01.115-.039.192-.067.72-.279 2.478-.365 2.824-.135.46.298.393 1.738-.116 2.69-.326.594-1.498 1.69-2.276 2.131a9.638 9.638 0 0 1-1.22.538c-.326.105-.662.24-.73.298-.066.048-.143.067-.182.038-.028-.038-.124-.02-.192.048-.076.058-.585.125-1.162.154-.95.038-1.046.019-1.296-.173-.298-.24-.586-.75-.692-1.249a2.382 2.382 0 0 0-.768-1.325c-.288-.26-.422-.307-.816-.307-.26 0-.586.048-.74.105-.317.116-.797.548-.797.72 0 .068-.057.135-.115.164-.086.02-.125.307-.125.99 0 1.161.173 1.584 1.037 2.506 1.057 1.133 1.988 1.469 4.015 1.469 3.092 0 5.34-.932 7.538-3.112.96-.96 1.076-1.123 1.7-2.554.221-.5.346-1.143.413-2.094.144-1.978-.614-3.419-2.093-3.956-.327-.125-.653-.26-.72-.308-.068-.057-.164-.067-.212-.038-.048.038-.125.01-.154-.048-.038-.058-.278-.087-.537-.077-.26.02-.5 0-.538-.038-.087-.096-1.489.028-1.633.144a.404.404 0 0 1-.288.057c-.096-.01-.211 0-.269.039-.048.029-.49.144-.97.259-.48.106-1.056.269-1.277.336-.211.077-.682.211-1.037.307-.365.087-.682.183-.72.221-.039.03-.289.039-.548.03-.47-.04-.49-.049-.547-.366-.135-.749.25-1.565 1.181-2.506.384-.384.807-.72.941-.759.135-.029.24-.096.24-.144 0-.048.039-.087.087-.087.048 0 .25-.076.451-.163.211-.086.394-.163.423-.173a.405.405 0 0 0 .144-.057c.201-.125.74-.202 1.488-.202.874 0 1.518.24 1.68.615.308.691 1.97.97 2.661.441.269-.21.557-.835.557-1.22 0-1.699-2.804-3.015-5.762-2.698zM116.839 60.596c-.74.153-1.133.557-1.248 1.267-.048.288-.125.692-.183.903-.134.519-.038 1.152.24 1.489.23.259.23.307.23 2.247 0 1.623-.028 2.045-.153 2.343-.211.47-.211 1.421-.01 1.815.144.27.164.663.164 2.89 0 2.056-.03 2.67-.144 2.997-.183.519-.183.816.01 1.373.134.385.22.48.566.644.509.23 1.45.26 2.074.058.26-.087 1.92-.231 4.36-.394 2.17-.135 4.159-.298 4.437-.346a1.512 1.512 0 0 0 1.181-1.94c-.173-.595-.355-.835-.797-1.037-.49-.22-1.027-.23-1.604-.038-.365.115-5.54.537-6.597.528h-.317v-4.38l2.478-.268c1.354-.144 2.842-.27 3.294-.26.71.01.864-.019 1.142-.201.548-.365.769-.788.769-1.44 0-.942-.394-1.422-1.326-1.624-.393-.077-.605-.067-1.085.048-.326.087-1.21.221-1.95.307-.748.077-1.42.173-1.497.202-.077.029-.327.048-.538.039-.221-.01-.432.019-.47.076-.03.058-.231.106-.443.106h-.374l.02-1.805.028-1.796 2.929-.212c1.825-.124 2.987-.172 3.092-.115.221.115 1.44.106 1.777-.02.615-.23 1.076-.96 1.085-1.69 0-.508-.134-.864-.46-1.21-.558-.595-1.268-.739-2.114-.45-.441.153-1.238.249-3.438.422l-2.862.22-.297-.307c-.404-.432-1.162-.595-1.969-.441zM260.172 60.605c-.691.125-1.066.548-1.152 1.306-.039.317-.125.663-.202.778-.202.327-.163.855.106 1.268.124.211.278.403.336.442.057.038.096.778.096 2.055 0 1.796-.02 2.045-.192 2.42-.25.557-.25 1.277 0 1.767.173.346.192.567.192 2.89 0 2.017-.03 2.584-.144 2.853-.183.442-.183 1.22-.01 1.652.211.5.644.72 1.44.72.366 0 .884-.067 1.153-.144.298-.087 1.95-.23 4.235-.384 4.6-.298 4.706-.308 5.023-.47.547-.289.73-.596.768-1.288.029-.586.01-.672-.24-.998-.538-.692-1.306-.922-2.113-.615-.23.086-1.325.202-2.958.298-1.42.086-2.66.182-2.737.21-.076.03-.393.059-.7.059l-.548.019v-2.238c0-2.055.01-2.228.173-2.228.086 0 .94-.086 1.892-.202.95-.105 2.381-.22 3.188-.268 1.508-.077 1.873-.183 2.017-.567a1.16 1.16 0 0 1 .192-.288c.067-.077.106-.163.077-.211-.03-.049-.01-.106.048-.145.048-.028.096-.268.096-.528 0-.259-.048-.5-.096-.528-.058-.038-.077-.096-.058-.134.058-.087-.48-.615-.797-.778-.327-.164-1.2-.154-1.93.019-.346.086-1.162.202-1.825.269-.663.057-1.268.134-1.344.163a1.413 1.413 0 0 1-.442.039c-.173-.01-.336.019-.375.076-.029.058-.23.106-.442.106h-.374l.02-1.805.028-1.796 2.833-.202c1.69-.125 2.92-.173 3.054-.115.125.038.528.077.893.077.932 0 1.479-.25 1.729-.798.096-.22.182-.49.182-.605 0-.105.048-.24.115-.307.087-.086.087-.163.01-.326a2.729 2.729 0 0 1-.163-.471c-.068-.336-.394-.73-.75-.912-.393-.202-1.392-.212-1.766-.01-.23.115-.96.202-2.978.355-1.478.106-2.794.24-2.938.279-.23.077-.298.048-.48-.183a2.594 2.594 0 0 0-.461-.412c-.308-.193-1.076-.27-1.681-.164zM186.907 65.609a2.06 2.06 0 0 0-.644.288c-.528.374-.557.528-.5 2.65.049 1.652.04 1.988-.105 2.324-.192.5-.202.99-.01 1.364.125.24.145.615.116 2.324-.03 1.114-.077 2.219-.116 2.45-.115.681 0 .998.452 1.296.346.22.509.259 1.104.259.884 0 1.364-.192 1.594-.644.145-.288.164-.653.164-3.188 0-2.449.019-2.881.144-2.929.077-.029.749-.509 1.488-1.066.73-.557 1.383-1.008 1.44-1.008a.103.103 0 0 0 .097-.096c0-.058.048-.096.106-.096.048 0 .259-.106.45-.24.193-.135.414-.24.481-.24.106 0 .115.72.077 3.956-.02 2.18-.048 4.11-.048 4.283-.02.874.47 1.268 1.584 1.268.76 0 1.153-.163 1.46-.615l.221-.326-.01-5.148c0-3.207-.038-5.243-.105-5.397-.173-.48-.672-.99-1.2-1.248-1.182-.577-2.373-.27-4.313 1.123-.614.442-1.286.922-1.488 1.066l-.365.27.048-.894c.058-1.008-.067-1.402-.528-1.633-.356-.182-1.143-.259-1.594-.153zM177.582 65.695c-1.383.115-2.7.423-3.189.73-.125.077-.22.125-.22.106 0-.02-.529.23-1.172.547-1.393.691-1.614.932-1.614 1.757 0 .289.067.644.144.798.346.662 1.21.998 2.007.768.423-.115 1.057-.644 1.162-.95.039-.135 1.057-.702 1.297-.73a.405.405 0 0 0 .144-.058c.307-.183 2.074-.394 2.593-.308l.346.058-.03.624-.028.634-.72.115c-.893.144-2.295.49-2.44.605-.057.048-.49.25-.97.442-1.67.682-3.255 1.988-4.014 3.294-.192.327-.346.634-.336.672.01.039-.048.192-.115.356-.173.403-.163 1.738.02 2.17.22.509.7 1.008 1.2 1.248.355.173.672.221 1.632.27.663.028 1.22.028 1.239 0 .02-.039.24-.087.49-.125.672-.087 2.516-.922 3.179-1.441.316-.24.595-.442.624-.442.019 0 .067.23.096.519.105.999.47 1.248 1.757 1.2.73-.029.922-.077 1.21-.278.423-.279.615-.778.51-1.306-.04-.212-.097-2.41-.135-4.889-.058-4.456-.058-4.523-.279-4.965-.605-1.22-1.92-1.642-4.388-1.42zm1.488 6.703c0 .048-.067.279-.154.529-.115.336-.326.614-.845 1.094-.384.365-.826.72-.98.798-.153.076-.614.326-1.027.557-1.123.633-2.43.98-2.612.691-.173-.279.634-1.335 1.594-2.074.51-.394 1.854-1.095 2.084-1.095.048 0 .26-.077.461-.163.211-.087.403-.154.442-.145.038.01.182-.048.336-.124.288-.154.701-.192.701-.068z"/><path d="M326.698 8.793c.772 0 1.513.192 2.222.575.71.383 1.266.933 1.672 1.648.406.716.608 1.465.608 2.247a4.47 4.47 0 0 1-.596 2.226 4.229 4.229 0 0 1-1.664 1.652 4.554 4.554 0 0 1-2.242.592 4.554 4.554 0 0 1-2.242-.592 4.229 4.229 0 0 1-1.664-1.652 4.47 4.47 0 0 1-.596-2.226c0-.782.202-1.53.608-2.247a4.168 4.168 0 0 1 1.672-1.648 4.612 4.612 0 0 1 2.222-.575zm.006.876c-.62 0-1.213.153-1.781.46a3.36 3.36 0 0 0-1.343 1.325 3.61 3.61 0 0 0-.49 1.81c0 .625.159 1.223.478 1.79a3.41 3.41 0 0 0 1.337 1.33 3.642 3.642 0 0 0 1.799.48c.63 0 1.231-.16 1.801-.48a3.436 3.436 0 0 0 1.338-1.33 3.586 3.586 0 0 0 .482-1.79 3.61 3.61 0 0 0-.491-1.81 3.354 3.354 0 0 0-1.346-1.324 3.71 3.71 0 0 0-1.784-.461zm-2.04 5.987V10.91h.97c.91 0 1.419.004 1.528.012.322.027.571.09.75.19.178.099.327.25.446.455.12.204.18.43.18.68 0 .342-.113.635-.338.878-.226.243-.542.394-.95.452.146.055.257.114.336.178.078.064.186.186.323.365.035.047.153.24.353.578l.564.957h-1.2l-.399-.77c-.27-.518-.494-.844-.67-.978-.176-.134-.4-.201-.67-.201h-.253v1.949zm.97-2.696h.394c.56 0 .908-.022 1.043-.065a.615.615 0 0 0 .438-.589.578.578 0 0 0-.114-.353.628.628 0 0 0-.327-.222c-.14-.044-.488-.067-1.04-.067h-.394z" style="line-height:125%;-inkscape-font-specification:Sans Bold" font-size="124.891" font-weight="700" letter-spacing="0" word-spacing="0" font-family="Sans"/></g></svg>