<svg xmlns="http://www.w3.org/2000/svg" width="88" height="68pt" viewBox="0 0 66 68"><defs><clipPath id="a"><path d="M49 0h16.742v31H49zm0 0"/></clipPath></defs><g clip-path="url(#a)"><path d="M59.055 23.746c-.176.86-.797 1.984-1.852 1.746-.812-.02-1.203-.902-1.426-1.562-.73-2.848-.418-5.813-.48-8.72.062-2.91-.246-5.874.437-8.741.192-.657.453-1.496 1.207-1.688 1.032-.367 1.871.54 2.059 1.477.703 2.793.5 5.703.531 8.55-.035 2.981.192 6.012-.476 8.938zm6.383-14.05c-.352-2.676-.993-5.477-2.793-7.571C60.852.085 57.828-.355 55.3.25c-1.824.43-3.356 1.723-4.207 3.367-1.688 3.156-1.91 6.832-2.043 10.336-.035 3.723.082 7.543 1.324 11.098.77 2.199 2.383 4.289 4.73 4.883 2.352.52 5.11.367 6.985-1.317 2.07-1.832 2.8-4.656 3.238-7.285.531-3.855.531-7.773.11-11.637" fill="#c02137"/></g><path d="M.434.402H5.94v11.762c1.133-.004 2.258-.004 3.391-.004V.402h5.508v29.446H9.332V17.352h-3.39v12.496H.433V.402M18.441.402h11.543a925.1 925.1 0 0 0 0 4.657c-2.011.003-4.023.003-6.039.003v7.31h4.871c.004 1.655.004 3.316.004 4.98h-4.875v7.835c2.086.004 4.168-.003 6.25.008 0 1.551 0 3.102-.004 4.653h-11.75V.402M40.79 11.926a1.988 1.988 0 0 1-1 .668c-.161.043-1.84.297-1.84.32-.04-2.762-.036-5.52 0-8.277 1.714.218 3.183.578 3.554 2.5.226 1.176.328 2.601-.129 3.738-.152.383-.336.746-.586 1.05zm3.25 4.16c3.167-2.418 3.589-6.918 2.733-10.535-.566-2.582-2.847-4.547-5.433-4.93-2.914-.433-5.88-.129-8.813-.219v29.446h5.403c.015-3.891-.028-7.782.004-11.668-.239-.848.546-.95 1.152-1.14.988 4.26 1.926 8.538 2.887 12.808 1.843 0 3.691 0 5.535-.004a1506.958 1506.958 0 0 0-3.469-13.758" fill="#c02137"/><path d="M1.375 34.422c1.047-1.582 3.543-1.703 4.863-.418 1.164 1.312 1.114 3.184 1.239 4.82-.86.02-1.715.031-2.579.055-.105.004.207-3.621-.93-3.367-.687.152-.823 1.14-.886 1.707a35.318 35.318 0 0 0 0 7.761c.078.532.258 1.149.809 1.372 1.367-.606.984-2.391 1.238-3.586.77.004 1.539.007 2.309.02.007 1.866-.032 4.14-1.676 5.362-1.477.864-3.793.622-4.66-.996-1.125-1.96-1.114-4.312-1.098-6.504-.016-2.128.14-4.41 1.371-6.226M8.906 33.45h6.25v2.327h-3.39v3.707h2.543v2.543h-2.543v3.918h3.601v2.438h-6.46V33.449M19.613 39.977a22.792 22.792 0 0 1-.015-4.559c2.277.484 2.28 4.055.015 4.559zm2.953 1.515c1.747-1.625 1.97-4.472.891-6.512-1.547-2.187-4.547-1.382-6.816-1.527.004 4.977 0 9.95 0 14.93H19.5c.059-2.262-.152-4.54.16-6.781 1.031 2.117 1.16 4.535 1.797 6.785.953-.004 1.902-.008 2.855-.008-.55-2.305-1.167-4.594-1.746-6.887M24.477 33.45h7.203v2.327h-2.227c-.004 4.2 0 8.403 0 12.606H26.7v-12.61c-.738.004-1.48.004-2.222.004V33.45M32.633 33.45h2.86v14.933h-2.86V33.449M37.504 33.45h6.25c0 .773-.004 1.55 0 2.327h-3.39v3.918H42.8v2.543h-2.438v6.145h-2.86V33.449M44.602 33.45h2.859v14.933H44.6c.004-4.98 0-9.957 0-14.934M49.578 33.45h6.25v2.327h-3.496v3.707h2.54v2.543h-2.544c.004 1.305.004 2.614.004 3.918h3.602v2.438h-6.356V33.449M61.867 42.328c-.054 1.406.196 3.445-1.62 3.813.089-.02-.095-4.473-.095-4.887-.004-1.856.055-3.707.078-5.563 0 .153.965.57 1.11.723.68.734.512 1.797.531 2.707a51.64 51.64 0 0 1-.004 3.207zm1.664-7.586c-1.558-1.695-4.054-1.238-6.117-1.293v14.934c2-.098 4.41.398 6.004-1.117 1.492-1.684 1.297-4.125 1.418-6.215-.11-2.121.098-4.547-1.305-6.309M30.648 52.688c1.122-1.754 3.813-1.774 5.301-.508 1.336 1.375 1.258 3.414 1.258 5.199-.871.004-1.746.008-2.617.016-.13-1.172.066-2.543-.778-3.489-.855-.312-1.156.696-1.273 1.34-.363 2.32-.21 4.684-.207 7.024.113 1.14.047 2.53 1.117 3.25 1.317-.31 1.14-1.915 1.395-2.934-.29-.008-.864-.016-1.153-.02v-2.425h3.602c-.031 2.574.074 5.148-.082 7.722-.387-.097-1.531-.703-1.723-.883-1.16 1.172-3.097 1.352-4.383.266-1.64-1.457-1.77-3.836-1.945-5.875-.058-2.922-.183-6.14 1.488-8.684M57.71 52.61c1.423-1.817 4.825-1.813 5.95.328.55 1.003.613 2.167.77 3.277-.895 0-1.785.004-2.676.015-.149-.71-.027-1.707-.688-2.203-.515-.39-1.117-.007-1.39.477-.281.5-.227 1.277.094 1.754 1.148 1.699 3.144 2.613 4.214 4.383 1.043 1.66 1.121 3.894.125 5.593-1.164 1.934-4.164 2.352-5.855.895-1.14-1.094-1.242-2.754-1.414-4.219.894-.015 1.793-.023 2.687-.039.184.805.032 2.125 1 2.5.602.234 1.16-.3 1.414-.793.286-.558.172-1.242-.168-1.754-1.07-1.62-2.988-2.441-4.062-4.07-1.23-1.793-1.277-4.371 0-6.145M5.23 64.176a1.384 1.384 0 0 1-.222.472c-.352.47-.985.485-1.473.739.149-.075-.039-2.246-.035-2.516.004-.766-.043-1.59.078-2.348.43.196.95.387 1.309.7.574.5.55 1.332.476 2.023-.035.3-.05.629-.133.93zM3.562 53.93c-.015.265.829.418 1 .511.493.258.657.817.672 1.336.04 1.141-.46 2.29-1.668 2.543a37.419 37.419 0 0 1-.003-4.39zm2.364 5.343c2.605-1.09 2.867-5 .886-6.78-1.828-1.395-4.265-.641-6.378-.829v15.988c1.824-.105 3.738.297 5.496-.32 3.23-1.312 3.406-6.824-.004-8.059M10.074 51.664h2.965c0 3.953 0 7.906-.004 11.86.012.746-.012 1.785.926 1.953.992-.079 1.11-1.153 1.094-1.938-.004-3.953-.004-7.918-.004-11.875h2.543c-.004 4.106.004 8.215 0 12.32 0 1.36-.41 2.922-1.723 3.59-1.32.57-2.93.57-4.223-.094-1.207-.699-1.601-2.207-1.582-3.515.008-4.102.012-8.2.008-12.3M22.98 58.574c-.132-1.539-.117-3.078-.046-4.617 2.683-.07 2.578 4.45.046 4.617zm3.25 1.723c1.965-1.887 2.278-5.317.61-7.48-1.844-1.797-4.621-.965-6.918-1.153v15.992h2.965c.062-2.422-.149-4.855.152-7.261 1.266 2.195 1.262 4.867 1.988 7.261h3.051c-.617-2.453-1.223-4.91-1.848-7.36M39.305 51.664h6.672v2.543h-3.602v3.918h2.648v2.754h-2.648v4.238h3.813v2.54c-2.293-.005-4.59 0-6.883 0 .004-5.333 0-10.66 0-15.993M50.68 58.555a58.707 58.707 0 0 1-.004-4.617c2.722-.11 2.605 4.609.004 4.617zm3.328 1.718c1.937-1.843 2.219-5.203.672-7.359-1.813-1.922-4.684-1.062-7.008-1.242 0 5.328.004 10.652 0 15.98.984.004 1.973.004 2.965.004.074-2.46-.184-4.937.18-7.379 1.144 2.297 1.288 4.922 1.956 7.375 1.028.004 2.051.004 3.082.008-.62-2.46-1.234-4.926-1.847-7.387" fill="#131210"/></svg>