<svg viewBox="0 0 94 94" xmlns="http://www.w3.org/2000/svg" fill-rule="evenodd" clip-rule="evenodd" stroke-linejoin="round" stroke-miterlimit="1.414"><g transform="translate(-476 -603)"><clipPath id="a"><path d="M477.294 604.509h91.392v91.392h-91.392z"/></clipPath><g clip-path="url(#a)" fill-rule="nonzero"><path d="M568.686 650.205c0 25.235-20.457 45.697-45.695 45.697-25.239 0-45.697-20.462-45.697-45.697 0-25.236 20.458-45.696 45.697-45.696 25.238 0 45.695 20.46 45.695 45.696z"/><path d="M522.992 690.39c-22.195 0-40.185-17.994-40.185-40.185 0-22.192 17.99-40.184 40.185-40.184 22.192 0 40.183 17.992 40.183 40.184 0 22.191-17.991 40.185-40.183 40.185zm0-82.098c-23.149 0-41.914 18.766-41.914 41.913 0 23.148 18.765 41.91 41.914 41.91 23.148 0 41.91-18.762 41.91-41.91 0-23.147-18.762-41.913-41.91-41.913z" fill="#fff"/><path d="M505.249 641.362h2.517v17.775c0 3.196-.273 3.196-1.002 3.196-.278 0-.571-.042-.949-.135l-1.177-.298v8.82l.813.115c1.743.247 2.51.333 4.276.333 3.307 0 5.66-.438 7.898-2.672 2.295-2.296 2.715-5.022 2.715-9.565v-17.569h2.355v-8.513h-17.446v8.513zM524.457 632.85v8.513h2.52v17.774c0 3.197-.274 3.197-1.006 3.197-.275 0-.576-.043-.945-.135l-1.178-.298v8.82l.813.115c1.742.246 2.508.333 4.274.333 3.309 0 5.662-.438 7.899-2.672 2.295-2.297 2.715-5.023 2.715-9.566v-17.568h2.355v-8.513h-17.447z" fill="#fff"/><path d="M518.679 639.7h2.355v-5.188h-14.123v5.188h2.517v19.437c0 3.023-.179 4.858-2.663 4.858-.151 0-.308-.018-.465-.033v5.312a21.76 21.76 0 0 0 3.428.233c3.392 0 5.088-.553 6.723-2.186 1.707-1.708 2.228-3.668 2.228-8.39V639.7z" fill="#ce1f2f"/><path d="M537.887 639.7h2.355v-5.188h-14.124v5.188h2.521v19.437c0 3.023-.18 4.858-2.668 4.858-.15 0-.306-.018-.461-.033v5.312c1.237.167 1.978.233 3.425.233 3.393 0 5.09-.553 6.723-2.186 1.708-1.708 2.229-3.668 2.229-8.39V639.7z" fill="#cf1f2e"/><path d="M491.497 662.619l.041-.016-.652-1.995-.014-.043-.794.259.233.715c-.435-.007-.754-.255-.902-.706-.178-.547-.017-1.306 1.025-1.646.769-.252 1.44.042 1.666.733a1.19 1.19 0 0 1-.412 1.359l-.027.02.255.782 1.524-.498.043-.014-.259-.794-.295.096c.133-.378.116-.874-.049-1.377-.433-1.326-1.635-1.96-2.924-1.54-1.332.436-1.89 1.645-1.42 3.082.236.723.713 1.314 1.275 1.581.251.12.519.18.801.18.281 0 .577-.06.885-.178zM492.336 664.445c.417-.218.815-.279 1.153-.179.283.083.516.277.656.545.324.619.04 1.297-.706 1.687-.867.453-1.525.135-1.795-.38-.317-.606-.032-1.294.692-1.673zm2.601-.048c-.355-.679-.869-1.135-1.486-1.319a2.277 2.277 0 0 0-1.709.188c-.54.282-.939.736-1.122 1.278-.207.613-.127 1.3.232 1.988.362.691.883 1.15 1.508 1.33.194.056.394.083.595.083.369 0 .742-.092 1.089-.274 1.019-.532 1.689-1.751.893-3.274zM497.979 670.691l.674-.493-1.027-1.403-.028-.037-.674.493.214.292-1.792 1.313c-.347.254-.625.23-.847-.075-.216-.296-.145-.541.238-.822l1.761-1.29.225.308.674-.494-1.233-1.684-.028-.037-.674.493.306.417-1.813 1.328c-.764.56-.834 1.312-.202 2.175.158.216.618.759 1.23.759.225 0 .47-.072.729-.262l1.942-1.424.325.443zM499.317 673.418l-.291-.292.652-.651.378.378c.336.338.06.633.027.666-.078.079-.363.301-.766-.101zm.371 1.262c.522.182.95.095 1.309-.264.247-.247.384-.56.385-.882.001-.349-.154-.689-.448-.982l-1.93-1.934-.033-.033-.591.59.425.425-1.987 1.984-.425-.425-.591.59 1.653 1.655.033.033.591-.59-.388-.388.771-.77.303.304-.654 2.032-.009.027.964.966.033.033.591-.591-.414-.415.412-1.365zM506.738 678.097l.468.324.475-.688-1.867-1.291-.026-.018-2.213 1.497.641-2.547.008-.031-1.873-1.294-.475.687.469.323-1.599 2.312-.468-.323-.475.687 1.602 1.107.475-.687-.474-.327 1.599-2.312.021.015-.938 3.747-.009.031.447.308 3.201-2.219.021.014-1.599 2.312-.473-.327-.475.687 1.936 1.339.476-.687-.474-.327 1.599-2.312zM508.239 677.916l-.343.762.472.211-1.151 2.564-.472-.212-.342.761 3.561 1.6.042.019.61-1.357-.844-.38-.268.596-1.16-.521.434-.965 1.002.449.342-.761-1.002-.45.375-.836 1.161.521-.266.589.845.38.607-1.351-3.561-1.6-.042-.019zM512.469 679.768l-.49 1.742-.012.045.823.231.276-.983.546.154-.76 2.703-.634-.178-.226.804 2.414.678.045.012.225-.804-.634-.178.759-2.704.546.154-.264.938-.012.044.778.219.044.012.49-1.742.012-.044-3.881-1.091-.045-.012zM521.112 681.728c-.169-.231-.424-.365-.742-.388-.586-.042-1.254.298-1.316 1.149-.059.807.577 1.174 1.088 1.47.388.223.724.417.701.734a.432.432 0 0 1-.468.392.589.589 0 0 1-.412-.21.77.77 0 0 1-.159-.581l.005-.047-.834-.062-.113 1.536-.004.046.835.06.02-.293c.183.248.458.387.818.413.032.003.065.004.099.004.495 0 1.242-.26 1.315-1.256.071-.951-.641-1.328-1.212-1.63-.375-.199-.669-.355-.651-.611.014-.182.175-.297.408-.281.312.023.515.266.541.648l.004.041.821.06.1-1.374.002-.047-.826-.06-.02.287zM525.016 683.69l-.64.032.28-1.147.36 1.115zm1.615 1.316l-1.028-2.76.571-.028-.042-.835-2.95.148.041.833.572-.027-.69 2.846-.56.027.042.835 2.04-.104-.043-.833-.568.029.176-.667 1.065-.054.215.648-.533.026.041.835 2.22-.111-.04-.835-.529.027zM532.108 681.152l-.169-.818-2.02.418.17.818.556-.115.365 1.764-2.05-2.268-1.868.387.17.817.575-.119.57 2.749-.576.119.17.819 1.923-.399.045-.009-.169-.818-.538.111-.464-2.237 2.391 2.667.018.02 1.033-.214-.739-3.566.607-.126zM535.923 682.718l-.36.143-1.034-2.612.323-.128c.382-.151.722-.154 1.013-.009.291.145.524.435.694.861.16.406.192.76.093 1.054-.104.308-.349.541-.729.691zm.624-3.514c-.561-.242-1.116-.211-1.919.107l-2.132.845-.043.017.307.777.62-.245 1.034 2.611-.619.245.308.777 2.47-.979c.993-.394 1.741-1.432 1.174-2.864-.241-.609-.656-1.055-1.2-1.291zM542.902 675.781l-.439-.71-1.584.979.439.71.37-.229.476 1.977-1.57-1.301.331-.204-.44-.711-1.419.878.439.71.327-.201.495 1.961-1.563-1.302.364-.225-.439-.71-1.754 1.084.439.71.407-.251 2.983 2.439.025.021.743-.459-.472-1.969 1.555 1.263.025.021.732-.452-.887-3.771.417-.258zM546.536 676.219l-1.828-2.131.505-.433-.544-.634-1.913 1.641-.034.03.543.633.505-.433 1.829 2.131-.505.433.543.634 1.912-1.64.035-.03-.543-.634-.505.433zM550.302 671.308l-.977.401.033.047c.416.589.428 1.179.032 1.616-.224.247-.51.376-.827.376h-.033c-.334-.009-.67-.158-.972-.432-.651-.59-.74-1.337-.227-1.905.18-.199.313-.281.697-.35.149-.024.418.041.604.113l.029.011.552-.609-1.214-1.098-.561.619.22.199c-.421.092-.781.315-1.127.696-.458.507-.688 1.091-.664 1.691.024.599.299 1.153.795 1.603.25.226.771.612 1.457.649l.108.003c.63 0 1.225-.304 1.769-.903 1.083-1.197.589-2.283.327-2.694l-.021-.033zM553.723 667.483l-2.358-1.531.282-.433-.701-.456-1.199 1.846.702.455.243-.374.73.474-.601.926-.731-.474.243-.374-.7-.456-1.199 1.845.701.456.282-.434 2.358 1.531-.282.434.701.455 1.198-1.845-.701-.456-.243.375-.925-.602.6-.925.926.601-.243.374.701.455 1.199-1.845-.701-.455-.282.433zM555.576 662.098l-.359.803-.019.043.597.265-.519 1.162-.966-.431.429-.962.019-.042-.763-.34-.448 1.003-.836-.373.518-1.162.59.263.359-.803.019-.042-1.311-.585-.042-.018-1.592 3.565-.018.042.72.322.043.018.21-.472 2.566 1.145-.211.473.721.322.042.018 1.591-3.565.019-.043-1.317-.588-.042-.018zM557.873 658.99c-.137-.369-.448-.634-.901-.769-.917-.271-1.435.344-1.852.836-.275.324-.491.581-.737.507-.175-.052-.252-.24-.187-.459.089-.3.365-.448.749-.391l.04.006.233-.789-1.365-.405-.235.795.275.081c-.262.116-.446.336-.537.642-.088.294-.072.613.042.874.139.316.415.544.799.658.777.232 1.272-.313 1.67-.75.301-.331.562-.615.867-.527.225.067.352.31.283.542a.587.587 0 0 1-.294.357.77.77 0 0 1-.601.03l-.045-.014-.238.802 1.52.451.238-.801-.283-.084c.282-.126.476-.364.579-.711a1.43 1.43 0 0 0-.02-.881zM489.93 649.292c-.323 0-1.212 1.05-1.212 1.721 0 .702 1.858.775 1.858 1.591 0 .695-1.017 1.826-1.85 1.826-.67 0-1.656-.752-1.656-1.22 0-.243.534-.873.695-.873.089 0 .42.218.42.332 0 .105-.153.42-.153.63 0 .178.282.565.476.565.469 0 .986-.662.986-1.05 0-.702-1.858-.816-1.858-1.882 0-.889 1.414-2.238 2.141-2.238.339 0 1.276.598 1.276 1.002 0 .234-.267.719-.469 1.05-.048.073-.088.13-.153.13-.129 0-.501-.195-.501-.34 0-.057.032-.121.073-.218.113-.283.226-.558.226-.776 0-.113-.178-.25-.299-.25zM491.885 649.93c0-.307.186-.832.453-.832.202 0 .557.137.557.339 0 .307-.194.832-.452.832-.202 0-.558-.137-.558-.339zm-.388.872c.032-.113.145-.169.267-.169.097 0 .646.29.646.444 0 .186-.654 2.003-.654 2.569 0 .105.129.226.21.226.234 0 .67-.622 1.082-1.349 0 0 .065-.145.17-.145.105 0 .274.129.274.226s-.112.282-.112.282c-.437.808-.922 1.543-1.503 1.543-.363 0-1.091-.339-1.091-.702 0-.38.574-2.424.711-2.925z" fill="#fff"/><path d="M495.86 653.873c.242 0 .678-.622 1.074-1.349 0 0 .073-.146.178-.146s.275.13.275.227-.105.282-.105.282c-.445.808-.921 1.543-1.503 1.543-.363 0-1.091-.339-1.091-.702 0-.518.453-1.81.453-2.117 0-.137-.137-.275-.242-.275-.17 0-.623.202-.744.509-.21.533-.581 2.165-.63 2.4-.032.104-.056.185-.178.185-.185 0-.662-.202-.662-.42 0-.21.614-2.658.784-3.207.048-.113.153-.17.274-.17.138 0 .517.477.517.477s.792-.477 1.212-.477c.242 0 .679.332.679.631 0 .379-.501 1.954-.501 2.383 0 .105.137.226.21.226z" fill="#fff"/><path d="M496.796 653.315c0-1.131.792-2.682 1.697-2.682.533 0 1.114.404 1.114.727 0 .226-.258.905-.42.905-.202 0-.509-.202-.509-.34 0-.169.243-.468.243-.622 0-.056-.097-.12-.186-.12-.428 0-.937 1.227-.937 2.116 0 .291.347.557.614.557.428 0 1.131-.469 1.672-1.333 0 0 .081-.145.178-.145.113 0 .283.129.283.226s-.114.283-.114.283c-.589.929-1.413 1.543-2.173 1.543-.67 0-1.462-.542-1.462-1.115z" fill="#fff"/><path d="M502.022 651.425c0-.072-.129-.161-.242-.161-.315 0-.751.96-.824 1.34.711 0 1.066-.872 1.066-1.179zm-.598 2.432c.38 0 .76-.283 1.051-.679 0 0 .105-.161.202-.161.113 0 .282.153.282.25 0 .096-.137.274-.137.274-.323.428-.864.889-1.551.889-.59 0-1.382-.573-1.382-1.115 0-.913.905-2.682 1.657-2.682.371 0 1.155.485 1.155.792 0 .445-.517 1.655-1.042 1.655-.364 0-.76-.112-.76-.112s-.04.112-.04.307c0 .283.339.582.565.582zM545.177 650.634s-.428.299-.501.299c-.089 0-.315-.315-.412-.533-.008-.025-.016-.041-.016-.073 0-.024.056-.064.081-.081.274-.153 1.122-.63 1.219-.751.146-.178.267-.396.34-.396.161 0 .63.323.63.428 0 .065-.202.372-.275.59-.153.468-.977 3.692-1.114 4.168-.025.081-.082.146-.179.146-.113 0-.67-.242-.67-.412 0-.145.727-2.82.897-3.385zM548.973 651.886c.113-.21.388-1.042.388-1.688 0-.299-.323-.558-.501-.558-.428 0-1.082 1.381-1.082 2.004 0 .258.315.492.484.492.186 0 .647-.129.711-.25zm-1.195 1.922c.258-.258.622-.702.937-1.26-.21.073-.453.13-.638.13-.445 0-1.341-.647-1.341-1.107 0-.816 1.09-2.553 1.914-2.553.501 0 1.6.679 1.6 1.236 0 1.801-.995 3.313-1.729 4.071-.057.057-.113.106-.21.106-.113 0-.671-.242-.671-.413 0-.08.048-.12.138-.21zM552.39 650.529c0 .355.258.743.461.743.371 0 .67-.711.67-1.155 0-.323-.202-.59-.42-.59-.484 0-.711.477-.711 1.002zm-.687 2.722c0 .34.315.784.622.784.517 0 .865-.832.865-1.527 0-.347-.363-.776-.679-.776-.291 0-.808.727-.808 1.519zm2.715-3.118c0 .372-.348 1.026-.8 1.358 0 0 .67.557.67 1.098 0 .993-1.009 1.842-1.85 1.842-.783 0-1.809-.654-1.809-1.373 0-.832.549-1.471 1.325-1.697 0 0-.574-.541-.574-.961 0-.913.808-1.381 1.559-1.381.719 0 1.479.54 1.479 1.114zM556.098 650.028c-.138 0-.477.315-.558.315-.08 0-.234-.17-.234-.251 0-.129.606-.993.735-.993.234 0 1.269.242 1.446.242.121 0 .598-.242.687-.242.129 0 .388.428.388.533 0 .121-1.543 1.495-1.543 1.495s.291-.065.395-.065c.413 0 .946.63.946 1.042 0 .832-1.139 2.335-1.818 2.335-.396 0-.945-.162-1.074-.243-.186-.121-.711-.719-.711-.856s.509-.582.646-.582.339.445.565.808c.04.057.38.242.55.242.331 0 .848-1.357.848-1.833 0-.154-.178-.404-.428-.404-.145 0-.388.21-.541.21-.122 0-.485-.347-.485-.501 0-.024.008-.073.056-.113.25-.234 1.229-1.139 1.229-1.139h-1.099zM557.91 644.196c.024.104.075.187.169.165.078-.018.11-.09.08-.22l-.04-.166-.248.058.039.163zm-.466.333c.137-.112.224-.183.278-.271.036-.056.032-.081.014-.156l-.006-.035-.373.085-.045-.182.908-.211.103.444c.048.21-.058.318-.186.348-.141.033-.258-.038-.314-.186h-.003c-.009.11-.065.15-.324.393l-.052-.229zm.257-.967a.709.709 0 0 0-.527.846.705.705 0 0 0 .846.524.696.696 0 0 0 .522-.843.698.698 0 0 0-.841-.527zm.357 1.54a.876.876 0 1 1-.396-1.707.876.876 0 0 1 .396 1.707zM504.352 625.535l.426-.279-1.915-3.076a35.32 35.32 0 0 0-.453.297l-.897-1.413a51.795 51.795 0 0 1 3.668-2.213 87.413 87.413 0 0 1 2.168 1.894 88.218 88.218 0 0 1-.283-2.875 51.48 51.48 0 0 1 3.887-1.726l.644 1.545c-.167.066-.335.133-.502.201l1.425 3.332.472-.19.644 1.544c-1.017.402-2.018.84-3.002 1.313l-.735-1.504c.153-.074.306-.146.46-.218l-1.668-3.494-.019.008c.173 1.961.409 3.907.706 5.836-.281.146-.559.295-.837.446a90.668 90.668 0 0 0-4.418-3.858l-.018.01c.654 1.113 1.306 2.227 1.959 3.34l.436-.26.834 1.452c-.706.414-1.401.848-2.085 1.3l-.897-1.412zM496.495 634.167l.293-.416-2.913-2.154c-.105.147-.209.294-.312.442l-1.354-.983a50.91 50.91 0 0 1 2.596-3.408c.911.307 1.815.628 2.712.962a88.748 88.748 0 0 1-1.322-2.569 51.372 51.372 0 0 1 2.978-3.036l1.168 1.198c-.132.124-.263.248-.392.373l2.551 2.573c.123-.118.245-.234.369-.35l1.167 1.198a45.59 45.59 0 0 0-2.307 2.326l-1.237-1.128c.115-.125.231-.248.347-.372l-2.838-2.634a.192.192 0 0 1-.014.015 90.602 90.602 0 0 0 2.806 5.166c-.207.239-.412.48-.614.723a90.704 90.704 0 0 0-5.529-1.96l-.012.016 3.051 2.383c.102-.134.206-.269.31-.402l1.31 1.043a44.961 44.961 0 0 0-1.46 1.977l-1.354-.983zM493.937 639.348c.087-.207.174-.414.264-.62l-3.324-1.448c-.097.222-.192.446-.286.67l-1.545-.645a48.922 48.922 0 0 1 1.994-4.204l1.477.788c-.114.214-.227.429-.338.645l3.225 1.656c.103-.198.207-.397.313-.596l1.477.788a42.082 42.082 0 0 0-1.712 3.611l-1.545-.645zM515.033 620.413l.554-.119-.228-1.085a80.595 80.595 0 0 0-2.352-2.055c-.165.038-.329.077-.493.117l-.392-1.628a82.017 82.017 0 0 1 3.895-.84l.313 1.645-.432.084c.347.413.689.828 1.026 1.246.222-.522.449-1.042.682-1.562l-.444.078-.295-1.648a80.512 80.512 0 0 1 2.891-.467l.238 1.658-.468.068a81.612 81.612 0 0 0-1.417 2.777l.189 1.093.559-.094.273 1.652a74.571 74.571 0 0 0-3.743.716l-.356-1.636zM533.792 621.603c.705.263 1.104-.307 1.573-1.524.468-1.218.549-1.916-.192-2.192-.742-.275-1.136.307-1.576 1.534-.441 1.229-.511 1.921.195 2.182zm1.95-5.247c2.788 1.047 3.207 3.411 2.554 4.91-.659 1.513-2.542 2.817-5.073 1.868-2.536-.934-3.112-3.151-2.622-4.728.484-1.562 2.345-3.078 5.141-2.05zM538.208 623.357l.45.307 2.055-2.987-.468-.32.94-1.385a94.154 94.154 0 0 1 3.243 2.304l-1 1.344a123.26 123.26 0 0 0-.377-.279l-.632.86c.454.335.905.673 1.353 1.016l.649-.849a92.08 92.08 0 0 1-.373-.284l1.011-1.335a92.51 92.51 0 0 1 3.119 2.468l-1.067 1.29-.439-.36-2.292 2.809.421.346-1.067 1.291a88.05 88.05 0 0 0-2.884-2.283l1.01-1.334c.12.089.239.18.358.273l.693-.906a81.14 81.14 0 0 0-1.333-.999l-.675.918.362.268-.999 1.343a84.71 84.71 0 0 0-2.998-2.131l.94-1.385zM545.76 629.267c.132.163.264.327.394.491l2.837-2.258-.41-.511 1.303-1.053c.75.929 1.482 1.873 2.196 2.829a92.955 92.955 0 0 1-1.377 4.32l.013.017 1.615-1.131a92.8 92.8 0 0 0-.359-.509l1.365-.97a91.53 91.53 0 0 1 1.725 2.513l-1.396.925-.358-.536-4.491 3.021a83.923 83.923 0 0 0-1.311-1.893 90.12 90.12 0 0 0 1.63-4.933l-.013-.017-1.949 1.493c.13.169.258.339.387.509l-1.337 1.008a85.803 85.803 0 0 0-1.766-2.263l1.302-1.052zM553.246 634.988c.283.574.553.652 1.16.35-.121-.249-.242-.497-.365-.745l1.402-.695c.332.669.654 1.342.964 2.022l-1.734.793c-.826.375-1.547-.01-2.02-.979a3.941 3.941 0 0 1-.163-.371l.756-.375zM552.411 638.626c.182.513.356 1.029.524 1.547-.537.41-.698.813-.542 1.326.102.332.33.495.597.417.128-.038.214-.107.304-.278.302-.58.104-1.866.551-2.86.266-.587.629-.94 1.153-1.126 1.157-.418 2.282.235 2.722 1.637.2.637.196 1.277-.005 1.809l.415-.118c.161.564.314 1.13.46 1.698l-1.921.493c-.141-.551-.29-1.1-.446-1.648.027-.018.053-.038.08-.057.413-.35.546-.743.398-1.23-.102-.335-.324-.491-.578-.411a.444.444 0 0 0-.254.22c-.195.425-.126 2.112-.7 3.151a2.14 2.14 0 0 1-1.305.991c-1.168.286-2.288-.45-2.653-1.694a3.084 3.084 0 0 1 .034-1.772l-.44.143c-.162-.5-.33-.997-.505-1.492l2.111-.746zM496.737 642.852c-.358-.641-.905-.931-2.102-1.271l-4.745-1.345.236-.898-1.59-.525a52.893 52.893 0 0 0-1.291 4.591l1.632.38.236-.811 4.798 1.36c.832.236 1.041.373.92.8a1.317 1.317 0 0 1-.127.291l1.737.492c.187-.419.261-.601.385-1.038.241-.853.261-1.398-.089-2.026zM527.757 623.658c.59-.436.809-1.016.994-2.247l.732-4.877.92.121.32-1.644a52.87 52.87 0 0 0-4.719-.698l-.169 1.666.835.132-.741 4.932c-.129.855-.238 1.08-.677 1.014a1.286 1.286 0 0 1-.304-.089l-.268 1.786c.44.132.629.182 1.078.249.877.132 1.42.082 1.999-.345z" fill="#fff"/></g></g></svg>