<svg width="450" height="240" xmlns="http://www.w3.org/2000/svg"><path fill="none" d="M-1-1h582v402H-1z"/><g><path fill="#2276ba" d="M158.825 79.085c-1.159-32.139 25.003-66.41 66.106-66.577 38.356-.158 66.794 30.85 66.705 66.746-.085 34.705-27.479 66.37-66.602 66.283-41.22-.092-67.323-34.465-66.209-66.452zm125.147.789c.797-32.79-27.25-59.721-59.004-59.578-32.962.149-59.114 26.317-59.528 59.181-.391 30.934 25.02 59.475 59.123 59.614 33.765.138 60.047-28.086 59.409-59.217zM125.063 205.521l-6.539-16.274-9.99 14.313c-3.137-4.914-5.844-9.153-9.04-14.162l-5.205 16.038c-2.47-.747-4.581-1.387-7.342-2.224l11.468-29.61c3.897 6.326 7.169 11.635 10.838 17.593l10.766-16.559 12.403 27.696c-2.567 1.111-4.656 2.018-7.359 3.189zM85.905 202.394l-7.252 3.247-6.62-16.229-9.976 14.152-9.133-14.08c-1.211 3.947-2.191 7.099-3.146 10.262-1.923 6.373-1.92 6.375-9.125 3.111l11.309-29.096c3.826 6.241 7.037 11.48 10.7 17.459l10.932-16.378c4.341 9.712 8.229 18.419 12.311 27.552zM235.386 175.004v28.752h-7.983v-11.399h-12.938v11.286h-7.915v-28.215h7.665v11.015l12.384-.753.828-10.686h7.959zM311.262 188.935c.141 1.914.339 3.488.358 5.063.162 12.372-.041 9.505-10.182 10.396-3.889.342-8.22-.775-11.891-2.319-7.271-3.053-9.899-10.274-6.551-17.319 4.54-9.549 13.004-13.562 23.085-15.809l1.853 6.754c-2.022.792-3.752 1.227-5.225 2.096-3.196 1.89-6.736 3.532-9.274 6.123-5.097 5.192-3.022 11.561 3.996 13.423 1.485.394 3.052.493 5.227.828.192-3.329.354-6.089.535-9.235l8.069-.001zM328.209 203.284h-7.674v-28.357c6.233-.666 12.565-.951 18.659 1.384 4.66 1.789 5.794 6.361 2.862 10.501-.913 1.29-2.11 2.38-3.453 3.865 2.707 2.902 5.352 5.737 8.479 9.086-2.175 1.687-4.144 3.214-6.503 5.047-3.775-5.009-7.185-9.531-10.206-13.541 1.577-3.138 3.309-5.726 3.989-8.57.158-.655-3.267-2.174-6.153-3.997v24.582zM412.978 186.938c4.659-4.941 8.382-8.889 12.525-13.285 1.762 1.77 3.36 3.37 5.396 5.412-3.551 3.168-6.662 5.949-10.16 9.071 3.987 3.826 7.289 6.989 10.985 10.534-2.19 1.729-4.104 3.234-6.379 5.028l-12.306-13.529v13.444h-7.815v-29.262h7.754v12.587zM352.739 174.838c5.679-.372 10.995-.724 16.929-1.113.092 1.762.181 3.407.28 5.248-3.315.511-6.238.96-9.276 1.43v5.713c2.694.188 5.124.36 7.882.556.091 1.599.166 2.942.266 4.728l-8.13.856-.305 5.46c3.37.218 6.34.413 9.774.636v5.188h-17.42v-28.702zM386.7 197.777c3.336.189 6.314.354 9.864.554l.251 5.25c-5.558 0-10.671.107-15.771-.106-.834-.033-2.291-1.464-2.307-2.271-.168-8.685-.105-17.372-.105-26.383l16.881-1.248v5.277c-9.346 1.662-9.346 1.662-8.713 7.199 2.302.162 4.705.334 7.572.535.096 1.511.188 2.991.299 4.77-2.837.338-5.257.623-7.971.944v5.479zM246.066 174.763h16.626l.612 4.839c-3.201.414-5.978.771-9.28 1.196-.107 1.616-.219 3.277-.356 5.326 2.653.196 4.905.361 7.483.554l1.001 5.063-7.983.816v5.401c2.98.155 5.936.311 9.23.484.136 1.765.25 3.282.399 5.244h-17.732v-28.923zM160.689 181.346c-11.12 3.562-12.744 12.172-11.831 22.307h-7.537c-.59-4.511-.262-9.264-1.982-13.098-1.69-3.768-5.462-6.604-8.837-10.435l2.1-5.48c5.887 1.624 9.601 5.22 12.318 10.808 3.347-5.024 6.951-9.251 13.298-10.884l2.471 6.782zM201.31 181.468h-10.241v22.268H182.8v-22.264h-9.657v-5.989h27.898l.269 5.985zM7.862 170.609h8.59c-.24 9.116 1.235 17.986-.98 26.742-1.391 5.491-4.814 9.354-10.339 11.634l-4.01-6.036c7.08-4.027 6.979-10.816 6.767-17.716-.146-4.771-.028-9.551-.028-14.624zM34.566 204.392H27.1v-28.376h7.466v28.376z" clip-rule="evenodd" fill-rule="evenodd"/><path d="M283.972 79.874c.639 31.131-25.644 59.355-59.409 59.217-34.104-.139-59.514-28.68-59.123-59.614.414-32.864 26.566-59.032 59.528-59.181 31.754-.143 59.801 26.788 59.004 59.578zm-12.657-18.616c-2.242-.474-4.496-.899-6.724-1.43-10.553-2.519-19.731-8.113-29.275-12.949-8.088-4.099-16.315-8.021-24.774-11.256-5.919-2.265-12.351-2.069-18.298.609-5.51 2.481-7.656 8.545-4.536 12.826 5.166 7.087 17.646 10.212 25.22 6.641 4.46-2.102 5.171-6.461 1.865-10.089-3.401-3.734-10.551-5.39-15.344-3.553-3.216 1.233-3.687 2.804-1.685 5.619 2.478 3.486 5.29 4.317 10.362 2.833l-8.731-5.716c8.008.248 11.164 2.407 12.11 7.419-6.328 3.078-17.459-1.291-19.614-7.761-.694-2.082-.413-4.284 2.036-4.702 3.261-.559 6.835-1.26 9.912-.475 5.12 1.305 10.125 3.396 14.87 5.772 12.143 6.08 24.3 12.063 37.495 15.568 4.982 1.324 10.006 2.462 15.111.644zm-51.804-6.84c0 2.884.022 5.011-.004 7.138-.112 9.12.017 18.252-.421 27.357-.654 13.629-7.688 23.07-20.048 28.576-2.71 1.209-5.613 1.983-8.428 2.957 2.694.521 5.264.326 7.763-.205 11.59-2.464 21.255-7.874 25.874-19.348 2.094-5.199 3.455-10.947 3.813-16.532.605-9.443.162-18.952.113-28.434-.004-.842-.347-1.682-.635-2.985l-8.027 1.476zm11.427 3.355c0 8.282-.036 15.949.009 23.617.076 13.128-3.554 24.654-14.158 33.23-.111.09.029.495.074.994 11.122-3.401 18.895-10.565 20.67-21.761 1.692-10.667 1.096-21.699 1.438-32.572.042-1.346-.32-2.704-.517-4.217l-7.516.709zm5.593 46.731c5.595-1.838 8.615-5.871 10.525-10.709 4.22-10.685 2.298-21.695 1.892-33.322l-7.078 1.586c-.885 14.578 2.419 29.143-5.339 42.445z" fill="none" clip-rule="evenodd"/><path fill="#2276ba" d="M271.315 61.258c-5.105 1.818-10.13.68-15.11-.643-13.195-3.504-25.353-9.488-37.495-15.568-4.745-2.376-9.75-4.467-14.87-5.772-3.077-.785-6.651-.084-9.912.475-2.449.418-2.73 2.621-2.036 4.702 2.155 6.47 13.286 10.839 19.614 7.761-.946-5.012-4.103-7.171-12.11-7.419l8.731 5.716c-5.072 1.484-7.885.653-10.362-2.833-2.002-2.815-1.531-4.386 1.685-5.619 4.793-1.837 11.942-.181 15.344 3.553 3.306 3.628 2.595 7.987-1.865 10.089-7.574 3.571-20.054.446-25.22-6.641-3.12-4.281-.974-10.344 4.536-12.826 5.947-2.678 12.379-2.874 18.298-.609 8.459 3.235 16.687 7.157 24.774 11.256 9.544 4.836 18.723 10.431 29.275 12.949 2.227.529 4.481.955 6.723 1.429z" clip-rule="evenodd" fill-rule="evenodd"/><path fill="#2276ba" d="M219.511 54.418l8.028-1.477c.288 1.304.631 2.144.635 2.985.049 9.481.492 18.991-.113 28.434-.358 5.584-1.72 11.333-3.813 16.532-4.619 11.474-14.284 16.884-25.874 19.348-2.499.531-5.068.726-7.763.205 2.814-.974 5.718-1.748 8.428-2.957 12.359-5.505 19.394-14.946 20.048-28.576.438-9.105.309-18.237.421-27.357.025-2.126.003-4.253.003-7.137z" clip-rule="evenodd" fill-rule="evenodd"/><path fill="#2276ba" d="M230.938 57.773l7.517-.709c.196 1.513.559 2.871.517 4.217-.343 10.874.254 21.905-1.438 32.572-1.775 11.196-9.548 18.36-20.67 21.761-.045-.5-.186-.904-.074-.994 10.604-8.576 14.234-20.102 14.158-33.23-.046-7.668-.01-15.335-.01-23.617zM236.531 104.504c7.758-13.302 4.454-27.868 5.339-42.445l7.078-1.586c.406 11.626 2.328 22.637-1.892 33.322-1.91 4.838-4.93 8.871-10.525 10.709z" clip-rule="evenodd" fill-rule="evenodd"/><g fill="#2276ba" clip-rule="evenodd" fill-rule="evenodd"><path d="M449.036 167.209c.004 5.722-4.645 10.369-10.369 10.369s-10.372-4.647-10.37-10.369c.003-5.729 4.652-10.372 10.373-10.368a10.373 10.373 0 0 1 10.366 10.368zm-18.634.002c.003 4.565 3.704 8.266 8.265 8.264a8.266 8.266 0 0 0-.001-16.53 8.265 8.265 0 0 0-8.264 8.266z"/><path d="M434.12 172.398v-10.847h.055c1.41 0 2.815-.002 4.224 0a8.892 8.892 0 0 1 1.622.132c.419.078.821.197 1.198.395.612.321 1.013.812 1.19 1.479a3.66 3.66 0 0 1 .008 1.918c-.18.67-.584 1.164-1.176 1.51a3.768 3.768 0 0 1-.714.32l-.066.021c.101.033.196.061.285.099.37.147.658.398.906.699.311.378.546.798.761 1.231.491.995.979 1.987 1.47 2.979.008.019.019.04.029.065l-.059.002c-.954 0-1.908 0-2.862.002-.046 0-.064-.017-.082-.055-.442-.9-.885-1.802-1.326-2.704a4.215 4.215 0 0 0-.448-.722 1.475 1.475 0 0 0-1.078-.601c-.376-.031-.755-.025-1.137-.039v4.114c-.937.002-1.866.002-2.8.002zm2.8-6.038a.402.402 0 0 0 .047.002c.372 0 .744.003 1.115 0 .28 0 .557-.02.829-.098.397-.115.661-.365.763-.771.085-.346.087-.691.005-1.036-.092-.393-.336-.645-.718-.766a2.678 2.678 0 0 0-.784-.112c-.402-.004-.807-.002-1.21-.002a.29.29 0 0 0-.047.005v2.778z"/></g></g></svg>