<svg width="500" height="700" xmlns="http://www.w3.org/2000/svg"><style>.st0{fill:#ec6608}.st2{fill:#1c1b1a}</style><path d="M-1-1h369v572H-1V-1z" id="canvas_background" fill="none"/><g id="svg_10"><g id="svg_1"><g id="svg_2"><g id="svg_3"><path class="st0" d="M211.449 363.488l.5-63.3c10.4 1.1 18.3-.9 30.4-6.6 16.7-7.9 39-27 57.6-52.6l6.6-9c-4.4 27.7-30 60.3-42 78.2-.8 1.3-1.6 2.7-1.9 4.2-.1.7-.2 2 .6 2.4.6.2 1.4 0 1.9-.4.8-.5 1.4-1.2 2.1-1.9.8-.9 1.6-1.8 2.3-2.7 2.5-3 4.9-5.8 7.2-9 17.1-24.7 29-42.8 33.9-64.7.1.7.3 1.5.4 2.2 4.5 24.6-2 34.6-9.6 49-1 1.8-1.9 4-1.5 6 .6 2.7 2.1 2.2 4.5-.2 5.9-7.6 10.2-16.3 12.5-25.6l15 86.1-120.5 7.9zm83.4-20.6l-.3-4.4-8.1.5-.3-5.2 8.1-.5-.3-4.4-12.6.8.9 14 12.6-.8zm-16.8 5.2l-1.2-18.1-4.4.3 1.5 22.5 21.5-1.4-.3-4.4-17.1 1.1zm26.6-19.9l-4.4.3 1.5 22.5 21.5-1.4-.3-4.4-17 1.1-1.3-18.1zm5.4 13.7l12.6-.8-.3-4.4-8.1.5-.4-5.2 8.1-.5-.3-4.4-12.6.8 1 14zm-42.9 2.8l-.3-4.4-8.1.5-.3-5.2 8.1-.5-.3-4.4-12.6.8.9 14 12.6-.8zm-44.5 7l-1.2-18.1-4.4.3 1.5 22.5 21.5-1.4-.3-4.4-17.1 1.1zm16.8-5.2l-.3-4.4-8.1.5-.3-5.2 8.1-.5-.3-4.4-12.6.8.9 14 12.6-.8zm10.9 3.4l-1.2-18.1-4.4.3 1.5 22.5 21.5-1.4-.3-4.4-17.1 1.1zm92.8-152.3c0-1-.4-2-1.2-2.8-1.2-1.2-3-2-4.5-2.1-2.4-.3-6.2.9-6.5 3.7-.1.5 0 1.1.1 1.6-12.4 0-26.5-1.6-33.9-7 5.4-.8 11.2-2.5 16.9-4.4-.1 1 .1 2 .7 2.8 1.5 2.3 4.7 3.1 7.3 2.7 2-.4 4.4-1.7 4.9-3.9.3-1.2 0-2.4-.8-3.4-.6-.8-1.5-1.4-2.4-1.9 11.1-4.5 20.6-9.4 24.4-10.8 1.9 5 5.1 19.7 5.9 23.4.1.7-.4 1-.7 1-2 .4-5.6.8-10.2 1.1zm1.6-17.7c-1.1-.6-2.4-.9-3.5-.8-1.7.1-3.4.8-4.7 2-2 1.9-1.3 4.6.8 6.1 1.8 1.3 4.2.9 6 0 1.8-.9 3.9-3 3.2-5.2-.4-1-1-1.6-1.8-2.1zm-160.1-61.4c-3.5-1.6-10.7 1.7-8.2 6.2.6 1.2 1.9 1.8 3.2 2 2.3.4 5.3-.5 6.7-2.5 1-1.4.8-3.3-.2-4.6-.4-.5-.9-.9-1.5-1.1zm-27 6.8c-1.7 1.1-4.6 3.2-2.8 5.4 1.7 2.1 6.1.8 8.1-.3 1.7-.8 4.6-3 3.7-5.2-.2-.5-.6-.9-1-1.2-2.2-1.2-6.4.3-8 1.3zm10.8-27.4c-2.1 0-4.6 1.1-6.3 3.2-.8 1.1-1.1 2.6-.5 3.3 1 .9 2.1 1.6 3.8 1.3 2.2-.4 4.7-1.8 6.1-4.1 1.8-2.7-1.2-3.8-3.1-3.7zm-34.4 40.8c-.8 2.1-1 4.9 1.8 5.4 3.9.7 8.5-3.8 9.5-7.3.4-1.7-.3-3.5-2.1-4.1-3.7-1.2-8 2.9-9.2 6zm-10.6 6.2c-1.9-.8-4.8 1.4-6 2.6-1.8 1.8-3.3 4.2-3.2 6.7.1 1.8 1 3.6 2.9 3.9 4.4.6 9.2-6.5 8.8-10.3-.1-1.2-.8-2.2-2.5-2.9zm-9-13.7c-.4-.2-.8-.2-1.3-.1-3.7.5-8.5 6.4-6.4 10.1.4.7 1.1 1.2 1.9 1.3.5 0 1.1-.1 1.6-.3 2.1-.9 3.9-2.9 4.9-5 .4-.9.9-2.4.9-3.7-.2-1-.6-1.9-1.6-2.3zm-11.1 21c-1.1-.4-2.4-.1-3.4.6-2.9 1.9-6.8 10-1.5 11.5 1.4.4 3-.1 4.2-1 2.3-1.9 4-6.2 2.7-9.1 0-.1-.1-.1-.1-.2-.4-.9-1.1-1.5-1.9-1.8zm29.5-30.2c-.6-.7-1.6-1-2.5-.9-3.5.4-8.4 4.4-7.7 8.2.1.7.5 1.4 1.1 1.8.7.4 1.6.3 2.4.1 2.3-.6 7.2-4.1 7.3-7.3.1-.6-.1-1.3-.6-1.9zm-24.6 46.7c-5.5-.3-12.4 12.6-5 14.3.9.2 1.8.1 2.6-.2 3.5-1.1 7.5-7.7 6.3-11.5-.4-1.4-1.6-2.5-3.9-2.6zm101.3-58.8c-9.3 18-29.6 22.1-45.3 28.7-12.9 5.4-24.8 13.8-34.2 24.4-8.7 9.9-14.5 26.3-29.1 28.6-12 1.9-14.9-10.5-13.7-20.7 1.5-12.6 10.3-32.6 27.4-47.5 10.4-9.1 20.8-15.9 30.5-21-1 6.2-1.9 11.7-2.3 13.9-1.7 1.5-2.9 3-3.5 4.3-.3.7-.3 1.7.4 2.4.8.8 2 .9 2.7.4 2.4-1.8 5.6-3.9 9.7-4.9 3.1-.8 6.3-.9 7.5-1.2 1.1-.3 2-1.1 2.1-2.2.1-1.1-.4-2.3-1.7-2.8-.5-.2-1.1-.3-1.8-.4l-2-14.9c17.5-7.6 30-9.3 30-9.3s-9.8 8.8-14.1 23c12.8 5 27.7 1.4 37.4-.8z" id="svg_4"/><path fill="#fff" d="M187.949 429.088c-.7 0-1.3-.6-.7-1 1.1-.8 11.9-5.9 12-5.7 2.5 2.8 3.2 6.3 3.2 6.3s-14.4.4-14.5.4zm120.9-6.8c.1-.1 10.9 4.9 12 5.7.6.4.1 1.1-.7 1-.1 0-14.5-.5-14.5-.5s.7-3.4 3.2-6.2zm-88.3-284.3c-1.8 2.8-3.5 5.9-5.2 9.4-.1-1.7-.3-3.1-.6-4.1 1.8-1.8 3.7-3.6 5.8-5.3zm-11.3 11.5c.8 1.8 2.1 3.4 3.3 4.6-.9 2.3-1.7 4.8-2.5 7.5-1.8-5.2-3.3-6.8-4.4-7.1 1.1-1.7 2.3-3.4 3.6-5zm-6.7 10.1c.1 3.8 3.1 6.6 5.9 8.2-.8 3.1-1.6 5.9-2.3 8.6-1.2-5.9-2.6-7.5-3.7-7.7-1-.2-1.9.5-2.6 1.9-2.6 5.2 1.1 9.7 4.3 12.1-1.1 3-2.1 5.7-3.2 8-.9-6.5-2.3-8.4-3.5-8.6-.9-.2-1.7.3-2.5 1.4.8-7.6 3.2-15.8 7.6-23.9zm-7.6 40c-.3-2.7-.4-5.5-.4-8.3.9 1.8 2.3 3.4 3.7 4.6-1.1 2-2.1 3.6-3.1 4.9-.1-.4-.2-.8-.2-1.2zm-48.8 18.2c-.7-.1-3.2-.4-4.4-1.3-.5-.4-.4-1.5 0-2 1.5-2 6.4-3.2 9.1-3.5-1.2 1.3-3.9 5-4.7 6.8zm-1.8 4.2c-.7.1-1.3.3-2 .5-1.2.4-2.2.9-2.7 1.5-.2.3-.4.5-.4.9-.1.3-.1.7-.1 1.2s.1.9.3 1.2c.1.3.3.5.6.7.5.4 1.6.7 2.8.8.5.1 1.1.1 1.7.1-1.5-1.9-.9-4.7-.2-6.9zm1.4 25.8s-2.8.3-3.4 0c-.3-.1-1.5-.3-1.5-1.9 0-1.6 1.3-1.9 1.6-2 .6-.3 3.4-.1 3.4-.1s5.6-.2 5.6 1.8-5.7 2.2-5.7 2.2zm7.3-11.1c0-.4-.1-.6-.5-1s-1.1-.7-1.8-1c-.7-.3-1.6-.5-2.4-.6-.4-.1-.9-.1-1.3-.2l-1.4-.2c-.9-.1-1.8-.2-2.6-.3-1.3 0-2.5 0-3.1 1.3-.7 1.4-.7 3.6 1 4.2.5.2 1.3.3 2.2.3.8 0 1.7 0 2.7-.1l1.5-.1c.5 0 .9 0 1.4-.1.9-.1 1.7-.2 2.4-.4s1.3-.5 1.7-.8c.1-.3.2-.5.2-1zm57.7 191.4c-.4-2.1-1.4-6.6-3.5-8.8 0 0 4.1-2 6-2.6 3.2 2.7 5.3 8.8 5.5 11l-8 .4zm15.8-.9c-.1-3.4-2-9.4-5.7-13.7l6.7-2.6c6.2 6.1 6.8 16.1 6.8 16.1s-5.7.3-7.8.2zm24.3-.3c-1.9.2-6.7.2-8.1.2-2.2-12.6-7.6-18.8-7.6-18.8-.1-.4 7.6-1.7 7.6-1.7s6.3 1.5 8 1.5v18.8h.1zm0-25.5c-.6 1.6-8.4-1-8.4-3.1 0-1.3-2.8-27.4-3-28.9l11.3-.7c.2 9.4.3 23.3.1 32.7zm44 15.2c1.9.6 6 2.6 6 2.6-2.1 2.2-3.1 6.7-3.5 8.8l-8-.5c.2-2.1 2.3-8.1 5.5-10.9zm-14.3-5.7l6.7 2.6c-3.7 4.3-5.6 10.3-5.7 13.7-2.1.1-7.9-.2-7.9-.2s.6-10 6.9-16.1zm-7.7-2.7s-5.4 6.2-7.6 18.8c-1.4 0-6.3 0-8.3-.2l.2-18.8c1.8 0 8-1.5 8-1.5s7.8 1.4 7.7 1.7zm-15.4-39.9c2.6-.3 8.5-.6 11.3-.7 0 0-3 29.3-3 30.7 0 2-7.8 4.7-8.4 3.1-.3-9.5-.2-23.6.1-33.1zm124.1-185.2c-.7 1.2-1.4 2.6-1.7 4-.7 3.1-10.7 60.1-10.7 60.1s-9.3 2.7-46.6 12.3l-3.6-13.7c12.9-2.4 39.1-7.4 39.6-7.9s4.7-20.2 6.4-29.7c.3-1.7 1.1-5.2-.6-3.8-2.5 2.1-7.6 5.2-10.3 2.2-1.1-1.2-1-2.6-.4-3.9 1.3-.2 2.5-.4 3.6-.6 2.6-.5 4.2-2.9 3.7-5.5 3.8-4 14.2-16.5 11.3-27.1-3-10.6-17.5-8.7-25.7-2.6-2.8 2.1-3.2 1.4-3.5 1.1-.2-.3-.2-.8-.2-1.1.2-3.7 9-16.3 21.1-10 .8.4 2.1 1 3 1 4.3 0-6.2-20.9-3.1-22.2 2.3-1 5.2 4.2 7.6 10.1 2.1 5.1 2.9 10.9 4.2 10.8 2-.1 4.1-24.4 8-23.5 3.7.8-.1 20.8-.4 23-.3 2.2-.5 3 .3 3.3 1.5.5 3.5-2.8 5.8-6.5 3.3-5.3 6.1-9.1 7.3-8.1 3.8 3-8.2 26.1-15.1 38.3zm-138.3-40.3c.8 2.6 2.7 5 5.2 6.6 1.3.8 2.7 1.4 4.3 1.7 1.6.3 3.3.2 4.9-.2 1.6-.5 3.2-1.4 4.5-2.6 1.2-1.2 2.1-2.7 2.6-4.1 1-3 .8-5.9-.1-8.4l-.1-.4c-.3-.8-1-1.3-1.8-1.3-1 0-1.9.9-1.8 1.9 0 2.1-.2 4.3-1 6-.8 1.7-2.1 3-3.8 3.4-1.7.5-3.7.3-5.4-.6-.9-.4-1.7-1-2.5-1.7s-1.4-1.4-2-2.3c-.4-.6-1.2-.9-2-.7-.9.3-1.5 1.3-1.2 2.2l.2.5zm-58.6 153.1c-8.5-12.9-20.9-31.8-27.9-45.8v-5.6c.1.1.2.1.3.1 1.1.6 2.5.2 3.1-.9 1-1.7-2.3-4.2-1-13.5.6-4.6 3.6-9.5 3.6-9.8.1-.3 0-.6-.1-.9-.1-.4-.3-.8-.6-1.2-.2-.2-.4-.4-.7-.6-.9-.7-2.2-.9-4.8 4.1-2.1 3.9-2.8 7.4-6.4 6.3-6.3-1.9 2.2-12.5 4.3-14.6 2.3-2.4 6.2-4.1 9.7-4.1 5.9 0 5 15.1 4.1 23.8-.2 1.5-1.2 9.1-1.2 9.1s4.9 10.8 9.4 18.2c1.4 2.3 4.9 7.5 7.5 11.1 1.6 2.3 2.9 3.9 3.2 3.9.8-.2 4.4-3.7 5.9-4.9 1.8-1.5 18-17.3 21.5-20.4.2-.1.5-.1.8-.2.3-.1.7-.1 1-.2.7-.1 1.5-.1 2.3-.1 1.6 0 3 .2 4.4.3h.4c1.3.1 2.5-.6 3.1-1.8.8-1.6.1-3.5-1.4-4.2-2.1-1-4-1.4-6.2-1.5-1.1 0-2.1-.1-3.3 0-.6.1-1.2.1-1.8.2-.7.2-1.3.2-1.9.5-.3.1-.5.2-.7.4-8.1-10.2-12.7-25.3-13.4-27.6-.5-2-1-4-1.4-6h.6c.7 0 1.4 0 2.2-.1 4.3-.5 7.3-2.4 8.7-5.7.6-1.5.6-2.5-.2-3.1-.5-.4-1.7-1.4-7.9 2.2 1.2-1.6 2.4-3.5 3.6-5.8.7-.1 3-.5 5.4-1.6 3.9-1.8 6.2-4.5 6.6-8 .2-1.6-.2-2.6-1.2-2.9-.6-.2-2.1-.8-7.3 4.9.8-1.9 1.6-4 2.4-6.2 1-.3 2.9-.8 4.7-1.8 3.8-2 5.9-4.9 6-8.4.1-1.6-.4-2.5-1.3-2.8-.6-.2-2.2-.7-7 5.5.8-2.6 1.5-5.4 2.2-8.4.1-.3.2-.7.3-1 1.1-.2 2.8-.6 4.5-1.3 4-1.7 6.3-4.5 6.7-7.9.2-1.6-.2-2.6-1.1-2.9-.6-.2-2.3-.9-8.2 5.8.9-2.9 2-5.6 3-8.1.8 0 3.1-.1 5.6-.9 4.1-1.3 6.7-3.7 7.5-7.1.4-1.5.1-2.6-.8-3-.6-.3-2.3-1.3-9.8 5.8 2-3.9 4.1-7.1 6.1-9.8.5 0 1.2.1 2.1.1.9 0 2.1-.1 3.3-.3 4.3-.7 7.2-2.8 8.4-6.1.6-1.5.4-2.5-.4-3.1-.5-.3-1.7-1.2-7.1 2.2 2-1.9 3.6-3.2 4.7-4 17.7-8.8 41.8-14.6 73.8-14.7 25.1-.1 33 4.4 33 7.9 0 11.3-32.7 32-54.1 37.9-4.5 1.4-8.1 2.2-5.8 7.1l4.1 9.4c-9.5 1.1-28.2-1.7-37.5-3.7 1.5-2 3.3-3.8 5.3-5.6l.1-.1c.5-.5.8-1.3.6-2.1-.3-1.1-1.5-1.7-2.5-1.4-1.5.5-3 1.1-4.4 2-.7.4-1.4.9-2 1.4-.6.5-1.3 1-1.9 1.6-2.4 2.3-4.2 5.1-5.5 8-1.3 3-2.1 6.1-2.4 9.2-.2 1.6-.2 3.1-.2 4.7.1 1.6.2 3.1.6 4.7.2.7.8 1.3 1.6 1.5 1.1.2 2.1-.5 2.3-1.6v-.2c.2-1.3.5-2.7.8-4 .3-1.3.6-2.7 1-4 .4-1.4.8-2.9 1.3-4.2 21.3 34.4 49 33.4 55.3 34.2.1 0 .9.1 1.7.1l2.3 8.1c-58.8 81.7-93.9 70.8-93.9 70.8v-11.5c1.4-1.8 9.4-11.5 7.8-14.2-.5-.9-2.9-2.3-4.7-.2-7.7 9.2-20.8 23.6-30.8 28.6zm84.2-160.4c.8 2.7 2.6 5.1 5.1 6.8 2.5 1.7 5.8 2.6 9.2 2 1.7-.3 3.4-1.1 4.8-2.2 1.4-1.2 2.4-2.6 3-4.2.1-.4.3-.8.4-1.1.1-.4.2-.8.3-1.1.1-.8.1-1.5.2-2.2-.1-1.5-.3-2.8-.8-4.1l-.2-.4c-.3-.7-1-1.2-1.7-1.2-1 0-1.9.8-1.9 1.9 0 2.2-.3 4.3-1.2 5.9-.4.8-1 1.5-1.6 2-.7.5-1.5.8-2.3 1-1.7.4-3.7 0-5.5-.9-.9-.4-1.7-1-2.5-1.7s-1.5-1.4-2.1-2.3c-.4-.6-1.2-.9-1.9-.7-.9.3-1.5 1.2-1.2 2.2l-.1.3z" id="svg_5"/><path class="st2" d="M179.649 126.688c2.3.4 5.3-.5 6.7-2.5 1-1.4.8-3.3-.2-4.6-.4-.5-.8-.9-1.4-1.1-3.5-1.6-10.7 1.7-8.2 6.2.5 1.1 1.8 1.8 3.1 2zm115.2 216.2l-.3-4.4-8.1.5-.3-5.2 8.1-.5-.3-4.4-12.6.8.9 14 12.6-.8zm-189.5-188.8c0-.1-.1-.1-.1-.2-.4-.8-1.1-1.4-1.9-1.7-1.1-.4-2.4-.1-3.4.6-2.9 1.9-6.8 10-1.5 11.5 1.4.4 3-.1 4.2-1 2.3-2 4-6.3 2.7-9.2zm172.7 194l-1.2-18.1-4.4.3 1.5 22.5 21.5-1.4-.3-4.4-17.1 1.1zm26.6-19.9l-4.4.3 1.5 22.5 21.5-1.4-.3-4.4-17 1.1-1.3-18.1zm95.4-188.7c-3.7-2.2-8.8 2.1-11.2 6.6 1.3-8 2-19.2-3.4-20.2-5.8-1.1-10.1 12.5-10.5 17.4 0 0-5.8-17-12-15-6.1 2-4.6 11.3-.5 23.4-14.7-7.6-25.5 10.2-24.3 18.7-5.3 3.2-19 10.1-50.1 18.7-.2.1-.7.2-.7.2s.2.5.3.7c.8 1.5 4.2 10.3 38.8 13.4 7.2.6 14.6.5 21.6-.1-.3 1-.5 2.1-.3 3.2.3 2.3 1.3 4.2 3 5.6 1.4 1.1 3.8 1.7 5.6 1.5.5-.1 1-.2 1.5-.4.1 0 .5-.2.5-.3 0 0-2.4 12.4-5.2 20.1-1.6.4-2.8 1.2-36.2 5.2l-1.7-6.7c-2.2-6.8-6.2-23.8-6.2-23.8-40.1 1.6-56.2-31-56.3-31.1.4.1 7.8 2 22.6 3.5 5.9.6 12.1 1.2 18 .9 2.4-.1 6-.9 5.6-4.1-.3-2-4.1-10.7-5.3-12.9 6.1-2.2 12.4-4 18.2-6.8 10.3-5.1 39.9-22.4 39.9-37.8 0-6.9-6.4-9.6-11.4-11-17.3-4.9-58.1-5.4-89.6 5.5-.6.2-1.2.4-1.9.7.1-.7.2-1.5.2-2.3-.1-1.6-.6-2.5-1.6-2.7-.7-.1-2.6-.5-8 8.8-.7.3-1.4.6-2.1 1 1-3.1.7-4.5.1-5.1-.7-.7-1.8-.7-3.2 0-3.7 1.9-4.5 5.5-4.2 8.8-.6.4-1.3.7-1.9 1.1-.3-1.4-.8-2-1.3-2.3-.9-.5-1.9-.1-3.1 1.1-1.6 1.7-2.2 3.5-2.2 5.3-26.4 18.1-34.5 42.4-34.5 61.7 0 1.9.1 3.7.1 5.5-.7-.6-1.2-.5-1.4-.5-1 .1-1.7.9-2 2.4-.8 3.4.5 6.7 3.7 9.7-.2.1-.3.1-.3.1-1.4 0-2.7 1.1-2.8 2.6-.1 1.5 1.1 2.9 2.6 2.9h.2c.4 0 1.1-.1 2.1-.3 3.8 18.7 11.6 30.8 15.9 36.6-.4.4-10.6 11.5-17.8 17-2.7-3.7-4.9-6.6-6.7-9.3-3.3-5.3-5.8-10.5-7.9-15.5.1-.4.5-4 .9-6.8.6-4.1 1.3-9.5 1.2-13.7 0-1 .6-16.8-10.9-16.7-2.4 0-4.9.9-7.3 2.3v-2.4c.2-10.1 0-31.3 0-31.3 3.1-1.9 5.2-5.3 5.2-9.2 0-1.7-.4-3.3-1.1-4.7 1-.1 2.6-.3 3.8-.5 1-.2 1.9-.9 2.1-1.9l.9-3.8c.2-.9-.2-1.9-1.1-2.4l-4.4-2.4v-.2c1.1-.4 2.4-.6 3.5-1 3.7-1.2 7.4-2.6 11.1-4 4.9-2 9.6-4.2 14.2-6.8 4.9-2.7 9.7-5.8 13.9-9.5 4-3.5 7.7-7.5 10.2-12.2.7-1.4 1.3-2.8 1.8-4.2.5-1.6 1.7-7.2 1.3-7.6-.5-.4-17 5.4-27.9 5.4-5.4 0-9.4-.8-9.4-.8 4.3-11.2 20.2-26.1 19.9-26.9-.4-1-19.6-.2-45.6 10l-1.6-11.8c-1.1-5.8-3.2-5.6-4.4 0-.4 2-1.5 8.4-2.7 15.5-.3.1-.5.2-.8.4-1.8 1-23.6 13.7-34.1 23-10.8 9.5-15.2 15-22.6 27.4-6.3 10.6-11.9 27.4-8.4 39.7 4.5 15.9 15.3 20.2 28.1 13.1 5.2-2.9 10-6.8 13.8-11.4 6.2-7.6 11.6-15.1 17.7-21.9.1 3.5 1.9 6.7 4.6 8.5.1.3.2.6.2.9l.2 33.9v1.2c-.2 0-.4.1-.7.1-1.5.2-3.1.6-4.7 1.5-.8.5-1.6 1-2.3 1.9-.7.8-1.2 2-1.3 3.1-.1.6-.1 1.1 0 1.7.1.6.2 1.2.5 1.7.2.6.6 1.1 1 1.6-.4.2-.8.5-1.2.9-.8.7-1.4 1.7-1.7 2.7-.3 1-.4 2-.4 2.9 0 .9.2 1.9.7 2.9.4.9 1 1.7 1.8 2.3l-.2.2c-1.2 1.2-1.4 2.9-1.5 4.5 0 2.4.6 4 2.4 5.4.2.1.3.3.5.4-.2.3-.4.6-.5.9-.5 1.1-.6 2.1-.6 3 0 .9.1 2 .5 3.1s1.9 2.3 3.1 2.7c1.1.5 2.2.5 3.1.5.5 0 1.1-.1 1.5-.1v1l-.1 180.5h11.9v-170.7c7.2 12.2 18.6 31.6 22.4 37.1 1 1.4 2.3 3.3 4.1 3.6 1.8.3 3.7-.9 5.2-1.7 1.3-.7 2.5-1.6 3.6-2.5 2.6-2 5.2-4.1 7.7-6.2.8-.7 1.7-1.4 2.5-2.1.2-.1 1.6-1.4 1.6-1.4l-.8 81.7 28.7-1.6 5.2 31.8-4.3 1.4s-2.7-2.5-4.7-2h-.1c-2 .6-2.7 4.4-2.7 4.4l-7.1 2.6s-3.1-2.1-5.3-1.1c-2.2.9-2.4 4.5-2.4 4.5l-6.2 3.1s-3.1-2.1-4.8-1.2c-1.7.9-2 5-2 5-17.8 7.5-26.3 15.2-16.1 15.2h145.3c10.2 0 1.7-7.8-16.1-15.2 0 0-.3-4.1-2-5-1.7-.9-4.8 1.2-4.8 1.2l-6.2-3.1s-.2-3.5-2.4-4.5c-2.2-.9-5.3 1.1-5.3 1.1l-7.1-2.6s-.6-3.8-2.7-4.4c-2-.6-4.8 2-4.8 2l-4.3-1.4 5.7-34.8 64.6-4.1-17.4-96.4 48.7-13.6c1.3-.4 2.3-1.4 2.5-2.8 2.2-11.5 9.9-62.1 9.9-62.1 19-33.8 20.3-45.4 15.1-48.5zm-212.1 289.6c-.7 0-1.3-.6-.7-1 1.1-.8 11.9-5.9 12-5.7 2.5 2.8 3.2 6.3 3.2 6.3s-14.4.4-14.5.4zm120.9-6.8c.1-.1 10.9 4.9 12 5.7.6.4.1 1.1-.7 1-.1 0-14.5-.5-14.5-.5s.7-3.4 3.2-6.2zm34.3-224.7c0-1-.4-2-1.2-2.8-1.2-1.2-3-2-4.5-2.1-2.4-.3-6.2.9-6.5 3.7-.1.5 0 1.1.1 1.6-12.4 0-26.5-1.6-33.9-7 5.4-.8 11.2-2.5 16.9-4.4-.1 1 .1 2 .7 2.8 1.5 2.3 4.7 3.1 7.3 2.7 2-.4 4.4-1.7 4.9-3.9.3-1.2 0-2.4-.8-3.4-.6-.8-1.5-1.4-2.4-1.9 11.1-4.5 20.6-9.4 24.4-10.8 1.9 5 5.1 19.7 5.9 23.4.1.7-.4 1-.7 1-2 .4-5.6.8-10.2 1.1zm10.3-29.8c4.9-1.4 10.3-1.7 12.5 3.6 3.2 7.7-3.3 15.4-6.4 19-2-8.1-4.7-18.2-6.1-22.6zm-132.9-29.8c-1.8 2.8-3.5 5.9-5.2 9.4-.1-1.7-.3-3.1-.6-4.1 1.8-1.8 3.7-3.6 5.8-5.3zm-11.3 11.5c.8 1.8 2.1 3.4 3.3 4.6-.9 2.3-1.7 4.8-2.5 7.5-1.8-5.2-3.3-6.8-4.4-7.1 1.1-1.7 2.3-3.4 3.6-5zm-6.7 10.1c.1 3.8 3.1 6.6 5.9 8.2-.8 3.1-1.6 5.9-2.3 8.6-1.2-5.9-2.6-7.5-3.7-7.7-1-.2-1.9.5-2.6 1.9-2.6 5.2 1.1 9.7 4.3 12.1-1.1 3-2.1 5.7-3.2 8-.9-6.5-2.3-8.4-3.5-8.6-.9-.2-1.7.3-2.5 1.4.8-7.6 3.2-15.8 7.6-23.9zm-7.6 40c-.3-2.7-.4-5.5-.4-8.3.9 1.8 2.3 3.4 3.7 4.6-1.1 2-2.1 3.6-3.1 4.9-.1-.4-.2-.8-.2-1.2zm-64.9-36.7c-8.7 9.9-14.5 26.3-29.1 28.6-12 1.9-14.9-10.5-13.7-20.7 1.5-12.6 10.3-32.6 27.4-47.5 10.4-9.1 20.8-15.9 30.5-21-1 6.2-1.9 11.7-2.3 13.9-1.7 1.5-2.9 3-3.5 4.3-.3.7-.3 1.7.4 2.4.8.8 2 .9 2.7.4 2.4-1.8 5.6-3.9 9.7-4.9 3.1-.8 6.3-.9 7.5-1.2 1.1-.3 2-1.1 2.1-2.2.1-1.1-.4-2.3-1.7-2.8-.5-.2-1.1-.3-1.8-.4l-2-14.9c17.5-7.6 30-9.3 30-9.3s-9.8 8.8-14.1 23c12.8 5 27.7 1.4 37.5-.8-9.3 18-29.6 22.1-45.3 28.7-13 5.5-24.9 13.8-34.3 24.4zm11.7 51.7c1.5-2 6.4-3.2 9.1-3.5-1.3 1.2-3.9 5-4.7 6.7-.7-.1-3.2-.4-4.4-1.3-.4-.4-.3-1.4 0-1.9zm-2.4 10.2c.1-.3.2-.6.4-.9.5-.6 1.5-1.1 2.7-1.5.6-.2 1.3-.4 2-.5-.8 2.2-1.3 5 .2 6.8-.6 0-1.2 0-1.7-.1-1.2-.1-2.2-.4-2.8-.8-.3-.2-.4-.4-.6-.7-.1-.3-.3-.7-.3-1.2 0-.4 0-.8.1-1.1zm6.4 23s-2.8.3-3.4 0c-.3-.1-1.5-.3-1.5-1.9s1.3-1.9 1.6-2c.6-.3 3.4-.1 3.4-.1s5.6-.2 5.6 1.8-5.7 2.2-5.7 2.2zm6.9-10c-.3.3-.9.6-1.7.8-.7.2-1.6.3-2.4.4-.4 0-.9 0-1.4.1l-1.5.1c-.9.1-1.8.1-2.7.1-.8 0-1.6-.1-2.2-.3-1.7-.7-1.8-2.9-1-4.2.7-1.2 1.8-1.3 3.1-1.3.8 0 1.7.1 2.6.3l1.4.2c.5.1.9.1 1.3.2.9.2 1.7.4 2.4.6.7.3 1.4.6 1.8 1 .4.4.5.6.5 1 .2.4.1.6-.2 1zm32 58.1c-8.5-12.9-20.9-31.8-27.9-45.8v-5.6c.1.1.2.1.3.1 1.1.6 2.5.2 3.1-.9 1-1.7-2.3-4.2-1-13.5.6-4.6 3.6-9.5 3.6-9.8.1-.3 0-.6-.1-.9-.1-.4-.3-.8-.6-1.2-.2-.2-.4-.4-.7-.6-.9-.7-2.2-.9-4.8 4.1-2.1 3.9-2.8 7.4-6.4 6.3-6.3-1.9 2.2-12.5 4.3-14.6 2.3-2.4 6.2-4.1 9.7-4.1 5.9 0 5 15.1 4.1 23.8-.2 1.5-1.2 9.1-1.2 9.1s4.9 10.8 9.4 18.2c1.4 2.3 4.9 7.5 7.5 11.1 1.6 2.3 2.9 3.9 3.2 3.9.8-.2 4.4-3.7 5.9-4.9 1.8-1.5 18-17.3 21.5-20.4.2-.1.5-.1.8-.2.3-.1.7-.1 1-.2.7-.1 1.5-.1 2.3-.1 1.6 0 3 .2 4.4.3h.4c1.3.1 2.5-.6 3.1-1.8.8-1.6.1-3.5-1.4-4.2-2.1-1-4-1.4-6.2-1.5-1.1 0-2.1-.1-3.3 0-.6.1-1.2.1-1.8.2-.7.2-1.3.2-1.9.5-.3.1-.5.2-.7.4-8.1-10.2-12.7-25.3-13.4-27.6-.5-2-1-4-1.4-6h.6c.7 0 1.4 0 2.2-.1 4.3-.5 7.3-2.4 8.7-5.7.6-1.5.6-2.5-.2-3.1-.5-.4-1.7-1.4-7.9 2.2 1.2-1.6 2.4-3.5 3.6-5.8.7-.1 3-.5 5.4-1.6 3.9-1.8 6.2-4.5 6.6-8 .2-1.6-.2-2.6-1.2-2.9-.6-.2-2.1-.8-7.3 4.9.8-1.9 1.6-4 2.4-6.2 1-.3 2.9-.8 4.7-1.8 3.8-2 5.9-4.9 6-8.4.1-1.6-.4-2.5-1.3-2.8-.6-.2-2.2-.7-7 5.5.8-2.6 1.5-5.4 2.2-8.4.1-.3.2-.7.3-1 1.1-.2 2.8-.6 4.5-1.3 4-1.7 6.3-4.5 6.7-7.9.2-1.6-.2-2.6-1.1-2.9-.6-.2-2.3-.9-8.2 5.8.9-2.9 2-5.6 3-8.1.8 0 3.1-.1 5.6-.9 4.1-1.3 6.7-3.7 7.5-7.1.4-1.5.1-2.6-.8-3-.6-.3-2.3-1.3-9.8 5.8 2-3.9 4.1-7.1 6.1-9.8.5 0 1.2.1 2.1.1.9 0 2.1-.1 3.3-.3 4.3-.7 7.2-2.8 8.4-6.1.6-1.5.4-2.5-.4-3.1-.5-.3-1.7-1.2-7.1 2.2 2-1.9 3.6-3.2 4.7-4 17.7-8.8 41.8-14.6 73.8-14.7 25.1-.1 33 4.4 33 7.9 0 11.3-32.7 32-54.1 37.9-4.5 1.4-8.1 2.2-5.8 7.1l4.1 9.4c-9.5 1.1-28.2-1.7-37.5-3.7 1.5-2 3.3-3.8 5.3-5.6l.1-.1c.5-.5.8-1.3.6-2.1-.3-1.1-1.5-1.7-2.5-1.4-1.5.5-3 1.1-4.4 2-.7.4-1.4.9-2 1.4-.6.5-1.3 1-1.9 1.6-2.4 2.3-4.2 5.1-5.5 8-1.3 3-2.1 6.1-2.4 9.2-.2 1.6-.2 3.1-.2 4.7.1 1.6.2 3.1.6 4.7.2.7.8 1.3 1.6 1.5 1.1.2 2.1-.5 2.3-1.6v-.2c.2-1.3.5-2.7.8-4 .3-1.3.6-2.7 1-4 .4-1.4.8-2.9 1.3-4.2 21.3 34.4 49 33.4 55.3 34.2.1 0 .9.1 1.7.1l2.3 8.1c-58.8 81.7-93.9 70.8-93.9 70.8v-11.5c1.4-1.8 9.4-11.5 7.8-14.2-.5-.9-2.9-2.3-4.7-.2-7.7 9.2-20.8 23.6-30.8 28.6zm26.1 132.2c-.4-2.1-1.4-6.6-3.5-8.8 0 0 4.1-2 6-2.6 3.2 2.7 5.3 8.8 5.5 11l-8 .4zm15.8-.9c-.1-3.4-2-9.4-5.7-13.7l6.7-2.6c6.2 6.1 6.8 16.1 6.8 16.1s-5.7.3-7.8.2zm24.3-.3c-1.9.2-6.7.2-8.1.2-2.2-12.6-7.6-18.8-7.6-18.8-.1-.4 7.6-1.7 7.6-1.7s6.3 1.5 8 1.5v18.8h.1zm0-25.5c-.6 1.6-8.4-1-8.4-3.1 0-1.3-2.8-27.4-3-28.9l11.3-.7c.2 9.4.3 23.3.1 32.7zm44 15.2c1.9.6 6 2.6 6 2.6-2.1 2.2-3.1 6.7-3.5 8.8l-8-.5c.2-2.1 2.3-8.1 5.5-10.9zm-14.3-5.7l6.7 2.6c-3.7 4.3-5.6 10.3-5.7 13.7-2.1.1-7.9-.2-7.9-.2s.6-10 6.9-16.1zm-7.7-2.7s-5.4 6.2-7.6 18.8c-1.4 0-6.3 0-8.3-.2l.2-18.8c1.8 0 8-1.5 8-1.5s7.8 1.4 7.7 1.7zm-15.4-39.9c2.6-.3 8.5-.6 11.3-.7 0 0-3 29.3-3 30.7 0 2-7.8 4.7-8.4 3.1-.3-9.5-.2-23.6.1-33.1zm74.6-12.8l-120.6 7.9.5-63.3c10.4 1.1 18.3-.9 30.4-6.6 16.7-7.9 39-27 57.6-52.6l6.6-9c-4.4 27.7-30 60.3-42 78.2-.8 1.3-1.6 2.7-1.9 4.2-.1.7-.2 2 .6 2.4.6.2 1.4 0 1.9-.4.8-.5 1.4-1.2 2.1-1.9.8-.9 1.6-1.8 2.3-2.7 2.5-3 4.9-5.8 7.2-9 17.1-24.7 29-42.8 33.9-64.7.1.7.3 1.5.4 2.2 4.5 24.6-2 34.6-9.6 49-1 1.8-1.9 4-1.5 6 .6 2.7 2.1 2.2 4.5-.2 5.9-7.6 10.2-16.3 12.5-25.6l15.1 86.1zm49.5-172.4c-.7 1.2-1.4 2.6-1.7 4-.7 3.1-10.7 60.1-10.7 60.1s-9.3 2.7-46.6 12.3l-3.6-13.7c12.9-2.4 39.1-7.4 39.6-7.9s4.7-20.2 6.4-29.7c.3-1.7 1.1-5.2-.6-3.8-2.5 2.1-7.6 5.2-10.3 2.2-1.1-1.2-1-2.6-.4-3.9 1.3-.2 2.5-.4 3.6-.6 2.6-.5 4.2-2.9 3.7-5.5 3.8-4 14.2-16.5 11.3-27.1-3-10.6-17.5-8.7-25.7-2.6-2.8 2.1-3.2 1.4-3.5 1.1-.2-.3-.2-.8-.2-1.1.2-3.7 9-16.3 21.1-10 .8.4 2.1 1 3 1 4.3 0-6.2-20.9-3.1-22.2 2.3-1 5.2 4.2 7.6 10.1 2.1 5.1 2.9 10.9 4.2 10.8 2-.1 4.1-24.4 8-23.5 3.7.8-.1 20.8-.4 23-.3 2.2-.5 3 .3 3.3 1.5.5 3.5-2.8 5.8-6.5 3.3-5.3 6.1-9.1 7.3-8.1 3.8 3-8.2 26.1-15.1 38.3zm-36.8-3.2c-1.1-.6-2.4-.9-3.5-.8-1.7.1-3.4.8-4.7 2-2 1.9-1.3 4.6.8 6.1 1.8 1.3 4.2.9 6 0 1.8-.9 3.9-3 3.2-5.2-.4-1-1-1.6-1.8-2.1zm-34.7 162l12.6-.8-.3-4.4-8.1.5-.4-5.2 8.1-.5-.3-4.4-12.6.8 1 14zm-201.8-173.2c-5.5-.3-12.4 12.6-5 14.3.9.2 1.8.1 2.6-.2 3.5-1.1 7.5-7.7 6.3-11.5-.4-1.4-1.6-2.5-3.9-2.6zm114.4 183l-1.2-18.1-4.4.3 1.5 22.5 21.5-1.4-.3-4.4-17.1 1.1zm44.5-7l-.3-4.4-8.1.5-.3-5.2 8.1-.5-.3-4.4-12.6.8.9 14 12.6-.8zm-27.7 1.8l-.3-4.4-8.1.5-.3-5.2 8.1-.5-.3-4.4-12.6.8.9 14 12.6-.8zm3.8-203.7c.8 2.6 2.7 5 5.2 6.6 1.3.8 2.7 1.4 4.3 1.7 1.6.3 3.3.2 4.9-.2 1.6-.5 3.2-1.4 4.5-2.6 1.2-1.2 2.1-2.7 2.6-4.1 1-3 .8-5.9-.1-8.4l-.1-.4c-.3-.8-1-1.3-1.8-1.3-1 0-1.9.9-1.8 1.9 0 2.1-.2 4.3-1 6-.8 1.7-2.1 3-3.8 3.4-1.7.5-3.7.3-5.4-.6-.9-.4-1.7-1-2.5-1.7s-1.4-1.4-2-2.3c-.4-.6-1.2-.9-2-.7-.9.3-1.5 1.3-1.2 2.2l.2.5zm25.6-7.3c.8 2.7 2.6 5.1 5.1 6.8 2.5 1.7 5.8 2.6 9.2 2 1.7-.3 3.4-1.1 4.8-2.2 1.4-1.2 2.4-2.6 3-4.2.1-.4.3-.8.4-1.1.1-.4.2-.8.3-1.1.1-.8.1-1.5.2-2.2-.1-1.5-.3-2.8-.8-4.1l-.2-.4c-.3-.7-1-1.2-1.7-1.2-1 0-1.9.8-1.9 1.9 0 2.2-.3 4.3-1.2 5.9-.4.8-1 1.5-1.6 2-.7.5-1.5.8-2.3 1-1.7.4-3.7 0-5.5-.9-.9-.4-1.7-1-2.5-1.7s-1.5-1.4-2.1-2.3c-.4-.6-1.2-.9-1.9-.7-.9.3-1.5 1.2-1.2 2.2l-.1.3zm-18.5 214.4l-1.2-18.1-4.4.3 1.5 22.5 21.5-1.4-.3-4.4-17.1 1.1zm-83.8-224.7c-.2-.5-.6-.9-1-1.2-2.1-1.3-6.3.3-7.9 1.3-1.7 1.1-4.6 3.2-2.8 5.4 1.7 2.1 6.1.8 8.1-.3 1.7-.7 4.5-2.9 3.6-5.2zm-43.1 19.7c-1.9-.8-4.8 1.4-6 2.6-1.8 1.8-3.3 4.2-3.2 6.7.1 1.8 1 3.6 2.9 3.9 4.4.6 9.2-6.5 8.8-10.3-.1-1.2-.8-2.2-2.5-2.9zm6.9-23.8c-3.5.4-8.4 4.4-7.7 8.2.1.7.5 1.4 1.1 1.8.7.4 1.6.3 2.4.1 2.3-.6 7.2-4.1 7.3-7.3 0-.7-.2-1.4-.6-2-.6-.7-1.6-.9-2.5-.8zm12.8 11.6c-3.7-1.2-8 2.9-9.2 6-.8 2.1-1 4.9 1.8 5.4 3.9.7 8.5-3.8 9.5-7.3.5-1.7-.2-3.5-2.1-4.1zm22.3-27c2.2-.4 4.7-1.8 6.1-4.1 1.8-2.7-1.2-3.9-3.1-3.7-2.1 0-4.6 1.1-6.3 3.2-.8 1.1-1.1 2.6-.5 3.3 1 .9 2.1 1.6 3.8 1.3zm-49.5 27.8c-.1-1-.5-1.9-1.5-2.3-.4-.2-.8-.2-1.3-.1-3.7.5-8.5 6.4-6.4 10.1.4.7 1.1 1.2 1.9 1.3.5 0 1.1-.1 1.6-.3 2.1-.9 3.9-2.9 4.9-5 .4-.9.9-2.4.8-3.7z" id="svg_6"/></g><g id="svg_7"><path class="st2" d="M323.549 399.788c3.4 0 6.2 2.6 6.2 6.1 0 3.6-2.9 6.2-6.2 6.2-3.4 0-6.3-2.6-6.3-6.2.1-3.5 2.9-6.1 6.3-6.1zm0 1c-2.9 0-5.1 2.2-5.1 5.1 0 3 2.2 5.2 5.1 5.2 2.8 0 5-2.2 5-5.2 0-2.9-2.2-5.1-5-5.1zm-1.3 8.7h-1.1v-7.1h2.7c1.7 0 2.5.6 2.5 2 0 1.3-.8 1.8-1.9 2l2 3.1h-1.2l-1.9-3.1h-1.2v3.1h.1zm0-3.9h1.3c1.3 0 1.8-.4 1.8-1.2 0-.7-.3-1.1-1.6-1.1h-1.5v2.3z" id="svg_8"/></g></g><path class="st0" d="M419.949 562.688c-3.2 0-6 2.5-6 5.9 0 3.4 2.7 5.9 6 5.9 3.2 0 5.9-2.5 5.9-5.9.1-3.4-2.7-5.9-5.9-5.9zm0 10.9c-2.7 0-4.8-2.1-4.8-4.9 0-2.8 2.1-4.9 4.8-4.9 2.7 0 4.8 2.1 4.8 4.9 0 2.8-2.1 4.9-4.8 4.9zm2.8-6.4c0-1.3-.8-1.9-2.4-1.9h-2.6v6.8h1v-2.9h1.2l1.8 2.9h1.1l-1.9-3c1-.2 1.8-.7 1.8-1.9zm-4 1v-2.1h1.4c1.2 0 1.5.4 1.5 1 0 .7-.4 1.1-1.7 1.1h-1.2zm-206.1-96.7c0-4.6 4-8.3 8.8-8.3 4.9 0 8.8 3.7 8.8 8.3 0 4.6-3.9 8.2-8.8 8.2-4.8 0-8.8-3.7-8.8-8.2zm-58.8 57.5v-52.1c0-9.4-10.7-7.1-10.7-13.2 0-1.3 1-2.7 2.5-2.7 2.1 0 7.6.7 15.3.7h1.8c7.7 0 14.4-.7 15.3-.7 1.6 0 2.5 1.3 2.5 2.7 0 6-11.1 3.7-11.1 13l-.2 52.6c-.1 6.3 3.1 7.5 9.4 7.5h4.5c4.3 0 8.1-2.7 10.5-6.8l4.8-8.3c1.9-3.1 3.4-3.7 4.7-3.7 2.4 0 3.1 1.9 3.1 3.6 0 3.3-3.3 9.2-5.2 15.9-1.1 3.9-.7 6.8-1.2 8.9-.2 1.4-1.2 2.1-3 2.1-3.1 0-8-2.4-24.3-2.4h-4.1c-7.5 0-14.8 1-22.1 1-3.9 0-4-2.2-4-3.6.2-5.9 11.5-2.7 11.5-14.5zm49.9-34.7c0-1.4.5-2.7 2.7-3.1 15.8-3.4 14.7-6.3 19.7-6.3 1.7 0 2.8 1.3 2.8 3.6 0 1.2-.2 3.3-.2 9.2l-.2 36.4c0 3.4 2.2 4.9 4.8 5.8 2.3.8 5.2 1.4 5.2 4.3 0 1.6-.5 2.9-2.2 2.9-2.9 0-7.7-.6-12.1-.6h-4.8c-4.3 0-9.2.6-12.1.6-1.8 0-2.3-1.3-2.3-2.9 0-2.7 2.3-3.4 4.6-4.1 2.5-.8 5.4-2.4 5.4-6l-.2-30.4c-.1-3-1.8-6.2-8.3-6.9-2-.3-2.8-1.2-2.8-2.5zm126.9 23.1c0-19.3 11.9-32.6 24.7-32.6 13.2 0 19.5 10.4 19.5 24.3 0 2.8-.1 4.8-1.1 6.2-1.6 2.1-3.7 2.1-8.8 2.1h-12.5c-2.2 0-3.6-1-3.6-3 0-3.1 2.1-4 6.3-4.5 4.3-.6 5.5-.8 6.3-1.6.6-.6.6-1.7.6-3 0-6-3-11.8-7.7-11.8-4.9 0-8.9 6.2-8.9 17.3v1.8c0 19.4 8.3 24.7 14 24.7 4.5 0 6.6-1.2 8.4-3 1.4-1.3 2.3-3 4.2-3 1.7 0 2.3 1.2 2.3 2.7 0 6.6-8 15.1-18.7 15.1-16.1-.2-25-14.4-25-31.7zm-31.1-47.4c0-1.4.5-2.7 2.7-3.1 15.9-3.3 16.2-6.2 19.8-6.2 1.6 0 2.5 1.3 2.5 3.5 0 1.2-.1 3.3-.1 9.2l-.2 60.7c0 3.3 2.1 4.7 4.8 5.5 2.3.8 5.2 1.7 5.2 4.8 0 1.6-.6 2.7-2.4 2.7-2.9 0-7.6-.6-11.8-.6h-4.8c-4.1 0-8.7.6-11.5.6-1.7 0-2.2-1.1-2.2-2.7 0-2.9 2.3-3.7 4.5-4.6 2.3-.7 4.8-2.3 4.8-5.8l-.2-54.7c-.1-3-1.8-6-8.2-6.9-2-.1-2.9-.9-2.9-2.4zm-208.5 108.5c0 25 8.1 37 18.5 36.8 5.1 0 9.4-5.2 12.5-11.9 3.3-7 4.5-8 7-8.1 2.2 0 3.3 1.4 3.3 3.4 0 2.5-1 5.3-2.1 8.6-2.2 6.8-2.5 10.3-4.1 14.8-.7 2.1-2.3 2.5-3.7 2.7-1.3 0-3-.6-4.5-2.9-3.3 2.4-6 3.9-12.3 4-15.8.2-31.5-15.8-31.5-43.9 0-24.4 15.6-45.2 35.8-45.6 6.6-.1 11.2 1.7 16.8 5.1 2.4-2.1 3.5-3.3 5.8-3.3 2.4 0 3.1 1.8 3.1 3 0 3.1-1.7 4.7-3.4 9.1-1.8 4.6-1.9 7.8-2.4 10.1-.7 2.9-1.8 6.3-4.7 6.3-2.4 0-3.7-1.7-3.7-4l-.1-5.9c-.1-6.6-4-11.2-11.5-11.1-10.4.1-18.8 13.3-18.8 32.8zm279.8-10.1c0 5.2-3.6 8.4-7.2 8.4-2.4 0-4.1-1.3-6.3-1.3-6.2 0-8.6 9.8-8.8 18.6l-.1 17.1c0 3.1 2.1 4.6 4.8 5.5 2.4.8 5.4 1.3 5.4 4.3 0 1.7-.5 3.1-2.4 3.1-2.9 0-7.7-.6-12.2-.6h-4.8c-4.9 0-15.8.2-22.3.2-3.3 0-6.5.1-8.9.4-3.9 0-3.6-2.5-3.6-12.1l-.1-16.4c-1.7 0-3 .2-4 .5-6 1.2-10.6 6.3-10.6 11.6 0 5.6 3.1 8.3 9.2 7.8 2.1-.2 2.8.1 2.8 1.1 0 5.2-7.1 8.9-12.4 8.9-7.6 0-14.2-6-14.2-15 0-11.6 9.2-20.4 25.7-22.6 1-.1 1.9-.2 3.6-.2v-1.7c0-11.6-2.2-15.4-7.5-15.4-4.7 0-7.1 2.5-9.2 7.6-1.3 3.4-2.5 7.1-5.4 7.1-2.3 0-3.4-1.7-3.4-4.9 0-3.9 1.4-7.8 1.4-11.7v-3.3c0-2.1 1.4-2.9 2.8-2.9 1.1 0 3 .8 5.1 2.2 3.3-1.9 6.8-3.5 11.7-3.5 7.5 0 12.7 3.1 15.4 8.4 2.4 4.6 3.1 10.7 3.1 17.9v10.9c-.2 17.3 2.4 19.4 8.1 19.4 4.5 0 8.4-3.3 8.4-7.5l-.2-29.7c0-2.8-1.7-5.6-8.3-6.3-1.8-.2-2.7-1.6-2.7-3.1 0-1.4.6-2.8 2.5-3.1 14.6-3 13.5-6.3 18-6.3 2.1 0 3.4 1.3 3.4 3.5 0 1.3-.2 3.4-.2 9.3v2.5c3.6-11.8 9.5-16.8 15.9-16.8 4.5 0 7.5 3.6 7.5 8.1zm-98.3-36l.1-36.6h-17.8l-.2 33.8c0 4.9 1.7 7.4 5.1 7.4 1.9 0 3-.8 4.1-1.7 1.7-1.3 2.2-2.2 3.7-2.2 1.1 0 1.6 1 1.6 1.8 0 6.2-6.8 13.8-15.2 13.8-6.8 0-13.4-3.5-13.4-16.3l.1-36.6h-3.6c-3.7 0-4.7-.7-4.7-3 0-2.2.6-3 3-4.1 3.4-1.6 5.2-2.9 7.1-5.9 4.3-6.5 4.2-12.9 9.8-12.9 1.8 0 2.5 1.1 2.5 2.5l-.1 14.5h10.2c4.5 0 7.1-.2 9.7-4.1 4.3-6.5 4.2-12.9 9.8-12.9 1.6 0 2.5 1 2.5 2.5l-.1 14.5h12.5c1.9 0 3 .5 3 3 0 2.3-.5 5.9-4.2 5.9h-11.2l-.1 33.8c0 4.9 1.7 7.4 4.9 7.4 1.9 0 3-.8 4.2-1.8 1.7-1.4 2.2-2.1 3.6-2.1 1.2 0 1.7 1 1.7 1.8 0 6.2-6.9 13.8-14.7 13.8-7.2 0-13.9-3.5-13.9-16.3zm139.1 74.4c0 9.4-7.1 18.9-20.9 18.9-4.6 0-9.1-1.3-12.9-3.4-2.2 1.8-3.7 2.5-4.5 2.5-2.4 0-3-2.4-3-5.1 0-3.6 0-6.2-.5-8.2-.5-2.4-1.2-4.1-1.2-6.4 0-2.8 1.4-4.3 3.6-4.3 1.8 0 2.7.8 3.9 3.7 3.7 9.5 8.2 12.5 14.4 12.5 5.4 0 8.2-2.9 8.2-5.7 0-4-3.3-6.4-7.4-8.7l-4.3-2.4c-13.1-7.4-15.8-11.8-15.8-19.8 0-9.8 7.6-18.6 18.7-18.6 3.7 0 7.1.8 10.5 3.1 1.4-1.4 2.3-2.4 3.6-2.4s2.9.8 2.9 2.8v3.9c0 4 1.3 8 1.3 11.6 0 2.5-1 4.2-3.1 4.2-2.7 0-3.9-2.1-6-6.6-2.2-4.1-4.6-8.6-9.4-8.6-3.4 0-6.3 2.2-6.3 6.3 0 2.9 1.1 5.2 5.7 7.7l6 3.4c8.7 5.1 16.5 9.2 16.5 19.6zm-224.8 13.8c0 1.7-.7 3.6-2.5 3.6-.8 0-4.6-.4-7.2-.4-3.4 0-6.6.2-8.9.4-3.9 0-3.6-2.5-3.6-12.1l-.1-16.4c-1.8 0-3.1.2-4.1.5-6 1.2-10.5 6.4-10.5 11.6 0 5.6 3 8.4 9.2 7.8 2.1-.2 2.8.1 2.8 1.1 0 5.2-7.1 8.9-12.4 8.9-7.7 0-14.2-6-14.2-15 0-11.5 9-20.3 25.7-22.6 1-.1 1.9-.2 3.6-.2v-1.8c0-11.6-2.3-15.4-7.5-15.4-4.8 0-7.1 2.7-9.2 7.6-1.3 3.4-2.5 7.1-5.4 7.1-2.3 0-3.4-1.7-3.4-4.9 0-3.9 1.3-7.8 1.3-11.7v-3.3c0-2.1 1.6-2.9 2.8-2.9 1.2 0 3 .8 5.1 2.2 3.3-1.8 6.9-3.5 11.8-3.5 7.6 0 12.7 3.3 15.6 8.6 2.4 4.6 3 10.6 3 17.7v10.7c0 15.9 1.8 18.5 6.2 19.5 1.6.5 1.9 1.6 1.9 2.9zm27.8-35.2c.6-.6.6-1.7.6-3 0-6-3-11.8-7.7-11.8-4.9 0-8.9 6.2-8.9 17.3v1.8c0 19.4 8.3 24.7 14 24.7 4.5 0 6.6-1.2 8.4-3 1.4-1.3 2.3-3 4.2-3 1.7 0 2.3 1.2 2.3 2.7 0 6.6-8 15.1-18.7 15.1-16 0-25-14.2-25-31.5 0-19.3 11.9-32.6 24.7-32.6 13.2 0 19.5 10.4 19.5 24.3 0 2.8-.1 4.8-1.1 6.2-1.6 2.1-3.7 2.1-8.8 2.1h-12.5c-2.2 0-3.6-1-3.6-3 0-3.1 2.1-4 6.3-4.5 4.3-.8 5.6-1.1 6.3-1.8zm57.7 21.4c0 9.4-6.8 18.9-19.7 18.9-4.5 0-8.8-1.3-12.5-3.4-2.2 1.8-3.7 2.5-4.5 2.5-2.4 0-3-2.4-3-5.1 0-3.6 0-6.2-.5-8.2-.5-2.4-1.2-4.1-1.2-6.4 0-2.8 1.4-4.3 3.6-4.3 1.8 0 2.7.8 3.9 3.7 3.7 9.5 8 12.5 14 12.5 4.6 0 7-2.9 7-5.7 0-4.1-3.1-6.8-7.4-8.9l-4.1-2.2c-13.8-7-16.3-11.8-16.3-19.8 0-9.8 7.7-18.6 18.9-18.6 3.7 0 7.1.8 10.5 3.1 1.4-1.4 2.3-2.4 3.6-2.4 1.3 0 2.9.8 2.9 2.8v3.9c0 4 1.3 8 1.3 11.6 0 2.5-1 4.2-3.1 4.2-2.7 0-3.9-2.1-6-6.6-2.2-4.1-4.6-8.6-9.4-8.6-3.5 0-6.5 2.2-6.5 6.3 0 2.9 1.1 5.2 5.9 7.7l6 3.1c8.8 5 16.6 9.4 16.6 19.9z" id="svg_9"/></g></g></svg>