<svg xmlns="http://www.w3.org/2000/svg" width="123.041" height="19.664" viewBox="0 0 32.555 5.203"><path d="M16.022 2.2c-.138.036-.395.06-.487.069-.017.17-.092.948-.1 1.195a2.739 2.739 0 0 0-.001.092c0 .286.048.505.156.722.12.238.587.308.66.317.605-.423.652-.392.676-.375.011.008.034.024.034.135 0 .065-.009.167-.031.317.11-.02.35-.064.456-.075.11-.011.422-.084.523-.108-.01-.136-.042-.621-.042-.942 0-.083.002-.153.007-.206.014-.14.017-.437.017-.697l-.002-.44a5.142 5.142 0 0 0-.384.035 1.946 1.946 0 0 1-.434.003.983.983 0 0 0-.137-.005c.04.206.052 1.327.053 1.46v.014l-.008.011c-.003.004-.065.086-.141.16-.095.09-.205.173-.21.176l-.043.033-.194-.497a1.173 1.173 0 0 1-.046-.37c0-.18.02-.372.05-.497.039-.175.1-.516.123-.655l-.495.128M12.726 1.067l.005 1.604c-.01.288-.062 1.646-.106 1.918.067 0 .227-.025.34-.043.119-.019.231-.036.29-.038.113-.003.282-.03.354-.04 0-.067.023-1.527.023-1.527l.309-.356.208.75c.034.124.046.253.046.377 0 .162-.02.316-.036.443l-.018.155-.079.76c.127-.09.865-.621.892-.641.035-.371.091-1.037.091-1.275 0-.031 0-.055-.003-.07l-.003-.082c0-.161-.002-.462-.35-.65a4.646 4.646 0 0 0-.547-.247c-.034.035-.523.513-.523.513l.003-.103c.001-.056.038-1.375.066-1.53a.546.546 0 0 0 0-.184l-.962.266M1.829.788c-.19.028-.512.059-.602.052-.1-.007-.325.007-.408.012-.045.233-.345 1.772-.396 2.085l-.29 1.725h.004c.086-.01.256-.057.317-.073.025-.107.127-.55.24-.98.129-.496.274-.99.275-.995l.034-.114.045.11c.004.01.44 1.073.518 1.214.064.117.247.576.284.715a4.63 4.63 0 0 0 .56-.161l.65-1.837.029.152c0 .003.051.274.096.62.062.482.127 1.119.144 1.286l1.073-.126c-.034-.276-.225-1.823-.234-2.174-.008-.342-.123-1.326-.144-1.5a.507.507 0 0 0-.113-.003l-.312.026a3.747 3.747 0 0 1-.323.023 2.173 2.173 0 0 0-.241-.002l-.623 2.508-.042-.157c-.016-.058-.38-1.422-.413-1.764a6.677 6.677 0 0 0-.094-.633C1.862.786 1.845.785 1.83.787M4.937 2.738c-.186.283-.214.545-.214.79v.077c.005.224.078.725.095.836l.475.167c.043-.032.17-.135.342-.34a6.22 6.22 0 0 1 .272-.299l.307-.3.073-.073-.003.104c0 .023-.014.563-.043.755a.797.797 0 0 0-.01.12c0 .03.003.05.006.063.152-.037.732-.176.879-.2a.462.462 0 0 0 .005-.084c0-.08-.006-.195-.01-.287-.006-.11-.012-.222-.012-.31l.001-.055c.006-.158.01-.374.01-.55 0-.157-.003-.283-.011-.308l-.013-.05c-.022-.113-.079-.415-.518-.536a2.776 2.776 0 0 0-.328-.063l-.18-.031a8.802 8.802 0 0 1-.455-.106c-.084.07-.495.417-.668.68m.673 1.035c0-.002-.019-.22-.023-.41-.015-.598-.002-.6.031-.609l.008-.002.007.001c.007.001.183.02.279.076l.057.03c.122.063.288.148.236.262-.089.198-.266.408-.399.55L5.68 3.8l-.063.064zM8.834 2.277a1.634 1.634 0 0 1-.255.13l-.053.021-.028-.354c-.116.04-.402.14-.504.17-.104.03-.347.13-.425.161L7.587 4.6l.49-.097c.16-.03.34-.042.417-.046l.018-1.617.249-.255.023.006c.028.007.128.06.209.459.036.175.049.344.049.501 0 .299-.048.555-.082.732l-.028.162c-.014.117-.03.208-.042.27l.58-.348.345-.217a.741.741 0 0 1-.004-.069c0-.164.033-.436.042-.475.035-.154.09-.66.09-.873a.409.409 0 0 0-.005-.082l-.008-.033c-.028-.133-.088-.41-.463-.503l-.276-.07-.357.233M10.318 2.602c-.005.113-.029.707-.038.795a.962.962 0 0 0-.002.065c0 .176.031.579.144.72.127.16.325.345.727.354.367.009.72-.106.837-.273.177-.253.279-.42.303-.498.005-.016.005-.024.006-.033-.06.071-.228.261-.442.246-.34-.025-.6-.233-.651-.315-.063-.1.017-.833.036-.868l.042-.033c.035-.01.07.01.107.032l.016.01c.115.064.173.2.214.33a.87.87 0 0 0 .09-.033c.076-.029.17-.066.265-.078.146-.019.348-.08.416-.102a.788.788 0 0 0 .004-.075.597.597 0 0 0-.07-.303l-.018-.028c-.102-.166-.207-.337-.515-.413a3.875 3.875 0 0 0-.785-.078l-.686.578M32.175 4.605c-.103 0-.167-.076-.167-.171 0-.096.063-.185.183-.185.103 0 .168.076.168.172 0 .095-.064.184-.184.184m.025-.268c.025 0 .032.014.032.027 0 .03-.02.047-.047.047-.01 0-.017-.002-.025-.003l.056.142h.085a1.216 1.216 0 0 1-.067-.115c.048-.007.072-.027.072-.079 0-.042-.034-.062-.078-.062h-.141c-.003.086-.006.17-.012.256h.071c0-.07.003-.142.007-.213zm-.027.311c.165 0 .25-.103.25-.227 0-.125-.081-.215-.23-.215-.165 0-.25.103-.25.228 0 .124.081.214.23.214M31.718.404L30.375.403l-1.313 1.756V.404h-1.088v.983a2.365 2.365 0 0 0-2.07-1.221c-.157 0-.31.02-.457.049l.127.508c.11-.021.223-.036.34-.036a1.838 1.838 0 1 1-1.838 1.838c0-.612.302-1.15.762-1.483l-.274-.457a2.365 2.365 0 0 0-.485.44l.195-.622h-1.116l-.77 2.66L21.61.405h-.862l-.844 2.667-.696-2.668-1.116.001s.304 1.013.597 2.046c.299 1.052.586 2.126.586 2.126h1.078l.826-2.36.685 2.36h1.094l.589-1.843a2.365 2.365 0 0 0 4.425.946v.898l1.09-.001V2.892l1.261 1.684h1.341l-1.632-2.123z" fill="#ed192d"/><path d="M26.194 2.95l-.416-.778-.494-1.969s-.007-.088-.108-.068c-.084.017-.067.097-.067.097l.484 1.593L24.77.287s-.029-.084-.12-.04c-.079.037-.043.11-.043.11L25.7 2.182l.293.963s.003.021.019.018c.016-.004.006-.03.006-.03l-.181-.724.335.56s.008.02.022.012c.015-.007-.001-.03-.001-.03" fill="#ed192d"/></svg>