<svg xmlns="http://www.w3.org/2000/svg" width="3000" height="2933.21"><path d="M20 1951.453l106.929 961.757h2746.243L2980 1951.453H20z" fill="#ef3e42"/><path d="M2465.741 2193.191S2326.814 200.264 2027.594 200.264c-352.584 0-368.633 1875.366-368.633 1875.366l-328.61 2.708S1314.3 202.973 961.716 202.973c-299.22 0-438.147 1992.927-438.147 1992.927l-321.89-1.405S417.945 24.524 980.374 21.815c370.038-1.805 512.877 934.574 512.877 934.574S1708.413 20.01 1986.267 20.01c667.853 0 801.364 2174.485 801.364 2174.485l-321.89-1.304z" fill="#febd11"/><path d="M1494.676 2036.91l-164.306 41.428 328.61-2.708-164.304-38.72zM2616.675 2154.452l-149.56 40.023h320.586l-171.026-40.023zM351.3 2154.452l-149.56 40.023 321.89 1.405-172.33-41.428zM2012.919 113.487c-438.147 0-518.294 1923.414-518.294 1923.414l-1.404-1080.522S1708.383 20 1986.237 20l26.682 93.487z" fill="#ffd420"/><path d="M960.383 118.824c427.414 0 534.242 1918.097 534.242 1918.097l-164.204 41.427S1314.37 202.983 961.687 202.983l-1.304-84.16zM351.3 2154.452S527.642 118.794 960.373 118.794l19.961-96.998c-562.429 2.708-778.594 2172.68-778.594 2172.68l149.56-40.024zM2616.675 2154.452S2456.382 113.477 2012.919 113.477l14.745 86.867c299.12 0 438.047 1992.827 438.047 1992.827l150.964-38.719z" fill="#ffd420"/><path d="M2823.732 2359.001l-10.432-47.145v47.145h-11.937v-58.28h17.453l10.934 44.738 10.833-44.737h17.554V2359H2846.1v-47.145l-10.432 47.145h-11.936zm-28.729-58.249v10.03h-17.052v48.25h-11.937v-48.25h-17.654v-10.03h46.643zM995.631 2428.585h37.215c84.66 0 92.083 57.176 92.083 77.739 0 30.694-10.633 81.45-83.557 81.45h-45.74v-159.189zm-102.013 222.986h153.27c120.07 0 175.942-56.173 175.942-144.545 0-72.623-40.525-143.641-155.177-143.641H893.618v288.186zm1631.857-290.132h74.328l-24.676 84.058h-49.652v-84.058zm-1096.08 163.272c0 28.688-5.617 67.407-47.747 67.407s-47.747-38.72-47.747-67.407c0-28.689 5.618-66.906 47.747-66.906 42.13 0 47.747 38.217 47.747 66.906m90.98-.1c0-69.715-43.233-131.706-139.028-131.706-95.895 0-139.128 61.99-139.128 131.705 0 69.815 43.233 132.307 139.128 132.307 95.795 0 139.028-62.492 139.028-132.307m27.334 128.164h88.472v-126.99c0-38.519 24.174-46.443 39.922-46.443 26.883 0 38.619 19.56 38.619 47.446v126.088l89.475-.1v-165.008c0-45.039-35.61-81.55-88.672-81.651-36.613 0-65.903 12.538-83.056 36.612v-30.594h-84.76v240.64zm530.61-154.776c-1.905-28.788-.2-97.299-115.153-97.299-57.076 0-119.668 14.645-119.668 82.253h85.864c.501-10.231 8.225-28.387 31.096-28.387 14.745 0 29.089 9.63 29.791 25.78.301 8.024-13.441 15.547-26.18 15.346-52.06-.902-132.407 6.42-132.407 84.059 0 50.555 36.21 76.836 82.553 76.836 29.692 0 52.462-8.927 72.724-27.485l4.514 1.806c-.502 6.42-1.405 13.14.903 19.66h87.67c-6.32-16.952-1.706-35.71-1.706-53.865v-98.704zm-87.769 61.69c-.903 14.545-22.87 34.606-42.13 34.506-16.751 0-25.478-9.73-25.478-20.864 0-16.25 3.712-27.384 21.968-31.096 12.538-2.507 30.092-4.513 45.64-4.814v22.268zm126.99-198.28h91.783v291.196h-91.782v-291.196zm296.612 170.043c0 28.688-8.024 59.684-43.734 59.684-35.61 0-43.634-30.996-43.634-59.684 0-28.186 8.024-59.182 43.634-59.182 35.71 0 43.734 30.996 43.734 59.182m85.864-170.023h-88.371v69.113h-1.003c-13.843-20.463-42.03-27.986-69.414-27.986-80.648 0-105.925 73.125-105.925 129.699 0 70.316 31.095 125.987 104.822 125.786 44.938-.2 58.88-17.152 70.416-32.5h.903v26.482h88.572v-290.594zm301.598 118.746c-1.806-75.834-63.596-81.952-112.346-83.156-38.318-.903-107.23 13.843-107.23 77.538 0 43.233 26.582 66.605 92.284 79.244 40.124 7.724 43.634 16.05 44.236 26.883.702 14.544-14.344 23.672-25.679 23.672-10.432 0-18.657-2.909-23.07-7.222-6.52-6.32-10.232-18.055-10.734-26.782h-86.666c1.304 65.1 41.026 88.873 117.16 88.973 54.869 0 119.367-17.754 119.367-87.87 0-36.512-24.676-56.574-59.382-65.702-29.692-7.824-57.778-12.338-72.122-19.159-4.815-2.407-12.639-9.128-12.639-16.45 0-16.551 14.444-19.16 26.08-19.46 7.022-.2 13.943-.502 19.159 4.414 5.718 4.313 9.63 16.851 10.03 25.077h81.552zm-2612.03 170.243h92.684s21.466-136.82 22.269-148.356l51.057 148.356h79.544l52.06-148.356 16.35 148.356h99.807l-50.154-289.69H440.254s-40.124 128.695-42.13 141.334h-2.808l-42.13-141.335H238.935l-49.352 289.691zm669.437-155.358c-5.517-66.303-59.382-97.399-122.376-97.399-72.322 0-130 50.555-130.3 126.59-.302 94.991 57.978 132.306 130.3 132.306 64.9 0 116.458-20.162 125.185-104.421h-87.67c-1.805 19.058-9.228 40.224-35.71 40.224-40.524 0-40.323-38.92-40.323-68.11 0-29.19 1.003-65 36.21-65 9.73 0 22.17 3.912 27.786 9.028 6.019 5.116 8.827 17.052 9.73 26.782h87.168z" fill="#fff"/></svg>