<svg version="1" xmlns="http://www.w3.org/2000/svg" xmlns:xlink="http://www.w3.org/1999/xlink" width="300" height="245.333"><defs><path id="a" d="M9.549 11.523h283.236v220.453H9.549z"/></defs><clipPath id="b"><use xlink:href="#a" overflow="visible"/></clipPath><path clip-path="url(#b)" fill="#4D7335" d="M241.376 162.094c-2.986-1.134-6.479-1.381-8.921-1.381h-.297c-12.92.089-19.691 7.135-19.691 20.359 0 5.751 1.084 10.028 3.461 13.486 2.111 3.196 5.84 6.864 16.015 6.864h.216c12.917-.083 19.479-6.979 19.479-20.515 0-12.216-5.598-16.969-10.262-18.813m-9.217 30.658h-.06c-4.002 0-6.057-3.521-6.057-11.746 0-1.956 0-6.559 1.355-8.94 1.062-1.896 2.771-2.973 4.761-2.973 2.356 0 3.795 1.557 4.151 2.043 1.326 1.594 1.991 4.781 1.991 9.724.001 8.285-1.84 11.864-6.141 11.892M109.574 162.287c-.147.723-1.715 6.861-1.838 7.615-.124.627.572 1.18 1.203 1.18 3.803 0 3.944.052 3.944 3.875v24.447c0 .665.547 1.211 1.206 1.211h11.565c.696 0 1.171-.512 1.171-1.211v-37.097c0-.713-.475-1.202-1.171-1.202h-14.911c-.657 0-1.014.549-1.169 1.182M65.363 161.105c-.622 0-1.021.423-1.168 1.182-.124.742-.541 3.128-1.861 7.612-.178.63.48 1.183 1.11 1.183 3.823 0 3.944.141 3.944 3.875 0 8.303-1.024 18.19 3.256 22.457 2.342 2.655 5.57 4.013 9.508 4.013 4.701 0 7.589-1.867 10.031-3.731 0 .783-.034 1.709-.034 1.709 0 .665.546 1.211 1.179 1.211h10.837c.662 0 1.174-.546 1.174-1.211v-37.117c0-.67-.48-1.182-1.174-1.182H91.203c-.63 0-1.177.489-1.177 1.147 0 0 .124 23.426-.026 26.896 0 .015-3.165 2.101-4.819 2.101-4.065 0-4.64-4.37-4.64-9.123l.032-19.839c0-.633-.509-1.182-1.168-1.182H65.363zM185.091 164.537c0-.877-.029-2.166-.029-2.25 0-.633-.503-1.182-1.174-1.182h-13.037c-.999 0-1.508.276-1.83.903-.305.661-3.316 6.956-3.529 7.321-.297.63 0 1.752 1.084 1.752h.599c4.672 0 4.738 0 4.738 3.875l-.066 24.511a1.19 1.19 0 0 0 1.177 1.171l11.019-.061c.633 0 1.176-.509 1.176-1.174 0-.055 0-21.041-.034-26.168 1.39-.929 2.946-1.962 4.937-1.962 1.027 0 1.847.314 2.445.973 1.353 1.358 1.539 3.884 1.502 5.265-.034 1.724.037 21.956.037 21.956 0 .659.538 1.171 1.194 1.171.098 0 10.238-.061 10.903-.061.664 0 1.174-.509 1.174-1.174l-.026-20.802c-.069-6.591-.124-10.213-2.02-13.343-1.749-2.973-4.965-4.546-9.304-4.546-4.158.001-7.742 1.957-10.936 3.825M257.751 166.64c-.751 1.064-2.014 3.319-2.014 6.596 0 8.038 6.257 10.452 9.6 11.721.029 0 1.749.69 2.713 1.021 1.775.569 4.877 1.573 4.877 3.766 0 1.563-1.623 3.161-5.239 3.161-2.146 0-5.025-.782-7.284-1.956-1.053-.541-1.6-.995-2.439-1.657a1.217 1.217 0 0 0-.728-.244c-.3 0-.593.118-.843.365-.213.207-.328.569-.328.812.028.273-.328 5.9-.423 6.807a11.01 11.01 0 0 0-.061.809c0 .46.155.912.696 1.104 3.374 1.329 6.709 2.482 11.89 2.482 13.702 0 17.348-6.26 18.041-11.683.083-.785.061-1.113.061-1.657 0-8.19-5.958-10.509-9.644-11.927-2.676-.99-3.55-1.295-3.55-1.295-2.497-.837-4.126-1.53-4.126-3.127 0-.426.216-2.645 4.606-2.645 4.042 0 6.656 1.703 8.256 2.705.331.213.573.213.693.213.535 0 1.019-.397 1.11-.973 0-.063.662-7.402.662-7.402 0-.572-.386-1.062-.927-1.145a5.436 5.436 0 0 0-.491-.153c-2.862-.779-5.771-1.625-10.322-1.625-4.605 0-11.138.633-14.786 5.927M9.546 175.529c0 22.71 15.659 26.104 24.114 26.104 2.868 0 6.93-.598 8.009-1.075 1.237-.579.789-1.654.483-1.96-.236-.272-6.772-6.783-6.772-6.783-.21-.21-.455-.354-.785-.354a3.59 3.59 0 0 1-.48.034c-2.195 0-5.299-.728-7.354-4.105-2.342-3.702-2.649-8.671-2.649-13.063 0-12.5 4.945-16.09 9.79-16.09 4.094 0 10.028 1.455 10.028 16.449 0 2.144-.121 4.549-.331 6.174H31.408c-.754 0-1.752.927-.846 2.011 0 0 20.207 20.21 20.503 20.521.271.3.57.414.875.414h13.31c.636 0 1.177-.482 1.177-1.176 0-.303-.124-.602-.365-.841l-11.171-11.173c-.026-.029-.21-.173-.239-.273 0-.058.061-.176.089-.245 2.471-4.326 3.639-9.571 3.639-15.865 0-4.065-.751-14.234-7.526-20.529-3.82-3.556-9.871-5.607-16.585-5.607-15.482-.002-24.723 10.246-24.723 27.432M162.356 161.105H134.87c-.665 0-.998.423-1.211 1.202-.208.903-1.861 6.631-1.861 7.261 0 .662.541 1.174 1.171 1.174.063 0 11.804-.12 12.497-.12-.748 1.507-14.116 28.282-14.116 28.282a1.106 1.106 0 0 0-.127.526c-.029.639.515 1.185 1.171 1.185h33.337c.667 0 1.18-.546 1.18-1.211l.028-7.218c0-.667-.512-1.174-1.174-1.174h.029l-16.683.452c.607-1.237 5.156-10.57 6.893-14.011 1.718-3.395 7.051-13.878 7.414-14.597.425-.935-.364-1.751-1.062-1.751"/><path clip-path="url(#b)" fill="#E21F26" d="M245.197 144.019c-21.81-2.951-35.627-8.386-39.974-15.923-1.297-2.227-1.651-4.235-1.137-5.964.579-1.853 2.141-3.429 4.684-4.721.233-.072.674-.526.674-1.205 0-.771-.636-1.364-1.41-1.364-.284 0-.555.029-.837.069-2.141.653-5.247 1.329-8.875 1.858-10.395 1.611-21.4 2.1-32.598 1.418-47.284-2.952-84.651-25.805-83.244-50.952.48-8.55 5.564-16.81 14.313-23.222 12.902-9.477 25.48-11.646 32.206-12.008.843-.04 1.326-.73 1.326-1.407 0-.685-.483-1.332-1.369-1.416-9.315-.61-34.784 1.206-55.414 10.883-17.899 8.38-28.176 20.431-28.947 33.849-.728 13.59 8.268 26.896 25.397 37.494 16.933 10.443 39.824 17.051 64.45 18.539 8.101.526 16.208.445 24.099-.242.417.046.733.202.976.486 8.903 14.353 39.091 20.185 85.522 16.6.766 0 1.375-.636 1.375-1.366a1.437 1.437 0 0 0-1.217-1.406"/><path clip-path="url(#b)" fill="#4D7335" d="M226.944 30.438c-16.931-10.492-39.79-17.051-64.416-18.579-3.303-.21-6.643-.331-9.87-.331-30.27-.199-49.217 6.89-62.439 13.262-.443.242-.713.762-.713 1.249 0 .774.607 1.416 1.358 1.416.081 0 .368-.046.449-.081 10.96-3.176 18.296-3.479 29.22-3.873 13.199-.478 23.99 1.289 31.925 2.903 37.644 7.488 63.164 27.327 62.024 48.167-.475 8.458-5.395 16.49-14.215 23.135-12.172 9.27-24.594 11.654-32.818 12.048-.199 0-.523.041-.523.041a1.395 1.395 0 0 0-1.237 1.375c0 .765.566 1.326 1.237 1.413.204.026.324.026.485.026 9.67.857 36.07-1.487 56.11-10.952 17.856-8.389 28.09-20.391 28.814-33.777.77-13.584-8.26-26.886-25.391-37.442M235.936 29.596c0 2 1.608 3.507 3.519 3.507a3.474 3.474 0 0 0 3.49-3.501c0-1.974-1.589-3.467-3.49-3.467-1.911 0-3.519 1.493-3.519 3.461m.642.006c.003-1.674 1.252-2.949 2.877-2.949 1.62 0 2.856 1.28 2.856 2.949 0 1.703-1.245 2.983-2.856 2.983-1.625 0-2.877-1.286-2.877-2.983m1.513 2.039h.636v-1.74l.679-.012 1.107 1.752h.668l-1.157-1.79c.602-.066 1.063-.362 1.063-1.11 0-.78-.455-1.159-1.407-1.159h-1.588v4.059m.635-3.55h.837c.42 0 .895.083.895.621 0 .653-.509.67-1.064.67h-.667v-1.291zM285.778 158.947c0 2 1.608 3.51 3.516 3.51a3.479 3.479 0 0 0 3.489-3.51c0-1.962-1.591-3.461-3.486-3.455-1.911-.006-3.519 1.493-3.519 3.455m.641 0c0-1.665 1.251-2.942 2.874-2.942 1.619 0 2.859 1.283 2.859 2.942 0 1.706-1.246 2.995-2.859 2.995-1.623 0-2.874-1.289-2.874-2.995m1.513 2.049h.636v-1.741l.683-.005 1.093 1.746h.679l-1.153-1.79c.596-.065 1.059-.365 1.059-1.113 0-.773-.452-1.153-1.415-1.153h-1.58v4.056m.634-3.55h.838c.417 0 .889.086.889.621 0 .65-.507.664-1.059.664h-.668v-1.285z"/><path clip-path="url(#b)" fill="#D0AB7B" d="M39.644 230.946c0 .192.069.337-.17.337h-5.003c-.193 0-.213-.069-.213-.188l-.219-6.248s-2.669 2.206-3.679 2.997c-.213.173-.213.173-.429 0-1.082-.86-3.369-2.997-3.369-2.997l-.164 6.081c0 .308-.052.337-.313.337h-4.402c-.242 0-.242.066-.242-.152.049-5.136.291-11.363.556-16.174.023-.291.095-.331.339-.164 2.69 1.968 6.85 5.478 7.978 6.484 1.179-1.007 5.48-4.611 8.245-6.611.242-.189.311-.189.337.127.388 6.295.549 10.38.748 16.171M62.04 230.946c0 .192.078.337-.164.337h-5.003c-.189 0-.215-.069-.215-.188l-.213-6.248s-2.673 2.206-3.68 2.997c-.216.173-.216.173-.432 0-1.082-.86-3.369-2.997-3.369-2.997l-.173 6.081c0 .308-.04.337-.305.337h-4.401c-.239 0-.239.066-.239-.152.046-5.136.288-11.363.549-16.174.029-.291.101-.331.336-.164 2.693 1.968 6.855 5.478 7.983 6.484 1.179-1.007 5.48-4.611 8.245-6.611.239-.189.313-.189.336.127.386 6.295.558 10.38.745 16.171M84.445 230.946c0 .192.072.337-.167.337h-4.997c-.195 0-.221-.069-.221-.188l-.216-6.248s-2.667 2.206-3.68 2.997c-.216.173-.216.173-.426 0-1.087-.86-3.369-2.997-3.369-2.997l-.17 6.081c0 .308-.049.337-.313.337H66.49c-.242 0-.242.066-.242-.152.046-5.136.288-11.363.552-16.174.023-.291.095-.331.336-.164 2.693 1.968 6.85 5.478 7.98 6.484 1.177-1.007 5.48-4.611 8.248-6.611.242-.189.305-.189.336.127.385 6.295.552 10.38.745 16.171M106.847 230.946c0 .192.072.337-.167.337h-5.003c-.193 0-.216-.069-.216-.188l-.213-6.248s-2.672 2.206-3.683 2.997c-.215.173-.215.173-.434 0-1.079-.86-3.363-2.997-3.363-2.997l-.167 6.081c0 .308-.049.337-.311.337h-4.398c-.239 0-.239.066-.239-.152.043-5.136.282-11.363.549-16.174.026-.291.095-.331.336-.164 2.693 1.968 6.85 5.478 7.98 6.484 1.18-1.007 5.483-4.611 8.245-6.611.242-.189.313-.189.333.127.385 6.295.558 10.38.751 16.171M118.627 230.816c0 .325-.032.449-.42.449h-5.736c-.354 0-.469-.089-.469-.48v-5.584c0-.389.115-.472.501-.472h5.65c.414 0 .475.201.475.503v5.584zM130.27 230.816c0 .325-.029.449-.414.449h-5.736c-.354 0-.478-.089-.478-.48v-5.584c0-.389.124-.472.506-.472h5.647c.417 0 .475.201.475.503v5.584zM141.918 230.816c0 .325-.029.449-.412.449h-5.736c-.356 0-.478-.089-.478-.48v-5.584c0-.389.121-.472.506-.472h5.647c.414 0 .472.201.472.503v5.584zM157.083 230.995c0 .233-.026.273-.297.273h-6.45c-.299 0-.299.022-.299-.273v-14.651l-5.405.327c-.204 0-.204-.031-.204-.204v-5.055c0-.232 0-.302.236-.302h17.615c.213 0 .238.069.238.302v5.055c0 .173-.025.204-.207.204l-5.227-.327v14.651zM173.952 217.476c2.29 0 3.771 1.425 3.771 3.711 0 2.408-1.637 3.896-3.771 3.896-2.232 0-3.774-1.427-3.774-3.896-.001-2.166 1.455-3.711 3.774-3.711m0-6.987c-5.943 0-10.908 4.335-10.908 10.728 0 6.059 4.548 10.76 10.908 10.76 5.763 0 10.906-4.428 10.906-10.731 0-6.623-5.235-10.757-10.906-10.757M192.939 224.373s.803-1.755 1.338-3.035c.265-.625.472-1.188.472-1.188s.21.563.478 1.188c.564 1.245 1.31 3.035 1.31 3.035h-3.598m5.228 4.392c.356.739.658 1.453 1.01 2.258a.439.439 0 0 0 .42.242h6.979c.328 0 .328 0 .12-.423-3.685-6.536-7.937-14.499-11.023-20.08-.029-.063-1.338-.093-1.396 0-2.765 5.141-7.189 13.61-10.788 20.08-.182.299-.118.423.118.423h6.087c.42 0 .446-.069.602-.328.351-.719.563-1.344.946-2.172h6.925zM207.292 226.861l4.425-1.66c.268-.118.296-.089.356.118.325 1.099 1.514 1.959 2.819 1.959 1.398 0 2.083-.621 2.083-1.517 0-.978-.831-1.332-2.583-1.542-.21-.034-.535-.06-.742-.092-2.256-.176-6.18-1.217-6.18-6.029 0-4.632 2.997-7.609 8.642-7.609 4.163 0 6.66 1.786 7.227 4.37.055.354.084.388-.213.506l-4.186 1.542c-.244.124-.268.124-.359-.121-.478-1.096-1.246-1.694-2.707-1.694-1.393 0-1.928.599-1.928 1.404 0 .895.776 1.188 2.972 1.519.294.055.653.084 1.067.144 3.328.504 6.033 1.928 6.033 6.119 0 4.966-3.95 7.699-8.887 7.699-4.039 0-6.801-1.758-7.961-4.546-.177-.478-.149-.478.122-.57M238.189 230.995c0 .233-.028.273-.291.273h-6.455c-.291 0-.291.022-.291-.273v-14.651l-5.411.327c-.21 0-.21-.031-.21-.204v-5.055c0-.232 0-.302.239-.302h17.62c.21 0 .242.069.242.302v5.055c0 .173-.032.204-.213.204l-5.23-.327v14.651zM259.075 224.841v6.035c0 .389 0 .414-.322.414h-6.597c-.21 0-.21-.025-.21-.414v-5.5s-4.689-8.078-7.874-13.847c-.207-.417-.175-.417.182-.417h7.488c.236 0 .294 0 .501.48 1.104 2.497 3.3 7.278 3.3 7.278s1.924-4.931 2.856-7.46c.089-.268.089-.299.443-.299h6.743c.417 0 .33.031.178.389-2.85 5.798-6.688 13.341-6.688 13.341M269.688 224.784c-.208 0-1.787-4.336-1.787-4.635-.058-3.625-.025-6.035 0-9.304 0 0 0-.293.302-.293a77.34 77.34 0 0 1 6.568 0c.232 0 .265.089.265.356.146 3.205.146 5.645.086 9.24 0 .179-1.57 4.635-1.813 4.635-1.394.032-2.194.09-3.621.001m5.434 1.305c0 4.991 0 5.176-.175 5.176h-6.858c0-2.144-.156-5.23 0-5.23 2.191 0 7.033-.032 7.033.054M277.032 210.909a3.194 3.194 0 0 0 3.211 3.208 3.178 3.178 0 0 0 3.188-3.205c0-1.798-1.45-3.168-3.185-3.165-1.746-.003-3.214 1.367-3.214 3.162m.578.003c.006-1.527 1.151-2.698 2.633-2.698 1.479 0 2.615 1.176 2.615 2.698 0 1.559-1.146 2.729-2.615 2.729-1.482 0-2.633-1.173-2.633-2.729m1.39 1.867h.578v-1.594l.622-.006 1.004 1.6h.618l-1.056-1.635c.55-.058.976-.336.976-1.018 0-.711-.42-1.06-1.295-1.06H279v3.713m.578-3.245h.763c.392 0 .82.08.82.572 0 .59-.464.607-.976.607h-.607v-1.179z"/></svg>