<svg xmlns="http://www.w3.org/2000/svg" width="211.075" height="93.918" viewBox="0 0 55.847 24.849"><g fill-rule="evenodd"><path d="M55.847 0H0v24.85h55.847z"/><path d="M7.406 10.48c-.427 0-.835-.222-1.102-.518l-.589.619c.481.444 1.063.706 1.691.706.842 0 1.584-.579 1.584-1.413 0-1.588-2.158-1.352-2.158-2.113 0-.363.38-.511.721-.511.308 0 .621.134.809.309l.467-.673a2.154 2.154 0 0 0-1.356-.444c-.775 0-1.544.485-1.544 1.326 0 .531.294.854.662 1.07.628.37 1.497.444 1.497 1.05 0 .343-.28.592-.682.592M12.882 10.412h-1.971V9.1h1.437v-.808H10.91v-.975h1.905v-.808h-2.807v4.71h2.873zM16.16 11.287c.856 0 1.55-.37 1.965-.902l-.621-.558a1.632 1.632 0 0 1-1.324.653c-.901 0-1.597-.7-1.597-1.615 0-.895.668-1.615 1.558-1.615.46 0 .855.202 1.135.484l.582-.62a2.424 2.424 0 0 0-1.71-.672c-1.458 0-2.467 1.07-2.467 2.423 0 1.352 1.023 2.422 2.48 2.422M21.04 7.25c.88 0 1.536.726 1.536 1.615 0 .888-.655 1.614-1.537 1.614-.882 0-1.537-.726-1.537-1.614 0-.889.655-1.615 1.537-1.615m0 4.037c1.444 0 2.44-1.083 2.44-2.422 0-1.34-.996-2.423-2.44-2.423-1.443 0-2.439 1.083-2.439 2.423 0 1.339.996 2.422 2.44 2.422M28.664 11.22V6.51h-.902v3.068l-2.606-3.069h-.635v4.711h.902V8.151l2.606 3.069zM30.94 7.317h.668c.555 0 .936.195 1.196.525.214.269.34.632.34 1.023 0 .39-.126.753-.34 1.023-.26.33-.641.524-1.196.524h-.668zm2.178 3.459c.575-.431.929-1.13.929-1.911 0-.781-.354-1.48-.929-1.912-.38-.282-.868-.444-1.61-.444h-1.47v4.71h1.47c.742 0 1.23-.16 1.61-.443zM38.816 11.287c.855 0 1.55-.37 1.964-.902l-.621-.558a1.632 1.632 0 0 1-1.324.653c-.901 0-1.596-.7-1.596-1.615 0-.895.668-1.615 1.556-1.615.462 0 .856.202 1.136.484l.582-.62a2.423 2.423 0 0 0-1.711-.672c-1.457 0-2.465 1.07-2.465 2.423 0 1.352 1.022 2.422 2.479 2.422M43.503 11.287c.529 0 1.043-.161 1.403-.484.388-.35.602-.848.602-1.569V6.51h-.902v2.793c0 .43-.113.693-.307.875-.201.195-.481.303-.796.303-.314 0-.594-.108-.795-.303-.194-.182-.307-.444-.307-.875V6.509h-.902v2.725c0 .72.214 1.218.601 1.569.361.323.876.484 1.403.484M47.476 7.317h.815c.308 0 .462.074.569.188.1.108.154.25.154.404 0 .155-.054.29-.154.397-.107.115-.26.188-.569.188h-.815zm0 1.985h.856c.6 0 .961-.148 1.216-.417.233-.243.367-.606.367-.976s-.134-.734-.367-.976c-.26-.276-.615-.424-1.216-.424h-1.758v4.71h.902zM11.245 18.408c.855 0 1.55-.37 1.965-.902l-.622-.56a1.63 1.63 0 0 1-1.323.654c-.902 0-1.596-.7-1.596-1.615 0-.895.668-1.615 1.556-1.615.461 0 .856.202 1.136.485l.581-.62a2.421 2.421 0 0 0-1.71-.673c-1.457 0-2.466 1.07-2.466 2.423s1.023 2.423 2.48 2.423M16.117 14.37c.882 0 1.537.727 1.537 1.615 0 .889-.655 1.615-1.537 1.615-.882 0-1.537-.726-1.537-1.615 0-.888.655-1.615 1.537-1.615m0 4.038c1.444 0 2.44-1.084 2.44-2.423 0-1.34-.996-2.423-2.44-2.423-1.443 0-2.439 1.084-2.439 2.423s.996 2.423 2.44 2.423M20.387 16.22h1.437v-.807h-1.437v-.976h1.905v-.807h-2.807v4.71h.902zM24.274 16.22h1.437v-.807h-1.437v-.976h1.905v-.807h-2.807v4.71h.902zM30.033 14.437v-.807h-2.807v4.71H30.1v-.808h-1.97V16.22h1.436v-.807h-1.437v-.976zM32.015 16.22h1.437v-.807h-1.437v-.976h1.905v-.807h-2.807v4.71h2.874v-.808h-1.972zM38.815 18.408c.856 0 1.55-.37 1.964-.902l-.62-.56a1.63 1.63 0 0 1-1.324.654c-.902 0-1.597-.7-1.597-1.615 0-.895.669-1.615 1.557-1.615.461 0 .856.202 1.136.485l.582-.62a2.423 2.423 0 0 0-1.711-.673c-1.457 0-2.466 1.07-2.466 2.423s1.023 2.423 2.48 2.423M43.697 14.37c.882 0 1.537.727 1.537 1.615 0 .889-.655 1.615-1.537 1.615-.882 0-1.537-.726-1.537-1.615 0-.888.655-1.615 1.537-1.615m0 4.038c1.443 0 2.439-1.084 2.439-2.423 0-1.34-.996-2.423-2.44-2.423-1.442 0-2.438 1.084-2.438 2.423s.996 2.423 2.439 2.423M46.96 18.408a.581.581 0 0 0 .587-.586c0-.33-.26-.592-.588-.592a.581.581 0 0 0-.581.592c0 .33.254.586.581.586" fill="#fff"/><path d="M1.786 23.05h52.275V1.8H1.786zm-.893.9h54.06V.9H.894z" fill="#fff"/><path fill="#fff" d="M46.825 13.768v-.744h-.235v-.154h.643v.154h-.236v.744zM47.488 12.87l.324.538.325-.538h.121v.898h-.172v-.5l-.213.353h-.12l-.214-.353v.5h-.172v-.898z"/></g></svg>