<svg xmlns="http://www.w3.org/2000/svg" width="210.184" height="104.396" version="1"><path d="M156.418 35.082L21.562 9.273C8.48 6.77 1.102 10.691 11.215 19.726l20.1 20.066c1.212 2.746 7.092 7.013 3.532 13.115L18.31 73.635c-4.002 6.406-1.195 10.67 7.783 8.672l119.978-42.444c11.03-3.267 21.138-3.614 10.346-4.78z" fill="#97a8d3" fill-rule="evenodd"/><path d="M155.48 37.531L20.812 11.722c-10.557-1.87-18.385-1.334-8.221 9.979l18.725 19.78c1.212 2.747 11.25 5.482 7.69 11.584L20.31 71.223c-4.167 3.907-4.278 10.896 5.22 8.514l115.665-40.475c10.092-2.325 24.326-.187 14.285-1.73z" fill="none" stroke="#fcdd2a" stroke-width="1.804"/><path d="M26.306 39.364L183.624 9.39c13.557-2.584 22.08.884 10.284 11.377l-21.661 24.068c-1.414 3.19-3.935 5.605.218 12.69l14.441 25.6c4.668 7.44 2.16 13.917-8.314 11.597L24.337 63.214c-12.867-3.795-10.62-22.495 1.97-23.85z" fill="#fcdd2a" fill-rule="evenodd"/><path d="M27.4 42.209l157.1-29.976c11.718-2.093 18.466-1.456 8.314 10.065l-20.567 22.974c-1.414 3.19-3.935 5.604.218 12.69l13.128 23.631c3.368 6.345 4.194 13.037-6.345 11.159L26.963 61.244c-11.774-2.7-11.277-17.243.437-19.035z" fill="none" stroke="#0a68b0" stroke-width="2.1"/><path style="text-align:start;line-height:125%" d="M21.365 66.101l4.629-7.46c3.34 3.603 13.274 4.798 13.246.853-.018-2.437-.404-2.093-2.481-3.166-2.078-1.074-8.993-2.507-9.808-9.45-.902-4.772 1.852-9.663 6.292-11.544 5.806-2.46 13.443-1.908 18.037 1.6l-4.247 6.39c-3.445-1.719-9.729-4.55-10.726.91-.607 3.323 6.963 3.255 10.513 7.77 2.659 3.382 3.063 8.67-.02 12.863-5.935 8.071-19.04 5.335-25.435 1.234zm51.804-31.963c11.104-1.068 18.672 5.071 18.754 17.41.08 11.913-8.757 18.426-19.99 18.926-11.342.505-19.121-6.298-19.183-17.384-.066-11.984 12.644-18.933 20.42-18.952zm-10.548 18.85c-.601 7.228 4.294 9.088 8.096 9.088 5.465 0 10.521-5.343 10.521-9.975 0-5.456-2.426-9.507-8.337-9.507-3.564 0-9.68 3.165-10.28 10.394zm31.357 16.327l5.281-34.018h9.254l12.176 20.626 2.475-20.626h9.81l-5.246 33.883h-9.484l-11.598-20.376-3.488 20.511h-9.18zm45.47-34.153h9.706l-5.385 34.018h-9.596l5.275-34.018zM175.923 68.6c-1.352.828-3.346 1.669-8.167 1.873-9.409.399-17.164-4.903-16.4-17.384.727-11.89 8.688-18.957 20.755-18.952 2.726.001 5.705.317 8.936.952l-1.301 11.115c-6.89-3.713-16.482-4.43-17.811 7.376-.754 10.716 11.025 7.446 15.355 5.38l-1.367 9.64z" font-size="187.577" font-weight="400" fill="#0a68b0" font-family="Bitstream Vera Sans"/><path style="text-align:start;line-height:125%" d="M23.772 65.007l4.616-7.46c3.331 3.603 12.802 4.36 12.773.415-.018-2.437-.403-2.092-2.474-3.166-2.072-1.074-8.968-2.507-9.78-9.45-.9-4.771 1.846-9.663 6.274-11.544 5.79-2.46 13.406-1.907 17.987 1.6l-4.235 6.391c-3.436-1.72-9.702-4.55-10.696.91-.606 3.322 6.943 3.254 10.484 7.77 2.65 3.381 3.054 8.669-.021 12.863-5.918 8.07-18.55 5.772-24.928 1.671zm51.226-32.4c11.072-1.07 18.62 5.07 18.702 17.409.079 11.913-8.734 18.426-19.936 18.926-11.31.506-19.068-6.297-19.13-17.383-.066-11.985 12.61-18.934 20.364-18.952zm-10.52 18.849c-.6 7.229 4.282 9.089 8.074 9.089 5.45 0 10.492-5.344 10.492-9.975 0-5.456-2.42-9.508-8.314-9.508-3.554 0-9.653 3.165-10.252 10.394zm31.271 16.328l5.267-34.019h9.228l12.142 20.626 3.123-20.626h9.129l-5.232 33.883h-9.458l-11.566-20.375-3.479 20.51H95.75zm45.345-34.154h9.68l-5.371 34.018h-9.57l5.26-34.018zm36.375 33.439c-1.349.829-3.337 1.67-8.145 1.873-9.383.4-16.68-4.903-15.919-17.383.725-11.89 8.228-18.958 20.263-18.952 2.718 0 5.688.317 8.91.951l-1.297 10.46c-6.871-3.714-16.437-3.774-17.762 8.03-.752 10.717 10.995 7.448 15.313 5.38l-1.363 9.64z" font-size="187.577" font-weight="400" fill="#ef3b44" font-family="Bitstream Vera Sans"/></svg>