<svg xmlns="http://www.w3.org/2000/svg" width="971pt" height="188pt" viewBox="0 0 971 188"><path d="M96.586 55.21l58.71-.077V18.465H90.122a42.598 42.598 0 0 0-2.746-.094c-23.05 0-41.734 18.684-41.734 41.734 0 17.063 10.242 31.735 24.914 38.204l41.797 20.867c9.843 4.914 8.253 13.84-2.88 13.84H49.786v-18.442L.152 151.105l49.633 36.532v-18.442l70.977.856c23.047 0 41.73-18.688 41.73-41.735 0-11.754-2.344-24.457-12.949-31.945l-54.11-28.207c-4.355-2.27-3.761-12.953 1.153-12.953zM294.344 19v97.438c0 17.195-5.817 30.94-17.489 41.226-11.628 10.29-27.152 15.434-46.52 15.434-19.323 0-34.077-4.996-44.296-14.985-10.219-9.984-15.348-24.367-15.348-43.101V19h45.125v100.762c0 9.183 7.516 16.699 16.7 16.699 9.187 0 16.703-7.516 16.703-16.7V19zm96.594 150.293c23.05 0 41.738-18.688 41.738-41.738 0-15.762-8.738-29.48-21.633-36.582 10.074-7.168 16.648-18.946 16.648-32.25 0-20.907-16.214-38.02-36.753-39.457v-.414h-83.786v150.441zm-39.075-62.211h21.653c8.62 0 15.675 7.055 15.675 15.676 0 8.047-6.586 14.629-14.632 14.629h-22.696zm0-55.047h18.117c7.211 0 13.114 5.903 13.114 13.117 0 6.735-5.508 12.243-12.239 12.243h-18.992v-25.36" fill="#ffca01"/><path d="M899.54 54.816v30.926c0 21.559-17.06 39.32-38.349 40.453v43.973h-48.55v-44.086c-20.559-1.89-36.801-19.309-36.801-40.34V18.637h44.379v59.996c0 7.82 6.398 14.222 14.222 14.222h6.496c7.825 0 14.227-6.402 14.227-14.222V46.777h.16c-.004-.207-.008-.41-.008-.617 0-15.2 12.325-27.523 27.524-27.523h.043l.265.004v-.004h38V.199l49.633 36.528-49.633 36.53v-18.44zM685.351 169.574h-45.336V74.016c0-18.434 5.714-32.778 17.187-42.993 11.477-10.21 27.602-15.32 48.371-15.32 20.051 0 34.852 4.621 44.45 13.895 9.597 9.273 14.374 23.543 14.374 42.879v97.097h-45.34v-43.937h-33.706zm33.707-76.41V67.961c0-9.27-7.582-16.856-16.852-16.856s-16.855 7.586-16.855 16.856v25.203zm-90.11-73.855v108.214c0 13.555-4.754 24.555-14.3 33.079-9.547 8.523-21.864 12.804-37 12.804-.954 0-1.895-.043-2.82.024-8.177.562-25.778.793-38.93-11.145-12.7 12.875-30.31 11.531-36.844 11.274a185.927 185.927 0 0 0-7.414-.153c-15.836 0-27.98-4.281-36.426-12.804-8.406-8.524-12.63-20.801-12.63-36.797V19.309h44.728v102.617c0 7.312 5.984 13.297 13.296 13.297 7.317 0 13.297-5.985 13.297-13.297V19.309h42.68v102.617c0 7.312 5.98 13.297 13.297 13.297 7.312 0 13.297-5.985 13.297-13.297V19.309zm253.137 128.347c1.887 0 3.726.48 5.523 1.453 1.793.965 3.196 2.352 4.2 4.153 1 1.8 1.504 3.683 1.504 5.633 0 1.937-.497 3.804-1.485 5.585a10.391 10.391 0 0 1-4.152 4.165c-1.785.988-3.649 1.484-5.59 1.484-1.945 0-3.813-.496-5.598-1.484a10.484 10.484 0 0 1-4.16-4.165c-.992-1.78-1.488-3.648-1.488-5.585 0-1.95.504-3.833 1.508-5.633 1.011-1.801 2.414-3.188 4.21-4.153 1.797-.972 3.637-1.453 5.528-1.453zm0 1.86c-1.582 0-3.121.406-4.613 1.214-1.496.81-2.664 1.965-3.508 3.47-.844 1.503-1.266 3.07-1.266 4.695 0 1.62.418 3.171 1.246 4.656a8.821 8.821 0 0 0 3.477 3.472c1.488.829 3.043 1.243 4.664 1.243 1.613 0 3.172-.414 4.66-1.243a8.752 8.752 0 0 0 3.469-3.472c.824-1.485 1.234-3.035 1.234-4.656 0-1.625-.418-3.192-1.258-4.696a8.642 8.642 0 0 0-3.507-3.469c-1.5-.808-3.032-1.214-4.598-1.214zm-4.934 15.582v-12.075h4.157c1.421 0 2.449.11 3.086.332.636.227 1.14.614 1.523 1.172.375.551.562 1.141.562 1.766 0 .883-.316 1.652-.949 2.305-.629.656-1.468 1.02-2.515 1.101.425.18.773.39 1.027.64.488.474 1.082 1.27 1.789 2.395l1.473 2.364h-2.367l-1.079-1.903c-.843-1.5-1.53-2.437-2.047-2.816-.355-.274-.875-.41-1.562-.406h-1.148v5.125zm1.95-6.801h2.37c1.133 0 1.903-.168 2.317-.504.41-.336.617-.781.617-1.332 0-.356-.101-.676-.297-.953a1.741 1.741 0 0 0-.824-.63c-.355-.14-1.008-.21-1.96-.21h-2.223v3.629" fill-rule="evenodd" fill="#009945"/></svg>