<svg xmlns="http://www.w3.org/2000/svg" width="300" height="85"><path fill="#ED1B2D" d="M10.96 70.416c-.029.893-.029 2.299-.029 3.146.161.015.366.015.644.015 1.48 0 2.227-.556 2.227-1.596 0-.979-.763-1.565-2.227-1.565h-.615m.076 8.844H8.443c.088-1.949.118-3.093.118-5.067 0-2.137-.016-3.337-.118-5.431h3.482c2.622 0 4.319.95 4.319 3.028 0 1.245-.806 2.154-1.917 2.652.614 1.124 1.904 3.221 2.679 4.303l-2.65.952c-.73-1.289-1.625-3.161-2.238-4.508h-1.187c0 1.494.045 2.794.105 4.071zM30.154 70.284c-1.993 0-3.016 1.609-3.016 3.718 0 2.107 1.085 3.719 3.016 3.719 1.963 0 3-1.597 3-3.719s-1.096-3.718-3-3.718m0-1.698c3.512 0 5.739 2.21 5.739 5.3 0 3.162-2.372 5.533-5.739 5.533-3.528 0-5.738-2.166-5.738-5.256 0-3.191 2.344-5.577 5.738-5.577zM48.296 79.26h-2.592c.103-2.097.12-3.296.12-5.435 0-1.185 0-2.222-.045-3.366-1.406 0-2.403.014-3.514.103l.6-1.8h8.769v1.742c-.907-.045-2.108-.045-3.412-.045a135.497 135.497 0 0 0-.042 3.366c-.001 2.139.014 3.338.116 5.435M62.878 79.26h-2.592c.088-1.949.12-3.093.12-5.067 0-2.137-.013-3.337-.12-5.431h2.592a110.782 110.782 0 0 0-.102 5.431c0 1.974.03 3.118.102 5.067M78.956 70.722c-.601-.275-1.419-.467-2.327-.467-1.096 0-1.64.467-1.64 1.054 0 .585.294.922 1.553 1.466l.891.377c1.61.674 2.372 1.612 2.372 3.104 0 1.875-1.8 3.163-4.097 3.163-1.391 0-2.623-.218-3.544-.644l.584-1.654c.808.365 1.877.629 2.799.629 1.141 0 1.738-.484 1.738-1.157 0-.629-.318-1.038-1.564-1.549l-1.096-.457c-1.419-.585-2.14-1.565-2.14-2.956 0-1.638 1.655-3.045 4.026-3.045 1.273 0 2.194.146 3.045.483l-.6 1.653M94.319 70.722c-.599-.275-1.419-.467-2.328-.467-1.098 0-1.639.467-1.639 1.054 0 .585.292.922 1.551 1.466l.894.377c1.61.674 2.369 1.612 2.369 3.104 0 1.875-1.798 3.163-4.098 3.163-1.388 0-2.619-.218-3.542-.644l.586-1.654c.806.365 1.873.629 2.795.629 1.144 0 1.743-.484 1.743-1.157 0-.629-.324-1.038-1.565-1.549l-1.1-.457c-1.419-.585-2.135-1.565-2.135-2.956 0-1.638 1.65-3.045 4.024-3.045 1.272 0 2.195.146 3.045.483l-.6 1.653M107.267 70.446c-.03.849-.03 1.669-.03 2.604 1.438 0 2.723-.028 3.765-.072v1.802c-1.056-.073-2.359-.073-3.765-.073 0 1.038 0 1.933.03 2.867 1.523 0 3.178-.015 4.319-.072l-.616 1.759h-6.219c.088-1.949.115-3.093.115-5.067 0-2.137-.015-3.337-.115-5.431h6.396v1.711c-.938-.028-2.446-.028-3.88-.028M123.875 70.416c-.027.893-.027 2.299-.027 3.146.16.015.365.015.645.015 1.477 0 2.224-.556 2.224-1.596 0-.979-.761-1.565-2.224-1.565h-.618m.074 8.844h-2.59a97.81 97.81 0 0 0 .118-5.067c0-2.137-.016-3.337-.118-5.431h3.484c2.62 0 4.316.95 4.316 3.028 0 1.245-.804 2.154-1.916 2.652.616 1.124 1.901 3.221 2.679 4.303l-2.649.952c-.733-1.289-1.624-3.161-2.24-4.508h-1.186c.001 1.494.045 2.794.102 4.071zM142.061 79.26h-2.593c.088-1.949.118-3.093.118-5.067 0-2.137-.013-3.337-.118-5.431h2.593a109.532 109.532 0 0 0-.104 5.431 114.94 114.94 0 0 0 .104 5.067M155.428 70.446c-.027.849-.027 1.669-.027 2.604 1.434 0 2.723-.028 3.761-.072v1.802c-1.055-.073-2.356-.073-3.761-.073 0 1.038 0 1.933.027 2.867 1.523 0 3.176-.015 4.318-.072l-.613 1.759h-6.222c.09-1.949.115-3.093.115-5.067 0-2.137-.012-3.337-.115-5.431h6.397v1.711c-.936-.028-2.445-.028-3.88-.028M188.962 77.178a72.168 72.168 0 0 1-3.191-2.679c-.848.455-1.171.995-1.171 1.687 0 .95.894 1.595 2.019 1.595.937-.001 1.668-.118 2.343-.603m-2.869-5.985c0 .467.116.76.585 1.259.849.907 2.886 2.592 3.924 3.337.554-.76.762-1.744.762-3.412h2.225c0 1.683-.658 3.104-1.742 4.334.761.57 1.977 1.375 2.783 1.816l-2.212 1.213a32.78 32.78 0 0 1-2.24-1.639c-1.098.892-2.313 1.317-3.864 1.317-2.501 0-3.982-1.186-3.982-2.826 0-1.302 1.026-2.413 2.531-2.985-.774-.745-1.125-1.479-1.125-2.329 0-1.479 1.538-2.692 3.688-2.692.862 0 1.685.131 2.209.352l-.524 1.551a4.704 4.704 0 0 0-1.537-.245c-1.044-.001-1.481.422-1.481.949zM224.787 78.832c-1.144.383-2.345.587-4.146.587-2.988 0-5.634-1.948-5.634-5.064 0-3.439 2.574-5.769 6.232-5.769 1.393 0 2.549.264 3.427.615l-.57 1.668c-.76-.337-1.831-.585-2.738-.585-2.399 0-3.776 1.392-3.776 3.718 0 2.387 1.509 3.748 3.354 3.748.568 0 .905-.044 1.259-.132.016-.557.044-1.01.044-1.61 0-.514-.014-1.172-.044-1.639h2.593c-.046.762-.091 1.332-.091 2.124-.001.89.029 1.477.09 2.339M237.577 70.416c-.026.893-.026 2.299-.026 3.146.16.015.363.015.645.015 1.478 0 2.225-.556 2.225-1.596 0-.979-.762-1.565-2.225-1.565h-.619m.075 8.844h-2.593c.088-1.949.12-3.093.12-5.067 0-2.137-.017-3.337-.12-5.431h3.484c2.619 0 4.318.95 4.318 3.028 0 1.245-.805 2.154-1.917 2.652.615 1.124 1.903 3.221 2.679 4.303l-2.648.952c-.734-1.289-1.628-3.161-2.241-4.508h-1.184c.001 1.494.041 2.794.102 4.071zM255.763 79.26h-2.593c.088-1.949.119-3.093.119-5.067 0-2.137-.013-3.337-.119-5.431h2.593a112.025 112.025 0 0 0-.104 5.431c0 1.974.029 3.118.104 5.067M269.13 77.559c1.525 0 3.281-.028 4.408-.101l-.615 1.802h-6.31c.086-1.949.117-3.093.117-5.067 0-2.137-.013-3.337-.117-5.431h2.591a109.532 109.532 0 0 0-.104 5.431c.001 1.186.001 2.21.03 3.366M284.683 77.559c1.523 0 3.28-.028 4.406-.101l-.613 1.802h-6.312c.09-1.949.117-3.093.117-5.067 0-2.137-.011-3.337-.117-5.431h2.591a114.654 114.654 0 0 0-.102 5.431c0 1.186 0 2.21.03 3.366"/><path fill="#DEB407" d="M162.04 61.254h128.932"/><path fill="none" stroke="#DEB407" stroke-width=".624" d="M162.04 61.254h128.932"/><path fill="#DEB407" d="M5.998 61.254h137.337"/><path fill="none" stroke="#DEB407" stroke-width=".624" d="M5.998 61.254h137.337"/><path fill="#ED1B2D" d="M182.145 16.271h-6.998v14.965h-9.144V16.271h-7.947l1.011 1.02v35.586h6.936V36.192h9.144v16.685h8.056l-1.058-1.074V16.271M59.743 17.387l-4.895 22.537-6.216-23.528-5.566.009-6.313 23.611-5.251-22.667 1.096-1.106-8.58-.008 9.598 36.554 5.358.017 6.686-24.627 6.431 24.643 5.47-.011 9.478-36.556-8.267.006.971 1.126M73.726 52.831h8.3l-1.227-1.265V16.255h-8.055l.982.995v35.581M230.586 48.41V16.208h-8.075l1.008 1.01v35.659h17.544l1.856-5.218-1.489.751h-10.844M253.876 48.663V35.046h7.425l2.279-4.152h-9.704V20.383l9.407.006 1.287.627-1.684-4.766h-16.848l1.005 1.059v13.585h-2.292l-1.908 4.152h4.2v17.831h17.266l1.8-4.975-1.389.761h-10.844M288.937 20.452l1.724-4.2h-22.058l-1.948 4.87 1.307-.67h7.217v32.416h7.996l-1.118-1.106v-31.31h6.88M198.401 38.967l3.453-16.262h.063l3.531 16.262h-7.047m-1.61-22.753l.942 1.027-8.261 35.633 7.288-.004-1.02-1.026 1.725-8.323h8.891l1.721 8.332-.976.992 8.662-.001-8.579-36.63h-10.393zM21.534 42.24c-.031-4.401-2.451-7.693-5.092-10.948-2.562-3.156-3.499-4.775-3.582-6.929-.081-2 1.005-3.978 3.333-4.672 1.067-.315 2.354-.349 2.996-.129l-3.865-4.64c-6.396.908-9.319 5.199-9.445 9.501-.106 3.654 1.476 6.712 3.96 9.775 2.669 3.284 4.703 6.024 4.666 8.538-.036 2.617-1.406 4.742-4.926 6.132-1.417.559-2.466.578-3.429.424l4.646 4.722c8.236-1.786 10.77-7.426 10.738-11.774M104.786 42.24c-.03-4.401-2.448-7.693-5.092-10.948-2.561-3.156-3.493-4.775-3.58-6.929-.081-2 1.005-3.978 3.333-4.672 1.067-.315 2.354-.349 2.996-.129l-3.867-4.64c-6.395.908-9.317 5.199-9.444 9.501-.106 3.654 1.475 6.712 3.962 9.775 2.667 3.284 4.7 6.024 4.664 8.538-.036 2.617-1.407 4.742-4.927 6.132-1.417.559-2.467.578-3.428.424l4.644 4.722c8.237-1.786 10.774-7.426 10.739-11.774M124.565 42.24c-.033-4.401-2.451-7.693-5.092-10.948-2.563-3.156-3.496-4.775-3.583-6.929-.081-2 1.006-3.978 3.335-4.672 1.066-.315 2.355-.349 2.996-.129l-3.869-4.64c-6.394.908-9.318 5.199-9.445 9.501-.104 3.654 1.476 6.712 3.964 9.775 2.667 3.284 4.698 6.024 4.665 8.538-.039 2.617-1.407 4.742-4.927 6.132-1.418.559-2.469.578-3.428.424l4.642 4.722c8.24-1.786 10.773-7.426 10.742-11.774M155.479 56.438c-10.453-3.617-14.852-12.345-14.848-23.022.004-16.121 10.945-22.382 14.829-22.388.565 0 1.192.066 1.473.231l-4.21-5.926c-12.739 3.157-20.108 14.904-20.101 28.137.011 16.605 9.206 26.015 20.345 28.721l4.873-5.748c-.434.114-1.368.337-2.361-.005"/><path fill="#DEB407" d="M54.701 33.544l.695-3.193-3.123-11.872-1.564.021 3.992 15.044M67.994 18.503L58.77 54.057h-3.95l.353 1.256 4.789.001 9.609-36.802-1.577-.009M83.682 52.522V18.483h-1.487v32.534l1.487 1.505M202.648 32.296l-.748-3.23-1.845 8.654h1.396l1.197-5.424M167.327 18.503h1.452v11.511h-1.452zM76.404 54.065v1.294l8.201-.004-1.3-1.294-6.901.004M20.482 34.659c1.428 2.168 2.504 4.442 2.533 8.117.032 4.579-2.751 10.246-11.069 12.201l1.052 1.069c8.066-1.861 11.408-7.715 11.375-12.403-.028-3.815-1.703-6.583-3.766-9.091l-.125.107M16.441 28.89c-.563-1.001-.824-2.117-.829-3.042-.016-2.39 1.386-3.926 3.549-3.936.795-.001 1.324.047 1.884.25 0 0-.673-.813-1.03-1.148-.26-.248-.65-.407-1.473-.405-2.7.006-4.135 1.616-4.142 4.012-.001 1.161.701 2.82 1.927 4.346l.114-.077M103.736 34.659c1.429 2.168 2.509 4.442 2.534 8.117.033 4.579-2.751 10.246-11.07 12.201l1.053 1.069c8.067-1.861 11.409-7.715 11.373-12.403-.027-3.815-1.7-6.583-3.764-9.091l-.126.107M99.696 28.89c-.564-1.001-.826-2.117-.829-3.042-.017-2.39 1.384-3.926 3.547-3.936.797-.001 1.326.047 1.89.25 0 0-.678-.813-1.035-1.148-.26-.248-.649-.407-1.473-.405-2.698.006-4.135 1.616-4.141 4.012-.002 1.161.701 2.82 1.925 4.346l.116-.077M123.512 34.659c1.43 2.168 2.508 4.442 2.534 8.117.035 4.579-2.75 10.246-11.069 12.201l1.055 1.069c8.064-1.861 11.407-7.715 11.371-12.403-.028-3.815-1.7-6.583-3.765-9.091l-.126.107M119.474 28.89c-.566-1.001-.825-2.117-.831-3.042-.017-2.39 1.384-3.926 3.547-3.936.798-.001 1.324.047 1.888.25 0 0-.675-.813-1.03-1.148-.265-.248-.651-.407-1.473-.405-2.701.006-4.14 1.616-4.146 4.012-.002 1.161.704 2.82 1.925 4.346l.12-.077M231.959 18.503h1.455v28.681h-1.455zM262.959 37.523l2.436-4.345h-1.454l-1.714 3.073h-6.97v11.187h1.392v-9.915h6.31M255.257 29.669h1.392v-6.748l8.726.005-2.45-1.264-7.668-.007v8.014M184.921 18.503h-1.454v32.858l1.454 1.445V18.503M209.129 18.514l8.271 35.535-7.186.005.266 1.262 8.702-.004-8.546-36.798h-1.507M205.228 44.82H198.6l-1.369 6.673 1.168 1.164 1.357-6.597h5.733l-.261-1.24M266.517 50.894l-1.191 3.167-15.722-.004v1.259l16.702-.021 1.962-5.277-1.751.876M197.86 54.057l-5.735-.003-.277 1.26 7.238-.019-1.226-1.238M291.274 18.5l-1.294 3.155h-6.468v29.638l1.456 1.443V22.844h5.935L292.7 18.5h-1.426M284.394 54.074l-6.595-.005v1.241h7.812l-1.217-1.236M273.899 21.655h-5.149l-.666 1.629.907-.455 4.908.011v-1.185M243.323 50.66l-1.206 3.399-15.973-.002v1.259l17.043-.008 1.956-5.58-1.82.932M33.343 18.532l-.02.026 3.537 15.248.816-3.064-2.636-11.316.875-.875-2.572-.019M173.816 37.395h-6.489v16.662h-5.584v1.259h7.036V38.661h5.037v-1.266M184.351 54.057h-6.53v1.259h7.773l-1.243-1.259M147.504 49.538c-2.415-3.938-3.859-9.3-3.85-14.756.024-13.981 8.334-21.221 13.469-21.219.499-.03 1.356.148 1.741.378-.134-.19-.896-1.218-1.107-1.323-.506-.256-1.145-.312-1.793-.313-3.237-.01-13.66 5.501-13.643 21.792.008 6.283 2.119 12.254 5.083 15.584l.1-.143M158.164 58.503l-4.389 5.254c.594.171.981.274 1.546.407l4.888-5.977c-.662.203-1.69.325-2.045.316M46.402 36.716l-.783-2.989-5.442 20.317-3.88.003.37 1.265 4.736-.009 4.999-18.587"/><path fill="#ED1B2D" d="M290.951 51.275c-.01.252-.01.796-.01 1.078.06.007.175.007.312.007.565 0 .812-.196.812-.577 0-.342-.231-.508-.818-.508h-.296m.012 2.884h-.734c.04-.621.04-.99.04-1.625 0-.672 0-1.064-.04-1.722h1.048c.976 0 1.511.326 1.511.926 0 .417-.254.724-.695.91.226.385.657 1.028.934 1.388l-.773.228a25.058 25.058 0 0 1-.83-1.462h-.48c-.003.484-.003.945.019 1.357zm.516.585c1.344 0 2.448-1.017 2.448-2.246 0-1.223-1.104-2.247-2.448-2.247-1.359 0-2.466 1.024-2.466 2.247.001 1.23 1.107 2.246 2.466 2.246zm0 .425c-1.627 0-2.928-1.195-2.928-2.671 0-1.475 1.301-2.676 2.928-2.676 1.611 0 2.92 1.201 2.92 2.676 0 1.476-1.308 2.671-2.92 2.671z"/></svg>