<svg xmlns="http://www.w3.org/2000/svg" width="300" height="57.158" overflow="visible"><path d="M182.288 23.968c2.297 0 4.091.365 5.383 1.096 1.59.91 2.385 2.385 2.385 4.425V39.87h-8.87v6.308c0 .454.096.8.286 1.034.19.234.476.351.857.351.38 0 .666-.117.856-.351.177-.235.272-.58.285-1.034v-5.44h6.586v5.522c0 2.013-.795 3.481-2.385 4.405-1.264.744-3.059 1.117-5.383 1.117-2.352 0-4.153-.4-5.404-1.2-1.522-.965-2.283-2.488-2.283-4.57V29.737c0-2.054.74-3.564 2.222-4.529 1.292-.827 3.113-1.24 5.465-1.24zm1.182 11.787V29.53c-.013-.44-.108-.772-.285-.992-.19-.235-.476-.345-.856-.331-.313 0-.585.11-.816.33-.218.221-.326.552-.326.993v6.225h2.283zM192.034 51.41l5.159-14.414-5.016-12.842h6.973l2.223 7.072 1.774-7.072h6.26l-4.384 13.173 5.24 14.082h-7.218l-2.284-7.403-2.14 7.403h-6.587zM221.804 23.968c1.903 0 3.419.496 4.547 1.489 1.006.868 1.516 1.86 1.53 2.977v19.543c0 1.061-.443 1.957-1.326 2.688-.897.744-2.053 1.117-3.467 1.117l-2.426-.29c-.72-.193-1.271-.434-1.652-.724v6.39h-6.586V24.154h4.976l.57 1.116c.436-.358.83-.613 1.183-.765.693-.358 1.577-.537 2.65-.537zm-1.652 4.239c-.38-.014-.666.09-.856.31-.19.207-.286.517-.286.93v16.896c0 .386.102.682.306.89.204.206.483.31.836.31.748 0 1.122-.414 1.122-1.241V29.448c0-.827-.374-1.241-1.122-1.241zM238.768 24.278c.707-.207 1.523-.31 2.447-.31 1.387 0 2.529.379 3.426 1.137.897.745 1.352 1.661 1.366 2.75v7.61H239.4V29.53c0-.84-.374-1.261-1.122-1.261-.38 0-.666.097-.856.29-.19.193-.286.496-.286.91v21.94h-6.586V24.154h6.586v.91c.38-.317.925-.58 1.631-.786zM256.202 23.968c2.297 0 4.092.365 5.383 1.096 1.59.91 2.386 2.385 2.386 4.425V39.87h-8.87v6.308c0 .454.095.8.285 1.034.19.234.476.351.857.351.38 0 .666-.117.856-.351.19-.235.279-.58.265-1.034v-5.44h6.607v5.522c0 2.013-.796 3.481-2.386 4.405-1.264.744-3.059 1.117-5.383 1.117-2.352 0-4.153-.4-5.403-1.2-1.523-.965-2.284-2.488-2.284-4.57V29.737c0-2.054.74-3.564 2.222-4.529 1.292-.827 3.113-1.24 5.465-1.24zm1.162 11.787V29.53c0-.44-.088-.772-.265-.992-.19-.235-.476-.345-.856-.331-.313 0-.585.11-.816.33-.217.221-.326.552-.326.993v6.225h2.263zM274.43 23.968c2.27 0 4.018.365 5.241 1.096 1.482.896 2.223 2.37 2.223 4.425v5.377h-6.464V29.53c0-.413-.109-.737-.326-.971-.204-.249-.449-.366-.734-.352-.3 0-.558.11-.775.33-.218.221-.326.56-.326 1.014v2.544c0 1.116.462 1.978 1.386 2.585l2.57 1.385c1.862.993 3.01 1.717 3.445 2.172.924.896 1.387 2.13 1.387 3.701v4.074c0 2.054-.775 3.557-2.325 4.508-1.332.841-3.167 1.262-5.505 1.262-2.27 0-4.037-.373-5.302-1.117-1.55-.896-2.324-2.364-2.324-4.405V40.43h6.586v5.749c0 .454.095.8.285 1.034.19.234.463.351.816.351.353 0 .619-.117.795-.351.163-.235.252-.58.265-1.034v-2.11c0-1.847-.435-3.04-1.305-3.577l-3.364-1.82c-1.55-.869-2.59-1.648-3.12-2.337-.543-.69-.815-1.675-.815-2.957v-3.64c.013-2.054.754-3.564 2.222-4.529 1.305-.827 3.127-1.24 5.465-1.24zM292.354 23.968c2.283 0 4.037.365 5.26 1.096 1.496.896 2.236 2.37 2.223 4.425v5.377h-6.464V29.53c0-.413-.109-.737-.326-.971-.218-.249-.462-.366-.734-.352-.313 0-.571.11-.775.33-.217.221-.326.56-.326 1.014v2.544c0 1.116.462 1.978 1.386 2.585l2.57 1.385c1.862.993 3.01 1.717 3.445 2.172.911.896 1.373 2.13 1.387 3.701v4.074c0 2.054-.775 3.557-2.324 4.508-1.333.841-3.168 1.262-5.506 1.262-2.27 0-4.037-.373-5.301-1.117-1.55-.896-2.325-2.364-2.325-4.405V40.43h6.586v5.749c0 .454.095.8.286 1.034.19.234.462.351.815.351.354 0 .612-.117.775-.351.177-.235.265-.58.265-1.034v-2.11c0-1.847-.428-3.04-1.284-3.577l-3.365-1.82c-1.55-.869-2.59-1.648-3.12-2.337-.543-.69-.815-1.675-.815-2.957v-3.64c0-2.054.74-3.564 2.223-4.529 1.304-.827 3.12-1.24 5.444-1.24zM4.567 7.858h49.426c1.278.028 2.345.469 3.201 1.324.87.855 1.326 1.944 1.366 3.267v35.383c-.04 1.31-.496 2.399-1.366 3.267-.856.855-1.923 1.296-3.2 1.324H4.566c-1.277-.028-2.351-.469-3.221-1.324C.489 50.245.04 49.155 0 47.832V12.449c.04-1.323.49-2.413 1.346-3.267.87-.855 1.944-1.296 3.221-1.324z" fill="#9ccd66"/><path d="M54.89 47.832V12.449a.901.901 0 0 0-.265-.6c-.163-.165-.38-.255-.652-.268H4.588a1.026 1.026 0 0 0-.673.268.823.823 0 0 0-.245.6v35.383c0 .234.082.434.245.6.177.165.4.255.673.268h49.385c.272 0 .489-.09.652-.268a.901.901 0 0 0 .265-.6z" fill="#fff"/><path d="M27.71 38.216l3.548-.951c.87 3.24 1.747 5.707 2.63 7.403.87 1.682 1.68 2.874 2.427 3.578l-2.61 2.626c-1.047-1.02-2.08-2.53-3.1-4.529-1.005-1.985-1.97-4.694-2.895-8.127z" fill="#9ccd66"/><path d="M26.997 23.678c1.114-1.875 1.91-2.992 2.385-3.35l.204 18.529h-.632c-2.882-.083-4.595-.993-5.138-2.73-.558-1.75-.449-3.791.326-6.12.775-2.345 1.726-4.454 2.855-6.329z" fill="#f390bc"/><path d="M28.974 38.857l.204-18.529c.462.358 1.258 1.475 2.386 3.35 1.115 1.875 2.06 3.984 2.834 6.328.789 2.33.904 4.37.347 6.121-.558 1.737-2.277 2.647-5.159 2.73h-.612zM10.888 30.895C9.91 28.221 9.413 25.32 9.4 22.19c2.8 2.785 4.819 5.329 6.056 7.631l3.099 5.997c.83 1.71 2.053 3.04 3.67 3.991l-1.488.145c-2.202-.041-4.153-.89-5.852-2.544-1.7-1.654-3.032-3.825-3.997-6.514z" fill="#f390bc"/><path d="M16.863 31.04c-1.496-3.281-2.29-8.086-2.386-14.414l2.019 2.482 4.118 4.942c1.469 1.737 2.542 2.93 3.222 3.578-.788 1.985-1.087 4.012-.897 6.08.19 2.054 1.087 4.101 2.691 6.142-.856-.152-2.161-.834-3.915-2.048-1.74-1.227-3.357-3.48-4.852-6.762zM21.756 23.058c-.054-1.586.612-3.578 1.999-5.977 1.875 2.468 2.78 4.515 2.711 6.142-.081 1.613-.883 2.544-2.406 2.792-1.481-.372-2.25-1.358-2.304-2.957zM43.472 29.262c1.223-2.303 3.235-4.846 6.035-7.631-.013 3.13-.503 6.031-1.468 8.706-.979 2.688-2.318 4.86-4.017 6.514-1.699 1.654-3.65 2.502-5.852 2.544l-1.488-.145c1.617-.951 2.84-2.282 3.67-3.991a216.927 216.927 0 0 1 3.12-5.997z" fill="#f390bc"/><path d="M42.167 19.108l2.018-2.482c-.095 6.328-.89 11.133-2.385 14.414-1.496 3.281-3.113 5.528-4.853 6.742-1.754 1.227-3.059 1.916-3.915 2.068 1.604-2.04 2.501-4.088 2.692-6.142.19-2.068-.11-4.095-.898-6.08l3.222-3.578 4.119-4.942zM32.4 22.727c-.082-1.627.822-3.674 2.712-6.142 1.373 2.399 2.039 4.391 1.998 5.976-.054 1.6-.822 2.585-2.304 2.958-1.523-.235-2.325-1.165-2.406-2.792zM26.69 18.363c.694-.965 1.578-2.047 2.651-3.246l-.02 1.51c-.014.91.04 1.674.163 2.295l-.469 1.2-1.121 1.385c-1.482-1.144-1.883-2.192-1.203-3.144z" fill="#f390bc"/><path d="M29.076 16.73l.286-1.613c1.074 1.2 1.957 2.295 2.65 3.288.68 1.006.28 2.082-1.203 3.226l-1.121-1.386c-.15-.248-.306-.648-.469-1.2-.245-.578-.292-1.35-.143-2.315z" fill="#f390bc"/><path d="M130.742 3.516c.054.413-.612.813-1.999 1.199-1.182.317-2.168.476-2.956.476-1.496 0-2.338-.47-2.529-1.407-.054-.179.17-.324.673-.434l-7.422-.413h-2.304c-3.806 0-7.198.068-10.175.206.34.248.517.51.53.786-.013.593-.706 1.227-2.08 1.903l-3.649 4.983c-2.773 4.026-5.716 8.658-8.829 13.897-4.35 7.39-8.38 15.317-12.091 23.782.543.317.639.827.285 1.53-.095 1.117-.91 1.675-2.447 1.675-.693 0-1.27-.145-1.733-.434-.476-.304-.639-.662-.49-1.076 1.537-4.728 6.213-13.428 14.03-26.097 3.9-6.37 7.238-11.953 10.01-16.75-.04-.18.245-.807.857-1.883.625-1.089 1.21-1.826 1.754-2.212l-39.72 1.675-5.057.103c-5.002 0-7.945-.606-8.829-1.82-.19-.248-.285-.462-.285-.64 0-.483.618-.849 1.855-1.097l3.793-.475L56.46.62c1.332 0 1.971.193 1.917.58-.04.275-.952.6-2.732.971-1.795.373-2.685.607-2.671.703 0 .138.564.249 1.692.331l3.568.104L74.2 2.77l14.762-.724c14.001-.524 22.81-.786 26.426-.786 9.99 0 15.109.752 15.354 2.255z"/><path d="M128.58 4.115l1.162-.393.347-.206-.061-.063c-.109-.11-.313-.227-.612-.351-.598-.262-1.522-.483-2.773-.662l-11.255-.558c-3.589 0-12.39.262-26.405.786L74.22 3.39l-15.986.538-3.609-.103-.917-.083-.632-.103a1.082 1.082 0 0 1-.368-.166l-.285-.269-.061-.33c0-.11.02-.2.061-.27l.102-.165.163-.124.224-.124.571-.165 2.04-.455 1.345-.331h-.408l-4.465.372-3.732.455-.978.269-.388.248.143.227c.15.207.428.414.836.62.421.208.986.387 1.692.538l5.832.435 5.036-.104 39.7-1.675 2.12-.103-1.733 1.24c-.435.29-.958.959-1.57 2.007l-.57 1.054-.184.455.04.145-.142.227C95.324 12.45 91.98 18.04 88.065 24.423c-3.901 6.328-7.014 11.656-9.339 15.985-2.338 4.343-3.88 7.665-4.628 9.968l-.02.103.02.062.244.186c.34.234.81.352 1.407.352l1.183-.187c.258-.11.435-.255.53-.434l.122-.496.02-.103.042-.104.142-.455-.02-.124-.163-.145-.49-.268.225-.517c3.724-8.493 7.768-16.44 12.132-23.844 3.126-5.266 6.083-9.912 8.87-13.938l3.629-5.005.102-.124.143-.082 1.162-.662.51-.517.06-.145-.04-.062-.224-.207-1.468-1.054 1.794-.083c2.99-.152 6.389-.22 10.195-.207h2.304l4.67.124 2.508.207.387.083.245.144.958.828-1.223.268h-.062l.02.063.327.268c.272.166.74.255 1.407.27h.04l2.794-.456zM47.06 2.812v.021-.02zm78.727 1.758h.02zm-27.445 5.894v-.02zm-24 40.263h-.02zm-.244-.351v.02zm-27.2-47.791l.02.02zm82.029-.951c.829.206 1.461.503 1.896.889.272.234.449.53.53.89v.144c-.013.29-.102.524-.265.703l-.53.434c-.408.235-.958.441-1.652.62-1.223.332-2.263.497-3.12.497l-1.61-.228a2.337 2.337 0 0 1-1.142-.827 2.076 2.076 0 0 1-.367-.806l-.02-.186-.796-.042-5.362-.165h-2.284c-3.344-.014-6.362.041-9.053.165l.02.207-.224.765-.51.62c-.38.345-.904.676-1.57.993l-3.527 4.86c-2.76 4.012-5.696 8.637-8.809 13.876-4.268 7.238-8.224 15-11.867 23.285l.122.186c.15.235.225.497.225.786 0 .303-.068.6-.204.89-.04.316-.136.606-.286.868a2.069 2.069 0 0 1-.672.744c-.558.359-1.258.531-2.1.517-.79.014-1.476-.165-2.06-.537l-.591-.538a1.54 1.54 0 0 1-.245-.765c0-.18.034-.352.102-.517.788-2.413 2.352-5.797 4.69-10.154 2.351-4.356 5.485-9.705 9.4-16.047 3.86-6.3 7.17-11.829 9.93-16.585l.06-.331.184-.434.673-1.262.775-1.2-38.19 1.593-5.078.104-4.832-.249c-1.333-.179-2.4-.455-3.202-.827-.543-.262-.972-.593-1.284-.992l-.286-.476a1.12 1.12 0 0 1-.122-.538c0-.262.075-.496.224-.703.15-.193.333-.351.55-.475.395-.235.918-.414 1.57-.538h.042l3.792-.476L56.46 0l1.142.062c.313.041.591.124.836.248.177.083.333.228.47.434l.08.414v.124l-.224.455-.265.207-.632.29-1.55.434 1.917.02 15.925-.537 14.783-.724C102.943.903 111.758.64 115.388.64l8.299.248c2.256.152 4.003.4 5.24.745zm-69.938-.352v.02zm1.488 4.26h-.02zm26.568 18.219h-.02zm44.308-20.349v.02z"/><path d="M106.396 8.54l1.223-.185c.585 0 1.074.151 1.468.455l-1.733 3.267c-2.637 4.301-6.307 10.864-11.01 19.687-3.984 8.616-5.907 13.552-5.771 14.806.027.166.082.249.163.249h.04c.164 0 1.51-1.372 4.038-4.116 3.263-3.432 6.097-6.183 8.503-8.25 3.221-2.786 5.519-4.26 6.892-4.426l.489-.02c1.074 0 1.665.489 1.774 1.467.054.51-.082 1.475-.408 2.895l-2.406 7.404c-.951 3.019-1.36 5.142-1.223 6.37.136 1.24.822 1.867 2.06 1.881l1.488-.31 1.182-.31.123-.021c.258 0 .448.117.57.351.136.373-.42.828-1.672 1.365-1.223.538-2.385.807-3.486.807h-.082c-1.89-.028-2.936-.986-3.14-2.875-.15-1.31.136-3.308.856-5.997l2.06-6.824c.435-1.53.625-2.502.57-2.916-.026-.276-.122-.427-.285-.455h-.122c-.449 0-1.407.662-2.875 1.985-1.944 1.765-6.702 6.776-14.273 15.035-.897.978-1.958 1.537-3.18 1.675l-.551.04c-.802 0-1.237-.261-1.305-.785-.014-.207.04-.51.163-.91 2.039-6.783 5.437-14.793 10.195-24.03 3.942-7.596 5.865-12.021 5.77-13.276-.054-.979.367-1.771 1.264-2.378.435-.427 1.312-.979 2.63-1.654zM90.736 46.82h.02z"/><path d="M109.699 8.81l-.02.165-.062.165-.102.207-.326.641-1.305 2.378c-2.637 4.316-6.3 10.871-10.99 19.667-1.686 3.64-2.997 6.61-3.935 8.913-.83 2.04-1.367 3.55-1.611 4.528l.122-.124 2.895-3.06c3.277-3.447 6.124-6.218 8.544-8.313 2.433-2.096 4.384-3.481 5.852-4.157.503-.22.965-.358 1.386-.414l.551-.02c.462 0 .89.09 1.285.269.38.206.666.51.856.91.122.261.197.537.224.827l.02.33c0 .648-.142 1.58-.428 2.792l-.734 2.296-1.672 5.149c-.421 1.31-.734 2.44-.938 3.391-.203.965-.299 1.73-.285 2.296l.02.413c.041.4.13.69.265.869.123.18.306.303.551.372l.632.104 1.325-.29.775-.227.51-.104.163-.02c.231 0 .456.062.673.186l.449.496.02.041.082.373c-.014.261-.089.475-.225.64l-.448.435c-.34.248-.802.496-1.387.744-1.291.566-2.535.848-3.731.848h-.102c-.775-.014-1.461-.186-2.06-.517a3.155 3.155 0 0 1-1.305-1.489 4.441 4.441 0 0 1-.367-1.406l-.04-.806c.013-1.365.32-3.178.917-5.44l2.08-6.823.408-1.696.122-.807-.51.31-1.753 1.427c-.952.869-2.617 2.558-4.996 5.067a953.938 953.938 0 0 0-9.236 9.926c-.993 1.09-2.182 1.717-3.569 1.882l-.611.041-.959-.144a1.401 1.401 0 0 1-.734-.58 1.486 1.486 0 0 1-.224-.62v-.165a4.07 4.07 0 0 1 .183-.993c2.053-6.824 5.472-14.869 10.257-24.133 1.672-3.24 2.983-5.9 3.935-7.982.938-2.082 1.502-3.55 1.692-4.405l.062-.517v-.248c0-.565.135-1.082.407-1.551.259-.441.619-.82 1.081-1.138l1.06-.785 1.693-.952.06-.041h.062l1.366-.207c.693 0 1.305.193 1.835.58l.204.165.041.248v.083zm-1.815 3.577h-.02.02zm-2.14 30.482l.02-.02zm8.665 6.617v.021zm-1.754-14.972v.02zm-18.29 7.776v-.02zm13.907-33.212l-.653-.103-.999.145-1.55.868-.856.662-.061.041-.041.042c-.353.234-.612.482-.775.744-.15.262-.224.572-.224.93v.249l-.102.786-.286 1.013-1.1 2.771c-.966 2.22-2.413 5.19-4.344 8.913-4.757 9.21-8.149 17.185-10.174 23.926l-.123.62v.042l.02.062.062.062.612.104.489-.042c1.047-.11 1.985-.606 2.814-1.489l9.236-9.947c2.38-2.509 4.065-4.211 5.057-5.107.558-.51 1.054-.931 1.489-1.262a7.782 7.782 0 0 1 1.121-.724l.673-.165.265.02.286.125.265.268c.122.193.19.386.204.58v.227l-.143 1.158-.449 1.778-2.06 6.825c-.584 2.206-.876 3.908-.876 5.108l.04.661c.069.62.225 1.096.47 1.427.23.331.564.572.999.724l1.06.165h.082c1.006 0 2.086-.248 3.242-.744l.856-.434-.632.206-1.651.331c-.558 0-1.054-.117-1.489-.351a2.255 2.255 0 0 1-.938-1.076 3.586 3.586 0 0 1-.265-1.013l-.02-.558c0-.703.108-1.551.326-2.544.217-1.006.53-2.178.938-3.515l1.692-5.15.714-2.212c.272-1.186.4-2.02.387-2.502v-.187c-.04-.275-.108-.468-.204-.579l-.428-.268-.49-.063h-.04l-.408.021c-.258.028-.605.131-1.04.31-.421.193-.91.47-1.468.828-1.114.716-2.474 1.764-4.078 3.143-2.379 2.054-5.193 4.79-8.441 8.21l-2.468 2.626-1.386 1.344-.245.186-.183.104-.163.02-.082.021-.347-.103-.265-.228-.163-.475v-.207l.102-.827.286-1.076c.244-.813.611-1.84 1.1-3.081.966-2.454 2.414-5.77 4.344-9.947v-.041c4.717-8.81 8.394-15.38 11.03-19.708l1.449-2.668zm-17.454 38.34v.021zm18.249-5.831l.02-.021zm1.448 9.057h-.02zM148.766 31.268c.422.137.932.448 1.53.93 0 .386-.211.917-.632 1.592-3.426 5.184-5.139 9.327-5.139 12.429 0 1.861.748 3.005 2.243 3.433l2.467.351c.11.083.163.173.163.27 0 .771-.802 1.157-2.406 1.157l-1.753-.269c-2.338-.661-3.507-2.302-3.507-4.921l.469-4.426c-3.032 2.91-6.226 5.267-9.584 7.073-3.67 1.999-7.02 2.998-10.052 2.998l-1.855-.165c-2.977-.455-4.466-2.24-4.466-5.356 0-3.42 1.393-7.059 4.18-10.92 2.923-4.121 6.117-7.423 9.583-9.905 4.146-3.046 8.32-4.57 12.52-4.57 2.501 0 4.39.627 5.668 1.882 1.074 1.09 1.604 2.51 1.59 4.26 0 1.434-.339 2.82-1.019 4.157zm-12.315 12.49c4.893-3.984 7.694-7.183 8.4-9.595-.163-.98-.19-1.627-.081-1.944.054-.18.374-.6.958-1.262.476-1.392.714-2.688.714-3.887 0-2.827-1.36-4.24-4.078-4.24-2.664 0-5.75 1.172-9.257 3.516-3.521 2.344-6.505 5.19-8.952 8.54-3.03 4.233-4.547 8.086-4.547 11.56-.013 2.523 1.21 3.778 3.67 3.764 3.453.014 7.844-2.137 13.173-6.452z"/><path d="M148.624 22.417a5.93 5.93 0 0 1 1.345 2.109c.3.786.442 1.647.429 2.585a9.488 9.488 0 0 1-.816 3.846c.353.193.72.448 1.101.766l.224.186v.29c0 .316-.068.626-.204.93l-.53.992c-1.699 2.578-2.963 4.88-3.792 6.907-.843 2.027-1.258 3.757-1.244 5.19.014.842.163 1.476.449 1.903.271.414.693.717 1.264.91.652.014 1.495.138 2.528.373l.102.02.102.062.285.31c.096.152.143.31.143.476 0 .317-.088.607-.265.869a1.633 1.633 0 0 1-.693.558c-.53.248-1.217.365-2.06.352l-1.916-.29c-1.292-.358-2.277-1.013-2.957-1.965-.68-.965-1.012-2.15-.999-3.556h.612l-.347-.083-.265-.02.02-.042.02-.207.082-.827.184-1.675c-2.705 2.426-5.546 4.446-8.523 6.059-3.738 2.027-7.184 3.047-10.338 3.06l-1.937-.165c-1.196-.18-2.202-.579-3.018-1.2-.802-.634-1.359-1.468-1.672-2.502a7.997 7.997 0 0 1-.306-2.274c.014-3.599 1.441-7.355 4.282-11.27 2.964-4.178 6.206-7.535 9.727-10.072 4.24-3.102 8.536-4.66 12.886-4.673 1.305 0 2.467.165 3.487.496 1.033.345 1.903.869 2.61 1.572zm-.408 8.561c.652-1.24.972-2.53.958-3.867 0-.813-.115-1.53-.346-2.15a4.643 4.643 0 0 0-1.06-1.655c-.558-.552-1.272-.979-2.142-1.282-.856-.29-1.89-.434-3.099-.434-4.037-.014-8.095 1.468-12.173 4.446-3.398 2.44-6.545 5.7-9.44 9.781-2.72 3.778-4.072 7.293-4.058 10.547 0 1.089.183 1.971.55 2.647.354.675.898 1.2 1.632 1.571.489.248 1.08.42 1.774.517l1.753.166c2.895 0 6.151-.972 9.767-2.916 3.303-1.792 6.457-4.115 9.461-6.97l1.203-1.157-.184 1.675-.469 4.28v.104c.014 1.186.266 2.116.755 2.792.476.689 1.244 1.185 2.304 1.489l1.59.248 1.06-.083.572-.186-1.835-.269h-.102l-.082-.041c-.884-.235-1.563-.703-2.039-1.406-.449-.717-.666-1.586-.653-2.606 0-1.668.442-3.564 1.326-5.687.883-2.11 2.188-4.474 3.915-7.093l.428-.786.061-.186c-.448-.33-.809-.538-1.08-.62l-.694-.228.347-.641zM120.812 51.12h.02-.02zm25.977-.848h-.02zm1.835.269l.02-.02zm-6.28-4.363v.02zm.02-23.968c1.101-.014 2.039.214 2.814.682.761.497 1.291 1.207 1.59 2.13.19.607.286 1.29.286 2.048 0 1.282-.252 2.647-.755 4.094l-.04.124-.082.083-.612.724-.224.33-.041.331c0 .304.048.738.143 1.303l.02.145-.04.124c-.395 1.337-1.306 2.82-2.733 4.446-1.44 1.64-3.392 3.468-5.852 5.48-2.691 2.165-5.159 3.798-7.402 4.901-2.256 1.117-4.309 1.675-6.157 1.675-1.006.014-1.863-.193-2.57-.62-.706-.441-1.196-1.082-1.468-1.923a5.635 5.635 0 0 1-.244-1.84c0-1.834.394-3.744 1.182-5.729.775-1.971 1.937-4.032 3.487-6.183 2.488-3.42 5.519-6.321 9.094-8.706 3.562-2.399 6.763-3.605 9.604-3.62zm2.977 2.585c-.3-.524-.761-.896-1.387-1.117-.435-.152-.965-.227-1.59-.227-2.488-.028-5.465 1.11-8.931 3.412-3.453 2.302-6.382 5.1-8.788 8.396-1.495 2.081-2.61 4.06-3.344 5.935-.734 1.86-1.094 3.612-1.08 5.252 0 .869.142 1.53.427 1.986.259.455.666.779 1.224.972l1.407.186c1.604.013 3.48-.504 5.627-1.551 2.135-1.048 4.527-2.633 7.178-4.757 2.42-1.985 4.316-3.756 5.689-5.314 1.305-1.517 2.12-2.799 2.446-3.847l-.142-1.365c0-.261.034-.51.102-.744l.163-.31.224-.31.612-.745c.435-1.31.652-2.502.652-3.577-.013-.98-.176-1.737-.49-2.275zm-9.257 18.487h-.02zM158.635 32.86c.952-1.558 2.114-2.337 3.487-2.337l.51.041c.625.028.944.304.958.828-.014.606-.333 1.323-.958 2.15-2.243 2.91-3.684 4.908-4.323 5.997-1.971 3.254-2.793 6.066-2.467 8.438.15 1.2.815 1.792 1.998 1.778l.958-.207.632-.124.551-.124c.326 0 .591.138.795.414l.082.165c0 .345-.449.724-1.346 1.138-.91.4-1.87.6-2.875.6-1.658 0-2.861-.628-3.609-1.883-.367-.661-.55-1.488-.55-2.481 0-2.73 2.052-7.527 6.157-14.393z"/><path d="M163.182 31.392l-.04-.186-.062-.104-.49-.124-.468-.041c-.612 0-1.176.172-1.693.517-.516.344-.999.889-1.447 1.633-2.053 3.42-3.582 6.315-4.588 8.686-1.02 2.385-1.522 4.212-1.509 5.48 0 .937.17 1.696.51 2.275.326.565.754.985 1.284 1.261.53.276 1.183.414 1.958.414.951 0 1.855-.193 2.712-.58l.836-.454.244-.248-.183-.166-.265-.041-.122.02-.306.083-.694.145-1.02.207h-.04c-.652.013-1.19-.166-1.61-.538-.422-.386-.674-.917-.755-1.592l-.082-1.076c.014-2.26.884-4.811 2.61-7.651.653-1.103 2.1-3.109 4.343-6.018l.673-1.075.204-.827zm-.591-.414h-.02zm-.47-.869l.551.042c.272.014.517.076.735.186.23.124.394.31.489.558l.102.497a3.148 3.148 0 0 1-.286 1.158l-.774 1.261c-2.23 2.895-3.657 4.874-4.282 5.935-1.659 2.771-2.488 5.177-2.488 7.217 0 .331.02.648.061.952.082.524.245.889.49 1.096.23.22.604.33 1.121.33l.816-.165.06-.041h.082l.51-.104.367-.103.306-.041c.231 0 .442.048.632.144l.47.393.121.166.062.29c0 .178-.048.337-.143.475l-.347.393-1.1.64a7.422 7.422 0 0 1-3.039.642c-.883 0-1.665-.172-2.345-.517a4.124 4.124 0 0 1-1.61-1.572c-.408-.758-.612-1.654-.612-2.688.013-1.448.537-3.385 1.57-5.811 1.033-2.413 2.583-5.342 4.649-8.789.49-.827 1.053-1.454 1.692-1.882a3.744 3.744 0 0 1 2.141-.662zm-4.281 19.233h.02zM156.372 16.957c.625-1.599 2.236-2.399 4.832-2.399 2.107 0 3.16.67 3.16 2.006 0 .428-.162.883-.489 1.365-.924 1.337-2.372 2.11-4.343 2.316l-.999.062c-1.658.014-2.487-.592-2.487-1.82 0-.427.108-.937.326-1.53z"/><path d="M163.284 14.455c.571.207.986.551 1.244 1.034.177.33.258.69.245 1.075-.014.538-.204 1.069-.571 1.593a5.146 5.146 0 0 1-1.917 1.716c-.775.414-1.679.676-2.712.786l-1.04.083c-.666 0-1.223-.104-1.672-.31a1.906 1.906 0 0 1-1.04-.972 2.474 2.474 0 0 1-.183-.972c0-.497.115-1.048.346-1.655a3.769 3.769 0 0 1 1.876-2.047c.898-.427 2.012-.641 3.344-.641.83 0 1.523.103 2.08.31zm-7.3 2.378v-.02zm3.508 3.02c.938-.11 1.74-.345 2.406-.704a4.62 4.62 0 0 0 1.63-1.447c.3-.441.443-.82.429-1.138 0-.275-.048-.503-.143-.682a1.343 1.343 0 0 0-.448-.476c-.422-.275-1.129-.42-2.12-.434h-.042c-1.25 0-2.243.186-2.977.558-.72.359-1.216.89-1.488 1.593-.19.551-.286 1.006-.286 1.365 0 .262.041.468.123.62a.96.96 0 0 0 .326.414c.3.248.843.379 1.631.392l.959-.062zm4.037-2.151v-.02zM170.849 17.164c.639-1.6 2.256-2.399 4.853-2.399 2.107 0 3.16.669 3.16 2.006 0 .428-.163.882-.49 1.365-.923 1.337-2.371 2.116-4.342 2.337l-1 .062c-1.658 0-2.487-.614-2.487-1.84 0-.428.102-.938.306-1.53z"/><path d="M177.782 14.662c.57.207.985.551 1.243 1.034.163.33.245.69.245 1.075-.014.538-.204 1.075-.57 1.613a5.436 5.436 0 0 1-1.918 1.696c-.774.413-1.678.675-2.711.786l-1.04.082c-.666 0-1.23-.096-1.693-.29a2.002 2.002 0 0 1-1.02-.992 2.474 2.474 0 0 1-.183-.972c0-.496.116-1.047.347-1.654a3.864 3.864 0 0 1 1.876-2.047c.897-.428 2.012-.641 3.344-.641.815 0 1.509.103 2.08.31zm-7.3 2.378v-.02zm3.507 3.02c.938-.111 1.74-.345 2.406-.704a4.62 4.62 0 0 0 1.631-1.447c.3-.442.442-.82.428-1.138 0-.276-.047-.503-.142-.682a1.342 1.342 0 0 0-.449-.476c-.421-.276-1.142-.42-2.161-.434-1.25 0-2.243.186-2.977.558-.72.359-1.217.89-1.489 1.593-.19.551-.285 1.006-.285 1.364 0 .262.04.476.122.641a.99.99 0 0 0 .326.393c.3.248.83.38 1.59.393h.042l.958-.062z"/></svg>