<svg xmlns="http://www.w3.org/2000/svg" version="1" width="256" height="54"><path d="M25 11.168h-3.5l-9 23.171-9-23.17H0l10.8 27.514-1.2 3.089c-.7 2.028-1.8 3.379-3.1 4.055-1.3.772-3.1.965-5.3.676l-.6-.097v2.896l.4.194c2.7.483 5.1.098 7.1-.965 1.9-1.158 3.4-3.088 4.5-5.695L25 11.168zM54.4 25.36c0-4.151-1.4-7.627-4.3-10.523s-6.2-4.345-10.3-4.345c-4.1 0-7.4 1.449-10.3 4.345-2.8 2.896-4.3 6.372-4.3 10.523 0 3.959 1.5 7.434 4.3 10.234 2.9 2.896 6.2 4.345 10.3 4.345 4.1 0 7.4-1.449 10.3-4.345 2.9-2.8 4.3-6.275 4.3-10.234zm-3.2 0c0 3.186-1.2 5.89-3.4 8.207-2.2 2.221-4.8 3.379-8 3.379-3.1 0-5.8-1.158-8.1-3.38-2.2-2.315-3.3-5.019-3.3-8.206 0-3.282 1.1-6.082 3.3-8.399 2.3-2.414 5-3.572 8.1-3.572 3.2 0 5.8 1.158 8 3.572 2.2 2.317 3.4 5.117 3.4 8.4zm32.3-14.192v4.924a12.984 12.984 0 0 0-4.8-4.151c-2-.966-4.2-1.449-6.5-1.449-4 0-7.4 1.449-10.2 4.345-2.9 2.896-4.3 6.372-4.3 10.523 0 3.959 1.4 7.53 4.3 10.33 2.8 2.8 6.2 4.249 10.2 4.249 2.3 0 4.5-.483 6.5-1.449 1.9-.965 3.5-2.22 4.8-4.054v3.572c0 3.475-1 6.275-3 8.303-2 2.123-4.8 3.185-8.1 3.185-2.6 0-4.7-.579-6.6-1.737-1.8-1.062-3.1-2.8-3.8-4.828l-.2-.385h-3.3l.2.675c.9 2.994 2.5 5.214 5 6.856 2.3 1.641 5.3 2.413 8.7 2.413 4.3 0 7.7-1.351 10.3-3.959 2.7-2.703 4-6.178 4-10.522v-26.84h-3.2zm-11.3 2.414c3.3 0 6 1.158 8.2 3.379 2.1 2.124 3.1 5.02 3.1 8.4 0 3.282-1 6.082-3.1 8.206-2.2 2.221-4.9 3.379-8.2 3.379-3.2 0-5.8-1.158-8-3.38-2.2-2.315-3.3-5.019-3.3-8.206 0-3.282 1.1-5.985 3.3-8.302 2.2-2.318 4.8-3.476 8-3.476zm46.3 5.89c-.8-1.835-1.8-3.476-3.3-4.828-2.7-2.8-6.1-4.152-10-4.152-4 0-7.4 1.449-10.2 4.345-2.9 2.896-4.3 6.372-4.3 10.523 0 4.055 1.4 7.53 4.3 10.33s6.4 4.249 10.5 4.249c3.4 0 6.2-.773 8.6-2.414 2.4-1.641 4-3.96 5.1-7.048l.2-.676H116l-.1.386c-1.7 4.442-5.2 6.758-10.4 6.758-3.1 0-5.8-1.158-8.1-3.186-2.2-2.124-3.4-4.73-3.5-7.917h25.8v-.869c0-1.833-.3-3.668-1.2-5.502zm-13.3-5.89c2.7 0 5 .965 7.1 2.607 2.1 1.737 3.4 3.861 3.9 6.565h-22c.5-2.704 1.9-4.828 4-6.565 2-1.642 4.3-2.607 7-2.607zm38 2.22c1.5 1.545 2.3 3.766 2.3 6.662v16.895h3.101V22.464c0-3.765-1-6.662-3.101-8.689-2.2-2.22-5.101-3.283-8.8-3.283-4 0-7.2 1.352-9.5 4.055v-3.379H124V39.36h3.2V22.464c0-2.607.8-4.73 2.699-6.372 1.801-1.738 4-2.51 6.701-2.51 2.9 0 5.1.676 6.6 2.22zm34-15.736h-.6c-2.9-.29-5.301.386-7.101 1.93-2 1.835-3 4.442-3 7.917v1.255H162.6v3.09h3.899v25.101h3.2V14.258h7.5v-3.09h-7.5V10.01c0-2.607.699-4.538 1.9-5.793 1.299-.965 2.899-1.448 5-1.255h.6V.066h.001zm16.8 10.62l-.5-.097-4.3.097c-2.1.386-4 1.255-5.7 2.703l-.899.965v-3.186H179.4V39.36h3.201V22.464c0-2.896 1-5.117 2.899-6.758 1.101-.966 2.3-1.641 3.7-1.931l4.199-.29.601.097v-2.896zm56.2 3.186v-2.704h-22.801v3.09H245.7l-19 22.302v2.798h24.1V36.27h-19.6l19-22.398z" fill="#0197d9"/><path d="M208.5 5.376c0-.773-.3-1.352-.899-1.931-.5-.483-1.101-.773-1.9-.773-.7 0-1.4.29-2 .773-.5.579-.7 1.158-.7 1.93 0 .676.2 1.352.7 1.932.6.482 1.3.675 2 .675.8 0 1.4-.193 1.9-.675.599-.58.899-1.256.899-1.931zm9 1.93c.5-.579.7-1.255.7-1.93 0-.773-.2-1.352-.7-1.931-.601-.483-1.3-.773-2-.773-.8 0-1.399.29-1.899.773-.601.579-.9 1.158-.9 1.93 0 .676.3 1.352.9 1.932.5.482 1.1.675 1.899.675.7 0 1.399-.193 2-.675zm2.899 3.862v14.675c0 3.283-.899 5.89-2.799 7.724-1.801 1.834-4.101 2.704-7.101 2.704-2.899 0-5.3-.87-7.101-2.704-1.899-1.834-2.799-4.345-2.799-7.724V11.168H197V25.65c0 4.344 1.3 7.724 3.899 10.427 2.4 2.606 5.601 3.862 9.5 3.862h.201c3.899 0 7-1.256 9.5-3.862 2.6-2.703 3.899-6.083 3.899-10.427V11.168h-3.6z" fill="#f28cb4"/><path d="M253.727 36.238c-.9 0-1.656.725-1.656 1.625s.756 1.657 1.656 1.657c.9 0 1.625-.756 1.625-1.657 0-.9-.724-1.625-1.625-1.625zm0 .25a1.36 1.36 0 0 1 1.375 1.375c0 .772-.604 1.407-1.375 1.407a1.413 1.413 0 0 1-1.406-1.407c0-.77.635-1.375 1.406-1.375zm.183 1.035c0-.087-.022-.149-.067-.184-.044-.036-.113-.054-.207-.054h-.197v.48h.197c.1 0 .172-.019.212-.058.041-.04.062-.1.062-.184m.467-.071c0 .245-.116.405-.348.48.07.017.13.055.18.112.05.058.098.136.145.233l.253.532h-.497l-.22-.466a.521.521 0 0 0-.132-.187.284.284 0 0 0-.187-.056h-.132v.709h-.467v-1.874h.713c.13 0 .241.012.333.036a.51.51 0 0 1 .215.107c.051.047.088.1.11.162.023.06.034.13.034.212" fill="#0197d9"/></svg>