<svg xmlns="http://www.w3.org/2000/svg" width="500" height="300"><defs><style>.cls-1{fill:#d2232a;fill-rule:evenodd}</style></defs><path id="I_m_Poor" data-name="I’m Poor" class="cls-1" d="M99.7 194.373a12.137 12.137 0 0 0 .31-5.295q-1.441-7.146-17.321-3.946L50.4 191.639q-3.573.72-2.8 4.558.747 3.707 4.055 3.039l22.895-4.614a4.7 4.7 0 0 1 3.151.6 3.39 3.39 0 0 1 1.963 2.221 1.669 1.669 0 0 1-.078.98l-17.833 80.3 20.116-4.054zm30.537-25.7a4.319 4.319 0 0 0-3.245-3.345 11.63 11.63 0 0 0-5.9-.238 20.4 20.4 0 0 0-7.6 3.388q-4.362 3.165-5.261 7.2a5.947 5.947 0 0 0-.16 2.746q1.079 5.352 8.077 3.942a10.831 10.831 0 0 0 2.278-.745q-1.094 4.5-7.43 7.067l1.761 2.359q14.595-6.937 17.433-19.794a6.193 6.193 0 0 0 .051-2.581zm79.818 58.749l-4.674-4.056q-.983 4.341-6.135 9.948t-9.134 6.411q-2.2.442-2.555-1.342a5.4 5.4 0 0 1 .243-2.334l3.737-16.891a26.908 26.908 0 0 0 .341-11.066q-2.019-10.016-11.626-8.082a24.122 24.122 0 0 0-15.334 9.66q-3.33-5.9-10.467-4.46-9.881 1.99-14.351 8.89l-13.981-4.18-13.066 58.473 20.047-4.043 9.738-43.807a4.667 4.667 0 0 1 3.783-3.9q1.92-.387 2.226 1.122a4.676 4.676 0 0 1 0 1.428L139 263.161l19.9-4.01 9.738-43.807a4.759 4.759 0 0 1 3.92-3.932q1.782-.36 2.089 1.15a4.606 4.606 0 0 1 0 1.427l-6.656 29.333a16.042 16.042 0 0 0-.1 5.876q.969 4.806 6.049 5.922a9.567 9.567 0 0 0 4.174.159q9.469-1.909 19.451-10.49 10.612-8.994 12.522-17.233zm41.935-11.593l12.329-55.04q1.69-7.908 8.416-9.265 5.487-1.106 6.4 3.422a8.305 8.305 0 0 1 0 2.856l-8.935 39.93q-1.748 7.637-18.2 18.093zM299.4 152a10.276 10.276 0 0 0 .158-4.173q-1.023-5.076-8.136-6.358a31.9 31.9 0 0 0-12.218.32q-10.984 2.211-15.861 7.768-3.684-3.4-16.31-.855l-19.626 3.955q-3.705.747-2.9 4.727.774 3.843 4.068 3.179l10.018-2.019a4.872 4.872 0 0 1 3.269.627 3.511 3.511 0 0 1 2.035 2.3 3.129 3.129 0 0 1 .056.988l-18.63 83.3 20.86-4.2 4.611-20.351q14.271-2.877 24.2-9.591 12.945-8.746 16.111-22.812zm10.642 69.12a1.8 1.8 0 0 1-2.336-1.671 5.867 5.867 0 0 1 .079-2.444l6.683-29.91a7.2 7.2 0 0 1 2.437-4.2 5.049 5.049 0 0 0 .031 2.279q.8 3.981 3.411 4.168l-5.837 26.312q-1.175 4.809-4.468 5.47zm20.342-39.375a2.855 2.855 0 0 1-2.431-.724 3.985 3.985 0 0 1-1.472-2.345q-.554-2.744 2.329-3.326 1.782-.359 2.31 2.248a8.915 8.915 0 0 1-.077 3.872 1.553 1.553 0 0 1-.659.275zm20.8-6.62q-5.679 5.145-8.97 5.807a17.734 17.734 0 0 1-3.954.225 15.948 15.948 0 0 0 .922-8.183q-1.383-6.861-9.617-5.2a16.012 16.012 0 0 0-9.931 6l-5.627 1.134q-7.137 1.439-12.616 8.97a38.433 38.433 0 0 0-6.623 14.616l-3.056 13.184q-1.773 8.213-.805 13.015 1.523 7.549 9.619 5.916l15.508-3.125q13.587-2.738 19.4-28.473 1.171-5.519 1.773-8.212 13.584-4.164 18.9-12.52zm7.3 36.232a1.8 1.8 0 0 1-2.336-1.671 5.866 5.866 0 0 1 .078-2.444l6.683-29.91a7.208 7.208 0 0 1 2.438-4.2 5.047 5.047 0 0 0 .03 2.279q.8 3.981 3.411 4.168l-5.837 26.312q-1.173 4.807-4.467 5.47zm20.342-39.375a2.855 2.855 0 0 1-2.431-.724 3.976 3.976 0 0 1-1.472-2.345q-.553-2.743 2.329-3.326 1.782-.358 2.309 2.248a8.914 8.914 0 0 1-.076 3.872 1.559 1.559 0 0 1-.659.275zm20.8-6.62q-5.678 5.145-8.97 5.807a17.72 17.72 0 0 1-3.953.225 15.948 15.948 0 0 0 .922-8.183q-1.383-6.861-9.618-5.2a16.012 16.012 0 0 0-9.93 6l-5.627 1.134q-7.137 1.439-12.617 8.97a38.433 38.433 0 0 0-6.623 14.616l-3.055 13.183q-1.773 8.214-.805 13.016 1.521 7.549 9.618 5.916l15.509-3.125q13.585-2.737 19.4-28.473 1.17-5.519 1.772-8.212 13.584-4.164 18.9-12.521zm48.8 9.017q-1.094 4.5-6.177 10.1t-9.2 6.425q-2.058.414-2.418-1.37a5.623 5.623 0 0 1 .106-2.306l3.273-14.941a3.2 3.2 0 0 0 .08-1.73 6.369 6.369 0 0 0-4.346-5.265L397.032 154.6l-11.157 49.52a21.016 21.016 0 0 0 7.132-4.293q13.464-11.139 17.093-27.152.817-3.733 2.465-4.067a3.943 3.943 0 0 1 2.348.312 2.162 2.162 0 0 1 1.444 1.494 1.586 1.586 0 0 1 0 .714l-5.292 23.346a14.229 14.229 0 0 0-.129 5.738q1.577 7.822 10.223 6.08 9.6-1.935 19.588-10.517 10.474-8.965 12.385-17.205z"/><path id="Ì_BUT_Í" data-name="Ì!BUT!Í" d="M206.966 108.636l6.289 10.185-6.289 10.767h32.026a45.221 45.221 0 0 0-7.844-3.828 47.663 47.663 0 0 0-8.6-2.427v-14.7h-15.582zm31.855 13.911l.684.342a3.279 3.279 0 0 0-.513-.342h-.171zm-1.435 0q.717.409 2.085 1.23a7.477 7.477 0 0 0-1.812-1.23h-.273zm-1.4 0q1.948.957 3.487 1.88a12.44 12.44 0 0 0-3.179-1.88h-.308zm-1.538 0a55.231 55.231 0 0 1 5.059 2.632 21.423 21.423 0 0 0-4.58-2.632h-.479zm-1.674 0a59.548 59.548 0 0 1 6.7 3.315 23.467 23.467 0 0 0-6.016-3.315h-.683zm-1.88 0a59.713 59.713 0 0 1 8.51 4 39.669 39.669 0 0 0-7.519-4h-.991zm-2.085 0a61.97 61.97 0 0 1 10.527 4.682 41.97 41.97 0 0 0-9.194-4.682h-1.333zm-2.461 0a55.394 55.394 0 0 1 12.954 5.4 43.9 43.9 0 0 0-11.108-5.4h-1.846zm-2.769 0a56.117 56.117 0 0 1 15.655 6.084 42.871 42.871 0 0 0-13.194-6.084h-2.461zm1.944 0zm15.035-25.293a2.6 2.6 0 0 1 .513 1.606v7.827a.982.982 0 0 1-.53.77 3.791 3.791 0 0 1-.837.461l-.513.171.479.137a3.14 3.14 0 0 1 .94.461.911.911 0 0 1 .461.735v9.092a2.006 2.006 0 0 1-.53 1.4 1.706 1.706 0 0 1-1.316.581h-7.795V96.57h7.793a1.591 1.591 0 0 1 1.333.684zm-3.418 2.734h-2.36v7.075l2.939-2.255v-3.931q0-.888-.581-.889zm-1.059 9.912l-1.3 1.128v6.05h2.393a.551.551 0 0 0 .546-.683v-5.23q0-.821-1.64-1.265zm-5.674 12.647zm21.766-25.977v21.944a2.005 2.005 0 0 1-.529 1.4 1.708 1.708 0 0 1-1.316.581h-5.948a1.686 1.686 0 0 1-1.316-.6 2.069 2.069 0 0 1-.529-1.419V96.57h3.349v19.83c0 .456.171.683.513.683h1.846a.517.517 0 0 0 .41-.2.724.724 0 0 0 .171-.478V96.57h3.349zm-10.63 25.977zm19.615-22.559V120.5h-3.349V99.988h-4.2V96.57h11.758v3.418h-4.2zm-8.51 22.559zm13.189 0zm8.2.786a47.663 47.663 0 0 0-8.6 2.427 45.185 45.185 0 0 0-7.844 3.828h32.026l-6.289-10.767 6.289-10.185h-15.583v14.7zm-16.953-.444l.684-.342h-.168zm.034.888q1.368-.82 2.085-1.23h-.273a7.477 7.477 0 0 0-1.812 1.23zm0 .65q1.537-.923 3.486-1.88h-.304a12.44 12.44 0 0 0-3.179 1.88zm-.034.752a55.356 55.356 0 0 1 5.058-2.632h-.478a21.423 21.423 0 0 0-4.58 2.632zm.034.683a59.548 59.548 0 0 1 6.7-3.315h-.683a23.467 23.467 0 0 0-6.016 3.315zm.068.684a59.769 59.769 0 0 1 8.511-4h-.991a39.713 39.713 0 0 0-7.52 4zm.069.683a61.97 61.97 0 0 1 10.527-4.682h-1.333a41.97 41.97 0 0 0-9.194 4.682zm.034.718a55.377 55.377 0 0 1 12.954-5.4H268.4a43.9 43.9 0 0 0-11.108 5.4zm.068.684a56.117 56.117 0 0 1 15.655-6.084h-2.462a42.871 42.871 0 0 0-13.194 6.084zM273 122h-49V95h49" fill="#258fa1" fill-rule="evenodd"/><path class="cls-1" d="M345.72 179.406l8.794 1.911-3.4 15.635-8.8-1.911z"/><path id="Rectangle_1_copy" data-name="Rectangle 1 copy" class="cls-1" d="M350.72 175.406l8.794 1.911-3.4 15.635-8.8-1.911z"/><path class="cls-1" d="M331.734 186.128l16.672-3.321.977 4.9-16.673 3.32zM351.914 172.723l4.7 3.732-6.22 7.83-4.7-3.732z"/><path fill="#d2232a" d="M342 183h5v4h-5z"/><path class="cls-1" d="M341.666 181.812l5.82-3.89 2.223 3.325-5.82 3.89zM396.025 160.441l12.053 2.586-5.378 25.044-12.052-2.586z"/><path class="cls-1" d="M385.875 172.58l10.727-2.435 1.617 7.122-10.727 2.433z"/><path class="cls-1" d="M394.665 166.142l5.669 1.965-3.6 10.393-5.669-1.965z"/><path id="Im_Hungry" data-name="Im Hungry" d="M107.114 21.257V71.3a.345.345 0 0 0 .391.391h5.976a.346.346 0 0 0 .391-.391V21.257a.4.4 0 0 0-.391-.391h-5.976a.4.4 0 0 0-.391.391zm7.734 1.8q3.711 3.984 3.985 3.984h.2v-1.018q-3.711-3.984-3.984-3.984h-.2v1.016zm0 2.383q3.711 3.984 3.985 3.984h.2V28.6a32.145 32.145 0 0 0-3.984-3.945h-.2v.781zm0 1.992q0 .86 3.985 4.57h.2v-1.018a32.145 32.145 0 0 0-3.984-3.945h-.2v.391zm0 2.969q3.711 3.984 3.985 3.984h.2v-1.019a32.145 32.145 0 0 0-3.984-3.945h-.2v.979zm0 2.383q3.711 3.984 3.985 3.984h.2v-.82A32.142 32.142 0 0 0 115.044 32h-.2v.781zm0 2.578q3.711 3.984 3.985 3.984h.2v-1.019a32.152 32.152 0 0 0-3.984-3.945h-.2v.977zm0 2.383q3.711 3.984 3.985 3.984h.2V40.71a32.145 32.145 0 0 0-3.984-3.945h-.2v.977zm0 2.383q3.711 3.984 3.985 3.984h.2v-.82a32.145 32.145 0 0 0-3.984-3.945h-.2v.781zm0 2.578q3.711 3.984 3.985 3.984h.2v-1.019a32.145 32.145 0 0 0-3.984-3.945h-.2v.974zm0 2.383q3.711 3.984 3.985 3.984h.2v-1.019a32.145 32.145 0 0 0-3.984-3.945h-.2v.977zm0 2.383q3.711 3.984 3.985 3.984h.2v-.82a32.145 32.145 0 0 0-3.984-3.945h-.2v.781zm0 2.578q3.711 3.984 3.985 3.984h.2v-1.019a32.142 32.142 0 0 0-3.984-3.945h-.2v.977zm0 1.8v.586q3.711 3.984 3.985 3.984h.2V55.4l-3.789-3.945a.4.4 0 0 0-.391.391zm0 2.969q3.711 3.984 3.985 3.984h.2v-.82a32.145 32.145 0 0 0-3.984-3.945h-.2v.781zm0 2.578q3.711 3.984 3.985 3.984h.2v-1.022a32.145 32.145 0 0 0-3.984-3.945h-.2v.976zm0 2.383q3.711 3.984 3.985 3.984h.2v-.82a32.145 32.145 0 0 0-3.984-3.945h-.2v.781zm0 2.383q3.711 3.984 3.985 3.984h.2v-.827a32.142 32.142 0 0 0-3.984-3.945h-.2v.781zm0 2.578q3.711 3.984 3.985 3.984h.2V67.7a32.152 32.152 0 0 0-3.984-3.945h-.2v.977zm0 2.383q3.711 3.984 3.985 3.984h.2v-.82a32.145 32.145 0 0 0-3.984-3.945h-.2v.781zm0 2.383q3.711 3.984 3.985 3.984h.2v-.82a32.145 32.145 0 0 0-3.984-3.945h-.2v.774zm0 2.578q3.711 3.984 3.985 3.984h.2v-1.023a32.145 32.145 0 0 0-3.984-3.945h-.2v.977zm-6.562.781q3.711 3.984 3.984 3.984h1.016v-.2q-3.711-3.984-3.984-3.984h-1.016v.2zm2.383 0q3.711 3.984 3.984 3.984h1.016v-.2q-3.712-3.984-3.985-3.984h-.584zm2.617 0q3.672 3.984 3.945 3.984h.782v-.2q-3.674-3.984-3.946-3.984h-.781v.2zm12.975-51.523V71.3a.363.363 0 0 0 .391.43h5.937a.364.364 0 0 0 .391-.43V39.109h.2l9.1 26.094h.2q.976-1.562 9.453-26.094h.195V71.3a.38.38 0 0 0 .43.43h5.9a.363.363 0 0 0 .391-.43V21.335a.4.4 0 0 0-.391-.391h-6.914q-.39 0-8.867 24.492h-.195q-4.181-11.991-4.57-12.461-3.868-12.031-4.532-12.031h-6.718a.4.4 0 0 0-.391.391zm33.4 1.172v.234q3.869 4.141 4.141 4.141H164v-.59l-3.945-4.18a.369.369 0 0 0-.391.391zm0 2.578q3.869 4.141 4.141 4.141H164v-.789a40.388 40.388 0 0 0-4.14-4.141h-.2v.781zm-19.57 4.961q0-1.913-3.75-4.961 0 1.914 3.75 4.961zm19.57-2.969q0 .9 3.946 4.726a.345.345 0 0 0 .39-.391v-.593l-3.945-4.141a.369.369 0 0 0-.391.391zm-18.2 6.719V33.6q0-1.406-3.75-4.57 0 1.68 3.75 4.766zm18.2-4.375v.625q3.869 4.141 4.141 4.141H164v-.985l-3.945-4.18a.369.369 0 0 0-.391.391zm0 2.969q3.869 4.141 4.141 4.141H164v-.79a40.388 40.388 0 0 0-4.14-4.141h-.2v.782zm-16.992 4.961h.2q0-1.327-3.75-4.57 0 1.641 3.554 4.57zm16.992-2.969q0 .9 3.946 4.727a.345.345 0 0 0 .39-.391v-.594l-3.945-4.141a.369.369 0 0 0-.391.391zm0 2.383v.586q3.869 4.141 4.141 4.141H164v-.985l-3.945-4.18a.388.388 0 0 0-.391.43zm-16.6 3.75a.869.869 0 0 0 .586-.625v-.2a23.808 23.808 0 0 0-3.164-3.164h-.2q0 1.328 2.774 3.984zm16.6-.82q3.869 4.18 4.141 4.18H164v-.82a40.388 40.388 0 0 0-4.14-4.141h-.2v.781zm-17.187 2.578a.879.879 0 0 0 .586-.586v-.2a3.366 3.366 0 0 1-.977-1.172h-.429a4.234 4.234 0 0 0 .82 1.953zm17.187-.586v.586q3.869 4.141 4.141 4.141H164v-.985l-3.95-4.137a.369.369 0 0 0-.391.391zm0 2.383v.586q3.867 4.136 4.139 4.136h.2v-.98l-3.945-4.141a.369.369 0 0 0-.391.391zm-25.7 1.758a.88.88 0 0 0 .586.586q0-1.445-.586-1.562v.977zm16.8-.2h.391v-.59h-.391v.586zM159.659 47q3.869 4.18 4.141 4.18h.2v-.82a40.388 40.388 0 0 0-4.14-4.141h-.2V47zm-9.492.43a1.323 1.323 0 0 0 .781.781h.2v-.977a.908.908 0 0 0-.586-.625h-.391v.82zm-16.211.781a8.327 8.327 0 0 0 1.993 1.953 3.448 3.448 0 0 0-1.8-2.734h-.2v.78zm15.43.781a6.09 6.09 0 0 0 1.562 1.563h.2v-.782l-1.172-1.562a.937.937 0 0 0-.586.781zm10.273 0v.586q3.869 4.141 4.141 4.141h.2v-.978l-3.95-4.141a.369.369 0 0 0-.391.391zm-25.7 1.8a23.644 23.644 0 0 0 3.164 3.125h.2q0-1.562-3.164-4.141h-.2v1.016zm14.805 0a10.005 10.005 0 0 0 2.187 2.148h.2v-.784a9.44 9.44 0 0 0-1.953-1.992H149a1.336 1.336 0 0 1-.234.625zm10.9 1.172q3.864 4.136 4.136 4.136h.2v-.78a40.388 40.388 0 0 0-4.14-4.141h-.2v.781zm-11.484.391v.391a15.9 15.9 0 0 0 2.773 2.773h.2v-.981q-2.267-2.578-2.578-2.578a.4.4 0 0 0-.391.391zm-14.219.781a36.466 36.466 0 0 0 3.946 3.945h.2V56.1a31.757 31.757 0 0 0-3.945-3.945h-.2v.976zm25.7 1.211q3.869 4.141 4.141 4.141H164V57.7a40.537 40.537 0 0 0-4.14-4.18h-.2v.82zm-12.07-.234v.43a26.72 26.72 0 0 0 3.359 3.359h.2v-.82l-3.164-3.359a.4.4 0 0 0-.391.391zm-13.633 1.406a36.47 36.47 0 0 0 3.942 3.941h.2v-.781a31.757 31.757 0 0 0-3.945-3.945h-.2v.781zm12.85.581v.2q3.867 4.141 4.14 4.141h.2v-.981l-3.75-3.945a.881.881 0 0 0-.586.586zm12.851.2v.586q3.869 4.141 4.141 4.141h.2v-.981l-3.945-4.141a.369.369 0 0 0-.391.391zm-25.7 1.8l3.75 3.945a.346.346 0 0 0 .391-.391v-.631a31.757 31.757 0 0 0-3.945-3.945h-.2v1.016zm12.266-.2v.2l4.141 4.336a1.038 1.038 0 0 0 .585-.781l-4.14-4.375a.871.871 0 0 0-.586.625zm13.437.781v.586q3.869 4.141 4.141 4.141H164v-.784l-3.945-4.336a.369.369 0 0 0-.391.391zm-25.9.781q0 1.328 4.141 4.922h.2v-.978l-3.945-4.141zm11.875.391q3.867 4.141 4.141 4.141h.39v-.588a40.388 40.388 0 0 0-4.14-4.141h-.391v.586zm14.023 1.406v.391q3.869 4.141 4.141 4.141H164v-.784l-3.945-4.18a.388.388 0 0 0-.391.43zm-14.648.586q3.906 4.141 4.18 4.141a.345.345 0 0 0 .39-.391V65.2q-3.906-4.179-4.179-4.18h-.391v.82zm-11.055.977a36.461 36.461 0 0 0 3.946 3.945h.2v-.783a31.757 31.757 0 0 0-3.945-3.945h-.2v.781zm10.274.586l4.14 4.336a.9.9 0 0 0 .629-.588v-.2l-4.179-4.336a1.036 1.036 0 0 0-.586.781zm15.429.2v.586l3.946 4.18a.363.363 0 0 0 .39-.43v-.593l-3.946-4.141a.369.369 0 0 0-.391.391zm-25.7 1.8a36.47 36.47 0 0 0 3.946 3.945h.2v-.987q-3.672-3.984-3.945-3.984h-.2V65.4zm9.688-.391v.2l4.14 4.336a.346.346 0 0 0 .391-.391v-.405q-3.867-4.179-4.141-4.18a.417.417 0 0 0-.39.43zm16.015 1.563q3.869 4.141 4.141 4.141H164v-.792a40.388 40.388 0 0 0-4.14-4.141h-.2v.782zm-25.7 1.172a36.684 36.684 0 0 0 3.946 3.984h.2V70.71a31.763 31.763 0 0 0-3.945-3.945h-.2v.977zm25.7.82v.2q0 .508 3.946 4.531A.345.345 0 0 0 164 72.9v-.588l-3.945-4.141a.369.369 0 0 0-.391.391zm-25.7 1.563a36.47 36.47 0 0 0 3.937 3.935h.2v-.782a31.757 31.757 0 0 0-3.945-3.945h-.2v.781zm25.7.781v.586q3.869 4.18 4.141 4.18H164v-.82a42.474 42.474 0 0 0-3.945-4.336.369.369 0 0 0-.391.391zm-25.7 1.8a36.466 36.466 0 0 0 3.946 3.945h.2v-.99a31.757 31.757 0 0 0-3.945-3.945h-.2v.974zm-6.523 0q3.906 4.141 4.18 4.141h.195v-.2q-3.907-4.14-4.18-4.141h-.195v.2zm1.8 0q3.867 4.141 4.14 4.141h.782v-.2q-3.868-4.14-4.141-4.141h-.791v.2zm2.383 0q3.867 4.141 4.14 4.141h.586l.391-.2q-3.6-4.14-4.727-4.141h-.39v.2zm21.914 0q3.867 4.141 4.14 4.141h.586l.391-.2-4.154-4.15h-.586zm2.343 0q4.023 4.141 4.18 4.141h.586l.391-.2q-3.868-4.14-4.141-4.141h-.596zm2.578 0a40.236 40.236 0 0 0 4.141 4.141h.82v-.2q-3.906-4.14-4.179-4.141h-.782v.2zm37.708-51.367V71.3a.345.345 0 0 0 .391.391h5.937a.363.363 0 0 0 .43-.391V48.679h8.32V71.3a.345.345 0 0 0 .391.391h5.938a.345.345 0 0 0 .39-.391V21.335a.4.4 0 0 0-.39-.391h-5.938a.369.369 0 0 0-.391.391v20.82h-8.32v-20.82a.418.418 0 0 0-.43-.391h-5.937a.4.4 0 0 0-.391.391zm7.735 2.773l3.75 3.984a.345.345 0 0 0 .39-.391v-.638q-3.672-3.945-3.945-3.945h-.2v.976zm15.078.2q3.671 3.984 3.945 3.984h.2v-.82a36.715 36.715 0 0 0-3.945-3.945h-.195v.759zm-15.078 2.188a36.745 36.745 0 0 0 3.945 3.984h.195V29.46q-3.672-3.945-3.945-3.945h-.2v.976zm15.078.391q3.671 3.984 3.945 3.984h.2v-1.034a36.715 36.715 0 0 0-3.945-3.945h-.195v.977zm-15.078 1.992a36.518 36.518 0 0 0 3.945 3.945h.195v-.8q-3.672-3.945-3.945-3.945h-.2v.781zm15.078.391q3.671 3.984 3.945 3.984h.2v-.82a36.715 36.715 0 0 0-3.945-3.945h-.195v.781zm-15.078 2.188a36.53 36.53 0 0 0 3.945 3.945h.195v-.996q-3.672-3.945-3.945-3.945h-.2v.977zm15.078.2q3.671 3.984 3.945 3.984h.2v-.82a36.715 36.715 0 0 0-3.945-3.945h-.195v.781zm-15.078 2.188a36.53 36.53 0 0 0 3.945 3.945h.195V36.8q-3.672-3.984-3.945-3.984h-.2v1.016zm15.078.391q3.671 3.946 3.945 3.945h.2v-1.001a36.712 36.712 0 0 0-3.945-3.945h-.195v.977zm-15.078 1.992a36.53 36.53 0 0 0 3.945 3.945h.195v-.806q-3.672-3.984-3.945-3.984h-.2v.82zm15.078.391q3.671 3.946 3.945 3.945h.2v-.806a36.715 36.715 0 0 0-3.945-3.945h-.195v.781zM203.891 38.8a11.88 11.88 0 0 0 2.382 2.383h.977v-.2a23.973 23.973 0 0 0-3.164-3.2h-.2V38.8zm15.078.391l3.75 3.945a.345.345 0 0 0 .39-.391v-.589a36.858 36.858 0 0 0-3.945-3.984h-.195v1.016zm-15.078 1.563a.363.363 0 0 0 .39.43h.586v-.2a1.349 1.349 0 0 0-.781-.82h-.2v.586zm15.078.82q3.671 3.946 3.945 3.945h.2v-.981a36.87 36.87 0 0 0-3.945-3.984h-.195v1.016zm0 2.383q3.671 3.946 3.945 3.945h.2v-.786a36.87 36.87 0 0 0-3.945-3.984h-.195v.82zm0 2.578q3.671 3.946 3.945 3.945h.2v-.98a36.862 36.862 0 0 0-3.945-3.984h-.195v1.016zm0 2.344q3.671 3.984 3.945 3.984h.2v-.981a36.862 36.862 0 0 0-3.945-3.984h-.195v.977zm-13.711 1.011a32.09 32.09 0 0 0 3.984 3.945h.586l.391-.2a36.663 36.663 0 0 0-3.946-3.945h-1.015v.2zm2.383 0a11.884 11.884 0 0 0 2.382 2.383h.2v-1.016a6.1 6.1 0 0 0-1.563-1.563h-1.015v.2zm-3.75.977a36.745 36.745 0 0 0 3.945 3.984h.195v-.82q-3.672-3.945-3.945-3.945h-.2v.781zm15.078.391q3.671 3.984 3.945 3.984h.2v-.782a36.858 36.858 0 0 0-3.945-3.984h-.195v.781zm-15.078 2.188a36.749 36.749 0 0 0 3.945 3.984h.195v-1.017q-3.672-3.945-3.945-3.945h-.2v.977zm15.078.391q3.671 3.984 3.945 3.984h.2V56.8a36.715 36.715 0 0 0-3.945-3.945h-.195v.977zm-15.078 1.992a36.749 36.749 0 0 0 3.945 3.984h.195v-.82q-3.672-3.945-3.945-3.945h-.2v.781zm15.078.391q3.671 3.984 3.945 3.984h.2v-1.017a36.715 36.715 0 0 0-3.945-3.945h-.195v.977zm-15.078 1.99a36.53 36.53 0 0 0 3.945 3.945h.195v-.781q-3.672-3.945-3.945-3.945h-.2v.781zm15.078.39q3.671 3.984 3.945 3.984h.2v-.82a36.724 36.724 0 0 0-3.945-3.945h-.195v.781zm-15.078 2.188a36.53 36.53 0 0 0 3.945 3.945h.195v-.976q-3.672-3.945-3.945-3.945h-.2v.977zm15.078.391q3.671 3.984 3.945 3.984h.2v-1.015a36.715 36.715 0 0 0-3.945-3.945h-.195v.977zm-15.078 1.992a36.53 36.53 0 0 0 3.945 3.945h.195v-.781q-3.672-3.945-3.945-3.945h-.2v.781zm15.078.391q3.671 3.946 3.945 3.945h.2v-.976a36.715 36.715 0 0 0-3.945-3.945h-.195v.977zm-15.078 1.992q.234.625 3.945 3.945h.195v-.781q-3.672-3.984-3.945-3.984h-.2v.82zm15.078.391q3.671 3.946 3.945 3.945h.2v-.781a36.715 36.715 0 0 0-3.945-3.945h-.195v.781zm-15.078 2.188a36.527 36.527 0 0 0 3.945 3.945h.195V71.1q-3.672-3.984-3.945-3.984h-.2v1.016zm15.078.391q3.671 3.946 3.945 3.945h.2v-.978a36.862 36.862 0 0 0-3.945-3.984h-.195v1.016zm-15.078 1.992a36.53 36.53 0 0 0 3.945 3.945h.195v-.782q-3.672-3.984-3.945-3.984h-.2v.82zm15.078.391q3.671 3.946 3.945 3.945h.2v-.782a36.862 36.862 0 0 0-3.945-3.984h-.195v.82zM203.7 72.9a36.47 36.47 0 0 0 3.946 3.945.345.345 0 0 0 .39-.391v-.392q-3.672-3.984-3.945-3.984h-.2a1.664 1.664 0 0 1-.2.82zm14.844-.234v.234a32.09 32.09 0 0 0 3.984 3.945h.2a.345.345 0 0 0 .39-.391l-3.75-3.984a5.607 5.607 0 0 1-.82.2zm-19.614.234a32.006 32.006 0 0 0 3.984 3.945h.786v-.2q-3.711-3.984-3.984-3.984h-.786v.239zm2.383 0a36.53 36.53 0 0 0 3.945 3.945h1.015v-.2q-3.711-3.984-3.984-3.984h-.976v.239zm12.3 0q3.672 3.946 3.946 3.945h.781v-.2q-3.672-3.984-3.945-3.984h-.782v.239zm2.344 0a32.09 32.09 0 0 0 3.984 3.945h.977v-.2q-3.672-3.984-3.945-3.984h-1.016v.239zm-14.844 3.75h.2a33.22 33.22 0 0 0-3.75-3.75h-.235a29.119 29.119 0 0 0 3.789 3.75zm29.538-55.391V65.32q1.484 6.367 6.953 6.367h8.945q5.937-1.836 5.938-7.734v-42.7a.4.4 0 0 0-.391-.391h-5.977a.4.4 0 0 0-.39.391v40.7q0 3.164-2.188 3.164H239.8q-2.382-.195-2.382-1.992V21.257a.4.4 0 0 0-.391-.391h-5.977a.4.4 0 0 0-.39.391zm8.32 1.406v-.2a.416.416 0 0 0-.391-.43h-.195a.9.9 0 0 0 .586.625zm14.492-.391q3.711 3.946 3.985 3.945v-.2q-3.712-3.984-3.985-3.984v.234zm-15.269 1.366v.586q3.906 4.18 4.179 4.18h.2v-.977l-3.985-4.18a.4.4 0 0 0-.39.391zm15.078.391v.625l3.984 4.141a.346.346 0 0 0 .391-.391v-.586l-3.984-4.18a.4.4 0 0 0-.391.391zm-15.078 2.578q3.906 4.18 4.179 4.18h.2v-.782q-3.907-4.179-4.18-4.18h-.2v.781zm15.078.43q3.906 4.141 4.18 4.141h.195v-.78q-3.906-4.179-4.18-4.18h-.2v.82zm-15.078 2.148l3.984 4.18a.346.346 0 0 0 .391-.391v-.586q-3.907-4.179-4.18-4.18h-.2v.976zm15.078-.2v.625l.628.588a29.228 29.228 0 0 1 3.359 3.555.346.346 0 0 0 .391-.391v-.583l-3.984-4.18a.4.4 0 0 0-.391.391zm-15.078 1.992v.591q3.906 4.18 4.179 4.18h.2v-.977l-3.985-4.18a.4.4 0 0 0-.39.391zm15.078.391V32q3.906 4.141 4.18 4.141h.195v-.978l-3.984-4.18a.4.4 0 0 0-.391.391zm-15.078 2.578q3.906 4.18 4.179 4.18h.2v-.777q-3.907-4.179-4.18-4.18h-.2v.781zm15.078.43q3.906 4.141 4.18 4.141h.195v-.778q-3.906-4.179-4.18-4.18h-.2v.82zm-15.078 2.149l3.984 4.18a.346.346 0 0 0 .391-.391v-.582q-3.907-4.179-4.18-4.18h-.2v.977zm15.078.43l3.984 4.141a.346.346 0 0 0 .391-.391v-.583q-3.906-4.179-4.18-4.18h-.2v1.016zm-15.078 1.367v.586q3.906 4.18 4.179 4.18h.2v-.974l-3.985-4.18a.4.4 0 0 0-.39.391zm15.078.391v.625q3.906 4.141 4.18 4.141h.195v-.974l-3.984-4.18a.4.4 0 0 0-.391.391zM238.194 41.3q3.906 4.18 4.179 4.18h.2v-.785q-3.907-4.179-4.18-4.18h-.2v.785zm15.078.43q3.906 4.141 4.18 4.141h.195v-.786q-3.906-4.179-4.18-4.18h-.2v.82zm-15.078 2.148l3.984 4.18a.346.346 0 0 0 .391-.391v-.59q-3.907-4.179-4.18-4.18h-.2v.977zm15.078.43l3.984 4.141a.346.346 0 0 0 .391-.391v-.59q-3.906-4.179-4.18-4.18h-.2V44.3zm-15.078 1.953q3.906 4.18 4.179 4.18h.2v-.785a34.34 34.34 0 0 0-4.18-4.18h-.2v.781zm15.078-.2v.625q3.906 4.141 4.18 4.141h.195v-.976l-3.984-4.18a.4.4 0 0 0-.391.391zm-15.078 2.579q3.906 4.18 4.179 4.18h.2v-.782q-3.907-4.179-4.18-4.18h-.2v.782zm15.078.43q3.906 4.141 4.18 4.141h.195v-.782q-3.906-4.179-4.18-4.18h-.2v.82zm-15.078 1.563v.586l3.984 4.18a.346.346 0 0 0 .391-.391v-.587l-3.985-4.18a.4.4 0 0 0-.39.391zm15.078 1.016l3.984 4.141a.346.346 0 0 0 .391-.391v-.587q-3.906-4.179-4.18-4.18h-.2v1.016zM238.194 53.6q3.906 4.18 4.179 4.18h.2V57q-3.907-4.179-4.18-4.18h-.2v.78zm15.078-.2v.625q3.906 4.141 4.18 4.141h.195v-.971l-3.984-4.18a.4.4 0 0 0-.391.391zm-15.078 2.578q3.906 4.18 4.179 4.18h.2v-.776q-3.907-4.179-4.18-4.18h-.2v.781zm15.078.43q3.906 4.141 4.18 4.141h.195v-.776q-3.906-4.179-4.18-4.18h-.2v.82zm-15.078 1.563v.586l3.984 4.18a.346.346 0 0 0 .391-.391v-.581l-3.985-4.18a.4.4 0 0 0-.39.391zm15.078 1.016l3.984 4.141a.346.346 0 0 0 .391-.391v-.581q-3.906-4.179-4.18-4.18h-.2v1.016zm-15.078 1.953a23.924 23.924 0 0 0 3.164 3.2h.82v-.2a29.286 29.286 0 0 0-3.789-3.789h-.2v.781zm15.078.43q3.906 4.141 4.18 4.141h.195v-.777q-3.829-4.179-4.18-4.18h-.2v.82zm-15.078 1.367a1.534 1.534 0 0 0 1.6 1.6.173.173 0 0 1 .2-.2 5.575 5.575 0 0 0-1.6-1.6h-.2v.2zm15.078 1.016q3.906 4.141 4.18 4.141h.195v-.778q-3.906-4.179-4.18-4.18h-.2v.82zm-.195 2.383l4.179 4.336a.346.346 0 0 0 .391-.391V69.5q-3.906-4.179-4.18-4.18h-.2a1.664 1.664 0 0 1-.195.82zm-.391 1.953q3.906 4.18 4.18 4.18a.345.345 0 0 0 .39-.391v-.2a37.208 37.208 0 0 0-4.179-4.375h-.391v.781zm-.977 1.211v.2a44.366 44.366 0 0 0 4.336 4.375.363.363 0 0 0 .43-.391v-.2q-4.1-4.374-4.375-4.375a.369.369 0 0 0-.391.391zm-1.209 1.371v.234q4.1 4.336 4.375 4.336a.878.878 0 0 0 .586-.586q-4.1-4.374-4.375-4.375h-.195a.4.4 0 0 0-.391.391zm-1.367 1.211a40.389 40.389 0 0 0 4.141 4.18h.626v-.391q-3.906-4.179-4.18-4.18h-.586v.391zm-1.992.586l4.141 4.375 1.015-.2v-.2l-4.179-4.375a2.078 2.078 0 0 0-.977.391zm-11.328.2q2.5 2.774 2.969 2.773h.195a18.2 18.2 0 0 0-2.969-2.969h-.195v.2zm1.992.2q3.711 3.984 3.985 3.984h.976v-.2q-3.711-3.984-3.984-3.984h-.982v.2zm2.383 0q3.711 3.984 3.984 3.984h.977v-.2a32.352 32.352 0 0 0-3.984-3.984h-.977v.2zm2.578 0q3.711 3.984 3.984 3.984h.782v-.2q-3.713-3.984-3.985-3.984h-.781v.2zm2.383 0q3.711 3.984 3.984 3.984h.977v-.2q-3.712-3.984-3.985-3.984h-.976v.2zm21.061-51.523V71.3a.363.363 0 0 0 .39.43h5.938a.364.364 0 0 0 .391-.43V44.46h.195q3.553 13.008 3.75 13.008 3.633 13.79 4.336 14.258h6.328a.364.364 0 0 0 .391-.43V21.335a.4.4 0 0 0-.391-.391H281.6a.4.4 0 0 0-.39.391v26.68h-.2q-7.5-27.07-7.891-27.07H266.6a.4.4 0 0 0-.39.391zm22.732 3.155a32.545 32.545 0 0 0 3.946 4.141h.2v-.978a36.829 36.829 0 0 0-3.945-3.945h-.2v.782zm-13.437.391q0 1.641 3.75 4.726h.195q0-1.641-3.945-4.922v.2zm13.437 2.188q3.672 3.946 3.946 3.945h.2v-.978a36.984 36.984 0 0 0-3.945-3.984h-.2v1.016zm-8.906 5.9l.391-.2q0-1.289-3.946-4.727h-.195q0 1.368 3.75 4.922zm8.906-3.555q3.672 3.984 3.946 3.984h.2v-.82a36.829 36.829 0 0 0-3.945-3.945h-.2v.781zm0 2.578q3.672 3.946 3.946 3.945h.2v-.979a36.829 36.829 0 0 0-3.945-3.945h-.2V32zm-8.711 3.359h.2v-.784a18.2 18.2 0 0 0-2.969-2.969q0 1.641 2.773 3.75zm8.711-.977q3.672 3.946 3.946 3.945h.2v-.978a36.829 36.829 0 0 0-3.945-3.945h-.2v.976zm-10.469.781a3.981 3.981 0 0 0 1.563 2.773.346.346 0 0 0 .391-.391v-.587a9.425 9.425 0 0 0-1.954-1.992v.2zm10.469 1.6q3.672 3.946 3.946 3.945h.2v-.82a36.833 36.833 0 0 0-3.945-3.945h-.2v.82zm-9.687 1.758q.507 1.8.976 1.8h.2V39.3l-.782-.977zm9.687.781q3.672 3.946 3.946 3.945h.2v-.976a36.829 36.829 0 0 0-3.945-3.945h-.2v.972zm0 2.383q3.672 3.946 3.946 3.945h.2v-.976a36.829 36.829 0 0 0-3.945-3.945h-.2v.977zm0 2.383q3.672 3.946 3.946 3.945h.2v-.781a36.972 36.972 0 0 0-3.945-3.984h-.2v.82zm0 2.539q3.672 3.946 3.946 3.945h.2v-.977a36.825 36.825 0 0 0-3.945-3.945h-.2v.977zm0 2.383q3.672 3.946 3.946 3.945h.2v-.977a36.837 36.837 0 0 0-3.945-3.945h-.2v.977zm0 2.383q3.672 3.946 3.946 3.945h.2v-.782a36.972 36.972 0 0 0-3.945-3.984h-.2v.82zM273.9 53.523a1.5 1.5 0 0 0 .781.82h.2q-.2-1.8-.782-1.8h-.199v.977zm15.039.391q3.672 3.984 3.946 3.984h.2v-1.016a36.829 36.829 0 0 0-3.945-3.945h-.2v.977zM273.9 55.906a6.926 6.926 0 0 0 1.8 1.8h.2q0-1.328-1.8-2.578h-.2v.781zm15.042.394q3.672 3.946 3.946 3.945h.2v-.98a36.825 36.825 0 0 0-3.945-3.945h-.2v.98zM273.9 58.484a14.193 14.193 0 0 0 2.969 2.773q0-1.679-2.774-3.789h-.195v1.016zm15.039.2q3.672 3.946 3.946 3.945h.2v-.786a36.829 36.829 0 0 0-3.945-3.945h-.2v.781zM273.9 60.827a36.862 36.862 0 0 0 3.945 3.984q0-1.953-3.75-4.961h-.195v.977zm15.039.43q3.672 3.946 3.946 3.945h.2v-1.015a36.829 36.829 0 0 0-3.945-3.945h-.2v1.016zM273.9 63.21a36.643 36.643 0 0 0 3.945 3.945h.2v-.781q-3.672-3.945-3.946-3.945h-.199v.781zm15.042.39q3.672 3.946 3.946 3.945h.2v-.78a36.833 36.833 0 0 0-3.945-3.945h-.2v.78zM273.9 65.788a36.643 36.643 0 0 0 3.945 3.945h.2v-.976q-3.672-3.945-3.946-3.945h-.199v.977zm15.039.2q3.672 3.946 3.946 3.945h.2v-.785a36.829 36.829 0 0 0-3.945-3.945h-.2v.781zM273.9 68.171a36.643 36.643 0 0 0 3.945 3.945h.2V71.1q-3.672-3.945-3.946-3.945h-.199v1.016zm15.039.391q3.672 3.946 3.946 3.945h.2v-1.016a36.829 36.829 0 0 0-3.945-3.945h-.2v1.016zM273.9 70.515a36.643 36.643 0 0 0 3.945 3.945h.2v-.781q-3.672-3.945-3.946-3.945h-.199v.781zm15.039.391q3.672 3.946 3.946 3.945h.2v-.781a36.829 36.829 0 0 0-3.945-3.945h-.2v.781zm-15.429 1.8a40.18 40.18 0 0 0 4.14 4.141.346.346 0 0 0 .391-.391v-.394q-3.672-3.945-3.946-3.945h-.195q0 .586-.39.586zm-4.727 0q3.867 4.141 4.141 4.141h.781v-.2q-3.867-4.14-4.141-4.141h-.781v.2zm2.344 0q3.9 4.141 4.179 4.141h.594l.391-.2a40.205 40.205 0 0 0-4.141-4.141h-.586zm12.265 0q3.867 4.141 4.141 4.141h.781v-.2q-3.867-4.14-4.14-4.141h-.774v.2zm2.383 0q3.867 4.141 4.141 4.141h.586l.39-.2q-3.867-4.14-4.14-4.141h-.586zm2.344 0l4.141 4.141h.429a.346.346 0 0 0 .391-.391 36.825 36.825 0 0 0-3.945-3.945h-.625zm19.186-51.641q-5.938 1.875-5.938 7.5v36.012a6.539 6.539 0 0 0 .2 1.6q2.109 5.508 6.132 5.508h9.1q6.329-1.484 6.328-6.914V42.624a.368.368 0 0 0-.39-.391h-10.7a.4.4 0 0 0-.39.391v5.742a.345.345 0 0 0 .39.391h4.375V63.21q0 1.563-1.992 1.953h-4.14q-2.189 0-2.188-2.578V30.163a2.279 2.279 0 0 1 2.578-2.578h3.164q2.578 0 2.578 2.188v5.547a.345.345 0 0 0 .391.391h5.938a.345.345 0 0 0 .39-.391v-7.344q0-5.742-7.109-6.914h-8.711zm16.6 5.742a26.759 26.759 0 0 0 3.36 3.359v-.393q-.313-.859-3.36-3.555v.582zm-12.656 1.953a36.858 36.858 0 0 0 3.945 3.984.363.363 0 0 0 .43-.391v-.393a26.98 26.98 0 0 0-3.359-3.4h-1.016v.2zm2.383 0l1.562 1.8a.363.363 0 0 0 .43-.391 1.683 1.683 0 0 0-1.015-1.6h-.977v.2zm10.469.625a32 32 0 0 0 3.984 3.945h.195v-.784q-3.711-3.984-3.984-3.984h-.195v.82zm-14.805-.2q4.062 4.336 4.336 4.336a.346.346 0 0 0 .391-.391v-.2q-3.868-4.179-4.141-4.18h-.2a.387.387 0 0 0-.391.43zm-.234 2.344q3.709 3.984 3.984 3.984h.195V34.5a36.715 36.715 0 0 0-3.945-3.945h-.234v.977zm15.039-.2q0 1.016 3.984 4.57h.195V34.89a32.152 32.152 0 0 0-3.984-3.945h-.195v.391zm-15.039 2.578a32.006 32.006 0 0 0 3.984 3.945h.195v-.97a36.715 36.715 0 0 0-3.945-3.945h-.234v.977zm15.043.393q3.709 3.984 3.984 3.984h.195v-1.011a32.145 32.145 0 0 0-3.984-3.945h-.195v.972zm-15.039 2a32.006 32.006 0 0 0 3.984 3.945h.195v-.785a36.715 36.715 0 0 0-3.945-3.945h-.234v.785zm15.039.391a32.012 32.012 0 0 0 3.984 3.945h.195v-.785a32.145 32.145 0 0 0-3.984-3.945h-.195v.781zm-4.922 0q3.867 4.141 4.14 4.141h.586l.391-.2q-3.867-4.14-4.141-4.141h-.976v.2zm2.383 0q3.593 4.141 4.726 4.141l.391-.2q-3.867-4.14-4.141-4.141h-.586zm0 3.945v-.2a29.119 29.119 0 0 0-3.789-3.75h-.2q3.711 3.946 3.985 3.945zm-12.5-1.758a11.88 11.88 0 0 0 2.382 2.383h1.016v-.238a23.806 23.806 0 0 0-3.164-3.164h-.234v1.016zm0 2.383a6.319 6.319 0 0 0 1.6 1.563h.2v-.981a6.178 6.178 0 0 0-1.563-1.6h-.234v1.016zm0 2.344a6.38 6.38 0 0 0 1.6 1.6h.2v-.784a6.178 6.178 0 0 0-1.563-1.6h-.234v.779zm15.039.391q3.709 3.984 3.984 3.984h.195v-.629a32.145 32.145 0 0 0-3.984-3.945h-.195v.586zm-15.039 2.188l1.406 1.6a.364.364 0 0 0 .391-.43v-.589A6.114 6.114 0 0 0 309.3 45.2h-.234v.977zm15.039.391q3.709 3.984 3.984 3.984h.195v-1.021a32.145 32.145 0 0 0-3.984-3.945h-.195v.977zm-15.039 1.992a32 32 0 0 0 3.984 3.945h.195v-.786q-1.6-1.992-2.187-1.992a6.814 6.814 0 0 0-1.758-2.148h-.234v.977zm15.039.391a32.006 32.006 0 0 0 3.984 3.945h.195v-.982a32.145 32.145 0 0 0-3.984-3.945h-.195v.977zm-11.25 1.172h.39a.4.4 0 0 0-.39-.391v.391zm-3.789.82a32 32 0 0 0 3.984 3.945h.195v-.786a36.87 36.87 0 0 0-3.945-3.984h-.234v.82zm15.039.391a32.006 32.006 0 0 0 3.984 3.945h.195V54.5a32.145 32.145 0 0 0-3.984-3.945h-.195v.781zm-15.039 2.148q3.709 3.984 3.984 3.984h.195v-1.021a36.724 36.724 0 0 0-3.945-3.945h-.234v.977zm15.039.43a32.006 32.006 0 0 0 3.984 3.945h.195v-.982Q324.573 52.9 324.3 52.9h-.195v1.016zm-15.039 1.953q3.709 3.984 3.984 3.984h.195v-.82a36.982 36.982 0 0 0-3.945-4.146h-.234v.977zm15.039.391q3.709 3.984 3.984 3.984h.195v-1.021a32.145 32.145 0 0 0-3.984-3.945h-.195v.976zm-15.039 1.992a32 32 0 0 0 3.984 3.945h.195v-.787a36.715 36.715 0 0 0-3.945-3.945h-.234v.781zm15.039.391a32 32 0 0 0 3.984 3.945h.195V61.8a32.145 32.145 0 0 0-3.984-3.945h-.195v.785zm-15.039 2.188a26.205 26.205 0 0 0 3.593 3.555h.2a.345.345 0 0 0 .39-.391V63.8a36.715 36.715 0 0 0-3.945-3.945h-.234v.977zm15.039.391a32.006 32.006 0 0 0 3.984 3.945h.195v-.983a32.145 32.145 0 0 0-3.984-3.945h-.195v.977zm-15.039 1.985a3.243 3.243 0 0 0 1.211 1.172h.781v-.2a7.729 7.729 0 0 0-1.758-1.8h-.234v.82zm15.039.39a32.006 32.006 0 0 0 3.984 3.945h.195v-.78q-3.711-3.984-3.984-3.984h-.195v.819zm-.2 2.148q3.906 4.18 4.18 4.18h.195v-.78q-3.711-3.984-3.984-3.984h-.391v.586zm-.586 1.992a44.222 44.222 0 0 0 4.336 4.336.363.363 0 0 0 .43-.391V71.3q-3.906-4.14-4.18-4.141h-.39a1.5 1.5 0 0 1-.2.586zm-.781 1.6q4.062 4.336 4.336 4.336a.878.878 0 0 0 .586-.586q0-.156-4.336-4.375a.873.873 0 0 0-.586.625zm-.976 1.172v.2q3.867 4.141 4.14 4.141h.2a.345.345 0 0 0 .39-.391 43.935 43.935 0 0 0-4.336-4.336.368.368 0 0 0-.39.391zm-1.6 1.172a44.229 44.229 0 0 0 4.336 4.375h.202a.363.363 0 0 0 .43-.391v-.2q-3.906-4.179-4.18-4.18h-.39a.4.4 0 0 0-.391.391zm-1.6.82q3.9 4.141 4.179 4.141h.781v-.2q-4.062-4.374-4.335-4.375h-.2a.43.43 0 0 0-.429.43zm-11.641.2q3.164 3.555 3.945 3.555h.2v-.2a29.971 29.971 0 0 0-3.555-3.555h-.586v.2zm2.148.2q3.438 3.946 4.571 3.945h.39v-.2a36.724 36.724 0 0 0-3.945-3.945h-.585zm2.578 0q3.711 3.946 3.985 3.945h.781v-.2a36.724 36.724 0 0 0-3.945-3.945h-.821v.2zm2.383 0a36.47 36.47 0 0 0 3.946 3.945h1.015v-.2a32.152 32.152 0 0 0-3.984-3.945h-.977v.2zm2.383 0q3.436 3.75 4.141 3.945h.781v-.2q-3.672-3.945-3.945-3.945h-.586zm20.232-51.764V71.3a.345.345 0 0 0 .391.391h5.937a.363.363 0 0 0 .43-.391V49.89h1.172q.195 0 2.383 5.547 5.391 14.962 6.328 16.25h6.562l.391-.2q-7.734-20.234-8.125-21.6l.781-.2q5.547-1.875 5.547-6.953V28.093a8.865 8.865 0 0 0-.39-2.383q-1.837-4.96-7.93-4.961h-13.086a.4.4 0 0 0-.391.391zm22.578 5.352a20.929 20.929 0 0 0 3.2 3.164h.2q-.117-.742-3.4-3.555v.391zm-9.492 1.016q1.8 0 1.992 2.344v10.9a2.279 2.279 0 0 1-2.578 2.578H343.2V27.507h6.328zm9.492.781v.586q3.906 4.18 4.18 4.18h.2v-.43q0-.9-3.945-4.727a.416.416 0 0 0-.43.391zm-14.257.2q3.9 4.141 4.179 4.141h.782v-.2q-3.907-4.14-4.18-4.141h-.781v.2zm2.382 0a23.769 23.769 0 0 0 3.165 3.164h.195v-.982a11.892 11.892 0 0 0-2.383-2.383h-.977v.2zm2.579.2a.878.878 0 0 0 .586.586h.195v-.2a.882.882 0 0 0-.586-.586h-.2v.2zm-5.743.977q0 .938 3.946 4.766a.345.345 0 0 0 .39-.391v-.596l-3.945-4.18a.369.369 0 0 0-.391.391zm15.039 1.211v.391q3.906 4.141 4.18 4.141h.2v-.793l-3.945-4.141a.416.416 0 0 0-.43.391zm-15.039 1.172q0 1.133 4.141 4.766h.195v-.988l-3.945-4.18a.369.369 0 0 0-.391.391zm15.039 1.016q0 1.406 4.18 4.922h.2V37l-3.945-4.141zm-15.039 1.563v.391a40.389 40.389 0 0 0 4.141 4.18h.195v-.793l-3.945-4.18a.369.369 0 0 0-.391.391zm15.039 1.016v.586q3.906 4.141 4.18 4.141h.2v-.989l-3.945-4.18a.432.432 0 0 0-.43.43zM343.984 37q0 1.133 4.141 4.766h.195v-1.017l-3.945-4.141a.369.369 0 0 0-.391.391zm15.039 1.211v.389q3.906 4.141 4.18 4.141h.2v-.781l-3.945-4.18a.432.432 0 0 0-.43.43zm-15.039 1.172v.586a11.9 11.9 0 0 0 2.383 2.383h.977v-.2l-2.969-3.164a.369.369 0 0 0-.391.391zm15.039 1.172q0 1.133 4.18 4.766h.2v-.978l-3.945-4.18a.416.416 0 0 0-.43.391zm-15.039 1.405a.345.345 0 0 0 .391.391h.391v-.2l-.391-.586a.369.369 0 0 0-.391.391zm15.039.977v.625q3.906 4.141 4.18 4.141h.2v-.782l-3.945-4.375a.416.416 0 0 0-.43.391zm-.39 2.383v.2l4.18 4.375a.345.345 0 0 0 .39-.391v-.395q-3.906-4.179-4.18-4.18a.4.4 0 0 0-.39.391zm-.781 1.8v.2l4.179 4.375a.869.869 0 0 0 .586-.625v-.2l-4.179-4.336a.881.881 0 0 0-.586.586zm-1.172 1.367q4.062 4.375 4.336 4.375h.195a.346.346 0 0 0 .391-.391q-4.063-4.374-4.336-4.375h-.2a.368.368 0 0 0-.39.391zm-1.211 1.211q4.1 4.336 4.375 4.336a.345.345 0 0 0 .39-.391v-.2q-3.906-4.14-4.179-4.141h-.586v.391zm-1.8.781l4.18 4.375a2.076 2.076 0 0 0 .976-.391q-4.063-4.374-4.336-4.375h-.189zm0 1.6q0 1.328 3.594 4.336h.195q0-1.289-3.789-4.531v.2zm-9.688.391a1.658 1.658 0 0 0 .977 1.563h.195l-.781-1.953a.369.369 0 0 0-.391.391zm0 2.383v.586a13.808 13.808 0 0 0 2.579 2.578q0-1.524-2.188-3.555a.369.369 0 0 0-.391.391zm14.844 5.742h.2q0-1.6-3.75-4.766h-.2q0 1.523 3.75 4.766zm-14.844-3.164v.389a36.466 36.466 0 0 0 3.946 3.945v-.2q0-1.172-3.555-4.531a.369.369 0 0 0-.391.391zm0 2.383q0 1.134 4.141 4.727h.195v-.979q-3.672-3.945-3.945-3.945zm16.446 4.727q0-1.836-3.75-4.922h-.235q0 1.563 3.985 4.922zm-16.446-2.344v.586a40.24 40.24 0 0 0 4.141 4.141h.195v-.979l-3.945-4.18a.388.388 0 0 0-.391.43zm17.819 6.13q0-1.641-3.555-4.57h-.195q0 1.329 3.75 4.57zm-17.813-3.594v.43a40.24 40.24 0 0 0 4.141 4.141h.195v-.781l-3.945-4.18a.369.369 0 0 0-.391.391zm0 2.383q0 1.133 4.141 4.766h.195v-.976l-3.945-4.18a.369.369 0 0 0-.391.391zm15.664.625q0 1.563 3.75 4.727 0-1.913-3.75-4.922v.2zM343.984 69.5v.586a40.4 40.4 0 0 0 4.141 4.18h.195v-.978l-3.945-4.18a.369.369 0 0 0-.391.391zm20.821 6.758H365q0-1.6-3.789-4.766h-.195q0 1.641 3.789 4.766zm-20.821-4.375q0 1.134 4.141 4.766h.195v-.783l-3.945-4.18zm-4.765.781q3.906 4.18 4.179 4.18h.586l.391-.2q-3.906-4.179-4.18-4.18h-.976v.2zm2.383 0a40.333 40.333 0 0 0 4.14 4.18h1.016v-.2q-3.907-4.179-4.18-4.18h-.586zm12.3 0q3.867 4.18 4.141 4.18h.586l.39-.2q-3.867-4.179-4.14-4.18h-.579zm2.344 0q3.906 4.18 4.18 4.18h.976v-.2q-3.867-4.179-4.14-4.18h-.582zm2.578 0q3.906 4.18 4.18 4.18h.781v-.2a40.344 40.344 0 0 0-4.141-4.18h-.82v.2zM341.6 76.648h.2a36.858 36.858 0 0 0-3.945-3.984h-.235q3.711 3.984 3.985 3.984zm24.984-55.586q7.539 26.329 7.734 28.2V71.3a.345.345 0 0 0 .391.391h5.977a.345.345 0 0 0 .39-.391V49.265q0-1.367 7.735-28.008a.4.4 0 0 0-.391-.391h-6.367q-.469 0-4.141 14.3h-.43q-3.672-14.3-4.14-14.3h-6.367zm23.242.977q3.672 3.984 3.945 3.984v-.2a36.862 36.862 0 0 0-3.945-3.984v.2zm-.82 1.6l4.18 4.375a.937.937 0 0 0 .585-.781l-4.179-4.375a1.035 1.035 0 0 0-.586.781zM378.7 28.015h.2a1.486 1.486 0 0 1 .195-.586q0-.586-3.555-3.789h-.195q0 1.6 3.359 4.375zm9.922-2.774v.391q3.906 4.18 4.18 4.18h.195a1.505 1.505 0 0 1 .2-.625l-4.18-4.336a.4.4 0 0 0-.391.391zm-.586 2.383q3.906 4.141 4.18 4.141a.346.346 0 0 0 .391-.391v-.39q-3.907-4.179-4.18-4.18h-.391v.82zm-9.922 2.188h.386v-.625a8.372 8.372 0 0 0-1.992-1.953h-.195q0 1.328 1.8 2.578zm9.336-.625v.234l4.141 4.336a.346.346 0 0 0 .391-.391v-.585l-3.946-4.18a.883.883 0 0 0-.586.586zm-9.961 2.383h.43v-.586a.418.418 0 0 0-.43-.391h-.195zm9.336-.391q4.1 4.375 4.375 4.375h.2a1.486 1.486 0 0 1 .195-.586q-4.1-4.374-4.375-4.375h-.195a1.5 1.5 0 0 1-.2.586zm-.39 1.6v.586l3.984 4.18a.878.878 0 0 0 .581-.585v-.2l-4.18-4.375a.4.4 0 0 0-.39.391zm-.586 1.992v.391q3.906 4.18 4.179 4.18h.391v-.82q-3.906-4.14-4.18-4.141a.368.368 0 0 0-.39.391zm-.586 1.992v.2L389.4 41.3a.363.363 0 0 0 .43-.391v-.394q-3.906-4.179-4.18-4.18a.387.387 0 0 0-.39.43zm-.625 2.148l4.18 4.375a.937.937 0 0 0 .585-.781l-4.14-4.375a1 1 0 0 0-.625.781zm-.391 1.992q3.906 4.18 4.18 4.18a.346.346 0 0 0 .391-.391V44.3q-3.907-4.179-4.18-4.18h-.391v.781zm-.586 1.8q3.906 4.18 4.18 4.18h.391v-.626q-3.907-4.14-4.18-4.141h-.391v.584zm-.586 1.8q0 .391 4.141 4.57a.38.38 0 0 0 .43-.43v-.589q-3.908-4.179-4.18-4.18h-.195a1.518 1.518 0 0 1-.2.625zm-.586 1.992q4.064 4.336 4.336 4.336h.2a1.485 1.485 0 0 1 .195-.586q0-.39-4.141-4.57a.974.974 0 0 0-.586.82zm-.429 1.563v.391q3.9 4.18 4.179 4.18a.346.346 0 0 0 .391-.391v-.2l-4.141-4.375a.415.415 0 0 0-.429.391zm0 2.969q3.709 3.984 3.984 3.984h.195v-.98q-3.711-3.984-3.984-3.984h-.195v.977zm0 2.383q3.709 3.984 3.984 3.984h.195v-.785q-3.711-3.984-3.984-3.984h-.195v.781zm0 2.383q3.709 3.984 3.984 3.984h.195v-.786q-3.711-3.984-3.984-3.984h-.195v.781zm0 2.578q3.709 3.984 3.984 3.984h.195v-.981q-3.711-3.984-3.984-3.984h-.195v.977zm0 2.383q3.709 3.984 3.984 3.984h.195v-.786q-3.711-3.984-3.984-3.984h-.195v.781zm0 2.383q3.709 3.984 3.984 3.984h.195v-.786q-3.711-3.984-3.984-3.984h-.195v.781zm0 2.578q3.709 3.984 3.984 3.984h.195v-.981q-3.711-3.984-3.984-3.984h-.195v.976zm0 2.383q3.709 3.984 3.984 3.984h.195V71.3q-3.711-3.984-3.984-3.984h-.195v.781zm0 2.578l3.789 3.984a.345.345 0 0 0 .39-.391v-.59q-3.711-3.984-3.984-3.984h-.195v.977zm-.2 2.188q3.711 3.984 3.985 3.984a.345.345 0 0 0 .39-.391v-.395q-3.711-3.984-3.984-3.984h-.195a1.583 1.583 0 0 1-.2.781zm-4.961 0q3.711 3.984 3.985 3.984h.976v-.2a36.858 36.858 0 0 0-3.945-3.984H376.9v.2zm2.579 0q3.71 3.984 3.984 3.984h.781v-.2a36.858 36.858 0 0 0-3.945-3.984h-.82v.2zm-.2 3.789h.2a33.423 33.423 0 0 0-3.75-3.789h-.2a33.368 33.368 0 0 0 3.75 3.789z" fill-rule="evenodd"/></svg>