<svg width="47" height="47" xmlns="http://www.w3.org/2000/svg"><path fill="none" d="M-1-1h49v49H-1z"/><g><path stroke="#fff" fill="#d2232a" d="M23.442 1.004C13.274 1.004 5.03 9.247 5.03 19.415c0 9.224 11.47 21.36 16.305 26.065a3.088 3.088 0 0 0 4.263.047c4.863-4.533 16.254-16.211 16.254-26.113-.001-10.167-8.243-18.41-18.411-18.41zm0 24.393c-4.204 0-7.61-3.406-7.61-7.609a7.61 7.61 0 1 1 15.218 0 7.607 7.607 0 0 1-7.608 7.609z"/><ellipse ry="8.886" rx="8.886" cy="18.089" cx="23.664" fill="#d2232a"/></g></svg>